<?xml version="1.0" encoding="UTF-8"?>
<svg id="Layer_1" xmlns="http://www.w3.org/2000/svg" xmlns:xlink="http://www.w3.org/1999/xlink" version="1.1" viewBox="0 0 720 576">
  <!-- Generator: Adobe Illustrator 29.5.1, SVG Export Plug-In . SVG Version: 2.1.0 Build 141)  -->
  <defs>
    <style>
      .st0, .st1 {
        fill: none;
      }

      .st2 {
        fill: #f5fafe;
      }

      .st3 {
        font-family: Helvetica, Helvetica;
        font-size: 10px;
      }

      .st4 {
        stroke: #262626;
      }

      .st4, .st5 {
        fill: #262626;
      }

      .st4, .st1 {
        stroke-linejoin: round;
        stroke-width: .8px;
      }

      .st6 {
        fill: #e0ecf8;
      }

      .st7 {
        fill: #c7dcef;
      }

      .st8 {
        fill: #f5f9fe;
      }

      .st9 {
        fill: #f7fbff;
      }

      .st10 {
        fill: #d0e1f2;
      }

      .st11 {
        fill: #e2edf8;
      }

      .st12 {
        isolation: isolate;
      }

      .st13 {
        clip-path: url(#clippath-17);
      }

      .st14 {
        clip-path: url(#clippath-19);
      }

      .st15 {
        clip-path: url(#clippath-11);
      }

      .st16 {
        clip-path: url(#clippath-16);
      }

      .st17 {
        clip-path: url(#clippath-18);
      }

      .st18 {
        clip-path: url(#clippath-10);
      }

      .st19 {
        clip-path: url(#clippath-15);
      }

      .st20 {
        clip-path: url(#clippath-13);
      }

      .st21 {
        clip-path: url(#clippath-14);
      }

      .st22 {
        clip-path: url(#clippath-12);
      }

      .st23 {
        clip-path: url(#clippath-61);
      }

      .st24 {
        clip-path: url(#clippath-60);
      }

      .st25 {
        clip-path: url(#clippath-62);
      }

      .st26 {
        clip-path: url(#clippath-50);
      }

      .st27 {
        clip-path: url(#clippath-55);
      }

      .st28 {
        clip-path: url(#clippath-52);
      }

      .st29 {
        clip-path: url(#clippath-57);
      }

      .st30 {
        clip-path: url(#clippath-54);
      }

      .st31 {
        clip-path: url(#clippath-56);
      }

      .st32 {
        clip-path: url(#clippath-53);
      }

      .st33 {
        clip-path: url(#clippath-51);
      }

      .st34 {
        clip-path: url(#clippath-58);
      }

      .st35 {
        clip-path: url(#clippath-59);
      }

      .st36 {
        clip-path: url(#clippath-31);
      }

      .st37 {
        clip-path: url(#clippath-32);
      }

      .st38 {
        clip-path: url(#clippath-33);
      }

      .st39 {
        clip-path: url(#clippath-34);
      }

      .st40 {
        clip-path: url(#clippath-35);
      }

      .st41 {
        clip-path: url(#clippath-39);
      }

      .st42 {
        clip-path: url(#clippath-30);
      }

      .st43 {
        clip-path: url(#clippath-36);
      }

      .st44 {
        clip-path: url(#clippath-37);
      }

      .st45 {
        clip-path: url(#clippath-38);
      }

      .st46 {
        clip-path: url(#clippath-27);
      }

      .st47 {
        clip-path: url(#clippath-29);
      }

      .st48 {
        clip-path: url(#clippath-26);
      }

      .st49 {
        clip-path: url(#clippath-28);
      }

      .st50 {
        clip-path: url(#clippath-20);
      }

      .st51 {
        clip-path: url(#clippath-21);
      }

      .st52 {
        clip-path: url(#clippath-22);
      }

      .st53 {
        clip-path: url(#clippath-23);
      }

      .st54 {
        clip-path: url(#clippath-24);
      }

      .st55 {
        clip-path: url(#clippath-25);
      }

      .st56 {
        clip-path: url(#clippath-41);
      }

      .st57 {
        clip-path: url(#clippath-42);
      }

      .st58 {
        clip-path: url(#clippath-43);
      }

      .st59 {
        clip-path: url(#clippath-44);
      }

      .st60 {
        clip-path: url(#clippath-45);
      }

      .st61 {
        clip-path: url(#clippath-49);
      }

      .st62 {
        clip-path: url(#clippath-40);
      }

      .st63 {
        clip-path: url(#clippath-46);
      }

      .st64 {
        clip-path: url(#clippath-47);
      }

      .st65 {
        clip-path: url(#clippath-48);
      }

      .st66 {
        clip-path: url(#clippath-1);
      }

      .st67 {
        clip-path: url(#clippath-3);
      }

      .st68 {
        clip-path: url(#clippath-4);
      }

      .st69 {
        clip-path: url(#clippath-2);
      }

      .st70 {
        clip-path: url(#clippath-7);
      }

      .st71 {
        clip-path: url(#clippath-6);
      }

      .st72 {
        clip-path: url(#clippath-9);
      }

      .st73 {
        clip-path: url(#clippath-8);
      }

      .st74 {
        clip-path: url(#clippath-5);
      }

      .st75 {
        fill: #e9f2fa;
      }

      .st76 {
        fill: #fff;
      }

      .st77 {
        fill: #3a8ac2;
      }

      .st78 {
        fill: #08306b;
      }

      .st1 {
        stroke: #ccc;
        stroke-linecap: round;
      }

      .st79 {
        fill: #e7f1fa;
      }

      .st80 {
        fill: #f3f8fe;
      }

      .st81 {
        fill: #eaf3fb;
      }

      .st82 {
        fill: #eff6fc;
      }

      .st83 {
        fill: #f6faff;
      }

      .st84 {
        font-family: Helvetica-Bold, Helvetica;
        font-size: 12px;
        font-weight: 700;
      }

      .st85 {
        fill: #084b93;
      }

      .st86 {
        fill: #f2f7fd;
      }

      .st87 {
        clip-path: url(#clippath);
      }

      .st88 {
        fill: #9ac8e0;
      }
    </style>
    <clipPath id="clippath">
      <rect class="st0" x="110.9" y="27.5" width="446.4" height="443.5"/>
    </clipPath>
    <clipPath id="clippath-1">
      <rect class="st0" x="110.9" y="27.5" width="446.4" height="443.5"/>
    </clipPath>
    <clipPath id="clippath-2">
      <rect class="st0" x="110.9" y="27.5" width="446.4" height="443.5"/>
    </clipPath>
    <clipPath id="clippath-3">
      <rect class="st0" x="110.9" y="27.5" width="446.4" height="443.5"/>
    </clipPath>
    <clipPath id="clippath-4">
      <rect class="st0" x="110.9" y="27.5" width="446.4" height="443.5"/>
    </clipPath>
    <clipPath id="clippath-5">
      <rect class="st0" x="110.9" y="27.5" width="446.4" height="443.5"/>
    </clipPath>
    <clipPath id="clippath-6">
      <rect class="st0" x="110.9" y="27.5" width="446.4" height="443.5"/>
    </clipPath>
    <clipPath id="clippath-7">
      <rect class="st0" x="110.9" y="27.5" width="446.4" height="443.5"/>
    </clipPath>
    <clipPath id="clippath-8">
      <rect class="st0" x="110.9" y="27.5" width="446.4" height="443.5"/>
    </clipPath>
    <clipPath id="clippath-9">
      <rect class="st0" x="110.9" y="27.5" width="446.4" height="443.5"/>
    </clipPath>
    <clipPath id="clippath-10">
      <rect class="st0" x="110.9" y="27.5" width="446.4" height="443.5"/>
    </clipPath>
    <clipPath id="clippath-11">
      <rect class="st0" x="110.9" y="27.5" width="446.4" height="443.5"/>
    </clipPath>
    <clipPath id="clippath-12">
      <rect class="st0" x="110.9" y="27.5" width="446.4" height="443.5"/>
    </clipPath>
    <clipPath id="clippath-13">
      <rect class="st0" x="110.9" y="27.5" width="446.4" height="443.5"/>
    </clipPath>
    <clipPath id="clippath-14">
      <rect class="st0" x="110.9" y="27.5" width="446.4" height="443.5"/>
    </clipPath>
    <clipPath id="clippath-15">
      <rect class="st0" x="110.9" y="27.5" width="446.4" height="443.5"/>
    </clipPath>
    <clipPath id="clippath-16">
      <rect class="st0" x="110.9" y="27.5" width="446.4" height="443.5"/>
    </clipPath>
    <clipPath id="clippath-17">
      <rect class="st0" x="110.9" y="27.5" width="446.4" height="443.5"/>
    </clipPath>
    <clipPath id="clippath-18">
      <rect class="st0" x="110.9" y="27.5" width="446.4" height="443.5"/>
    </clipPath>
    <clipPath id="clippath-19">
      <rect class="st0" x="110.9" y="27.5" width="446.4" height="443.5"/>
    </clipPath>
    <clipPath id="clippath-20">
      <rect class="st0" x="110.9" y="27.5" width="446.4" height="443.5"/>
    </clipPath>
    <clipPath id="clippath-21">
      <rect class="st0" x="110.9" y="27.5" width="446.4" height="443.5"/>
    </clipPath>
    <clipPath id="clippath-22">
      <rect class="st0" x="110.9" y="27.5" width="446.4" height="443.5"/>
    </clipPath>
    <clipPath id="clippath-23">
      <rect class="st0" x="110.9" y="27.5" width="446.4" height="443.5"/>
    </clipPath>
    <clipPath id="clippath-24">
      <rect class="st0" x="110.9" y="27.5" width="446.4" height="443.5"/>
    </clipPath>
    <clipPath id="clippath-25">
      <rect class="st0" x="110.9" y="27.5" width="446.4" height="443.5"/>
    </clipPath>
    <clipPath id="clippath-26">
      <rect class="st0" x="110.9" y="27.5" width="446.4" height="443.5"/>
    </clipPath>
    <clipPath id="clippath-27">
      <rect class="st0" x="110.9" y="27.5" width="446.4" height="443.5"/>
    </clipPath>
    <clipPath id="clippath-28">
      <rect class="st0" x="110.9" y="27.5" width="446.4" height="443.5"/>
    </clipPath>
    <clipPath id="clippath-29">
      <rect class="st0" x="110.9" y="27.5" width="446.4" height="443.5"/>
    </clipPath>
    <clipPath id="clippath-30">
      <rect class="st0" x="110.9" y="27.5" width="446.4" height="443.5"/>
    </clipPath>
    <clipPath id="clippath-31">
      <rect class="st0" x="110.9" y="27.5" width="446.4" height="443.5"/>
    </clipPath>
    <clipPath id="clippath-32">
      <rect class="st0" x="110.9" y="27.5" width="446.4" height="443.5"/>
    </clipPath>
    <clipPath id="clippath-33">
      <rect class="st0" x="110.9" y="27.5" width="446.4" height="443.5"/>
    </clipPath>
    <clipPath id="clippath-34">
      <rect class="st0" x="110.9" y="27.5" width="446.4" height="443.5"/>
    </clipPath>
    <clipPath id="clippath-35">
      <rect class="st0" x="110.9" y="27.5" width="446.4" height="443.5"/>
    </clipPath>
    <clipPath id="clippath-36">
      <rect class="st0" x="110.9" y="27.5" width="446.4" height="443.5"/>
    </clipPath>
    <clipPath id="clippath-37">
      <rect class="st0" x="110.9" y="27.5" width="446.4" height="443.5"/>
    </clipPath>
    <clipPath id="clippath-38">
      <rect class="st0" x="110.9" y="27.5" width="446.4" height="443.5"/>
    </clipPath>
    <clipPath id="clippath-39">
      <rect class="st0" x="110.9" y="27.5" width="446.4" height="443.5"/>
    </clipPath>
    <clipPath id="clippath-40">
      <rect class="st0" x="110.9" y="27.5" width="446.4" height="443.5"/>
    </clipPath>
    <clipPath id="clippath-41">
      <rect class="st0" x="110.9" y="27.5" width="446.4" height="443.5"/>
    </clipPath>
    <clipPath id="clippath-42">
      <rect class="st0" x="110.9" y="27.5" width="446.4" height="443.5"/>
    </clipPath>
    <clipPath id="clippath-43">
      <rect class="st0" x="110.9" y="27.5" width="446.4" height="443.5"/>
    </clipPath>
    <clipPath id="clippath-44">
      <rect class="st0" x="110.9" y="27.5" width="446.4" height="443.5"/>
    </clipPath>
    <clipPath id="clippath-45">
      <rect class="st0" x="110.9" y="27.5" width="446.4" height="443.5"/>
    </clipPath>
    <clipPath id="clippath-46">
      <rect class="st0" x="110.9" y="27.5" width="446.4" height="443.5"/>
    </clipPath>
    <clipPath id="clippath-47">
      <rect class="st0" x="110.9" y="27.5" width="446.4" height="443.5"/>
    </clipPath>
    <clipPath id="clippath-48">
      <rect class="st0" x="110.9" y="27.5" width="446.4" height="443.5"/>
    </clipPath>
    <clipPath id="clippath-49">
      <rect class="st0" x="110.9" y="27.5" width="446.4" height="443.5"/>
    </clipPath>
    <clipPath id="clippath-50">
      <rect class="st0" x="110.9" y="27.5" width="446.4" height="443.5"/>
    </clipPath>
    <clipPath id="clippath-51">
      <rect class="st0" x="110.9" y="27.5" width="446.4" height="443.5"/>
    </clipPath>
    <clipPath id="clippath-52">
      <rect class="st0" x="110.9" y="27.5" width="446.4" height="443.5"/>
    </clipPath>
    <clipPath id="clippath-53">
      <rect class="st0" x="110.9" y="27.5" width="446.4" height="443.5"/>
    </clipPath>
    <clipPath id="clippath-54">
      <rect class="st0" x="110.9" y="27.5" width="446.4" height="443.5"/>
    </clipPath>
    <clipPath id="clippath-55">
      <rect class="st0" x="110.9" y="27.5" width="446.4" height="443.5"/>
    </clipPath>
    <clipPath id="clippath-56">
      <rect class="st0" x="110.9" y="27.5" width="446.4" height="443.5"/>
    </clipPath>
    <clipPath id="clippath-57">
      <rect class="st0" x="110.9" y="27.5" width="446.4" height="443.5"/>
    </clipPath>
    <clipPath id="clippath-58">
      <rect class="st0" x="110.9" y="27.5" width="446.4" height="443.5"/>
    </clipPath>
    <clipPath id="clippath-59">
      <rect class="st0" x="110.9" y="27.5" width="446.4" height="443.5"/>
    </clipPath>
    <clipPath id="clippath-60">
      <rect class="st0" x="110.9" y="27.5" width="446.4" height="443.5"/>
    </clipPath>
    <clipPath id="clippath-61">
      <rect class="st0" x="110.9" y="27.5" width="446.4" height="443.5"/>
    </clipPath>
    <clipPath id="clippath-62">
      <rect class="st0" x="110.9" y="27.5" width="446.4" height="443.5"/>
    </clipPath>
  </defs>
  <g id="patch_2">
    <path class="st76" d="M110.9,471.1h446.4V27.5H110.9v443.5Z"/>
  </g>
  <g id="matplotlib.axis_1">
    <g id="xtick_1">
      <g id="line2d_1">
        <g class="st87">
          <path class="st1" d="M142.8,471.1V27.5"/>
        </g>
      </g>
      <g id="text_1">
        <g>
          <path id="ArialMT-45" class="st5" d="M145.3,505.6h-7.2v-5.2h.8v4.2h2.2v-4h.8v4h2.4v-4.4h.8v5.3Z"/>
          <path id="ArialMT-6d" class="st5" d="M145.3,499.1h-5.2v-.8h.7c-.3-.2-.5-.4-.6-.6-.2-.3-.2-.6-.2-.9s0-.7.2-.9.4-.4.7-.5c-.6-.4-.9-.9-.9-1.6s.1-.9.4-1.2c.3-.3.7-.4,1.3-.4h3.6v.9h-3.3c-.4,0-.6,0-.8,0-.2,0-.3.2-.4.3,0,.1-.1.3-.1.5,0,.4.1.7.4.9.2.2.6.4,1.2.4h3v.9h-3.4c-.4,0-.7,0-.9.2-.2.1-.3.4-.3.7s0,.5.2.7c.1.2.3.4.6.5.3,0,.6.1,1.1.1h2.7v.9Z"/>
          <path id="ArialMT-70" class="st5" d="M147.3,490.7h-7.2v-.8h.7c-.3-.2-.5-.4-.6-.6-.1-.2-.2-.5-.2-.9s.1-.8.3-1.2.6-.6,1-.8c.4-.2.9-.3,1.4-.3s1,0,1.4.3c.4.2.8.5,1,.8.2.4.3.7.3,1.1s0,.6-.2.8c-.1.2-.3.4-.5.6h2.5v.9ZM142.7,489.9c.7,0,1.2-.1,1.5-.4.3-.3.5-.6.5-1s-.2-.7-.5-1c-.3-.3-.8-.4-1.5-.4s-1.2.1-1.5.4c-.3.3-.5.6-.5,1s.2.7.5,1c.4.3.9.4,1.5.4Z"/>
          <path id="ArialMT-74" class="st5" d="M144.5,483.3h.8c0,.1,0,.3,0,.5,0,.3,0,.6-.2.7-.1.2-.2.3-.4.4-.2,0-.5.1-1,.1h-3v.6h-.7v-.6h-1.3l-.5-.9h1.8v-.9h.7v.9h3c.3,0,.4,0,.5,0,0,0,.1,0,.2-.2,0,0,0-.2,0-.3s0-.2,0-.4Z"/>
          <path id="ArialMT-79" class="st5" d="M147.3,482.4h-.8c0,0,0-.3,0-.4s0-.4,0-.5c0-.1-.2-.2-.3-.3,0,0-.3-.1-.7-.3,0,0-.1,0-.2,0l-5.2,2v-.9l3-1.1c.4-.1.8-.3,1.2-.4-.4-.1-.8-.2-1.2-.4l-3-1.1v-.9l5.3,2c.6.2,1,.4,1.2.5.3.2.5.3.6.5.1.2.2.4.2.7s0,.4-.1.6Z"/>
        </g>
      </g>
    </g>
    <g id="xtick_2">
      <g id="line2d_2">
        <g class="st66">
          <path class="st1" d="M206.6,471.1V27.5"/>
        </g>
      </g>
      <g id="text_2">
        <g>
          <path id="ArialMT-57" class="st5" d="M209.1,520.5l-7.2,1.9v-1l4.7-1.1c.5-.1,1-.2,1.5-.3-.8-.2-1.2-.3-1.3-.3l-4.8-1.4v-1.1l3.6-1c.9-.3,1.7-.4,2.5-.6-.5,0-1-.2-1.6-.4l-4.6-1.1v-1l7.2,2v.9l-5.5,1.5c-.5.1-.7.2-.8.2.3,0,.6.1.8.2l5.5,1.5v1Z"/>
          <path id="ArialMT-69" class="st5" d="M203,512.4h-1v-.9h1v.9ZM209.1,512.4h-5.2v-.9h5.2v.9Z"/>
          <path id="ArialMT-64" class="st5" d="M209.1,506.8h-.7c.5.3.8.8.8,1.5s-.1.8-.3,1.1-.5.6-1,.8c-.4.2-.9.3-1.4.3s-1,0-1.4-.3c-.4-.2-.7-.4-1-.8-.2-.3-.3-.7-.3-1.2s0-.6.2-.8c.1-.2.3-.4.5-.6h-2.6v-.9h7.2v.8ZM206.6,509.6c.7,0,1.2-.1,1.5-.4.3-.3.5-.6.5-1s-.2-.7-.5-1c-.3-.3-.8-.4-1.4-.4s-1.2.1-1.6.4c-.3.3-.5.6-.5,1s.2.7.5,1c.3.3.8.4,1.5.4Z"/>
          <path id="ArialMT-65" class="st5" d="M207.5,501.1v-.9c.6.1,1.1.4,1.3.8.3.4.4.9.4,1.5s-.2,1.4-.7,1.8c-.5.4-1.1.7-2,.7s-1.6-.2-2-.7c-.5-.5-.7-1-.7-1.7s.2-1.3.7-1.7,1.1-.7,2-.7.1,0,.2,0v3.9c.6,0,1-.2,1.3-.5.3-.3.5-.7.5-1.1s0-.6-.3-.8c-.2-.2-.4-.4-.8-.5ZM206.1,504v-2.9c-.4,0-.8.1-1,.3-.3.3-.5.6-.5,1.1s.1.7.4,1,.6.4,1.1.5Z"/>
          <path id="ArialMT-20" class="st5" d="M209.1,499.7"/>
          <path id="ArialMT-73" class="st5" d="M207.6,496.7v-.9c.2,0,.5-.2.7-.4.2-.2.3-.5.3-.9s0-.7-.2-.9c-.2-.2-.4-.3-.6-.3s-.4,0-.5.3c0,.1-.2.4-.3.9-.2.6-.3,1.1-.4,1.3s-.3.4-.5.6c-.2.1-.4.2-.7.2s-.4,0-.6-.2c-.2-.1-.4-.3-.5-.4-.1-.1-.2-.3-.3-.6,0-.2-.1-.5-.1-.8,0-.4,0-.8.2-1.1.1-.3.3-.5.5-.7.2-.1.5-.2.8-.3v.9c-.1,0-.4.2-.5.3-.2.2-.2.5-.2.8s0,.7.2.9c.1.2.3.3.5.3s.2,0,.3-.1c0,0,.2-.2.2-.3,0,0,.1-.3.2-.8.2-.6.3-1.1.4-1.3.1-.2.3-.4.5-.6.2-.1.5-.2.8-.2s.6,0,.8.3c.3.2.5.4.6.7.1.3.2.7.2,1.1,0,.7-.1,1.2-.4,1.5-.3.4-.7.6-1.2.7Z"/>
          <path id="ArialMT-68" class="st5" d="M209.1,491.3h-7.2v-.9h2.6c-.5-.4-.7-.9-.7-1.6s0-.7.2-1c.2-.3.4-.5.6-.6s.7-.2,1.2-.2h3.3v.9h-3.3c-.4,0-.8,0-1,.3s-.3.5-.3.8,0,.5.2.7c.1.2.3.4.5.5.2,0,.6.1,1,.1h2.8v.9Z"/>
          <path id="ArialMT-6f" class="st5" d="M206.6,486.1c-1,0-1.7-.3-2.1-.8-.4-.4-.6-1-.6-1.6s.2-1.3.7-1.7c.5-.5,1.1-.7,1.9-.7s1.2.1,1.6.3c.4.2.7.5.9.9.2.4.3.8.3,1.3,0,.7-.2,1.3-.7,1.8-.5.4-1.1.7-2,.7ZM206.6,485.2c.7,0,1.2-.1,1.5-.4.3-.3.5-.7.5-1.1s-.2-.8-.5-1.1c-.3-.3-.8-.4-1.5-.4s-1.1.1-1.5.4-.5.7-.5,1.1.2.8.5,1.1c.3.3.8.4,1.5.4Z"/>
          <path id="ArialMT-741" data-name="ArialMT-74" class="st5" d="M208.4,478.3h.8c0,.1,0,.3,0,.5,0,.3,0,.6-.2.7-.1.2-.2.3-.4.4-.2,0-.5.1-1,.1h-3v.6h-.7v-.6h-1.3l-.5-.9h1.8v-.9h.7v.9h3c.3,0,.4,0,.5,0,0,0,.1,0,.2-.2,0,0,0-.2,0-.3s0-.2,0-.4Z"/>
        </g>
      </g>
    </g>
    <g id="xtick_3">
      <g id="line2d_3">
        <g class="st69">
          <path class="st1" d="M270.3,471.1V27.5"/>
        </g>
      </g>
      <g id="text_3">
        <g>
          <path id="ArialMT-46" class="st5" d="M272.9,515h-7.2v-4.8h.8v3.9h2.2v-3.4h.8v3.4h3.3v.9Z"/>
          <path id="ArialMT-75" class="st5" d="M272.9,505.7h-.8c.6.4.9,1,.9,1.6s0,.6-.2.9c-.1.3-.3.5-.4.6-.2.1-.4.2-.7.3-.2,0-.4,0-.8,0h-3.2v-.9h2.9c.5,0,.8,0,.9,0,.2,0,.4-.2.5-.4.1-.2.2-.4.2-.7s0-.5-.2-.7c-.1-.2-.3-.4-.6-.5-.2,0-.6-.1-1-.1h-2.8v-.9h5.2v.8Z"/>
          <path id="ArialMT-6c" class="st5" d="M272.9,503.5h-7.2v-.9h7.2v.9Z"/>
          <path id="ArialMT-6c1" data-name="ArialMT-6c" class="st5" d="M272.9,501.3h-7.2v-.9h7.2v.9Z"/>
          <path id="ArialMT-201" data-name="ArialMT-20" class="st5" d="M272.9,499.7"/>
          <path id="ArialMT-731" data-name="ArialMT-73" class="st5" d="M271.4,496.7v-.9c.2,0,.5-.2.7-.4.2-.2.3-.5.3-.9s0-.7-.2-.9c-.2-.2-.4-.3-.6-.3s-.4,0-.5.3c0,.1-.2.4-.3.9-.2.6-.3,1.1-.4,1.3s-.3.4-.5.6c-.2.1-.4.2-.7.2s-.4,0-.6-.2c-.2-.1-.4-.3-.5-.4-.1-.1-.2-.3-.3-.6,0-.2-.1-.5-.1-.8,0-.4,0-.8.2-1.1.1-.3.3-.5.5-.7.2-.1.5-.2.8-.3v.9c-.1,0-.4.2-.5.3-.2.2-.2.5-.2.8s0,.7.2.9c.1.2.3.3.5.3s.2,0,.3-.1c0,0,.2-.2.2-.3,0,0,.1-.3.2-.8.2-.6.3-1.1.4-1.3.1-.2.3-.4.5-.6.2-.1.5-.2.8-.2s.6,0,.8.3c.3.2.5.4.6.7.1.3.2.7.2,1.1,0,.7-.1,1.2-.4,1.5-.3.4-.7.6-1.2.7Z"/>
          <path id="ArialMT-681" data-name="ArialMT-68" class="st5" d="M272.9,491.3h-7.2v-.9h2.6c-.5-.4-.7-.9-.7-1.6s0-.7.2-1c.2-.3.4-.5.6-.6s.7-.2,1.2-.2h3.3v.9h-3.3c-.4,0-.8,0-1,.3s-.3.5-.3.8,0,.5.2.7c.1.2.3.4.5.5.2,0,.6.1,1,.1h2.8v.9Z"/>
          <path id="ArialMT-6f1" data-name="ArialMT-6f" class="st5" d="M270.3,486.1c-1,0-1.7-.3-2.1-.8-.4-.4-.6-1-.6-1.6s.2-1.3.7-1.7c.5-.5,1.1-.7,1.9-.7s1.2.1,1.6.3c.4.2.7.5.9.9.2.4.3.8.3,1.3,0,.7-.2,1.3-.7,1.8-.5.4-1.1.7-2,.7ZM270.3,485.2c.7,0,1.2-.1,1.5-.4.3-.3.5-.7.5-1.1s-.2-.8-.5-1.1c-.3-.3-.8-.4-1.5-.4s-1.1.1-1.5.4-.5.7-.5,1.1.2.8.5,1.1c.3.3.8.4,1.5.4Z"/>
          <path id="ArialMT-742" data-name="ArialMT-74" class="st5" d="M272.1,478.3h.8c0,.1,0,.3,0,.5,0,.3,0,.6-.2.7-.1.2-.2.3-.4.4-.2,0-.5.1-1,.1h-3v.6h-.7v-.6h-1.3l-.5-.9h1.8v-.9h.7v.9h3c.3,0,.4,0,.5,0,0,0,.1,0,.2-.2,0,0,0-.2,0-.3s0-.2,0-.4Z"/>
        </g>
      </g>
    </g>
    <g id="xtick_4">
      <g id="line2d_4">
        <g class="st67">
          <path class="st1" d="M334.1,471.1V27.5"/>
        </g>
      </g>
      <g id="text_4">
        <g>
          <path id="ArialMT-4d" class="st5" d="M336.7,550.1h-7.2v-1.4l5.1-1.7c.5-.2.8-.3,1.1-.3-.3,0-.6-.2-1.1-.4l-5-1.7v-1.3h7.2v.9h-6l6,2.1v.9l-6.1,2.1h6.1v.9Z"/>
          <path id="ArialMT-651" data-name="ArialMT-65" class="st5" d="M335,538.3v-.9c.6.1,1.1.4,1.3.8.3.4.4.9.4,1.5s-.2,1.4-.7,1.8c-.5.4-1.1.7-2,.7s-1.6-.2-2-.7c-.5-.5-.7-1-.7-1.7s.2-1.3.7-1.7,1.1-.7,2-.7.1,0,.2,0v3.9c.6,0,1-.2,1.3-.5.3-.3.5-.7.5-1.1s0-.6-.3-.8c-.2-.2-.4-.4-.8-.5ZM333.6,541.2v-2.9c-.4,0-.8.1-1,.3-.3.3-.5.6-.5,1.1s.1.7.4,1,.6.4,1.1.5Z"/>
          <path id="ArialMT-641" data-name="ArialMT-64" class="st5" d="M336.7,532.9h-.7c.5.3.8.8.8,1.5s-.1.8-.3,1.1-.5.6-1,.8c-.4.2-.9.3-1.4.3s-1,0-1.4-.3c-.4-.2-.7-.4-1-.8-.2-.3-.3-.7-.3-1.2s0-.6.2-.8c.1-.2.3-.4.5-.6h-2.6v-.9h7.2v.8ZM334.1,535.7c.7,0,1.2-.1,1.5-.4.3-.3.5-.6.5-1s-.2-.7-.5-1c-.3-.3-.8-.4-1.4-.4s-1.2.1-1.6.4c-.3.3-.5.6-.5,1s.2.7.5,1c.3.3.8.4,1.5.4Z"/>
          <path id="ArialMT-691" data-name="ArialMT-69" class="st5" d="M330.5,530.7h-1v-.9h1v.9ZM336.7,530.7h-5.2v-.9h5.2v.9Z"/>
          <path id="ArialMT-751" data-name="ArialMT-75" class="st5" d="M336.7,525.1h-.8c.6.4.9,1,.9,1.6s0,.6-.2.9c-.1.3-.3.5-.4.6-.2.1-.4.2-.7.3-.2,0-.4,0-.8,0h-3.2v-.9h2.9c.5,0,.8,0,.9,0,.2,0,.4-.2.5-.4.1-.2.2-.4.2-.7s0-.5-.2-.7c-.1-.2-.3-.4-.6-.5-.2,0-.6-.1-1-.1h-2.8v-.9h5.2v.8Z"/>
          <path id="ArialMT-6d1" data-name="ArialMT-6d" class="st5" d="M336.7,523h-5.2v-.8h.7c-.3-.2-.5-.4-.6-.6-.2-.3-.2-.6-.2-.9s0-.7.2-.9.4-.4.7-.5c-.6-.4-.9-.9-.9-1.6s.1-.9.4-1.2c.3-.3.7-.4,1.3-.4h3.6v.9h-3.3c-.4,0-.6,0-.8,0-.2,0-.3.2-.4.3,0,.1-.1.3-.1.5,0,.4.1.7.4.9.2.2.6.4,1.2.4h3v.9h-3.4c-.4,0-.7,0-.9.2-.2.1-.3.4-.3.7s0,.5.2.7c.1.2.3.4.6.5.3,0,.6.1,1.1.1h2.7v.9Z"/>
          <path id="ArialMT-202" data-name="ArialMT-20" class="st5" d="M336.7,515.3"/>
          <path id="ArialMT-66" class="st5" d="M336.7,511.6h-4.5v.8h-.7v-.8h-.6c-.3,0-.6,0-.8,0-.2,0-.4-.2-.6-.4-.1-.2-.2-.5-.2-.9s0-.5,0-.8h.8c0,.3,0,.5,0,.7,0,.3,0,.5.2.6.1.1.3.2.6.2h.5v-1h.7v1h4.5v.9Z"/>
          <path id="ArialMT-752" data-name="ArialMT-75" class="st5" d="M336.7,505.7h-.8c.6.4.9,1,.9,1.6s0,.6-.2.9c-.1.3-.3.5-.4.6-.2.1-.4.2-.7.3-.2,0-.4,0-.8,0h-3.2v-.9h2.9c.5,0,.8,0,.9,0,.2,0,.4-.2.5-.4.1-.2.2-.4.2-.7s0-.5-.2-.7c-.1-.2-.3-.4-.6-.5-.2,0-.6-.1-1-.1h-2.8v-.9h5.2v.8Z"/>
          <path id="ArialMT-6c2" data-name="ArialMT-6c" class="st5" d="M336.7,503.5h-7.2v-.9h7.2v.9Z"/>
          <path id="ArialMT-6c3" data-name="ArialMT-6c" class="st5" d="M336.7,501.3h-7.2v-.9h7.2v.9Z"/>
          <path id="ArialMT-203" data-name="ArialMT-20" class="st5" d="M336.7,499.7"/>
          <path id="ArialMT-732" data-name="ArialMT-73" class="st5" d="M335.1,496.6v-.9c.2,0,.5-.2.7-.4.2-.2.3-.5.3-.9s0-.7-.2-.9c-.2-.2-.4-.3-.6-.3s-.4,0-.5.3c0,.1-.2.4-.3.9-.2.6-.3,1.1-.4,1.3s-.3.4-.5.6c-.2.1-.4.2-.7.2s-.4,0-.6-.2c-.2-.1-.4-.3-.5-.4-.1-.1-.2-.3-.3-.6,0-.2-.1-.5-.1-.8,0-.4,0-.8.2-1.1.1-.3.3-.5.5-.7.2-.1.5-.2.8-.3v.9c-.1,0-.4.2-.5.3-.2.2-.2.5-.2.8s0,.7.2.9c.1.2.3.3.5.3s.2,0,.3-.1c0,0,.2-.2.2-.3,0,0,.1-.3.2-.8.2-.6.3-1.1.4-1.3.1-.2.3-.4.5-.6.2-.1.5-.2.8-.2s.6,0,.8.3c.3.2.5.4.6.7.1.3.2.7.2,1.1,0,.7-.1,1.2-.4,1.5-.3.4-.7.6-1.2.7Z"/>
          <path id="ArialMT-682" data-name="ArialMT-68" class="st5" d="M336.7,491.3h-7.2v-.9h2.6c-.5-.4-.7-.9-.7-1.6s0-.7.2-1c.2-.3.4-.5.6-.6s.7-.2,1.2-.2h3.3v.9h-3.3c-.4,0-.8,0-1,.3s-.3.5-.3.8,0,.5.2.7c.1.2.3.4.5.5.2,0,.6.1,1,.1h2.8v.9Z"/>
          <path id="ArialMT-6f2" data-name="ArialMT-6f" class="st5" d="M334.1,486.1c-1,0-1.7-.3-2.1-.8-.4-.4-.6-1-.6-1.6s.2-1.3.7-1.7c.5-.5,1.1-.7,1.9-.7s1.2.1,1.6.3c.4.2.7.5.9.9.2.4.3.8.3,1.3,0,.7-.2,1.3-.7,1.8-.5.4-1.1.7-2,.7ZM334.1,485.2c.7,0,1.2-.1,1.5-.4.3-.3.5-.7.5-1.1s-.2-.8-.5-1.1c-.3-.3-.8-.4-1.5-.4s-1.1.1-1.5.4-.5.7-.5,1.1.2.8.5,1.1c.3.3.8.4,1.5.4Z"/>
          <path id="ArialMT-743" data-name="ArialMT-74" class="st5" d="M335.9,478.3h.8c0,.1,0,.3,0,.5,0,.3,0,.6-.2.7-.1.2-.2.3-.4.4-.2,0-.5.1-1,.1h-3v.6h-.7v-.6h-1.3l-.5-.9h1.8v-.9h.7v.9h3c.3,0,.4,0,.5,0,0,0,.1,0,.2-.2,0,0,0-.2,0-.3s0-.2,0-.4Z"/>
        </g>
      </g>
    </g>
    <g id="xtick_5">
      <g id="line2d_5">
        <g class="st68">
          <path class="st1" d="M397.9,471.1V27.5"/>
        </g>
      </g>
      <g id="text_5">
        <g>
          <path id="ArialMT-4d1" data-name="ArialMT-4d" class="st5" d="M400.5,534.6h-7.2v-1.4l5.1-1.7c.5-.2.8-.3,1.1-.3-.3,0-.6-.2-1.1-.4l-5-1.7v-1.3h7.2v.9h-6l6,2.1v.9l-6.1,2.1h6.1v.9Z"/>
          <path id="ArialMT-652" data-name="ArialMT-65" class="st5" d="M398.8,522.8v-.9c.6.1,1.1.4,1.3.8.3.4.4.9.4,1.5s-.2,1.4-.7,1.8c-.5.4-1.1.7-2,.7s-1.6-.2-2-.7c-.5-.5-.7-1-.7-1.7s.2-1.3.7-1.7,1.1-.7,2-.7.1,0,.2,0v3.9c.6,0,1-.2,1.3-.5.3-.3.5-.7.5-1.1s0-.6-.3-.8c-.2-.2-.4-.4-.8-.5ZM397.4,525.6v-2.9c-.4,0-.8.1-1,.3-.3.3-.5.6-.5,1.1s.1.7.4,1,.6.4,1.1.5Z"/>
          <path id="ArialMT-642" data-name="ArialMT-64" class="st5" d="M400.5,517.4h-.7c.5.3.8.8.8,1.5s-.1.8-.3,1.1-.5.6-1,.8c-.4.2-.9.3-1.4.3s-1,0-1.4-.3c-.4-.2-.7-.4-1-.8-.2-.3-.3-.7-.3-1.2s0-.6.2-.8c.1-.2.3-.4.5-.6h-2.6v-.9h7.2v.8ZM397.9,520.2c.7,0,1.2-.1,1.5-.4.3-.3.5-.6.5-1s-.2-.7-.5-1c-.3-.3-.8-.4-1.4-.4s-1.2.1-1.6.4c-.3.3-.5.6-.5,1s.2.7.5,1c.3.3.8.4,1.5.4Z"/>
          <path id="ArialMT-692" data-name="ArialMT-69" class="st5" d="M394.3,515.2h-1v-.9h1v.9ZM400.5,515.2h-5.2v-.9h5.2v.9Z"/>
          <path id="ArialMT-753" data-name="ArialMT-75" class="st5" d="M400.5,509.6h-.8c.6.4.9,1,.9,1.6s0,.6-.2.9c-.1.3-.3.5-.4.6-.2.1-.4.2-.7.3-.2,0-.4,0-.8,0h-3.2v-.9h2.9c.5,0,.8,0,.9,0,.2,0,.4-.2.5-.4.1-.2.2-.4.2-.7s0-.5-.2-.7c-.1-.2-.3-.4-.6-.5-.2,0-.6-.1-1-.1h-2.8v-.9h5.2v.8Z"/>
          <path id="ArialMT-6d2" data-name="ArialMT-6d" class="st5" d="M400.5,507.4h-5.2v-.8h.7c-.3-.2-.5-.4-.6-.6-.2-.3-.2-.6-.2-.9s0-.7.2-.9.4-.4.7-.5c-.6-.4-.9-.9-.9-1.6s.1-.9.4-1.2c.3-.3.7-.4,1.3-.4h3.6v.9h-3.3c-.4,0-.6,0-.8,0-.2,0-.3.2-.4.3,0,.1-.1.3-.1.5,0,.4.1.7.4.9.2.2.6.4,1.2.4h3v.9h-3.4c-.4,0-.7,0-.9.2-.2.1-.3.4-.3.7s0,.5.2.7c.1.2.3.4.6.5.3,0,.6.1,1.1.1h2.7v.9Z"/>
          <path id="ArialMT-204" data-name="ArialMT-20" class="st5" d="M400.5,499.7"/>
          <path id="ArialMT-733" data-name="ArialMT-73" class="st5" d="M398.9,496.6v-.9c.2,0,.5-.2.7-.4.2-.2.3-.5.3-.9s0-.7-.2-.9c-.2-.2-.4-.3-.6-.3s-.4,0-.5.3c0,.1-.2.4-.3.9-.2.6-.3,1.1-.4,1.3s-.3.4-.5.6c-.2.1-.4.2-.7.2s-.4,0-.6-.2c-.2-.1-.4-.3-.5-.4-.1-.1-.2-.3-.3-.6,0-.2-.1-.5-.1-.8,0-.4,0-.8.2-1.1.1-.3.3-.5.5-.7.2-.1.5-.2.8-.3v.9c-.1,0-.4.2-.5.3-.2.2-.2.5-.2.8s0,.7.2.9c.1.2.3.3.5.3s.2,0,.3-.1c0,0,.2-.2.2-.3,0,0,.1-.3.2-.8.2-.6.3-1.1.4-1.3.1-.2.3-.4.5-.6.2-.1.5-.2.8-.2s.6,0,.8.3c.3.2.5.4.6.7.1.3.2.7.2,1.1,0,.7-.1,1.2-.4,1.5-.3.4-.7.6-1.2.7Z"/>
          <path id="ArialMT-683" data-name="ArialMT-68" class="st5" d="M400.5,491.3h-7.2v-.9h2.6c-.5-.4-.7-.9-.7-1.6s0-.7.2-1c.2-.3.4-.5.6-.6s.7-.2,1.2-.2h3.3v.9h-3.3c-.4,0-.8,0-1,.3s-.3.5-.3.8,0,.5.2.7c.1.2.3.4.5.5.2,0,.6.1,1,.1h2.8v.9Z"/>
          <path id="ArialMT-6f3" data-name="ArialMT-6f" class="st5" d="M397.9,486.1c-1,0-1.7-.3-2.1-.8-.4-.4-.6-1-.6-1.6s.2-1.3.7-1.7c.5-.5,1.1-.7,1.9-.7s1.2.1,1.6.3c.4.2.7.5.9.9.2.4.3.8.3,1.3,0,.7-.2,1.3-.7,1.8-.5.4-1.1.7-2,.7ZM397.9,485.2c.7,0,1.2-.1,1.5-.4.3-.3.5-.7.5-1.1s-.2-.8-.5-1.1c-.3-.3-.8-.4-1.5-.4s-1.1.1-1.5.4-.5.7-.5,1.1.2.8.5,1.1c.3.3.8.4,1.5.4Z"/>
          <path id="ArialMT-744" data-name="ArialMT-74" class="st5" d="M399.7,478.3h.8c0,.1,0,.3,0,.5,0,.3,0,.6-.2.7-.1.2-.2.3-.4.4-.2,0-.5.1-1,.1h-3v.6h-.7v-.6h-1.3l-.5-.9h1.8v-.9h.7v.9h3c.3,0,.4,0,.5,0,0,0,.1,0,.2-.2,0,0,0-.2,0-.3s0-.2,0-.4Z"/>
        </g>
      </g>
    </g>
    <g id="xtick_6">
      <g id="line2d_6">
        <g class="st74">
          <path class="st1" d="M461.6,471.1V27.5"/>
        </g>
      </g>
      <g id="text_6">
        <g>
          <path id="ArialMT-4d2" data-name="ArialMT-4d" class="st5" d="M464.2,552.9h-7.2v-1.4l5.1-1.7c.5-.2.8-.3,1.1-.3-.3,0-.6-.2-1.1-.4l-5-1.7v-1.3h7.2v.9h-6l6,2.1v.9l-6.1,2.1h6.1v.9Z"/>
          <path id="ArialMT-653" data-name="ArialMT-65" class="st5" d="M462.6,541.1v-.9c.6.1,1.1.4,1.3.8.3.4.4.9.4,1.5s-.2,1.4-.7,1.8c-.5.4-1.1.7-2,.7s-1.6-.2-2-.7c-.5-.5-.7-1-.7-1.7s.2-1.3.7-1.7,1.1-.7,2-.7.1,0,.2,0v3.9c.6,0,1-.2,1.3-.5.3-.3.5-.7.5-1.1s0-.6-.3-.8c-.2-.2-.4-.4-.8-.5ZM461.1,544v-2.9c-.4,0-.8.1-1,.3-.3.3-.5.6-.5,1.1s.1.7.4,1,.6.4,1.1.5Z"/>
          <path id="ArialMT-643" data-name="ArialMT-64" class="st5" d="M464.2,535.7h-.7c.5.3.8.8.8,1.5s-.1.8-.3,1.1-.5.6-1,.8c-.4.2-.9.3-1.4.3s-1,0-1.4-.3c-.4-.2-.7-.4-1-.8-.2-.3-.3-.7-.3-1.2s0-.6.2-.8c.1-.2.3-.4.5-.6h-2.6v-.9h7.2v.8ZM461.6,538.5c.7,0,1.2-.1,1.5-.4.3-.3.5-.6.5-1s-.2-.7-.5-1c-.3-.3-.8-.4-1.4-.4s-1.2.1-1.6.4c-.3.3-.5.6-.5,1s.2.7.5,1c.3.3.8.4,1.5.4Z"/>
          <path id="ArialMT-693" data-name="ArialMT-69" class="st5" d="M458.1,533.5h-1v-.9h1v.9ZM464.2,533.5h-5.2v-.9h5.2v.9Z"/>
          <path id="ArialMT-754" data-name="ArialMT-75" class="st5" d="M464.2,527.9h-.8c.6.4.9,1,.9,1.6s0,.6-.2.9c-.1.3-.3.5-.4.6-.2.1-.4.2-.7.3-.2,0-.4,0-.8,0h-3.2v-.9h2.9c.5,0,.8,0,.9,0,.2,0,.4-.2.5-.4.1-.2.2-.4.2-.7s0-.5-.2-.7c-.1-.2-.3-.4-.6-.5-.2,0-.6-.1-1-.1h-2.8v-.9h5.2v.8Z"/>
          <path id="ArialMT-6d3" data-name="ArialMT-6d" class="st5" d="M464.2,525.7h-5.2v-.8h.7c-.3-.2-.5-.4-.6-.6-.2-.3-.2-.6-.2-.9s0-.7.2-.9.4-.4.7-.5c-.6-.4-.9-.9-.9-1.6s.1-.9.4-1.2c.3-.3.7-.4,1.3-.4h3.6v.9h-3.3c-.4,0-.6,0-.8,0-.2,0-.3.2-.4.3,0,.1-.1.3-.1.5,0,.4.1.7.4.9.2.2.6.4,1.2.4h3v.9h-3.4c-.4,0-.7,0-.9.2-.2.1-.3.4-.3.7s0,.5.2.7c.1.2.3.4.6.5.3,0,.6.1,1.1.1h2.7v.9Z"/>
          <path id="ArialMT-205" data-name="ArialMT-20" class="st5" d="M464.2,518.1"/>
          <path id="ArialMT-63" class="st5" d="M462.3,511.3v-.9c.7,0,1.2.3,1.5.7.3.4.5.9.5,1.4s-.2,1.3-.7,1.7c-.5.4-1.1.6-2,.6s-1,0-1.5-.3c-.4-.2-.7-.5-.9-.8-.2-.4-.3-.8-.3-1.2s.1-1,.4-1.4c.3-.4.7-.6,1.2-.7v.9c-.2,0-.5.2-.7.4-.2.2-.3.5-.3.8,0,.4.2.8.5,1.1.3.3.8.4,1.5.4s1.2-.1,1.5-.4c.3-.3.5-.6.5-1s-.1-.6-.3-.9c-.2-.2-.5-.4-1-.4Z"/>
          <path id="ArialMT-6c4" data-name="ArialMT-6c" class="st5" d="M464.2,509.7h-7.2v-.9h7.2v.9Z"/>
          <path id="ArialMT-6f4" data-name="ArialMT-6f" class="st5" d="M461.6,507.7c-1,0-1.7-.3-2.1-.8-.4-.4-.6-1-.6-1.6s.2-1.3.7-1.7c.5-.5,1.1-.7,1.9-.7s1.2.1,1.6.3c.4.2.7.5.9.9.2.4.3.8.3,1.3,0,.7-.2,1.3-.7,1.8-.5.4-1.1.7-2,.7ZM461.6,506.8c.7,0,1.2-.1,1.5-.4.3-.3.5-.7.5-1.1s-.2-.8-.5-1.1c-.3-.3-.8-.4-1.5-.4s-1.1.1-1.5.4-.5.7-.5,1.1.2.8.5,1.1c.3.3.8.4,1.5.4Z"/>
          <path id="ArialMT-734" data-name="ArialMT-73" class="st5" d="M462.7,502.2v-.9c.2,0,.5-.2.7-.4.2-.2.3-.5.3-.9s0-.7-.2-.9c-.2-.2-.4-.3-.6-.3s-.4,0-.5.3c0,.1-.2.4-.3.9-.2.6-.3,1.1-.4,1.3s-.3.4-.5.6c-.2.1-.4.2-.7.2s-.4,0-.6-.2c-.2-.1-.4-.3-.5-.4-.1-.1-.2-.3-.3-.6,0-.2-.1-.5-.1-.8,0-.4,0-.8.2-1.1.1-.3.3-.5.5-.7.2-.1.5-.2.8-.3v.9c-.1,0-.4.2-.5.3-.2.2-.2.5-.2.8s0,.7.2.9c.1.2.3.3.5.3s.2,0,.3-.1c0,0,.2-.2.2-.3,0,0,.1-.3.2-.8.2-.6.3-1.1.4-1.3.1-.2.3-.4.5-.6.2-.1.5-.2.8-.2s.6,0,.8.3c.3.2.5.4.6.7.1.3.2.7.2,1.1,0,.7-.1,1.2-.4,1.5-.3.4-.7.6-1.2.7Z"/>
          <path id="ArialMT-654" data-name="ArialMT-65" class="st5" d="M462.6,493.3v-.9c.6.1,1.1.4,1.3.8.3.4.4.9.4,1.5s-.2,1.4-.7,1.8c-.5.4-1.1.7-2,.7s-1.6-.2-2-.7c-.5-.5-.7-1-.7-1.7s.2-1.3.7-1.7,1.1-.7,2-.7.1,0,.2,0v3.9c.6,0,1-.2,1.3-.5.3-.3.5-.7.5-1.1s0-.6-.3-.8c-.2-.2-.4-.4-.8-.5ZM461.1,496.2v-2.9c-.4,0-.8.1-1,.3-.3.3-.5.6-.5,1.1s.1.7.4,1,.6.4,1.1.5Z"/>
          <path id="ArialMT-206" data-name="ArialMT-20" class="st5" d="M464.2,492"/>
          <path id="ArialMT-755" data-name="ArialMT-75" class="st5" d="M464.2,485.1h-.8c.6.4.9,1,.9,1.6s0,.6-.2.9c-.1.3-.3.5-.4.6-.2.1-.4.2-.7.3-.2,0-.4,0-.8,0h-3.2v-.9h2.9c.5,0,.8,0,.9,0,.2,0,.4-.2.5-.4.1-.2.2-.4.2-.7s0-.5-.2-.7c-.1-.2-.3-.4-.6-.5-.2,0-.6-.1-1-.1h-2.8v-.9h5.2v.8Z"/>
          <path id="ArialMT-701" data-name="ArialMT-70" class="st5" d="M466.2,483h-7.2v-.8h.7c-.3-.2-.5-.4-.6-.6-.1-.2-.2-.5-.2-.9s.1-.8.3-1.2.6-.6,1-.8c.4-.2.9-.3,1.4-.3s1,0,1.4.3c.4.2.8.5,1,.8.2.4.3.7.3,1.1s0,.6-.2.8c-.1.2-.3.4-.5.6h2.5v.9ZM461.7,482.2c.7,0,1.2-.1,1.5-.4.3-.3.5-.6.5-1s-.2-.7-.5-1c-.3-.3-.8-.4-1.5-.4s-1.2.1-1.5.4c-.3.3-.5.6-.5,1s.2.7.5,1c.4.3.9.4,1.5.4Z"/>
        </g>
      </g>
    </g>
    <g id="xtick_7">
      <g id="line2d_7">
        <g class="st71">
          <path class="st1" d="M525.4,471.1V27.5"/>
        </g>
      </g>
      <g id="text_7">
        <g>
          <path id="ArialMT-43" class="st5" d="M525.6,511.6l.2-.9c.8.2,1.4.6,1.8,1.1.4.5.6,1.1.6,1.9s-.2,1.4-.5,1.9c-.3.5-.8.9-1.4,1.1-.6.3-1.2.4-1.9.4s-1.4-.1-2-.4c-.6-.3-1-.7-1.3-1.2-.3-.5-.4-1.1-.4-1.7s.2-1.3.5-1.8c.4-.5.9-.8,1.5-1l.2.9c-.5.2-.9.4-1.1.7-.2.3-.4.7-.4,1.2s.1,1,.4,1.4c.3.4.6.6,1.1.8.4.1.9.2,1.4.2s1.1,0,1.6-.3c.5-.2.8-.5,1-.8.2-.4.3-.8.3-1.2s-.2-1-.5-1.3c-.3-.4-.8-.6-1.4-.7Z"/>
          <path id="ArialMT-6c5" data-name="ArialMT-6c" class="st5" d="M528.1,509.7h-7.2v-.9h7.2v.9Z"/>
          <path id="ArialMT-6f5" data-name="ArialMT-6f" class="st5" d="M525.5,507.7c-1,0-1.7-.3-2.1-.8-.4-.4-.6-1-.6-1.6s.2-1.3.7-1.7c.5-.5,1.1-.7,1.9-.7s1.2.1,1.6.3c.4.2.7.5.9.9.2.4.3.8.3,1.3,0,.7-.2,1.3-.7,1.8-.5.4-1.1.7-2,.7ZM525.5,506.8c.7,0,1.2-.1,1.5-.4.3-.3.5-.7.5-1.1s-.2-.8-.5-1.1c-.3-.3-.8-.4-1.5-.4s-1.1.1-1.5.4-.5.7-.5,1.1.2.8.5,1.1c.3.3.8.4,1.5.4Z"/>
          <path id="ArialMT-735" data-name="ArialMT-73" class="st5" d="M526.5,502.2v-.9c.2,0,.5-.2.7-.4.2-.2.3-.5.3-.9s0-.7-.2-.9c-.2-.2-.4-.3-.6-.3s-.4,0-.5.3c0,.1-.2.4-.3.9-.2.6-.3,1.1-.4,1.3s-.3.4-.5.6c-.2.1-.4.2-.7.2s-.4,0-.6-.2c-.2-.1-.4-.3-.5-.4-.1-.1-.2-.3-.3-.6,0-.2-.1-.5-.1-.8,0-.4,0-.8.2-1.1.1-.3.3-.5.5-.7.2-.1.5-.2.8-.3v.9c-.1,0-.4.2-.5.3-.2.2-.2.5-.2.8s0,.7.2.9c.1.2.3.3.5.3s.2,0,.3-.1c0,0,.2-.2.2-.3,0,0,.1-.3.2-.8.2-.6.3-1.1.4-1.3.1-.2.3-.4.5-.6.2-.1.5-.2.8-.2s.6,0,.8.3c.3.2.5.4.6.7.1.3.2.7.2,1.1,0,.7-.1,1.2-.4,1.5-.3.4-.7.6-1.2.7Z"/>
          <path id="ArialMT-655" data-name="ArialMT-65" class="st5" d="M526.4,493.3v-.9c.6.1,1.1.4,1.3.8.3.4.4.9.4,1.5s-.2,1.4-.7,1.8c-.5.4-1.1.7-2,.7s-1.6-.2-2-.7c-.5-.5-.7-1-.7-1.7s.2-1.3.7-1.7,1.1-.7,2-.7.1,0,.2,0v3.9c.6,0,1-.2,1.3-.5.3-.3.5-.7.5-1.1s0-.6-.3-.8c-.2-.2-.4-.4-.8-.5ZM525,496.2v-2.9c-.4,0-.8.1-1,.3-.3.3-.5.6-.5,1.1s.1.7.4,1,.6.4,1.1.5Z"/>
          <path id="ArialMT-207" data-name="ArialMT-20" class="st5" d="M528.1,492"/>
          <path id="ArialMT-756" data-name="ArialMT-75" class="st5" d="M528.1,485.1h-.8c.6.4.9,1,.9,1.6s0,.6-.2.9c-.1.3-.3.5-.4.6-.2.1-.4.2-.7.3-.2,0-.4,0-.8,0h-3.2v-.9h2.9c.5,0,.8,0,.9,0,.2,0,.4-.2.5-.4.1-.2.2-.4.2-.7s0-.5-.2-.7c-.1-.2-.3-.4-.6-.5-.2,0-.6-.1-1-.1h-2.8v-.9h5.2v.8Z"/>
          <path id="ArialMT-702" data-name="ArialMT-70" class="st5" d="M530,483h-7.2v-.8h.7c-.3-.2-.5-.4-.6-.6-.1-.2-.2-.5-.2-.9s.1-.8.3-1.2.6-.6,1-.8c.4-.2.9-.3,1.4-.3s1,0,1.4.3c.4.2.8.5,1,.8.2.4.3.7.3,1.1s0,.6-.2.8c-.1.2-.3.4-.5.6h2.5v.9ZM525.5,482.2c.7,0,1.2-.1,1.5-.4.3-.3.5-.6.5-1s-.2-.7-.5-1c-.3-.3-.8-.4-1.5-.4s-1.2.1-1.5.4c-.3.3-.5.6-.5,1s.2.7.5,1c.4.3.9.4,1.5.4Z"/>
        </g>
      </g>
    </g>
  </g>
  <g id="matplotlib.axis_2">
    <g id="ytick_1">
      <g id="line2d_8">
        <g class="st70">
          <path class="st1" d="M110.9,59.2h446.4"/>
        </g>
      </g>
      <g id="text_9">
        <g>
          <path id="ArialMT-451" data-name="ArialMT-45" class="st5" d="M76.4,61.7v-7.2h5.2v.8h-4.2v2.2h4v.8h-4v2.4h4.4v.8h-5.3Z"/>
          <path id="ArialMT-6d4" data-name="ArialMT-6d" class="st5" d="M82.9,61.7v-5.2h.8v.7c.2-.3.4-.5.6-.6.3-.2.6-.2.9-.2s.7,0,.9.2.4.4.5.7c.4-.6.9-.9,1.6-.9s.9.1,1.2.4c.3.3.4.7.4,1.3v3.6h-.9v-3.3c0-.4,0-.6,0-.8,0-.2-.2-.3-.3-.4-.1,0-.3-.1-.5-.1-.4,0-.7.1-.9.4-.2.2-.4.6-.4,1.2v3h-.9v-3.4c0-.4,0-.7-.2-.9-.1-.2-.4-.3-.7-.3s-.5,0-.7.2c-.2.1-.4.3-.5.6,0,.3-.1.6-.1,1.1v2.7h-.9Z"/>
          <path id="ArialMT-703" data-name="ArialMT-70" class="st5" d="M91.2,63.7v-7.2h.8v.7c.2-.3.4-.5.6-.6.2-.1.5-.2.9-.2s.8.1,1.2.3.6.6.8,1c.2.4.3.9.3,1.4s0,1-.3,1.4c-.2.4-.5.8-.8,1-.4.2-.7.3-1.1.3s-.6,0-.8-.2c-.2-.1-.4-.3-.6-.5v2.5h-.9ZM92,59.2c0,.7.1,1.2.4,1.5.3.3.6.5,1,.5s.7-.2,1-.5c.3-.3.4-.8.4-1.5s-.1-1.2-.4-1.5c-.3-.3-.6-.5-1-.5s-.7.2-1,.5c-.3.4-.4.9-.4,1.5Z"/>
          <path id="ArialMT-745" data-name="ArialMT-74" class="st5" d="M98.7,61v.8c-.1,0-.3,0-.5,0-.3,0-.6,0-.7-.2-.2-.1-.3-.2-.4-.4,0-.2-.1-.5-.1-1v-3h-.6v-.7h.6v-1.3l.9-.5v1.8h.9v.7h-.9v3c0,.3,0,.4,0,.5,0,0,0,.1.2.2,0,0,.2,0,.3,0s.2,0,.4,0Z"/>
          <path id="ArialMT-791" data-name="ArialMT-79" class="st5" d="M99.5,63.7v-.8c0,0,.3,0,.4,0s.4,0,.5,0c.1,0,.2-.2.3-.3,0,0,.1-.3.3-.7,0,0,0-.1,0-.2l-2-5.2h.9l1.1,3c.1.4.3.8.4,1.2.1-.4.2-.8.4-1.2l1.1-3h.9l-2,5.3c-.2.6-.4,1-.5,1.2-.2.3-.3.5-.5.6-.2.1-.4.2-.7.2s-.4,0-.6-.1Z"/>
        </g>
      </g>
    </g>
    <g id="ytick_2">
      <g id="line2d_9">
        <g class="st73">
          <path class="st1" d="M110.9,122.6h446.4"/>
        </g>
      </g>
      <g id="text_10">
        <g>
          <path id="ArialMT-571" data-name="ArialMT-57" class="st5" d="M61.5,125.2l-1.9-7.2h1l1.1,4.7c.1.5.2,1,.3,1.5.2-.8.3-1.2.3-1.3l1.4-4.8h1.1l1,3.6c.3.9.4,1.7.6,2.5,0-.5.2-1,.4-1.6l1.1-4.6h1l-2,7.2h-.9l-1.5-5.5c-.1-.5-.2-.7-.2-.8,0,.3-.1.6-.2.8l-1.5,5.5h-1Z"/>
          <path id="ArialMT-694" data-name="ArialMT-69" class="st5" d="M69.5,119v-1h.9v1h-.9ZM69.5,125.2v-5.2h.9v5.2h-.9Z"/>
          <path id="ArialMT-644" data-name="ArialMT-64" class="st5" d="M75.1,125.2v-.7c-.3.5-.8.8-1.5.8s-.8-.1-1.1-.3-.6-.5-.8-1c-.2-.4-.3-.9-.3-1.4s0-1,.3-1.4c.2-.4.4-.7.8-1,.3-.2.7-.3,1.2-.3s.6,0,.8.2c.2.1.4.3.6.5v-2.6h.9v7.2h-.8ZM72.3,122.6c0,.7.1,1.2.4,1.5.3.3.6.5,1,.5s.7-.2,1-.5c.3-.3.4-.8.4-1.4s-.1-1.2-.4-1.6c-.3-.3-.6-.5-1-.5s-.7.2-1,.5c-.3.3-.4.8-.4,1.5Z"/>
          <path id="ArialMT-656" data-name="ArialMT-65" class="st5" d="M80.9,123.5h.9c-.1.6-.4,1.1-.8,1.3-.4.3-.9.4-1.5.4s-1.4-.2-1.8-.7c-.4-.5-.7-1.1-.7-2s.2-1.6.7-2c.5-.5,1-.7,1.7-.7s1.3.2,1.7.7.7,1.1.7,2,0,.1,0,.2h-3.9c0,.6.2,1,.5,1.3.3.3.7.5,1.1.5s.6,0,.8-.3c.2-.2.4-.4.5-.8ZM78,122.1h2.9c0-.4-.1-.8-.3-1-.3-.3-.6-.5-1.1-.5s-.7.1-1,.4-.4.6-.5,1.1Z"/>
          <path id="ArialMT-208" data-name="ArialMT-20" class="st5" d="M82.2,125.2"/>
          <path id="ArialMT-736" data-name="ArialMT-73" class="st5" d="M85.3,123.6h.9c0,.2.2.5.4.7.2.2.5.3.9.3s.7,0,.9-.2c.2-.2.3-.4.3-.6s0-.4-.3-.5c-.1,0-.4-.2-.9-.3-.6-.2-1.1-.3-1.3-.4s-.4-.3-.6-.5c-.1-.2-.2-.4-.2-.7s0-.4.2-.6c.1-.2.3-.4.4-.5.1-.1.3-.2.6-.3.2,0,.5-.1.8-.1.4,0,.8,0,1.1.2.3.1.5.3.7.5.1.2.2.5.3.8h-.9c0-.1-.2-.4-.3-.5-.2-.2-.5-.2-.8-.2s-.7,0-.9.2c-.2.1-.3.3-.3.5s0,.2.1.3c0,0,.2.2.3.2,0,0,.3.1.8.2.6.2,1.1.3,1.3.4.2.1.4.3.6.5.1.2.2.5.2.8s0,.6-.3.8c-.2.3-.4.5-.7.6-.3.1-.7.2-1.1.2-.7,0-1.2-.1-1.5-.4-.4-.3-.6-.7-.7-1.2Z"/>
          <path id="ArialMT-684" data-name="ArialMT-68" class="st5" d="M90.7,125.2v-7.2h.9v2.6c.4-.5.9-.7,1.6-.7s.7,0,1,.2c.3.2.5.4.6.6s.2.7.2,1.2v3.3h-.9v-3.3c0-.4,0-.8-.3-1s-.5-.3-.8-.3-.5,0-.7.2c-.2.1-.4.3-.5.5,0,.2-.1.6-.1,1v2.8h-.9Z"/>
          <path id="ArialMT-6f6" data-name="ArialMT-6f" class="st5" d="M95.9,122.6c0-1,.3-1.7.8-2.1.4-.4,1-.6,1.6-.6s1.3.2,1.7.7c.5.5.7,1.1.7,1.9s-.1,1.2-.3,1.6c-.2.4-.5.7-.9.9-.4.2-.8.3-1.3.3-.7,0-1.3-.2-1.8-.7-.4-.5-.7-1.1-.7-2ZM96.8,122.6c0,.7.1,1.2.4,1.5.3.3.7.5,1.1.5s.8-.2,1.1-.5c.3-.3.4-.8.4-1.5s-.1-1.1-.4-1.5-.7-.5-1.1-.5-.8.2-1.1.5c-.3.3-.4.8-.4,1.5Z"/>
          <path id="ArialMT-746" data-name="ArialMT-74" class="st5" d="M103.7,124.4v.8c-.1,0-.3,0-.5,0-.3,0-.6,0-.7-.2-.2-.1-.3-.2-.4-.4,0-.2-.1-.5-.1-1v-3h-.6v-.7h.6v-1.3l.9-.5v1.8h.9v.7h-.9v3c0,.3,0,.4,0,.5,0,0,0,.1.2.2,0,0,.2,0,.3,0s.2,0,.4,0Z"/>
        </g>
      </g>
    </g>
    <g id="ytick_3">
      <g id="line2d_10">
        <g class="st72">
          <path class="st1" d="M110.9,185.9h446.4"/>
        </g>
      </g>
      <g id="text_11">
        <g>
          <path id="ArialMT-461" data-name="ArialMT-46" class="st5" d="M66.9,188.5v-7.2h4.8v.8h-3.9v2.2h3.4v.8h-3.4v3.3h-.9Z"/>
          <path id="ArialMT-757" data-name="ArialMT-75" class="st5" d="M76.3,188.5v-.8c-.4.6-1,.9-1.6.9s-.6,0-.9-.2c-.3-.1-.5-.3-.6-.4-.1-.2-.2-.4-.3-.7,0-.2,0-.4,0-.8v-3.2h.9v2.9c0,.5,0,.8,0,.9,0,.2.2.4.4.5.2.1.4.2.7.2s.5,0,.7-.2c.2-.1.4-.3.5-.6,0-.2.1-.6.1-1v-2.8h.9v5.2h-.8Z"/>
          <path id="ArialMT-6c6" data-name="ArialMT-6c" class="st5" d="M78.4,188.5v-7.2h.9v7.2h-.9Z"/>
          <path id="ArialMT-6c7" data-name="ArialMT-6c" class="st5" d="M80.6,188.5v-7.2h.9v7.2h-.9Z"/>
          <path id="ArialMT-209" data-name="ArialMT-20" class="st5" d="M82.2,188.5"/>
          <path id="ArialMT-737" data-name="ArialMT-73" class="st5" d="M85.3,187h.9c0,.2.2.5.4.7.2.2.5.3.9.3s.7,0,.9-.2c.2-.2.3-.4.3-.6s0-.4-.3-.5c-.1,0-.4-.2-.9-.3-.6-.2-1.1-.3-1.3-.4s-.4-.3-.6-.5c-.1-.2-.2-.4-.2-.7s0-.4.2-.6c.1-.2.3-.4.4-.5.1-.1.3-.2.6-.3.2,0,.5-.1.8-.1.4,0,.8,0,1.1.2.3.1.5.3.7.5.1.2.2.5.3.8h-.9c0-.1-.2-.4-.3-.5-.2-.2-.5-.2-.8-.2s-.7,0-.9.2c-.2.1-.3.3-.3.5s0,.2.1.3c0,0,.2.2.3.2,0,0,.3.1.8.2.6.2,1.1.3,1.3.4.2.1.4.3.6.5.1.2.2.5.2.8s0,.6-.3.8c-.2.3-.4.5-.7.6-.3.1-.7.2-1.1.2-.7,0-1.2-.1-1.5-.4-.4-.3-.6-.7-.7-1.2Z"/>
          <path id="ArialMT-685" data-name="ArialMT-68" class="st5" d="M90.7,188.5v-7.2h.9v2.6c.4-.5.9-.7,1.6-.7s.7,0,1,.2c.3.2.5.4.6.6s.2.7.2,1.2v3.3h-.9v-3.3c0-.4,0-.8-.3-1s-.5-.3-.8-.3-.5,0-.7.2c-.2.1-.4.3-.5.5,0,.2-.1.6-.1,1v2.8h-.9Z"/>
          <path id="ArialMT-6f7" data-name="ArialMT-6f" class="st5" d="M95.9,185.9c0-1,.3-1.7.8-2.1.4-.4,1-.6,1.6-.6s1.3.2,1.7.7c.5.5.7,1.1.7,1.9s-.1,1.2-.3,1.6c-.2.4-.5.7-.9.9-.4.2-.8.3-1.3.3-.7,0-1.3-.2-1.8-.7-.4-.5-.7-1.1-.7-2ZM96.8,185.9c0,.7.1,1.2.4,1.5.3.3.7.5,1.1.5s.8-.2,1.1-.5c.3-.3.4-.8.4-1.5s-.1-1.1-.4-1.5-.7-.5-1.1-.5-.8.2-1.1.5c-.3.3-.4.8-.4,1.5Z"/>
          <path id="ArialMT-747" data-name="ArialMT-74" class="st5" d="M103.7,187.7v.8c-.1,0-.3,0-.5,0-.3,0-.6,0-.7-.2-.2-.1-.3-.2-.4-.4,0-.2-.1-.5-.1-1v-3h-.6v-.7h.6v-1.3l.9-.5v1.8h.9v.7h-.9v3c0,.3,0,.4,0,.5,0,0,0,.1.2.2,0,0,.2,0,.3,0s.2,0,.4,0Z"/>
        </g>
      </g>
    </g>
    <g id="ytick_4">
      <g id="line2d_11">
        <g class="st18">
          <path class="st1" d="M110.9,249.3h446.4"/>
        </g>
      </g>
      <g id="text_12">
        <g>
          <path id="ArialMT-4d3" data-name="ArialMT-4d" class="st5" d="M31.8,251.9v-7.2h1.4l1.7,5.1c.2.5.3.8.3,1.1,0-.3.2-.6.4-1.1l1.7-5h1.3v7.2h-.9v-6l-2.1,6h-.9l-2.1-6.1v6.1h-.9Z"/>
          <path id="ArialMT-657" data-name="ArialMT-65" class="st5" d="M43.6,250.2h.9c-.1.6-.4,1.1-.8,1.3-.4.3-.9.4-1.5.4s-1.4-.2-1.8-.7c-.4-.5-.7-1.1-.7-2s.2-1.6.7-2c.5-.5,1-.7,1.7-.7s1.3.2,1.7.7.7,1.1.7,2,0,.1,0,.2h-3.9c0,.6.2,1,.5,1.3.3.3.7.5,1.1.5s.6,0,.8-.3c.2-.2.4-.4.5-.8ZM40.8,248.8h2.9c0-.4-.1-.8-.3-1-.3-.3-.6-.5-1.1-.5s-.7.1-1,.4-.4.6-.5,1.1Z"/>
          <path id="ArialMT-645" data-name="ArialMT-64" class="st5" d="M49,251.9v-.7c-.3.5-.8.8-1.5.8s-.8-.1-1.1-.3-.6-.5-.8-1c-.2-.4-.3-.9-.3-1.4s0-1,.3-1.4c.2-.4.4-.7.8-1,.3-.2.7-.3,1.2-.3s.6,0,.8.2c.2.1.4.3.6.5v-2.6h.9v7.2h-.8ZM46.2,249.3c0,.7.1,1.2.4,1.5.3.3.6.5,1,.5s.7-.2,1-.5c.3-.3.4-.8.4-1.4s-.1-1.2-.4-1.6c-.3-.3-.6-.5-1-.5s-.7.2-1,.5c-.3.3-.4.8-.4,1.5Z"/>
          <path id="ArialMT-695" data-name="ArialMT-69" class="st5" d="M51.2,245.7v-1h.9v1h-.9ZM51.2,251.9v-5.2h.9v5.2h-.9Z"/>
          <path id="ArialMT-758" data-name="ArialMT-75" class="st5" d="M56.8,251.9v-.8c-.4.6-1,.9-1.6.9s-.6,0-.9-.2c-.3-.1-.5-.3-.6-.4-.1-.2-.2-.4-.3-.7,0-.2,0-.4,0-.8v-3.2h.9v2.9c0,.5,0,.8,0,.9,0,.2.2.4.4.5.2.1.4.2.7.2s.5,0,.7-.2c.2-.1.4-.3.5-.6,0-.2.1-.6.1-1v-2.8h.9v5.2h-.8Z"/>
          <path id="ArialMT-6d5" data-name="ArialMT-6d" class="st5" d="M59,251.9v-5.2h.8v.7c.2-.3.4-.5.6-.6.3-.2.6-.2.9-.2s.7,0,.9.2.4.4.5.7c.4-.6.9-.9,1.6-.9s.9.1,1.2.4c.3.3.4.7.4,1.3v3.6h-.9v-3.3c0-.4,0-.6,0-.8,0-.2-.2-.3-.3-.4-.1,0-.3-.1-.5-.1-.4,0-.7.1-.9.4-.2.2-.4.6-.4,1.2v3h-.9v-3.4c0-.4,0-.7-.2-.9-.1-.2-.4-.3-.7-.3s-.5,0-.7.2c-.2.1-.4.3-.5.6,0,.3-.1.6-.1,1.1v2.7h-.9Z"/>
          <path id="ArialMT-2010" data-name="ArialMT-20" class="st5" d="M66.7,251.9"/>
          <path id="ArialMT-661" data-name="ArialMT-66" class="st5" d="M70.3,251.9v-4.5h-.8v-.7h.8v-.6c0-.3,0-.6,0-.8,0-.2.2-.4.4-.6.2-.1.5-.2.9-.2s.5,0,.8,0v.8c-.3,0-.5,0-.7,0-.3,0-.5,0-.6.2-.1.1-.2.3-.2.6v.5h1v.7h-1v4.5h-.9Z"/>
          <path id="ArialMT-759" data-name="ArialMT-75" class="st5" d="M76.3,251.9v-.8c-.4.6-1,.9-1.6.9s-.6,0-.9-.2c-.3-.1-.5-.3-.6-.4-.1-.2-.2-.4-.3-.7,0-.2,0-.4,0-.8v-3.2h.9v2.9c0,.5,0,.8,0,.9,0,.2.2.4.4.5.2.1.4.2.7.2s.5,0,.7-.2c.2-.1.4-.3.5-.6,0-.2.1-.6.1-1v-2.8h.9v5.2h-.8Z"/>
          <path id="ArialMT-6c8" data-name="ArialMT-6c" class="st5" d="M78.4,251.9v-7.2h.9v7.2h-.9Z"/>
          <path id="ArialMT-6c9" data-name="ArialMT-6c" class="st5" d="M80.6,251.9v-7.2h.9v7.2h-.9Z"/>
          <path id="ArialMT-2011" data-name="ArialMT-20" class="st5" d="M82.2,251.9"/>
          <path id="ArialMT-738" data-name="ArialMT-73" class="st5" d="M85.3,250.3h.9c0,.2.2.5.4.7.2.2.5.3.9.3s.7,0,.9-.2c.2-.2.3-.4.3-.6s0-.4-.3-.5c-.1,0-.4-.2-.9-.3-.6-.2-1.1-.3-1.3-.4s-.4-.3-.6-.5c-.1-.2-.2-.4-.2-.7s0-.4.2-.6c.1-.2.3-.4.4-.5.1-.1.3-.2.6-.3.2,0,.5-.1.8-.1.4,0,.8,0,1.1.2.3.1.5.3.7.5.1.2.2.5.3.8h-.9c0-.1-.2-.4-.3-.5-.2-.2-.5-.2-.8-.2s-.7,0-.9.2c-.2.1-.3.3-.3.5s0,.2.1.3c0,0,.2.2.3.2,0,0,.3.1.8.2.6.2,1.1.3,1.3.4.2.1.4.3.6.5.1.2.2.5.2.8s0,.6-.3.8c-.2.3-.4.5-.7.6-.3.1-.7.2-1.1.2-.7,0-1.2-.1-1.5-.4-.4-.3-.6-.7-.7-1.2Z"/>
          <path id="ArialMT-686" data-name="ArialMT-68" class="st5" d="M90.7,251.9v-7.2h.9v2.6c.4-.5.9-.7,1.6-.7s.7,0,1,.2c.3.2.5.4.6.6s.2.7.2,1.2v3.3h-.9v-3.3c0-.4,0-.8-.3-1s-.5-.3-.8-.3-.5,0-.7.2c-.2.1-.4.3-.5.5,0,.2-.1.6-.1,1v2.8h-.9Z"/>
          <path id="ArialMT-6f8" data-name="ArialMT-6f" class="st5" d="M95.9,249.3c0-1,.3-1.7.8-2.1.4-.4,1-.6,1.6-.6s1.3.2,1.7.7c.5.5.7,1.1.7,1.9s-.1,1.2-.3,1.6c-.2.4-.5.7-.9.9-.4.2-.8.3-1.3.3-.7,0-1.3-.2-1.8-.7-.4-.5-.7-1.1-.7-2ZM96.8,249.3c0,.7.1,1.2.4,1.5.3.3.7.5,1.1.5s.8-.2,1.1-.5c.3-.3.4-.8.4-1.5s-.1-1.1-.4-1.5-.7-.5-1.1-.5-.8.2-1.1.5c-.3.3-.4.8-.4,1.5Z"/>
          <path id="ArialMT-748" data-name="ArialMT-74" class="st5" d="M103.7,251.1v.8c-.1,0-.3,0-.5,0-.3,0-.6,0-.7-.2-.2-.1-.3-.2-.4-.4,0-.2-.1-.5-.1-1v-3h-.6v-.7h.6v-1.3l.9-.5v1.8h.9v.7h-.9v3c0,.3,0,.4,0,.5,0,0,0,.1.2.2,0,0,.2,0,.3,0s.2,0,.4,0Z"/>
        </g>
      </g>
    </g>
    <g id="ytick_5">
      <g id="line2d_12">
        <g class="st15">
          <path class="st1" d="M110.9,312.7h446.4"/>
        </g>
      </g>
      <g id="text_13">
        <g>
          <path id="ArialMT-4d4" data-name="ArialMT-4d" class="st5" d="M47.4,315.2v-7.2h1.4l1.7,5.1c.2.5.3.8.3,1.1,0-.3.2-.6.4-1.1l1.7-5h1.3v7.2h-.9v-6l-2.1,6h-.9l-2.1-6.1v6.1h-.9Z"/>
          <path id="ArialMT-658" data-name="ArialMT-65" class="st5" d="M59.2,313.6h.9c-.1.6-.4,1.1-.8,1.3-.4.3-.9.4-1.5.4s-1.4-.2-1.8-.7c-.4-.5-.7-1.1-.7-2s.2-1.6.7-2c.5-.5,1-.7,1.7-.7s1.3.2,1.7.7.7,1.1.7,2,0,.1,0,.2h-3.9c0,.6.2,1,.5,1.3.3.3.7.5,1.1.5s.6,0,.8-.3c.2-.2.4-.4.5-.8ZM56.3,312.2h2.9c0-.4-.1-.8-.3-1-.3-.3-.6-.5-1.1-.5s-.7.1-1,.4-.4.6-.5,1.1Z"/>
          <path id="ArialMT-646" data-name="ArialMT-64" class="st5" d="M64.6,315.2v-.7c-.3.5-.8.8-1.5.8s-.8-.1-1.1-.3-.6-.5-.8-1c-.2-.4-.3-.9-.3-1.4s0-1,.3-1.4c.2-.4.4-.7.8-1,.3-.2.7-.3,1.2-.3s.6,0,.8.2c.2.1.4.3.6.5v-2.6h.9v7.2h-.8ZM61.8,312.7c0,.7.1,1.2.4,1.5.3.3.6.5,1,.5s.7-.2,1-.5c.3-.3.4-.8.4-1.4s-.1-1.2-.4-1.6c-.3-.3-.6-.5-1-.5s-.7.2-1,.5c-.3.3-.4.8-.4,1.5Z"/>
          <path id="ArialMT-696" data-name="ArialMT-69" class="st5" d="M66.8,309.1v-1h.9v1h-.9ZM66.8,315.2v-5.2h.9v5.2h-.9Z"/>
          <path id="ArialMT-7510" data-name="ArialMT-75" class="st5" d="M72.4,315.2v-.8c-.4.6-1,.9-1.6.9s-.6,0-.9-.2c-.3-.1-.5-.3-.6-.4-.1-.2-.2-.4-.3-.7,0-.2,0-.4,0-.8v-3.2h.9v2.9c0,.5,0,.8,0,.9,0,.2.2.4.4.5.2.1.4.2.7.2s.5,0,.7-.2c.2-.1.4-.3.5-.6,0-.2.1-.6.1-1v-2.8h.9v5.2h-.8Z"/>
          <path id="ArialMT-6d6" data-name="ArialMT-6d" class="st5" d="M74.6,315.2v-5.2h.8v.7c.2-.3.4-.5.6-.6.3-.2.6-.2.9-.2s.7,0,.9.2.4.4.5.7c.4-.6.9-.9,1.6-.9s.9.1,1.2.4c.3.3.4.7.4,1.3v3.6h-.9v-3.3c0-.4,0-.6,0-.8,0-.2-.2-.3-.3-.4-.1,0-.3-.1-.5-.1-.4,0-.7.1-.9.4-.2.2-.4.6-.4,1.2v3h-.9v-3.4c0-.4,0-.7-.2-.9-.1-.2-.4-.3-.7-.3s-.5,0-.7.2c-.2.1-.4.3-.5.6,0,.3-.1.6-.1,1.1v2.7h-.9Z"/>
          <path id="ArialMT-2012" data-name="ArialMT-20" class="st5" d="M82.2,315.2"/>
          <path id="ArialMT-739" data-name="ArialMT-73" class="st5" d="M85.3,313.7h.9c0,.2.2.5.4.7.2.2.5.3.9.3s.7,0,.9-.2c.2-.2.3-.4.3-.6s0-.4-.3-.5c-.1,0-.4-.2-.9-.3-.6-.2-1.1-.3-1.3-.4s-.4-.3-.6-.5c-.1-.2-.2-.4-.2-.7s0-.4.2-.6c.1-.2.3-.4.4-.5.1-.1.3-.2.6-.3.2,0,.5-.1.8-.1.4,0,.8,0,1.1.2.3.1.5.3.7.5.1.2.2.5.3.8h-.9c0-.1-.2-.4-.3-.5-.2-.2-.5-.2-.8-.2s-.7,0-.9.2c-.2.1-.3.3-.3.5s0,.2.1.3c0,0,.2.2.3.2,0,0,.3.1.8.2.6.2,1.1.3,1.3.4.2.1.4.3.6.5.1.2.2.5.2.8s0,.6-.3.8c-.2.3-.4.5-.7.6-.3.1-.7.2-1.1.2-.7,0-1.2-.1-1.5-.4-.4-.3-.6-.7-.7-1.2Z"/>
          <path id="ArialMT-687" data-name="ArialMT-68" class="st5" d="M90.7,315.2v-7.2h.9v2.6c.4-.5.9-.7,1.6-.7s.7,0,1,.2c.3.2.5.4.6.6s.2.7.2,1.2v3.3h-.9v-3.3c0-.4,0-.8-.3-1s-.5-.3-.8-.3-.5,0-.7.2c-.2.1-.4.3-.5.5,0,.2-.1.6-.1,1v2.8h-.9Z"/>
          <path id="ArialMT-6f9" data-name="ArialMT-6f" class="st5" d="M95.9,312.7c0-1,.3-1.7.8-2.1.4-.4,1-.6,1.6-.6s1.3.2,1.7.7c.5.5.7,1.1.7,1.9s-.1,1.2-.3,1.6c-.2.4-.5.7-.9.9-.4.2-.8.3-1.3.3-.7,0-1.3-.2-1.8-.7-.4-.5-.7-1.1-.7-2ZM96.8,312.7c0,.7.1,1.2.4,1.5.3.3.7.5,1.1.5s.8-.2,1.1-.5c.3-.3.4-.8.4-1.5s-.1-1.1-.4-1.5-.7-.5-1.1-.5-.8.2-1.1.5c-.3.3-.4.8-.4,1.5Z"/>
          <path id="ArialMT-749" data-name="ArialMT-74" class="st5" d="M103.7,314.5v.8c-.1,0-.3,0-.5,0-.3,0-.6,0-.7-.2-.2-.1-.3-.2-.4-.4,0-.2-.1-.5-.1-1v-3h-.6v-.7h.6v-1.3l.9-.5v1.8h.9v.7h-.9v3c0,.3,0,.4,0,.5,0,0,0,.1.2.2,0,0,.2,0,.3,0s.2,0,.4,0Z"/>
        </g>
      </g>
    </g>
    <g id="ytick_6">
      <g id="line2d_13">
        <g class="st22">
          <path class="st1" d="M110.9,376h446.4"/>
        </g>
      </g>
      <g id="text_14">
        <g>
          <path id="ArialMT-4d5" data-name="ArialMT-4d" class="st5" d="M29.1,378.6v-7.2h1.4l1.7,5.1c.2.5.3.8.3,1.1,0-.3.2-.6.4-1.1l1.7-5h1.3v7.2h-.9v-6l-2.1,6h-.9l-2.1-6.1v6.1h-.9Z"/>
          <path id="ArialMT-659" data-name="ArialMT-65" class="st5" d="M40.9,376.9h.9c-.1.6-.4,1.1-.8,1.3-.4.3-.9.4-1.5.4s-1.4-.2-1.8-.7c-.4-.5-.7-1.1-.7-2s.2-1.6.7-2c.5-.5,1-.7,1.7-.7s1.3.2,1.7.7.7,1.1.7,2,0,.1,0,.2h-3.9c0,.6.2,1,.5,1.3.3.3.7.5,1.1.5s.6,0,.8-.3c.2-.2.4-.4.5-.8ZM38,375.5h2.9c0-.4-.1-.8-.3-1-.3-.3-.6-.5-1.1-.5s-.7.1-1,.4-.4.6-.5,1.1Z"/>
          <path id="ArialMT-647" data-name="ArialMT-64" class="st5" d="M46.2,378.6v-.7c-.3.5-.8.8-1.5.8s-.8-.1-1.1-.3-.6-.5-.8-1c-.2-.4-.3-.9-.3-1.4s0-1,.3-1.4c.2-.4.4-.7.8-1,.3-.2.7-.3,1.2-.3s.6,0,.8.2c.2.1.4.3.6.5v-2.6h.9v7.2h-.8ZM43.5,376c0,.7.1,1.2.4,1.5.3.3.6.5,1,.5s.7-.2,1-.5c.3-.3.4-.8.4-1.4s-.1-1.2-.4-1.6c-.3-.3-.6-.5-1-.5s-.7.2-1,.5c-.3.3-.4.8-.4,1.5Z"/>
          <path id="ArialMT-697" data-name="ArialMT-69" class="st5" d="M48.4,372.5v-1h.9v1h-.9ZM48.4,378.6v-5.2h.9v5.2h-.9Z"/>
          <path id="ArialMT-7511" data-name="ArialMT-75" class="st5" d="M54,378.6v-.8c-.4.6-1,.9-1.6.9s-.6,0-.9-.2c-.3-.1-.5-.3-.6-.4-.1-.2-.2-.4-.3-.7,0-.2,0-.4,0-.8v-3.2h.9v2.9c0,.5,0,.8,0,.9,0,.2.2.4.4.5.2.1.4.2.7.2s.5,0,.7-.2c.2-.1.4-.3.5-.6,0-.2.1-.6.1-1v-2.8h.9v5.2h-.8Z"/>
          <path id="ArialMT-6d7" data-name="ArialMT-6d" class="st5" d="M56.2,378.6v-5.2h.8v.7c.2-.3.4-.5.6-.6.3-.2.6-.2.9-.2s.7,0,.9.2.4.4.5.7c.4-.6.9-.9,1.6-.9s.9.1,1.2.4c.3.3.4.7.4,1.3v3.6h-.9v-3.3c0-.4,0-.6,0-.8,0-.2-.2-.3-.3-.4-.1,0-.3-.1-.5-.1-.4,0-.7.1-.9.4-.2.2-.4.6-.4,1.2v3h-.9v-3.4c0-.4,0-.7-.2-.9-.1-.2-.4-.3-.7-.3s-.5,0-.7.2c-.2.1-.4.3-.5.6,0,.3-.1.6-.1,1.1v2.7h-.9Z"/>
          <path id="ArialMT-2013" data-name="ArialMT-20" class="st5" d="M63.9,378.6"/>
          <path id="ArialMT-631" data-name="ArialMT-63" class="st5" d="M70.7,376.7h.9c0,.7-.3,1.2-.7,1.5-.4.3-.9.5-1.4.5s-1.3-.2-1.7-.7c-.4-.5-.6-1.1-.6-2s0-1,.3-1.5c.2-.4.5-.7.8-.9.4-.2.8-.3,1.2-.3s1,.1,1.4.4c.4.3.6.7.7,1.2h-.9c0-.2-.2-.5-.4-.7-.2-.2-.5-.3-.8-.3-.4,0-.8.2-1.1.5-.3.3-.4.8-.4,1.5s.1,1.2.4,1.5c.3.3.6.5,1,.5s.6-.1.9-.3c.2-.2.4-.5.4-1Z"/>
          <path id="ArialMT-6c10" data-name="ArialMT-6c" class="st5" d="M72.3,378.6v-7.2h.9v7.2h-.9Z"/>
          <path id="ArialMT-6f10" data-name="ArialMT-6f" class="st5" d="M74.2,376c0-1,.3-1.7.8-2.1.4-.4,1-.6,1.6-.6s1.3.2,1.7.7c.5.5.7,1.1.7,1.9s-.1,1.2-.3,1.6c-.2.4-.5.7-.9.9-.4.2-.8.3-1.3.3-.7,0-1.3-.2-1.8-.7-.4-.5-.7-1.1-.7-2ZM75.1,376c0,.7.1,1.2.4,1.5.3.3.7.5,1.1.5s.8-.2,1.1-.5c.3-.3.4-.8.4-1.5s-.1-1.1-.4-1.5-.7-.5-1.1-.5-.8.2-1.1.5c-.3.3-.4.8-.4,1.5Z"/>
          <path id="ArialMT-7310" data-name="ArialMT-73" class="st5" d="M79.8,377.1h.9c0,.2.2.5.4.7.2.2.5.3.9.3s.7,0,.9-.2c.2-.2.3-.4.3-.6s0-.4-.3-.5c-.1,0-.4-.2-.9-.3-.6-.2-1.1-.3-1.3-.4s-.4-.3-.6-.5c-.1-.2-.2-.4-.2-.7s0-.4.2-.6c.1-.2.3-.4.4-.5.1-.1.3-.2.6-.3.2,0,.5-.1.8-.1.4,0,.8,0,1.1.2.3.1.5.3.7.5.1.2.2.5.3.8h-.9c0-.1-.2-.4-.3-.5-.2-.2-.5-.2-.8-.2s-.7,0-.9.2c-.2.1-.3.3-.3.5s0,.2.1.3c0,0,.2.2.3.2,0,0,.3.1.8.2.6.2,1.1.3,1.3.4.2.1.4.3.6.5.1.2.2.5.2.8s0,.6-.3.8c-.2.3-.4.5-.7.6-.3.1-.7.2-1.1.2-.7,0-1.2-.1-1.5-.4-.4-.3-.6-.7-.7-1.2Z"/>
          <path id="ArialMT-6510" data-name="ArialMT-65" class="st5" d="M88.7,376.9h.9c-.1.6-.4,1.1-.8,1.3-.4.3-.9.4-1.5.4s-1.4-.2-1.8-.7c-.4-.5-.7-1.1-.7-2s.2-1.6.7-2c.5-.5,1-.7,1.7-.7s1.3.2,1.7.7.7,1.1.7,2,0,.1,0,.2h-3.9c0,.6.2,1,.5,1.3.3.3.7.5,1.1.5s.6,0,.8-.3c.2-.2.4-.4.5-.8ZM85.8,375.5h2.9c0-.4-.1-.8-.3-1-.3-.3-.6-.5-1.1-.5s-.7.1-1,.4-.4.6-.5,1.1Z"/>
          <path id="ArialMT-2014" data-name="ArialMT-20" class="st5" d="M90,378.6"/>
          <path id="ArialMT-7512" data-name="ArialMT-75" class="st5" d="M96.8,378.6v-.8c-.4.6-1,.9-1.6.9s-.6,0-.9-.2c-.3-.1-.5-.3-.6-.4-.1-.2-.2-.4-.3-.7,0-.2,0-.4,0-.8v-3.2h.9v2.9c0,.5,0,.8,0,.9,0,.2.2.4.4.5.2.1.4.2.7.2s.5,0,.7-.2c.2-.1.4-.3.5-.6,0-.2.1-.6.1-1v-2.8h.9v5.2h-.8Z"/>
          <path id="ArialMT-704" data-name="ArialMT-70" class="st5" d="M99,380.6v-7.2h.8v.7c.2-.3.4-.5.6-.6.2-.1.5-.2.9-.2s.8.1,1.2.3.6.6.8,1c.2.4.3.9.3,1.4s0,1-.3,1.4c-.2.4-.5.8-.8,1-.4.2-.7.3-1.1.3s-.6,0-.8-.2c-.2-.1-.4-.3-.6-.5v2.5h-.9ZM99.8,376c0,.7.1,1.2.4,1.5.3.3.6.5,1,.5s.7-.2,1-.5c.3-.3.4-.8.4-1.5s-.1-1.2-.4-1.5c-.3-.3-.6-.5-1-.5s-.7.2-1,.5c-.3.4-.4.9-.4,1.5Z"/>
        </g>
      </g>
    </g>
    <g id="ytick_7">
      <g id="line2d_14">
        <g class="st20">
          <path class="st1" d="M110.9,439.4h446.4"/>
        </g>
      </g>
      <g id="text_15">
        <g>
          <path id="ArialMT-431" data-name="ArialMT-43" class="st5" d="M70.3,439.5l.9.2c-.2.8-.6,1.4-1.1,1.8-.5.4-1.1.6-1.9.6s-1.4-.2-1.9-.5c-.5-.3-.9-.8-1.1-1.4-.3-.6-.4-1.2-.4-1.9s.1-1.4.4-2c.3-.6.7-1,1.2-1.3.5-.3,1.1-.4,1.7-.4s1.3.2,1.8.5c.5.4.8.9,1,1.5l-.9.2c-.2-.5-.4-.9-.7-1.1-.3-.2-.7-.4-1.2-.4s-1,.1-1.4.4c-.4.3-.6.6-.8,1.1-.1.4-.2.9-.2,1.4s0,1.1.3,1.6c.2.5.5.8.8,1,.4.2.8.3,1.2.3s1-.2,1.3-.5c.4-.3.6-.8.7-1.4Z"/>
          <path id="ArialMT-6c11" data-name="ArialMT-6c" class="st5" d="M72.3,442v-7.2h.9v7.2h-.9Z"/>
          <path id="ArialMT-6f11" data-name="ArialMT-6f" class="st5" d="M74.2,439.4c0-1,.3-1.7.8-2.1.4-.4,1-.6,1.6-.6s1.3.2,1.7.7c.5.5.7,1.1.7,1.9s-.1,1.2-.3,1.6c-.2.4-.5.7-.9.9-.4.2-.8.3-1.3.3-.7,0-1.3-.2-1.8-.7-.4-.5-.7-1.1-.7-2ZM75.1,439.4c0,.7.1,1.2.4,1.5.3.3.7.5,1.1.5s.8-.2,1.1-.5c.3-.3.4-.8.4-1.5s-.1-1.1-.4-1.5-.7-.5-1.1-.5-.8.2-1.1.5c-.3.3-.4.8-.4,1.5Z"/>
          <path id="ArialMT-7311" data-name="ArialMT-73" class="st5" d="M79.7,440.5h.9c0,.2.2.5.4.7.2.2.5.3.9.3s.7,0,.9-.2c.2-.2.3-.4.3-.6s0-.4-.3-.5c-.1,0-.4-.2-.9-.3-.6-.2-1.1-.3-1.3-.4s-.4-.3-.6-.5c-.1-.2-.2-.4-.2-.7s0-.4.2-.6c.1-.2.3-.4.4-.5.1-.1.3-.2.6-.3.2,0,.5-.1.8-.1.4,0,.8,0,1.1.2.3.1.5.3.7.5.1.2.2.5.3.8h-.9c0-.1-.2-.4-.3-.5-.2-.2-.5-.2-.8-.2s-.7,0-.9.2c-.2.1-.3.3-.3.5s0,.2.1.3c0,0,.2.2.3.2,0,0,.3.1.8.2.6.2,1.1.3,1.3.4.2.1.4.3.6.5.1.2.2.5.2.8s0,.6-.3.8c-.2.3-.4.5-.7.6-.3.1-.7.2-1.1.2-.7,0-1.2-.1-1.5-.4-.4-.3-.6-.7-.7-1.2Z"/>
          <path id="ArialMT-6511" data-name="ArialMT-65" class="st5" d="M88.6,440.4h.9c-.1.6-.4,1.1-.8,1.3-.4.3-.9.4-1.5.4s-1.4-.2-1.8-.7c-.4-.5-.7-1.1-.7-2s.2-1.6.7-2c.5-.5,1-.7,1.7-.7s1.3.2,1.7.7.7,1.1.7,2,0,.1,0,.2h-3.9c0,.6.2,1,.5,1.3.3.3.7.5,1.1.5s.6,0,.8-.3c.2-.2.4-.4.5-.8ZM85.8,438.9h2.9c0-.4-.1-.8-.3-1-.3-.3-.6-.5-1.1-.5s-.7.1-1,.4-.4.6-.5,1.1Z"/>
          <path id="ArialMT-2015" data-name="ArialMT-20" class="st5" d="M90,442"/>
          <path id="ArialMT-7513" data-name="ArialMT-75" class="st5" d="M96.8,442v-.8c-.4.6-1,.9-1.6.9s-.6,0-.9-.2c-.3-.1-.5-.3-.6-.4-.1-.2-.2-.4-.3-.7,0-.2,0-.4,0-.8v-3.2h.9v2.9c0,.5,0,.8,0,.9,0,.2.2.4.4.5.2.1.4.2.7.2s.5,0,.7-.2c.2-.1.4-.3.5-.6,0-.2.1-.6.1-1v-2.8h.9v5.2h-.8Z"/>
          <path id="ArialMT-705" data-name="ArialMT-70" class="st5" d="M99,444v-7.2h.8v.7c.2-.3.4-.5.6-.6.2-.1.5-.2.9-.2s.8.1,1.2.3.6.6.8,1c.2.4.3.9.3,1.4s0,1-.3,1.4c-.2.4-.5.8-.8,1-.4.2-.7.3-1.1.3s-.6,0-.8-.2c-.2-.1-.4-.3-.6-.5v2.5h-.9ZM99.8,439.5c0,.7.1,1.2.4,1.5.3.3.6.5,1,.5s.7-.2,1-.5c.3-.3.4-.8.4-1.5s-.1-1.2-.4-1.5c-.3-.3-.6-.5-1-.5s-.7.2-1,.5c-.3.4-.4.9-.4,1.5Z"/>
        </g>
      </g>
    </g>
  </g>
  <g id="QuadMesh_1">
    <g class="st21">
      <path class="st85" d="M110.9,27.5h63.8v63.4h-63.8V27.5"/>
    </g>
    <g class="st19">
      <path class="st8" d="M174.7,27.5h63.8v63.4h-63.8V27.5"/>
    </g>
    <g class="st16">
      <path class="st2" d="M238.4,27.5h63.8v63.4h-63.8V27.5"/>
    </g>
    <g class="st13">
      <path class="st2" d="M302.2,27.5h63.8v63.4h-63.8V27.5"/>
    </g>
    <g class="st17">
      <path class="st82" d="M366,27.5h63.8v63.4h-63.8V27.5"/>
    </g>
    <g class="st14">
      <path class="st83" d="M429.8,27.5h63.8v63.4h-63.8V27.5"/>
    </g>
    <g class="st50">
      <path class="st9" d="M493.5,27.5h63.8v63.4h-63.8V27.5"/>
    </g>
    <g class="st51">
      <path class="st80" d="M110.9,90.9h63.8v63.4h-63.8v-63.4"/>
    </g>
    <g class="st52">
      <path class="st7" d="M174.7,90.9h63.8v63.4h-63.8v-63.4"/>
    </g>
    <g class="st53">
      <path class="st9" d="M238.4,90.9h63.8v63.4h-63.8v-63.4"/>
    </g>
    <g class="st54">
      <path class="st2" d="M302.2,90.9h63.8v63.4h-63.8v-63.4"/>
    </g>
    <g class="st55">
      <path class="st9" d="M366,90.9h63.8v63.4h-63.8v-63.4"/>
    </g>
    <g class="st48">
      <path class="st83" d="M429.8,90.9h63.8v63.4h-63.8v-63.4"/>
    </g>
    <g class="st46">
      <path class="st9" d="M493.5,90.9h63.8v63.4h-63.8v-63.4"/>
    </g>
    <g class="st49">
      <path class="st9" d="M110.9,154.3h63.8v63.4h-63.8v-63.4"/>
    </g>
    <g class="st47">
      <path class="st11" d="M174.7,154.3h63.8v63.4h-63.8v-63.4"/>
    </g>
    <g class="st42">
      <path class="st79" d="M238.4,154.3h63.8v63.4h-63.8v-63.4"/>
    </g>
    <g class="st36">
      <path class="st80" d="M302.2,154.3h63.8v63.4h-63.8v-63.4"/>
    </g>
    <g class="st37">
      <path class="st9" d="M366,154.3h63.8v63.4h-63.8v-63.4"/>
    </g>
    <g class="st38">
      <path class="st9" d="M429.8,154.3h63.8v63.4h-63.8v-63.4"/>
    </g>
    <g class="st39">
      <path class="st9" d="M493.5,154.3h63.8v63.4h-63.8v-63.4"/>
    </g>
    <g class="st40">
      <path class="st9" d="M110.9,217.6h63.8v63.4h-63.8v-63.4"/>
    </g>
    <g class="st43">
      <path class="st80" d="M174.7,217.6h63.8v63.4h-63.8v-63.4"/>
    </g>
    <g class="st44">
      <path class="st80" d="M238.4,217.6h63.8v63.4h-63.8v-63.4"/>
    </g>
    <g class="st45">
      <path class="st88" d="M302.2,217.6h63.8v63.4h-63.8v-63.4"/>
    </g>
    <g class="st41">
      <path class="st81" d="M366,217.6h63.8v63.4h-63.8v-63.4"/>
    </g>
    <g class="st62">
      <path class="st9" d="M429.8,217.6h63.8v63.4h-63.8v-63.4"/>
    </g>
    <g class="st56">
      <path class="st9" d="M493.5,217.6h63.8v63.4h-63.8v-63.4"/>
    </g>
    <g class="st57">
      <path class="st9" d="M110.9,281h63.8v63.4h-63.8v-63.4"/>
    </g>
    <g class="st58">
      <path class="st2" d="M174.7,281h63.8v63.4h-63.8v-63.4"/>
    </g>
    <g class="st59">
      <path class="st9" d="M238.4,281h63.8v63.4h-63.8v-63.4"/>
    </g>
    <g class="st60">
      <path class="st10" d="M302.2,281h63.8v63.4h-63.8v-63.4"/>
    </g>
    <g class="st63">
      <path class="st78" d="M366,281h63.8v63.4h-63.8v-63.4"/>
    </g>
    <g class="st64">
      <path class="st6" d="M429.8,281h63.8v63.4h-63.8v-63.4"/>
    </g>
    <g class="st65">
      <path class="st9" d="M493.5,281h63.8v63.4h-63.8v-63.4"/>
    </g>
    <g class="st61">
      <path class="st9" d="M110.9,344.3h63.8v63.4h-63.8v-63.4"/>
    </g>
    <g class="st26">
      <path class="st9" d="M174.7,344.3h63.8v63.4h-63.8v-63.4"/>
    </g>
    <g class="st33">
      <path class="st9" d="M238.4,344.3h63.8v63.4h-63.8v-63.4"/>
    </g>
    <g class="st28">
      <path class="st9" d="M302.2,344.3h63.8v63.4h-63.8v-63.4"/>
    </g>
    <g class="st32">
      <path class="st80" d="M366,344.3h63.8v63.4h-63.8v-63.4"/>
    </g>
    <g class="st30">
      <path class="st77" d="M429.8,344.3h63.8v63.4h-63.8v-63.4"/>
    </g>
    <g class="st27">
      <path class="st9" d="M493.5,344.3h63.8v63.4h-63.8v-63.4"/>
    </g>
    <g class="st31">
      <path class="st9" d="M110.9,407.7h63.8v63.4h-63.8v-63.4"/>
    </g>
    <g class="st29">
      <path class="st9" d="M174.7,407.7h63.8v63.4h-63.8v-63.4"/>
    </g>
    <g class="st34">
      <path class="st9" d="M238.4,407.7h63.8v63.4h-63.8v-63.4"/>
    </g>
    <g class="st35">
      <path class="st9" d="M302.2,407.7h63.8v63.4h-63.8v-63.4"/>
    </g>
    <g class="st24">
      <path class="st9" d="M366,407.7h63.8v63.4h-63.8v-63.4"/>
    </g>
    <g class="st23">
      <path class="st86" d="M429.8,407.7h63.8v63.4h-63.8v-63.4"/>
    </g>
    <g class="st25">
      <path class="st75" d="M493.5,407.7h63.8v63.4h-63.8v-63.4"/>
    </g>
  </g>
  <g id="text_17">
    <g>
      <path id="ArialMT-33" class="st76" d="M134.9,59.9h.9c.1.4.3.7.5,1,.2.2.5.3.9.3s.8-.1,1-.4c.3-.3.4-.6.4-1.1s-.1-.7-.4-1c-.3-.3-.6-.4-1-.4s-.4,0-.6,0v-.8c.2,0,.2,0,.2,0,.4,0,.7,0,1-.3.3-.2.5-.5.5-.9s-.1-.6-.3-.8c-.2-.2-.5-.3-.8-.3s-.6.1-.9.3c-.2.2-.4.5-.4,1l-.9-.2c.1-.6.4-1,.7-1.4.4-.3.9-.5,1.4-.5s.8,0,1.1.3c.3.2.6.4.8.7.2.3.3.6.3.9s0,.6-.3.8c-.2.3-.4.5-.7.6.4,0,.8.3,1,.6.2.3.4.7.4,1.2s-.2,1.2-.7,1.6c-.5.4-1,.7-1.7.7s-1.2-.2-1.6-.6c-.4-.4-.7-.9-.7-1.5Z"/>
      <path id="ArialMT-31" class="st76" d="M143.7,61.8h-.9v-5.6c-.2.2-.5.4-.8.6s-.7.4-.9.5v-.9c.5-.2.9-.5,1.3-.8.4-.3.6-.6.8-1h.6v7.2Z"/>
      <path id="ArialMT-36" class="st76" d="M150.5,56.4h-.9c0-.3-.2-.5-.3-.7-.2-.3-.5-.4-.9-.4s-.5,0-.7.2c-.3.2-.5.5-.7.9-.2.4-.2.9-.2,1.7.2-.3.5-.6.8-.7s.6-.2,1-.2c.6,0,1.1.2,1.5.6.4.4.6,1,.6,1.7s0,.9-.3,1.3c-.2.4-.5.7-.8.9-.3.2-.7.3-1.2.3-.7,0-1.3-.3-1.8-.8-.5-.5-.7-1.4-.7-2.7s.3-2.4.8-3c.4-.5,1-.8,1.8-.8s1,.2,1.4.5c.4.3.6.8.6,1.3ZM147,59.5c0,.3,0,.6.2.9.1.3.3.5.5.6.2.1.5.2.7.2.4,0,.7-.1,1-.4.3-.3.4-.7.4-1.2s-.1-.9-.4-1.2c-.3-.3-.6-.4-1-.4s-.7.1-1,.4c-.3.3-.4.7-.4,1.1Z"/>
    </g>
  </g>
  <g id="text_18">
    <path id="ArialMT-35" class="st5" d="M204.2,59.9h.9c0,.4.2.7.5.9.2.2.5.3.9.3s.8-.2,1.1-.5c.3-.3.4-.7.4-1.3s-.1-.9-.4-1.2c-.3-.3-.7-.4-1.1-.4s-.5,0-.8.2c-.2.1-.4.3-.5.5h-.8c0-.1.7-3.8.7-3.8h3.6v.8h-2.9l-.4,1.9c.4-.3.9-.5,1.4-.5s1.2.2,1.6.7c.4.4.6,1,.6,1.7s-.2,1.2-.6,1.7c-.5.6-1.1.9-1.9.9s-1.2-.2-1.6-.5c-.4-.4-.6-.8-.7-1.5Z"/>
  </g>
  <g id="text_19">
    <path id="ArialMT-331" data-name="ArialMT-33" class="st5" d="M268,59.9h.9c.1.4.3.7.5,1,.2.2.5.3.9.3s.8-.1,1-.4c.3-.3.4-.6.4-1.1s-.1-.7-.4-1c-.3-.3-.6-.4-1-.4s-.4,0-.6,0v-.8c.2,0,.2,0,.2,0,.4,0,.7,0,1-.3.3-.2.5-.5.5-.9s-.1-.6-.3-.8c-.2-.2-.5-.3-.8-.3s-.6.1-.9.3c-.2.2-.4.5-.4,1l-.9-.2c.1-.6.4-1,.7-1.4.4-.3.9-.5,1.4-.5s.8,0,1.1.3c.3.2.6.4.8.7.2.3.3.6.3.9s0,.6-.3.8c-.2.3-.4.5-.7.6.4,0,.8.3,1,.6.2.3.4.7.4,1.2s-.2,1.2-.7,1.6c-.5.4-1,.7-1.7.7s-1.2-.2-1.6-.6c-.4-.4-.7-.9-.7-1.5Z"/>
  </g>
  <g id="text_20">
    <path id="ArialMT-332" data-name="ArialMT-33" class="st5" d="M331.7,59.9h.9c.1.4.3.7.5,1,.2.2.5.3.9.3s.8-.1,1-.4c.3-.3.4-.6.4-1.1s-.1-.7-.4-1c-.3-.3-.6-.4-1-.4s-.4,0-.6,0v-.8c.2,0,.2,0,.2,0,.4,0,.7,0,1-.3.3-.2.5-.5.5-.9s-.1-.6-.3-.8c-.2-.2-.5-.3-.8-.3s-.6.1-.9.3c-.2.2-.4.5-.4,1l-.9-.2c.1-.6.4-1,.7-1.4.4-.3.9-.5,1.4-.5s.8,0,1.1.3c.3.2.6.4.8.7.2.3.3.6.3.9s0,.6-.3.8c-.2.3-.4.5-.7.6.4,0,.8.3,1,.6.2.3.4.7.4,1.2s-.2,1.2-.7,1.6c-.5.4-1,.7-1.7.7s-1.2-.2-1.6-.6c-.4-.4-.7-.9-.7-1.5Z"/>
  </g>
  <g id="text_21">
    <g>
      <path id="ArialMT-311" data-name="ArialMT-31" class="st5" d="M396,61.8h-.9v-5.6c-.2.2-.5.4-.8.6s-.7.4-.9.5v-.9c.5-.2.9-.5,1.3-.8.4-.3.6-.6.8-1h.6v7.2Z"/>
      <path id="ArialMT-351" data-name="ArialMT-35" class="st5" d="M398.3,59.9h.9c0,.4.2.7.5.9.2.2.5.3.9.3s.8-.2,1.1-.5c.3-.3.4-.7.4-1.3s-.1-.9-.4-1.2c-.3-.3-.7-.4-1.1-.4s-.5,0-.8.2c-.2.1-.4.3-.5.5h-.8c0-.1.7-3.8.7-3.8h3.6v.8h-2.9l-.4,1.9c.4-.3.9-.5,1.4-.5s1.2.2,1.6.7c.4.4.6,1,.6,1.7s-.2,1.2-.6,1.7c-.5.6-1.1.9-1.9.9s-1.2-.2-1.6-.5c-.4-.4-.6-.8-.7-1.5Z"/>
    </g>
  </g>
  <g id="text_22">
    <path id="ArialMT-32" class="st5" d="M463.9,61v.8h-4.7c0-.2,0-.4.1-.6.1-.3.3-.6.6-1,.3-.3.6-.7,1.2-1.1.8-.6,1.3-1.1,1.6-1.5.3-.4.4-.7.4-1.1s-.1-.6-.4-.9c-.2-.2-.6-.4-1-.4s-.8.1-1,.4c-.3.3-.4.6-.4,1.1h-.9c0-.8.3-1.3.7-1.6.4-.4.9-.5,1.6-.5s1.2.2,1.6.6c.4.4.6.9.6,1.4s0,.6-.2.8c-.1.3-.3.6-.6.9s-.7.7-1.4,1.3c-.5.4-.9.7-1,.9-.1.2-.3.3-.4.5h3.5Z"/>
  </g>
  <g id="text_23">
    <path id="ArialMT-312" data-name="ArialMT-31" class="st5" d="M526.4,61.8h-.9v-5.6c-.2.2-.5.4-.8.6s-.7.4-.9.5v-.9c.5-.2.9-.5,1.3-.8.4-.3.6-.6.8-1h.6v7.2Z"/>
  </g>
  <g id="text_24">
    <path id="ArialMT-37" class="st5" d="M140.5,118.9v-.8h4.6v.7c-.5.5-.9,1.1-1.4,1.9-.4.8-.8,1.6-1,2.5-.2.6-.3,1.3-.3,2h-.9c0-.6.1-1.2.3-2,.2-.8.5-1.6.9-2.3s.8-1.4,1.3-1.9h-3.5Z"/>
  </g>
  <g id="text_25">
    <g>
      <path id="ArialMT-38" class="st5" d="M202.8,121.3c-.4-.1-.6-.3-.8-.6-.2-.2-.3-.5-.3-.9,0-.5.2-1,.6-1.3.4-.4.9-.5,1.5-.5s1.1.2,1.5.5c.4.4.6.8.6,1.3s0,.6-.3.9c-.2.2-.4.4-.8.6.4.1.8.4,1,.7.2.3.3.7.3,1.1s-.2,1.1-.7,1.5c-.4.4-1,.6-1.7.6s-1.3-.2-1.7-.6c-.4-.4-.7-.9-.7-1.6s.1-.9.4-1.2c.2-.3.6-.5,1-.6ZM202.6,119.8c0,.3.1.6.3.8.2.2.5.3.9.3s.6-.1.8-.3c.2-.2.3-.5.3-.8s-.1-.6-.3-.8c-.2-.2-.5-.3-.8-.3s-.6.1-.8.3c-.2.2-.3.5-.3.8ZM202.3,123.1c0,.3,0,.5.2.7s.3.4.5.5c.2.1.5.2.8.2.4,0,.8-.1,1-.4.3-.3.4-.6.4-1s-.1-.8-.4-1.1c-.3-.3-.6-.4-1.1-.4s-.8.1-1,.4c-.3.3-.4.6-.4,1Z"/>
      <path id="ArialMT-361" data-name="ArialMT-36" class="st5" d="M211.5,119.8h-.9c0-.3-.2-.5-.3-.7-.2-.3-.5-.4-.9-.4s-.5,0-.7.2c-.3.2-.5.5-.7.9-.2.4-.2.9-.2,1.7.2-.3.5-.6.8-.7s.6-.2,1-.2c.6,0,1.1.2,1.5.6.4.4.6,1,.6,1.7s0,.9-.3,1.3c-.2.4-.5.7-.8.9-.3.2-.7.3-1.2.3-.7,0-1.3-.3-1.8-.8-.5-.5-.7-1.4-.7-2.7s.3-2.4.8-3c.4-.5,1-.8,1.8-.8s1,.2,1.4.5c.4.3.6.8.6,1.3ZM207.9,122.8c0,.3,0,.6.2.9.1.3.3.5.5.6.2.1.5.2.7.2.4,0,.7-.1,1-.4.3-.3.4-.7.4-1.2s-.1-.9-.4-1.2c-.3-.3-.6-.4-1-.4s-.7.1-1,.4c-.3.3-.4.7-.4,1.1Z"/>
    </g>
  </g>
  <g id="text_26">
    <path id="ArialMT-313" data-name="ArialMT-31" class="st5" d="M271.3,125.2h-.9v-5.6c-.2.2-.5.4-.8.6s-.7.4-.9.5v-.9c.5-.2.9-.5,1.3-.8.4-.3.6-.6.8-1h.6v7.2Z"/>
  </g>
  <g id="text_27">
    <path id="ArialMT-333" data-name="ArialMT-33" class="st5" d="M331.7,123.3h.9c.1.4.3.7.5,1,.2.2.5.3.9.3s.8-.1,1-.4c.3-.3.4-.6.4-1.1s-.1-.7-.4-1c-.3-.3-.6-.4-1-.4s-.4,0-.6,0v-.8c.2,0,.2,0,.2,0,.4,0,.7,0,1-.3.3-.2.5-.5.5-.9s-.1-.6-.3-.8c-.2-.2-.5-.3-.8-.3s-.6.1-.9.3c-.2.2-.4.5-.4,1l-.9-.2c.1-.6.4-1,.7-1.4.4-.3.9-.5,1.4-.5s.8,0,1.1.3c.3.2.6.4.8.7.2.3.3.6.3.9s0,.6-.3.8c-.2.3-.4.5-.7.6.4,0,.8.3,1,.6.2.3.4.7.4,1.2s-.2,1.2-.7,1.6c-.5.4-1,.7-1.7.7s-1.2-.2-1.6-.6c-.4-.4-.7-.9-.7-1.5Z"/>
  </g>
  <g id="text_28">
    <path id="ArialMT-314" data-name="ArialMT-31" class="st5" d="M398.8,125.2h-.9v-5.6c-.2.2-.5.4-.8.6s-.7.4-.9.5v-.9c.5-.2.9-.5,1.3-.8.4-.3.6-.6.8-1h.6v7.2Z"/>
  </g>
  <g id="text_29">
    <path id="ArialMT-321" data-name="ArialMT-32" class="st5" d="M463.9,124.3v.8h-4.7c0-.2,0-.4.1-.6.1-.3.3-.6.6-1,.3-.3.6-.7,1.2-1.1.8-.6,1.3-1.1,1.6-1.5.3-.4.4-.7.4-1.1s-.1-.6-.4-.9c-.2-.2-.6-.4-1-.4s-.8.1-1,.4c-.3.3-.4.6-.4,1.1h-.9c0-.8.3-1.3.7-1.6.4-.4.9-.5,1.6-.5s1.2.2,1.6.6c.4.4.6.9.6,1.4s0,.6-.2.8c-.1.3-.3.6-.6.9s-.7.7-1.4,1.3c-.5.4-.9.7-1,.9-.1.2-.3.3-.4.5h3.5Z"/>
  </g>
  <g id="text_30">
    <path id="ArialMT-30" class="st5" d="M523.1,121.6c0-.8,0-1.5.3-2,.2-.5.4-.9.8-1.2.3-.3.8-.4,1.3-.4s.7,0,1,.2c.3.2.5.4.7.7.2.3.3.6.4,1.1.1.4.2,1,.2,1.7s0,1.5-.3,2c-.2.5-.4.9-.8,1.2-.3.3-.8.4-1.3.4s-1.2-.2-1.6-.7c-.5-.6-.7-1.6-.7-2.9ZM524,121.6c0,1.2.1,2,.4,2.3.3.4.6.6,1,.6s.7-.2,1-.6.4-1.2.4-2.3-.1-2-.4-2.3c-.3-.4-.6-.6-1-.6s-.7.2-1,.5c-.3.4-.5,1.2-.5,2.4Z"/>
  </g>
  <g id="text_31">
    <path id="ArialMT-315" data-name="ArialMT-31" class="st5" d="M143.7,188.5h-.9v-5.6c-.2.2-.5.4-.8.6s-.7.4-.9.5v-.9c.5-.2.9-.5,1.3-.8.4-.3.6-.6.8-1h.6v7.2Z"/>
  </g>
  <g id="text_32">
    <g>
      <path id="ArialMT-334" data-name="ArialMT-33" class="st5" d="M201.4,186.6h.9c.1.4.3.7.5,1,.2.2.5.3.9.3s.8-.1,1-.4c.3-.3.4-.6.4-1.1s-.1-.7-.4-1c-.3-.3-.6-.4-1-.4s-.4,0-.6,0v-.8c.2,0,.2,0,.2,0,.4,0,.7,0,1-.3.3-.2.5-.5.5-.9s-.1-.6-.3-.8c-.2-.2-.5-.3-.8-.3s-.6.1-.9.3c-.2.2-.4.5-.4,1l-.9-.2c.1-.6.4-1,.7-1.4.4-.3.9-.5,1.4-.5s.8,0,1.1.3c.3.2.6.4.8.7.2.3.3.6.3.9s0,.6-.3.8c-.2.3-.4.5-.7.6.4,0,.8.3,1,.6.2.3.4.7.4,1.2s-.2,1.2-.7,1.6c-.5.4-1,.7-1.7.7s-1.2-.2-1.6-.6c-.4-.4-.7-.9-.7-1.5Z"/>
      <path id="ArialMT-381" data-name="ArialMT-38" class="st5" d="M208.3,184.6c-.4-.1-.6-.3-.8-.6-.2-.2-.3-.5-.3-.9,0-.5.2-1,.6-1.3.4-.4.9-.5,1.5-.5s1.1.2,1.5.5c.4.4.6.8.6,1.3s0,.6-.3.9c-.2.2-.4.4-.8.6.4.1.8.4,1,.7.2.3.3.7.3,1.1s-.2,1.1-.7,1.5c-.4.4-1,.6-1.7.6s-1.3-.2-1.7-.6c-.4-.4-.7-.9-.7-1.6s.1-.9.4-1.2c.2-.3.6-.5,1-.6ZM208.2,183.2c0,.3.1.6.3.8.2.2.5.3.9.3s.6-.1.8-.3c.2-.2.3-.5.3-.8s-.1-.6-.3-.8c-.2-.2-.5-.3-.8-.3s-.6.1-.8.3c-.2.2-.3.5-.3.8ZM207.9,186.5c0,.3,0,.5.2.7s.3.4.5.5c.2.1.5.2.8.2.4,0,.8-.1,1-.4.3-.3.4-.6.4-1s-.1-.8-.4-1.1c-.3-.3-.6-.4-1.1-.4s-.8.1-1,.4c-.3.3-.4.6-.4,1Z"/>
    </g>
  </g>
  <g id="text_33">
    <g>
      <path id="ArialMT-322" data-name="ArialMT-32" class="st5" d="M269.8,187.7v.8h-4.7c0-.2,0-.4.1-.6.1-.3.3-.6.6-1,.3-.3.6-.7,1.2-1.1.8-.6,1.3-1.1,1.6-1.5.3-.4.4-.7.4-1.1s-.1-.6-.4-.9c-.2-.2-.6-.4-1-.4s-.8.1-1,.4c-.3.3-.4.6-.4,1.1h-.9c0-.8.3-1.3.7-1.6.4-.4.9-.5,1.6-.5s1.2.2,1.6.6c.4.4.6.9.6,1.4s0,.6-.2.8c-.1.3-.3.6-.6.9s-.7.7-1.4,1.3c-.5.4-.9.7-1,.9-.1.2-.3.3-.4.5h3.5Z"/>
      <path id="ArialMT-382" data-name="ArialMT-38" class="st5" d="M272.1,184.6c-.4-.1-.6-.3-.8-.6-.2-.2-.3-.5-.3-.9,0-.5.2-1,.6-1.3.4-.4.9-.5,1.5-.5s1.1.2,1.5.5c.4.4.6.8.6,1.3s0,.6-.3.9c-.2.2-.4.4-.8.6.4.1.8.4,1,.7.2.3.3.7.3,1.1s-.2,1.1-.7,1.5c-.4.4-1,.6-1.7.6s-1.3-.2-1.7-.6c-.4-.4-.7-.9-.7-1.6s.1-.9.4-1.2c.2-.3.6-.5,1-.6ZM271.9,183.2c0,.3.1.6.3.8.2.2.5.3.9.3s.6-.1.8-.3c.2-.2.3-.5.3-.8s-.1-.6-.3-.8c-.2-.2-.5-.3-.8-.3s-.6.1-.8.3c-.2.2-.3.5-.3.8ZM271.6,186.5c0,.3,0,.5.2.7s.3.4.5.5c.2.1.5.2.8.2.4,0,.8-.1,1-.4.3-.3.4-.6.4-1s-.1-.8-.4-1.1c-.3-.3-.6-.4-1.1-.4s-.8.1-1,.4c-.3.3-.4.6-.4,1Z"/>
    </g>
  </g>
  <g id="text_34">
    <path id="ArialMT-371" data-name="ArialMT-37" class="st5" d="M331.8,182.3v-.8h4.6v.7c-.5.5-.9,1.1-1.4,1.9-.4.8-.8,1.6-1,2.5-.2.6-.3,1.3-.3,2h-.9c0-.6.1-1.2.3-2,.2-.8.5-1.6.9-2.3s.8-1.4,1.3-1.9h-3.5Z"/>
  </g>
  <g id="text_35">
    <path id="ArialMT-301" data-name="ArialMT-30" class="st5" d="M395.5,185c0-.8,0-1.5.3-2,.2-.5.4-.9.8-1.2.3-.3.8-.4,1.3-.4s.7,0,1,.2c.3.2.5.4.7.7.2.3.3.6.4,1.1.1.4.2,1,.2,1.7s0,1.5-.3,2c-.2.5-.4.9-.8,1.2-.3.3-.8.4-1.3.4s-1.2-.2-1.6-.7c-.5-.6-.7-1.6-.7-2.9ZM396.4,185c0,1.2.1,2,.4,2.3.3.4.6.6,1,.6s.7-.2,1-.6.4-1.2.4-2.3-.1-2-.4-2.3c-.3-.4-.6-.6-1-.6s-.7.2-1,.5c-.3.4-.5,1.2-.5,2.4Z"/>
  </g>
  <g id="text_36">
    <path id="ArialMT-316" data-name="ArialMT-31" class="st5" d="M462.6,188.5h-.9v-5.6c-.2.2-.5.4-.8.6s-.7.4-.9.5v-.9c.5-.2.9-.5,1.3-.8.4-.3.6-.6.8-1h.6v7.2Z"/>
  </g>
  <g id="text_37">
    <path id="ArialMT-302" data-name="ArialMT-30" class="st5" d="M523.1,185c0-.8,0-1.5.3-2,.2-.5.4-.9.8-1.2.3-.3.8-.4,1.3-.4s.7,0,1,.2c.3.2.5.4.7.7.2.3.3.6.4,1.1.1.4.2,1,.2,1.7s0,1.5-.3,2c-.2.5-.4.9-.8,1.2-.3.3-.8.4-1.3.4s-1.2-.2-1.6-.7c-.5-.6-.7-1.6-.7-2.9ZM524,185c0,1.2.1,2,.4,2.3.3.4.6.6,1,.6s.7-.2,1-.6.4-1.2.4-2.3-.1-2-.4-2.3c-.3-.4-.6-.6-1-.6s-.7.2-1,.5c-.3.4-.5,1.2-.5,2.4Z"/>
  </g>
  <g id="text_38">
    <path id="ArialMT-303" data-name="ArialMT-30" class="st5" d="M140.4,248.4c0-.8,0-1.5.3-2,.2-.5.4-.9.8-1.2.3-.3.8-.4,1.3-.4s.7,0,1,.2c.3.2.5.4.7.7.2.3.3.6.4,1.1.1.4.2,1,.2,1.7s0,1.5-.3,2c-.2.5-.4.9-.8,1.2-.3.3-.8.4-1.3.4s-1.2-.2-1.6-.7c-.5-.6-.7-1.6-.7-2.9ZM141.3,248.4c0,1.2.1,2,.4,2.3.3.4.6.6,1,.6s.7-.2,1-.6.4-1.2.4-2.3-.1-2-.4-2.3c-.3-.4-.6-.6-1-.6s-.7.2-1,.5c-.3.4-.5,1.2-.5,2.4Z"/>
  </g>
  <g id="text_39">
    <path id="ArialMT-383" data-name="ArialMT-38" class="st5" d="M205.5,248c-.4-.1-.6-.3-.8-.6-.2-.2-.3-.5-.3-.9,0-.5.2-1,.6-1.3.4-.4.9-.5,1.5-.5s1.1.2,1.5.5c.4.4.6.8.6,1.3s0,.6-.3.9c-.2.2-.4.4-.8.6.4.1.8.4,1,.7.2.3.3.7.3,1.1s-.2,1.1-.7,1.5c-.4.4-1,.6-1.7.6s-1.3-.2-1.7-.6c-.4-.4-.7-.9-.7-1.6s.1-.9.4-1.2c.2-.3.6-.5,1-.6ZM205.4,246.5c0,.3.1.6.3.8.2.2.5.3.9.3s.6-.1.8-.3c.2-.2.3-.5.3-.8s-.1-.6-.3-.8c-.2-.2-.5-.3-.8-.3s-.6.1-.8.3c-.2.2-.3.5-.3.8ZM205.1,249.8c0,.3,0,.5.2.7s.3.4.5.5c.2.1.5.2.8.2.4,0,.8-.1,1-.4.3-.3.4-.6.4-1s-.1-.8-.4-1.1c-.3-.3-.6-.4-1.1-.4s-.8.1-1,.4c-.3.3-.4.6-.4,1Z"/>
  </g>
  <g id="text_40">
    <path id="ArialMT-372" data-name="ArialMT-37" class="st5" d="M268,245.7v-.8h4.6v.7c-.5.5-.9,1.1-1.4,1.9-.4.8-.8,1.6-1,2.5-.2.6-.3,1.3-.3,2h-.9c0-.6.1-1.2.3-2,.2-.8.5-1.6.9-2.3s.8-1.4,1.3-1.9h-3.5Z"/>
  </g>
  <g id="text_41">
    <g>
      <path id="ArialMT-317" data-name="ArialMT-31" class="st5" d="M329.5,251.9h-.9v-5.6c-.2.2-.5.4-.8.6s-.7.4-.9.5v-.9c.5-.2.9-.5,1.3-.8.4-.3.6-.6.8-1h.6v7.2Z"/>
      <path id="ArialMT-335" data-name="ArialMT-33" class="st5" d="M331.7,250h.9c.1.4.3.7.5,1,.2.2.5.3.9.3s.8-.1,1-.4c.3-.3.4-.6.4-1.1s-.1-.7-.4-1c-.3-.3-.6-.4-1-.4s-.4,0-.6,0v-.8c.2,0,.2,0,.2,0,.4,0,.7,0,1-.3.3-.2.5-.5.5-.9s-.1-.6-.3-.8c-.2-.2-.5-.3-.8-.3s-.6.1-.9.3c-.2.2-.4.5-.4,1l-.9-.2c.1-.6.4-1,.7-1.4.4-.3.9-.5,1.4-.5s.8,0,1.1.3c.3.2.6.4.8.7.2.3.3.6.3.9s0,.6-.3.8c-.2.3-.4.5-.7.6.4,0,.8.3,1,.6.2.3.4.7.4,1.2s-.2,1.2-.7,1.6c-.5.4-1,.7-1.7.7s-1.2-.2-1.6-.6c-.4-.4-.7-.9-.7-1.5Z"/>
      <path id="ArialMT-352" data-name="ArialMT-35" class="st5" d="M337.3,250h.9c0,.4.2.7.5.9.2.2.5.3.9.3s.8-.2,1.1-.5c.3-.3.4-.7.4-1.3s-.1-.9-.4-1.2c-.3-.3-.7-.4-1.1-.4s-.5,0-.8.2c-.2.1-.4.3-.5.5h-.8c0-.1.7-3.8.7-3.8h3.6v.8h-2.9l-.4,1.9c.4-.3.9-.5,1.4-.5s1.2.2,1.6.7c.4.4.6,1,.6,1.7s-.2,1.2-.6,1.7c-.5.6-1.1.9-1.9.9s-1.2-.2-1.6-.5c-.4-.4-.6-.8-.7-1.5Z"/>
    </g>
  </g>
  <g id="text_42">
    <g>
      <path id="ArialMT-323" data-name="ArialMT-32" class="st5" d="M397.3,251v.8h-4.7c0-.2,0-.4.1-.6.1-.3.3-.6.6-1,.3-.3.6-.7,1.2-1.1.8-.6,1.3-1.1,1.6-1.5.3-.4.4-.7.4-1.1s-.1-.6-.4-.9c-.2-.2-.6-.4-1-.4s-.8.1-1,.4c-.3.3-.4.6-.4,1.1h-.9c0-.8.3-1.3.7-1.6.4-.4.9-.5,1.6-.5s1.2.2,1.6.6c.4.4.6.9.6,1.4s0,.6-.2.8c-.1.3-.3.6-.6.9s-.7.7-1.4,1.3c-.5.4-.9.7-1,.9-.1.2-.3.3-.4.5h3.5Z"/>
      <path id="ArialMT-324" data-name="ArialMT-32" class="st5" d="M402.9,251v.8h-4.7c0-.2,0-.4.1-.6.1-.3.3-.6.6-1,.3-.3.6-.7,1.2-1.1.8-.6,1.3-1.1,1.6-1.5.3-.4.4-.7.4-1.1s-.1-.6-.4-.9c-.2-.2-.6-.4-1-.4s-.8.1-1,.4c-.3.3-.4.6-.4,1.1h-.9c0-.8.3-1.3.7-1.6.4-.4.9-.5,1.6-.5s1.2.2,1.6.6c.4.4.6.9.6,1.4s0,.6-.2.8c-.1.3-.3.6-.6.9s-.7.7-1.4,1.3c-.5.4-.9.7-1,.9-.1.2-.3.3-.4.5h3.5Z"/>
    </g>
  </g>
  <g id="text_43">
    <path id="ArialMT-318" data-name="ArialMT-31" class="st5" d="M462.6,251.9h-.9v-5.6c-.2.2-.5.4-.8.6s-.7.4-.9.5v-.9c.5-.2.9-.5,1.3-.8.4-.3.6-.6.8-1h.6v7.2Z"/>
  </g>
  <g id="text_44">
    <path id="ArialMT-304" data-name="ArialMT-30" class="st5" d="M523.1,248.4c0-.8,0-1.5.3-2,.2-.5.4-.9.8-1.2.3-.3.8-.4,1.3-.4s.7,0,1,.2c.3.2.5.4.7.7.2.3.3.6.4,1.1.1.4.2,1,.2,1.7s0,1.5-.3,2c-.2.5-.4.9-.8,1.2-.3.3-.8.4-1.3.4s-1.2-.2-1.6-.7c-.5-.6-.7-1.6-.7-2.9ZM524,248.4c0,1.2.1,2,.4,2.3.3.4.6.6,1,.6s.7-.2,1-.6.4-1.2.4-2.3-.1-2-.4-2.3c-.3-.4-.6-.6-1-.6s-.7.2-1,.5c-.3.4-.5,1.2-.5,2.4Z"/>
  </g>
  <g id="text_45">
    <path id="ArialMT-305" data-name="ArialMT-30" class="st5" d="M140.4,311.7c0-.8,0-1.5.3-2,.2-.5.4-.9.8-1.2.3-.3.8-.4,1.3-.4s.7,0,1,.2c.3.2.5.4.7.7.2.3.3.6.4,1.1.1.4.2,1,.2,1.7s0,1.5-.3,2c-.2.5-.4.9-.8,1.2-.3.3-.8.4-1.3.4s-1.2-.2-1.6-.7c-.5-.6-.7-1.6-.7-2.9ZM141.3,311.7c0,1.2.1,2,.4,2.3.3.4.6.6,1,.6s.7-.2,1-.6.4-1.2.4-2.3-.1-2-.4-2.3c-.3-.4-.6-.6-1-.6s-.7.2-1,.5c-.3.4-.5,1.2-.5,2.4Z"/>
  </g>
  <g id="text_46">
    <path id="ArialMT-336" data-name="ArialMT-33" class="st5" d="M204.2,313.4h.9c.1.4.3.7.5,1,.2.2.5.3.9.3s.8-.1,1-.4c.3-.3.4-.6.4-1.1s-.1-.7-.4-1c-.3-.3-.6-.4-1-.4s-.4,0-.6,0v-.8c.2,0,.2,0,.2,0,.4,0,.7,0,1-.3.3-.2.5-.5.5-.9s-.1-.6-.3-.8c-.2-.2-.5-.3-.8-.3s-.6.1-.9.3c-.2.2-.4.5-.4,1l-.9-.2c.1-.6.4-1,.7-1.4.4-.3.9-.5,1.4-.5s.8,0,1.1.3c.3.2.6.4.8.7.2.3.3.6.3.9s0,.6-.3.8c-.2.3-.4.5-.7.6.4,0,.8.3,1,.6.2.3.4.7.4,1.2s-.2,1.2-.7,1.6c-.5.4-1,.7-1.7.7s-1.2-.2-1.6-.6c-.4-.4-.7-.9-.7-1.5Z"/>
  </g>
  <g id="text_47">
    <path id="ArialMT-319" data-name="ArialMT-31" class="st5" d="M271.3,315.2h-.9v-5.6c-.2.2-.5.4-.8.6s-.7.4-.9.5v-.9c.5-.2.9-.5,1.3-.8.4-.3.6-.6.8-1h.6v7.2Z"/>
  </g>
  <g id="text_48">
    <g>
      <path id="ArialMT-373" data-name="ArialMT-37" class="st5" d="M329,309v-.8h4.6v.7c-.5.5-.9,1.1-1.4,1.9-.4.8-.8,1.6-1,2.5-.2.6-.3,1.3-.3,2h-.9c0-.6.1-1.2.3-2,.2-.8.5-1.6.9-2.3s.8-1.4,1.3-1.9h-3.5Z"/>
      <path id="ArialMT-3110" data-name="ArialMT-31" class="st5" d="M337.8,315.2h-.9v-5.6c-.2.2-.5.4-.8.6s-.7.4-.9.5v-.9c.5-.2.9-.5,1.3-.8.4-.3.6-.6.8-1h.6v7.2Z"/>
    </g>
  </g>
  <g id="text_49">
    <g>
      <path id="ArialMT-337" data-name="ArialMT-33" class="st76" d="M390,313.4h.9c.1.4.3.7.5,1,.2.2.5.3.9.3s.8-.1,1-.4c.3-.3.4-.6.4-1.1s-.1-.7-.4-1c-.3-.3-.6-.4-1-.4s-.4,0-.6,0v-.8c.2,0,.2,0,.2,0,.4,0,.7,0,1-.3.3-.2.5-.5.5-.9s-.1-.6-.3-.8c-.2-.2-.5-.3-.8-.3s-.6.1-.9.3c-.2.2-.4.5-.4,1l-.9-.2c.1-.6.4-1,.7-1.4.4-.3.9-.5,1.4-.5s.8,0,1.1.3c.3.2.6.4.8.7.2.3.3.6.3.9s0,.6-.3.8c-.2.3-.4.5-.7.6.4,0,.8.3,1,.6.2.3.4.7.4,1.2s-.2,1.2-.7,1.6c-.5.4-1,.7-1.7.7s-1.2-.2-1.6-.6c-.4-.4-.7-.9-.7-1.5Z"/>
      <path id="ArialMT-353" data-name="ArialMT-35" class="st76" d="M395.5,313.4h.9c0,.4.2.7.5.9.2.2.5.3.9.3s.8-.2,1.1-.5c.3-.3.4-.7.4-1.3s-.1-.9-.4-1.2c-.3-.3-.7-.4-1.1-.4s-.5,0-.8.2c-.2.1-.4.3-.5.5h-.8c0-.1.7-3.8.7-3.8h3.6v.8h-2.9l-.4,1.9c.4-.3.9-.5,1.4-.5s1.2.2,1.6.7c.4.4.6,1,.6,1.7s-.2,1.2-.6,1.7c-.5.6-1.1.9-1.9.9s-1.2-.2-1.6-.5c-.4-.4-.6-.8-.7-1.5Z"/>
      <path id="ArialMT-325" data-name="ArialMT-32" class="st76" d="M405.7,314.4v.8h-4.7c0-.2,0-.4.1-.6.1-.3.3-.6.6-1,.3-.3.6-.7,1.2-1.1.8-.6,1.3-1.1,1.6-1.5.3-.4.4-.7.4-1.1s-.1-.6-.4-.9c-.2-.2-.6-.4-1-.4s-.8.1-1,.4c-.3.3-.4.6-.4,1.1h-.9c0-.8.3-1.3.7-1.6.4-.4.9-.5,1.6-.5s1.2.2,1.6.6c.4.4.6.9.6,1.4s0,.6-.2.8c-.1.3-.3.6-.6.9s-.7.7-1.4,1.3c-.5.4-.9.7-1,.9-.1.2-.3.3-.4.5h3.5Z"/>
    </g>
  </g>
  <g id="text_50">
    <g>
      <path id="ArialMT-34" class="st5" d="M459.3,315.2v-1.7h-3.1v-.8l3.3-4.6h.7v4.6h1v.8h-1v1.7h-.9ZM459.3,312.7v-3.2l-2.2,3.2h2.2Z"/>
      <path id="ArialMT-306" data-name="ArialMT-30" class="st5" d="M462.1,311.7c0-.8,0-1.5.3-2,.2-.5.4-.9.8-1.2.3-.3.8-.4,1.3-.4s.7,0,1,.2c.3.2.5.4.7.7.2.3.3.6.4,1.1.1.4.2,1,.2,1.7s0,1.5-.3,2c-.2.5-.4.9-.8,1.2-.3.3-.8.4-1.3.4s-1.2-.2-1.6-.7c-.5-.6-.7-1.6-.7-2.9ZM463,311.7c0,1.2.1,2,.4,2.3.3.4.6.6,1,.6s.7-.2,1-.6.4-1.2.4-2.3-.1-2-.4-2.3c-.3-.4-.6-.6-1-.6s-.7.2-1,.5c-.3.4-.5,1.2-.5,2.4Z"/>
    </g>
  </g>
  <g id="text_51">
    <path id="ArialMT-307" data-name="ArialMT-30" class="st5" d="M523.1,311.7c0-.8,0-1.5.3-2,.2-.5.4-.9.8-1.2.3-.3.8-.4,1.3-.4s.7,0,1,.2c.3.2.5.4.7.7.2.3.3.6.4,1.1.1.4.2,1,.2,1.7s0,1.5-.3,2c-.2.5-.4.9-.8,1.2-.3.3-.8.4-1.3.4s-1.2-.2-1.6-.7c-.5-.6-.7-1.6-.7-2.9ZM524,311.7c0,1.2.1,2,.4,2.3.3.4.6.6,1,.6s.7-.2,1-.6.4-1.2.4-2.3-.1-2-.4-2.3c-.3-.4-.6-.6-1-.6s-.7.2-1,.5c-.3.4-.5,1.2-.5,2.4Z"/>
  </g>
  <g id="text_52">
    <path id="ArialMT-308" data-name="ArialMT-30" class="st5" d="M140.4,375.1c0-.8,0-1.5.3-2,.2-.5.4-.9.8-1.2.3-.3.8-.4,1.3-.4s.7,0,1,.2c.3.2.5.4.7.7.2.3.3.6.4,1.1.1.4.2,1,.2,1.7s0,1.5-.3,2c-.2.5-.4.9-.8,1.2-.3.3-.8.4-1.3.4s-1.2-.2-1.6-.7c-.5-.6-.7-1.6-.7-2.9ZM141.3,375.1c0,1.2.1,2,.4,2.3.3.4.6.6,1,.6s.7-.2,1-.6.4-1.2.4-2.3-.1-2-.4-2.3c-.3-.4-.6-.6-1-.6s-.7.2-1,.5c-.3.4-.5,1.2-.5,2.4Z"/>
  </g>
  <g id="text_53">
    <path id="ArialMT-309" data-name="ArialMT-30" class="st5" d="M204.2,375.1c0-.8,0-1.5.3-2,.2-.5.4-.9.8-1.2.3-.3.8-.4,1.3-.4s.7,0,1,.2c.3.2.5.4.7.7.2.3.3.6.4,1.1.1.4.2,1,.2,1.7s0,1.5-.3,2c-.2.5-.4.9-.8,1.2-.3.3-.8.4-1.3.4s-1.2-.2-1.6-.7c-.5-.6-.7-1.6-.7-2.9ZM205.1,375.1c0,1.2.1,2,.4,2.3.3.4.6.6,1,.6s.7-.2,1-.6.4-1.2.4-2.3-.1-2-.4-2.3c-.3-.4-.6-.6-1-.6s-.7.2-1,.5c-.3.4-.5,1.2-.5,2.4Z"/>
  </g>
  <g id="text_54">
    <path id="ArialMT-3010" data-name="ArialMT-30" class="st5" d="M268,375.1c0-.8,0-1.5.3-2,.2-.5.4-.9.8-1.2.3-.3.8-.4,1.3-.4s.7,0,1,.2c.3.2.5.4.7.7.2.3.3.6.4,1.1.1.4.2,1,.2,1.7s0,1.5-.3,2c-.2.5-.4.9-.8,1.2-.3.3-.8.4-1.3.4s-1.2-.2-1.6-.7c-.5-.6-.7-1.6-.7-2.9ZM268.9,375.1c0,1.2.1,2,.4,2.3.3.4.6.6,1,.6s.7-.2,1-.6.4-1.2.4-2.3-.1-2-.4-2.3c-.3-.4-.6-.6-1-.6s-.7.2-1,.5c-.3.4-.5,1.2-.5,2.4Z"/>
  </g>
  <g id="text_55">
    <path id="ArialMT-3011" data-name="ArialMT-30" class="st5" d="M331.7,375.1c0-.8,0-1.5.3-2,.2-.5.4-.9.8-1.2.3-.3.8-.4,1.3-.4s.7,0,1,.2c.3.2.5.4.7.7.2.3.3.6.4,1.1.1.4.2,1,.2,1.7s0,1.5-.3,2c-.2.5-.4.9-.8,1.2-.3.3-.8.4-1.3.4s-1.2-.2-1.6-.7c-.5-.6-.7-1.6-.7-2.9ZM332.6,375.1c0,1.2.1,2,.4,2.3.3.4.6.6,1,.6s.7-.2,1-.6.4-1.2.4-2.3-.1-2-.4-2.3c-.3-.4-.6-.6-1-.6s-.7.2-1,.5c-.3.4-.5,1.2-.5,2.4Z"/>
  </g>
  <g id="text_56">
    <path id="ArialMT-384" data-name="ArialMT-38" class="st5" d="M396.9,374.7c-.4-.1-.6-.3-.8-.6-.2-.2-.3-.5-.3-.9,0-.5.2-1,.6-1.3.4-.4.9-.5,1.5-.5s1.1.2,1.5.5c.4.4.6.8.6,1.3s0,.6-.3.9c-.2.2-.4.4-.8.6.4.1.8.4,1,.7.2.3.3.7.3,1.1s-.2,1.1-.7,1.5c-.4.4-1,.6-1.7.6s-1.3-.2-1.7-.6c-.4-.4-.7-.9-.7-1.6s.1-.9.4-1.2c.2-.3.6-.5,1-.6ZM396.7,373.2c0,.3.1.6.3.8.2.2.5.3.9.3s.6-.1.8-.3c.2-.2.3-.5.3-.8s-.1-.6-.3-.8c-.2-.2-.5-.3-.8-.3s-.6.1-.8.3c-.2.2-.3.5-.3.8ZM396.4,376.5c0,.3,0,.5.2.7s.3.4.5.5c.2.1.5.2.8.2.4,0,.8-.1,1-.4.3-.3.4-.6.4-1s-.1-.8-.4-1.1c-.3-.3-.6-.4-1.1-.4s-.8.1-1,.4c-.3.3-.4.6-.4,1Z"/>
  </g>
  <g id="text_57">
    <g>
      <path id="ArialMT-326" data-name="ArialMT-32" class="st76" d="M458.3,377.8v.8h-4.7c0-.2,0-.4.1-.6.1-.3.3-.6.6-1,.3-.3.6-.7,1.2-1.1.8-.6,1.3-1.1,1.6-1.5.3-.4.4-.7.4-1.1s-.1-.6-.4-.9c-.2-.2-.6-.4-1-.4s-.8.1-1,.4c-.3.3-.4.6-.4,1.1h-.9c0-.8.3-1.3.7-1.6.4-.4.9-.5,1.6-.5s1.2.2,1.6.6c.4.4.6.9.6,1.4s0,.6-.2.8c-.1.3-.3.6-.6.9s-.7.7-1.4,1.3c-.5.4-.9.7-1,.9-.1.2-.3.3-.4.5h3.5Z"/>
      <path id="ArialMT-338" data-name="ArialMT-33" class="st76" d="M459.3,376.7h.9c.1.4.3.7.5,1,.2.2.5.3.9.3s.8-.1,1-.4c.3-.3.4-.6.4-1.1s-.1-.7-.4-1c-.3-.3-.6-.4-1-.4s-.4,0-.6,0v-.8c.2,0,.2,0,.2,0,.4,0,.7,0,1-.3.3-.2.5-.5.5-.9s-.1-.6-.3-.8c-.2-.2-.5-.3-.8-.3s-.6.1-.9.3c-.2.2-.4.5-.4,1l-.9-.2c.1-.6.4-1,.7-1.4.4-.3.9-.5,1.4-.5s.8,0,1.1.3c.3.2.6.4.8.7.2.3.3.6.3.9s0,.6-.3.8c-.2.3-.4.5-.7.6.4,0,.8.3,1,.6.2.3.4.7.4,1.2s-.2,1.2-.7,1.6c-.5.4-1,.7-1.7.7s-1.2-.2-1.6-.6c-.4-.4-.7-.9-.7-1.5Z"/>
      <path id="ArialMT-3012" data-name="ArialMT-30" class="st76" d="M464.8,375.1c0-.8,0-1.5.3-2,.2-.5.4-.9.8-1.2.3-.3.8-.4,1.3-.4s.7,0,1,.2c.3.2.5.4.7.7.2.3.3.6.4,1.1.1.4.2,1,.2,1.7s0,1.5-.3,2c-.2.5-.4.9-.8,1.2-.3.3-.8.4-1.3.4s-1.2-.2-1.6-.7c-.5-.6-.7-1.6-.7-2.9ZM465.7,375.1c0,1.2.1,2,.4,2.3.3.4.6.6,1,.6s.7-.2,1-.6.4-1.2.4-2.3-.1-2-.4-2.3c-.3-.4-.6-.6-1-.6s-.7.2-1,.5c-.3.4-.5,1.2-.5,2.4Z"/>
    </g>
  </g>
  <g id="text_58">
    <path id="ArialMT-3013" data-name="ArialMT-30" class="st5" d="M523.1,375.1c0-.8,0-1.5.3-2,.2-.5.4-.9.8-1.2.3-.3.8-.4,1.3-.4s.7,0,1,.2c.3.2.5.4.7.7.2.3.3.6.4,1.1.1.4.2,1,.2,1.7s0,1.5-.3,2c-.2.5-.4.9-.8,1.2-.3.3-.8.4-1.3.4s-1.2-.2-1.6-.7c-.5-.6-.7-1.6-.7-2.9ZM524,375.1c0,1.2.1,2,.4,2.3.3.4.6.6,1,.6s.7-.2,1-.6.4-1.2.4-2.3-.1-2-.4-2.3c-.3-.4-.6-.6-1-.6s-.7.2-1,.5c-.3.4-.5,1.2-.5,2.4Z"/>
  </g>
  <g id="text_59">
    <path id="ArialMT-3111" data-name="ArialMT-31" class="st5" d="M143.7,442h-.9v-5.6c-.2.2-.5.4-.8.6s-.7.4-.9.5v-.9c.5-.2.9-.5,1.3-.8.4-.3.6-.6.8-1h.6v7.2Z"/>
  </g>
  <g id="text_60">
    <path id="ArialMT-3112" data-name="ArialMT-31" class="st5" d="M207.5,442h-.9v-5.6c-.2.2-.5.4-.8.6s-.7.4-.9.5v-.9c.5-.2.9-.5,1.3-.8.4-.3.6-.6.8-1h.6v7.2Z"/>
  </g>
  <g id="text_61">
    <path id="ArialMT-3014" data-name="ArialMT-30" class="st5" d="M268,438.4c0-.8,0-1.5.3-2,.2-.5.4-.9.8-1.2.3-.3.8-.4,1.3-.4s.7,0,1,.2c.3.2.5.4.7.7.2.3.3.6.4,1.1.1.4.2,1,.2,1.7s0,1.5-.3,2c-.2.5-.4.9-.8,1.2-.3.3-.8.4-1.3.4s-1.2-.2-1.6-.7c-.5-.6-.7-1.6-.7-2.9ZM268.9,438.4c0,1.2.1,2,.4,2.3.3.4.6.6,1,.6s.7-.2,1-.6.4-1.2.4-2.3-.1-2-.4-2.3c-.3-.4-.6-.6-1-.6s-.7.2-1,.5c-.3.4-.5,1.2-.5,2.4Z"/>
  </g>
  <g id="text_62">
    <path id="ArialMT-3113" data-name="ArialMT-31" class="st5" d="M335,442h-.9v-5.6c-.2.2-.5.4-.8.6s-.7.4-.9.5v-.9c.5-.2.9-.5,1.3-.8.4-.3.6-.6.8-1h.6v7.2Z"/>
  </g>
  <g id="text_63">
    <path id="ArialMT-3114" data-name="ArialMT-31" class="st5" d="M398.8,442h-.9v-5.6c-.2.2-.5.4-.8.6s-.7.4-.9.5v-.9c.5-.2.9-.5,1.3-.8.4-.3.6-.6.8-1h.6v7.2Z"/>
  </g>
  <g id="text_64">
    <g>
      <path id="ArialMT-3115" data-name="ArialMT-31" class="st5" d="M459.8,442h-.9v-5.6c-.2.2-.5.4-.8.6s-.7.4-.9.5v-.9c.5-.2.9-.5,1.3-.8.4-.3.6-.6.8-1h.6v7.2Z"/>
      <path id="ArialMT-3015" data-name="ArialMT-30" class="st5" d="M462.1,438.4c0-.8,0-1.5.3-2,.2-.5.4-.9.8-1.2.3-.3.8-.4,1.3-.4s.7,0,1,.2c.3.2.5.4.7.7.2.3.3.6.4,1.1.1.4.2,1,.2,1.7s0,1.5-.3,2c-.2.5-.4.9-.8,1.2-.3.3-.8.4-1.3.4s-1.2-.2-1.6-.7c-.5-.6-.7-1.6-.7-2.9ZM463,438.4c0,1.2.1,2,.4,2.3.3.4.6.6,1,.6s.7-.2,1-.6.4-1.2.4-2.3-.1-2-.4-2.3c-.3-.4-.6-.6-1-.6s-.7.2-1,.5c-.3.4-.5,1.2-.5,2.4Z"/>
    </g>
  </g>
  <g id="text_65">
    <g>
      <path id="ArialMT-327" data-name="ArialMT-32" class="st5" d="M524.9,441.1v.8h-4.7c0-.2,0-.4.1-.6.1-.3.3-.6.6-1,.3-.3.6-.7,1.2-1.1.8-.6,1.3-1.1,1.6-1.5.3-.4.4-.7.4-1.1s-.1-.6-.4-.9c-.2-.2-.6-.4-1-.4s-.8.1-1,.4c-.3.3-.4.6-.4,1.1h-.9c0-.8.3-1.3.7-1.6.4-.4.9-.5,1.6-.5s1.2.2,1.6.6c.4.4.6.9.6,1.4s0,.6-.2.8c-.1.3-.3.6-.6.9s-.7.7-1.4,1.3c-.5.4-.9.7-1,.9-.1.2-.3.3-.4.5h3.5Z"/>
      <path id="ArialMT-354" data-name="ArialMT-35" class="st5" d="M525.8,440.1h.9c0,.4.2.7.5.9.2.2.5.3.9.3s.8-.2,1.1-.5c.3-.3.4-.7.4-1.3s-.1-.9-.4-1.2c-.3-.3-.7-.4-1.1-.4s-.5,0-.8.2c-.2.1-.4.3-.5.5h-.8c0-.1.7-3.8.7-3.8h3.6v.8h-2.9l-.4,1.9c.4-.3.9-.5,1.4-.5s1.2.2,1.6.7c.4.4.6,1,.6,1.7s-.2,1.2-.6,1.7c-.5.6-1.1.9-1.9.9s-1.2-.2-1.6-.5c-.4-.4-.6-.8-.7-1.5Z"/>
    </g>
  </g>
  <g id="axes_2">
    <g id="patch_3">
      <path class="st76" d="M585.2,471.1h22.2V27.5h-22.2v443.5Z"/>
    </g>
    <g id="matplotlib.axis_4">
      <g id="ytick_8">
        <g id="line2d_15">
          <path id="mb31165b966" class="st4" d="M607.4,471.1h3.5"/>
        </g>
        <g id="text_67">
          <path id="ArialMT-3016" data-name="ArialMT-30" class="st5" d="M614.8,471.1c0-.8,0-1.5.3-2,.2-.5.4-.9.8-1.2.3-.3.8-.4,1.3-.4s.7,0,1,.2c.3.2.5.4.7.7.2.3.3.6.4,1.1.1.4.2,1,.2,1.7s0,1.5-.3,2c-.2.5-.4.9-.8,1.2-.3.3-.8.4-1.3.4s-1.2-.2-1.6-.7c-.5-.6-.7-1.6-.7-2.9ZM615.7,471.1c0,1.2.1,2,.4,2.3.3.4.6.6,1,.6s.7-.2,1-.6.4-1.2.4-2.3-.1-2-.4-2.3c-.3-.4-.6-.6-1-.6s-.7.2-1,.5c-.3.4-.5,1.2-.5,2.4Z"/>
        </g>
      </g>
      <g id="ytick_9">
        <g id="line2d_16">
          <path id="mb31165b9661" data-name="mb31165b966" class="st4" d="M607.4,408.1h3.5"/>
        </g>
        <g id="text_68">
          <g>
            <path id="ArialMT-355" data-name="ArialMT-35" class="st5" d="M614.8,409.8h.9c0,.4.2.7.5.9.2.2.5.3.9.3s.8-.2,1.1-.5c.3-.3.4-.7.4-1.3s-.1-.9-.4-1.2c-.3-.3-.7-.4-1.1-.4s-.5,0-.8.2c-.2.1-.4.3-.5.5h-.8c0-.1.7-3.8.7-3.8h3.6v.8h-2.9l-.4,1.9c.4-.3.9-.5,1.4-.5s1.2.2,1.6.7c.4.4.6,1,.6,1.7s-.2,1.2-.6,1.7c-.5.6-1.1.9-1.9.9s-1.2-.2-1.6-.5c-.4-.4-.6-.8-.7-1.5Z"/>
            <path id="ArialMT-3017" data-name="ArialMT-30" class="st5" d="M620.4,408.1c0-.8,0-1.5.3-2,.2-.5.4-.9.8-1.2.3-.3.8-.4,1.3-.4s.7,0,1,.2c.3.2.5.4.7.7.2.3.3.6.4,1.1.1.4.2,1,.2,1.7s0,1.5-.3,2c-.2.5-.4.9-.8,1.2-.3.3-.8.4-1.3.4s-1.2-.2-1.6-.7c-.5-.6-.7-1.6-.7-2.9ZM621.3,408.1c0,1.2.1,2,.4,2.3.3.4.6.6,1,.6s.7-.2,1-.6.4-1.2.4-2.3-.1-2-.4-2.3c-.3-.4-.6-.6-1-.6s-.7.2-1,.5c-.3.4-.5,1.2-.5,2.4Z"/>
          </g>
        </g>
      </g>
      <g id="ytick_10">
        <g id="line2d_17">
          <path id="mb31165b9662" data-name="mb31165b966" class="st4" d="M607.4,345.1h3.5"/>
        </g>
        <g id="text_69">
          <g>
            <path id="ArialMT-3116" data-name="ArialMT-31" class="st5" d="M618.1,348.6h-.9v-5.6c-.2.2-.5.4-.8.6s-.7.4-.9.5v-.9c.5-.2.9-.5,1.3-.8.4-.3.6-.6.8-1h.6v7.2Z"/>
            <path id="ArialMT-3018" data-name="ArialMT-30" class="st5" d="M620.4,345.1c0-.8,0-1.5.3-2,.2-.5.4-.9.8-1.2.3-.3.8-.4,1.3-.4s.7,0,1,.2c.3.2.5.4.7.7.2.3.3.6.4,1.1.1.4.2,1,.2,1.7s0,1.5-.3,2c-.2.5-.4.9-.8,1.2-.3.3-.8.4-1.3.4s-1.2-.2-1.6-.7c-.5-.6-.7-1.6-.7-2.9ZM621.3,345.1c0,1.2.1,2,.4,2.3.3.4.6.6,1,.6s.7-.2,1-.6.4-1.2.4-2.3-.1-2-.4-2.3c-.3-.4-.6-.6-1-.6s-.7.2-1,.5c-.3.4-.5,1.2-.5,2.4Z"/>
            <path id="ArialMT-3019" data-name="ArialMT-30" class="st5" d="M625.9,345.1c0-.8,0-1.5.3-2,.2-.5.4-.9.8-1.2.3-.3.8-.4,1.3-.4s.7,0,1,.2c.3.2.5.4.7.7.2.3.3.6.4,1.1.1.4.2,1,.2,1.7s0,1.5-.3,2c-.2.5-.4.9-.8,1.2-.3.3-.8.4-1.3.4s-1.2-.2-1.6-.7c-.5-.6-.7-1.6-.7-2.9ZM626.8,345.1c0,1.2.1,2,.4,2.3.3.4.6.6,1,.6s.7-.2,1-.6.4-1.2.4-2.3-.1-2-.4-2.3c-.3-.4-.6-.6-1-.6s-.7.2-1,.5c-.3.4-.5,1.2-.5,2.4Z"/>
          </g>
        </g>
      </g>
      <g id="ytick_11">
        <g id="line2d_18">
          <path id="mb31165b9663" data-name="mb31165b966" class="st4" d="M607.4,282.1h3.5"/>
        </g>
        <g id="text_70">
          <g>
            <path id="ArialMT-3117" data-name="ArialMT-31" class="st5" d="M618.1,285.6h-.9v-5.6c-.2.2-.5.4-.8.6s-.7.4-.9.5v-.9c.5-.2.9-.5,1.3-.8.4-.3.6-.6.8-1h.6v7.2Z"/>
            <path id="ArialMT-356" data-name="ArialMT-35" class="st5" d="M620.4,283.8h.9c0,.4.2.7.5.9.2.2.5.3.9.3s.8-.2,1.1-.5c.3-.3.4-.7.4-1.3s-.1-.9-.4-1.2c-.3-.3-.7-.4-1.1-.4s-.5,0-.8.2c-.2.1-.4.3-.5.5h-.8c0-.1.7-3.8.7-3.8h3.6v.8h-2.9l-.4,1.9c.4-.3.9-.5,1.4-.5s1.2.2,1.6.7c.4.4.6,1,.6,1.7s-.2,1.2-.6,1.7c-.5.6-1.1.9-1.9.9s-1.2-.2-1.6-.5c-.4-.4-.6-.8-.7-1.5Z"/>
            <path id="ArialMT-3020" data-name="ArialMT-30" class="st5" d="M625.9,282.1c0-.8,0-1.5.3-2,.2-.5.4-.9.8-1.2.3-.3.8-.4,1.3-.4s.7,0,1,.2c.3.2.5.4.7.7.2.3.3.6.4,1.1.1.4.2,1,.2,1.7s0,1.5-.3,2c-.2.5-.4.9-.8,1.2-.3.3-.8.4-1.3.4s-1.2-.2-1.6-.7c-.5-.6-.7-1.6-.7-2.9ZM626.8,282.1c0,1.2.1,2,.4,2.3.3.4.6.6,1,.6s.7-.2,1-.6.4-1.2.4-2.3-.1-2-.4-2.3c-.3-.4-.6-.6-1-.6s-.7.2-1,.5c-.3.4-.5,1.2-.5,2.4Z"/>
          </g>
        </g>
      </g>
      <g id="ytick_12">
        <g id="line2d_19">
          <path id="mb31165b9664" data-name="mb31165b966" class="st4" d="M607.4,219.1h3.5"/>
        </g>
        <g id="text_71">
          <g>
            <path id="ArialMT-328" data-name="ArialMT-32" class="st5" d="M619.4,221.8v.8h-4.7c0-.2,0-.4.1-.6.1-.3.3-.6.6-1,.3-.3.6-.7,1.2-1.1.8-.6,1.3-1.1,1.6-1.5.3-.4.4-.7.4-1.1s-.1-.6-.4-.9c-.2-.2-.6-.4-1-.4s-.8.1-1,.4c-.3.3-.4.6-.4,1.1h-.9c0-.8.3-1.3.7-1.6.4-.4.9-.5,1.6-.5s1.2.2,1.6.6c.4.4.6.9.6,1.4s0,.6-.2.8c-.1.3-.3.6-.6.9s-.7.7-1.4,1.3c-.5.4-.9.7-1,.9-.1.2-.3.3-.4.5h3.5Z"/>
            <path id="ArialMT-3021" data-name="ArialMT-30" class="st5" d="M620.4,219.1c0-.8,0-1.5.3-2,.2-.5.4-.9.8-1.2.3-.3.8-.4,1.3-.4s.7,0,1,.2c.3.2.5.4.7.7.2.3.3.6.4,1.1.1.4.2,1,.2,1.7s0,1.5-.3,2c-.2.5-.4.9-.8,1.2-.3.3-.8.4-1.3.4s-1.2-.2-1.6-.7c-.5-.6-.7-1.6-.7-2.9ZM621.3,219.1c0,1.2.1,2,.4,2.3.3.4.6.6,1,.6s.7-.2,1-.6.4-1.2.4-2.3-.1-2-.4-2.3c-.3-.4-.6-.6-1-.6s-.7.2-1,.5c-.3.4-.5,1.2-.5,2.4Z"/>
            <path id="ArialMT-3022" data-name="ArialMT-30" class="st5" d="M625.9,219.1c0-.8,0-1.5.3-2,.2-.5.4-.9.8-1.2.3-.3.8-.4,1.3-.4s.7,0,1,.2c.3.2.5.4.7.7.2.3.3.6.4,1.1.1.4.2,1,.2,1.7s0,1.5-.3,2c-.2.5-.4.9-.8,1.2-.3.3-.8.4-1.3.4s-1.2-.2-1.6-.7c-.5-.6-.7-1.6-.7-2.9ZM626.8,219.1c0,1.2.1,2,.4,2.3.3.4.6.6,1,.6s.7-.2,1-.6.4-1.2.4-2.3-.1-2-.4-2.3c-.3-.4-.6-.6-1-.6s-.7.2-1,.5c-.3.4-.5,1.2-.5,2.4Z"/>
          </g>
        </g>
      </g>
      <g id="ytick_13">
        <g id="line2d_20">
          <path id="mb31165b9665" data-name="mb31165b966" class="st4" d="M607.4,156.1h3.5"/>
        </g>
        <g id="text_72">
          <g>
            <path id="ArialMT-329" data-name="ArialMT-32" class="st5" d="M619.4,158.8v.8h-4.7c0-.2,0-.4.1-.6.1-.3.3-.6.6-1,.3-.3.6-.7,1.2-1.1.8-.6,1.3-1.1,1.6-1.5.3-.4.4-.7.4-1.1s-.1-.6-.4-.9c-.2-.2-.6-.4-1-.4s-.8.1-1,.4c-.3.3-.4.6-.4,1.1h-.9c0-.8.3-1.3.7-1.6.4-.4.9-.5,1.6-.5s1.2.2,1.6.6c.4.4.6.9.6,1.4s0,.6-.2.8c-.1.3-.3.6-.6.9s-.7.7-1.4,1.3c-.5.4-.9.7-1,.9-.1.2-.3.3-.4.5h3.5Z"/>
            <path id="ArialMT-357" data-name="ArialMT-35" class="st5" d="M620.4,157.8h.9c0,.4.2.7.5.9.2.2.5.3.9.3s.8-.2,1.1-.5c.3-.3.4-.7.4-1.3s-.1-.9-.4-1.2c-.3-.3-.7-.4-1.1-.4s-.5,0-.8.2c-.2.1-.4.3-.5.5h-.8c0-.1.7-3.8.7-3.8h3.6v.8h-2.9l-.4,1.9c.4-.3.9-.5,1.4-.5s1.2.2,1.6.7c.4.4.6,1,.6,1.7s-.2,1.2-.6,1.7c-.5.6-1.1.9-1.9.9s-1.2-.2-1.6-.5c-.4-.4-.6-.8-.7-1.5Z"/>
            <path id="ArialMT-3023" data-name="ArialMT-30" class="st5" d="M625.9,156.1c0-.8,0-1.5.3-2,.2-.5.4-.9.8-1.2.3-.3.8-.4,1.3-.4s.7,0,1,.2c.3.2.5.4.7.7.2.3.3.6.4,1.1.1.4.2,1,.2,1.7s0,1.5-.3,2c-.2.5-.4.9-.8,1.2-.3.3-.8.4-1.3.4s-1.2-.2-1.6-.7c-.5-.6-.7-1.6-.7-2.9ZM626.8,156.1c0,1.2.1,2,.4,2.3.3.4.6.6,1,.6s.7-.2,1-.6.4-1.2.4-2.3-.1-2-.4-2.3c-.3-.4-.6-.6-1-.6s-.7.2-1,.5c-.3.4-.5,1.2-.5,2.4Z"/>
          </g>
        </g>
      </g>
      <g id="ytick_14">
        <g id="line2d_21">
          <path id="mb31165b9666" data-name="mb31165b966" class="st4" d="M607.4,93.1h3.5"/>
        </g>
        <g id="text_73">
          <g>
            <path id="ArialMT-339" data-name="ArialMT-33" class="st5" d="M614.8,94.7h.9c.1.4.3.7.5,1,.2.2.5.3.9.3s.8-.1,1-.4c.3-.3.4-.6.4-1.1s-.1-.7-.4-1c-.3-.3-.6-.4-1-.4s-.4,0-.6,0v-.8c.2,0,.2,0,.2,0,.4,0,.7,0,1-.3.3-.2.5-.5.5-.9s-.1-.6-.3-.8c-.2-.2-.5-.3-.8-.3s-.6.1-.9.3c-.2.2-.4.5-.4,1l-.9-.2c.1-.6.4-1,.7-1.4.4-.3.9-.5,1.4-.5s.8,0,1.1.3c.3.2.6.4.8.7.2.3.3.6.3.9s0,.6-.3.8c-.2.3-.4.5-.7.6.4,0,.8.3,1,.6.2.3.4.7.4,1.2s-.2,1.2-.7,1.6c-.5.4-1,.7-1.7.7s-1.2-.2-1.6-.6c-.4-.4-.7-.9-.7-1.5Z"/>
            <path id="ArialMT-3024" data-name="ArialMT-30" class="st5" d="M620.4,93.1c0-.8,0-1.5.3-2,.2-.5.4-.9.8-1.2.3-.3.8-.4,1.3-.4s.7,0,1,.2c.3.2.5.4.7.7.2.3.3.6.4,1.1.1.4.2,1,.2,1.7s0,1.5-.3,2c-.2.5-.4.9-.8,1.2-.3.3-.8.4-1.3.4s-1.2-.2-1.6-.7c-.5-.6-.7-1.6-.7-2.9ZM621.3,93.1c0,1.2.1,2,.4,2.3.3.4.6.6,1,.6s.7-.2,1-.6.4-1.2.4-2.3-.1-2-.4-2.3c-.3-.4-.6-.6-1-.6s-.7.2-1,.5c-.3.4-.5,1.2-.5,2.4Z"/>
            <path id="ArialMT-3025" data-name="ArialMT-30" class="st5" d="M625.9,93.1c0-.8,0-1.5.3-2,.2-.5.4-.9.8-1.2.3-.3.8-.4,1.3-.4s.7,0,1,.2c.3.2.5.4.7.7.2.3.3.6.4,1.1.1.4.2,1,.2,1.7s0,1.5-.3,2c-.2.5-.4.9-.8,1.2-.3.3-.8.4-1.3.4s-1.2-.2-1.6-.7c-.5-.6-.7-1.6-.7-2.9ZM626.8,93.1c0,1.2.1,2,.4,2.3.3.4.6.6,1,.6s.7-.2,1-.6.4-1.2.4-2.3-.1-2-.4-2.3c-.3-.4-.6-.6-1-.6s-.7.2-1,.5c-.3.4-.5,1.2-.5,2.4Z"/>
          </g>
        </g>
      </g>
      <g id="ytick_15">
        <g id="line2d_22">
          <path id="mb31165b9667" data-name="mb31165b966" class="st4" d="M607.4,30.1h3.5"/>
        </g>
        <g id="text_74">
          <g>
            <path id="ArialMT-3310" data-name="ArialMT-33" class="st5" d="M614.8,31.7h.9c.1.4.3.7.5,1,.2.2.5.3.9.3s.8-.1,1-.4c.3-.3.4-.6.4-1.1s-.1-.7-.4-1c-.3-.3-.6-.4-1-.4s-.4,0-.6,0v-.8c.2,0,.2,0,.2,0,.4,0,.7,0,1-.3.3-.2.5-.5.5-.9s-.1-.6-.3-.8c-.2-.2-.5-.3-.8-.3s-.6.1-.9.3c-.2.2-.4.5-.4,1l-.9-.2c.1-.6.4-1,.7-1.4.4-.3.9-.5,1.4-.5s.8,0,1.1.3c.3.2.6.4.8.7.2.3.3.6.3.9s0,.6-.3.8c-.2.3-.4.5-.7.6.4,0,.8.3,1,.6.2.3.4.7.4,1.2s-.2,1.2-.7,1.6c-.5.4-1,.7-1.7.7s-1.2-.2-1.6-.6c-.4-.4-.7-.9-.7-1.5Z"/>
            <path id="ArialMT-358" data-name="ArialMT-35" class="st5" d="M620.4,31.8h.9c0,.4.2.7.5.9.2.2.5.3.9.3s.8-.2,1.1-.5c.3-.3.4-.7.4-1.3s-.1-.9-.4-1.2c-.3-.3-.7-.4-1.1-.4s-.5,0-.8.2c-.2.1-.4.3-.5.5h-.8c0-.1.7-3.8.7-3.8h3.6v.8h-2.9l-.4,1.9c.4-.3.9-.5,1.4-.5s1.2.2,1.6.7c.4.4.6,1,.6,1.7s-.2,1.2-.6,1.7c-.5.6-1.1.9-1.9.9s-1.2-.2-1.6-.5c-.4-.4-.6-.8-.7-1.5Z"/>
            <path id="ArialMT-3026" data-name="ArialMT-30" class="st5" d="M625.9,30.1c0-.8,0-1.5.3-2,.2-.5.4-.9.8-1.2.3-.3.8-.4,1.3-.4s.7,0,1,.2c.3.2.5.4.7.7.2.3.3.6.4,1.1.1.4.2,1,.2,1.7s0,1.5-.3,2c-.2.5-.4.9-.8,1.2-.3.3-.8.4-1.3.4s-1.2-.2-1.6-.7c-.5-.6-.7-1.6-.7-2.9ZM626.8,30.1c0,1.2.1,2,.4,2.3.3.4.6.6,1,.6s.7-.2,1-.6.4-1.2.4-2.3-.1-2-.4-2.3c-.3-.4-.6-.6-1-.6s-.7.2-1,.5c-.3.4-.5,1.2-.5,2.4Z"/>
          </g>
        </g>
      </g>
    </g>
    <image id="imagef5f4b2dd41" class="st12" width="31" height="616" transform="translate(585.4 471.1) scale(.7 -.7)" xlink:href="confusion_matrix_h2h-1.png"/>
    <g id="patch_4">
      <path class="st0" d="M585.2,471.1h22.2V27.5h-22.2v443.5Z"/>
    </g>
  </g>
  <text class="st84" transform="translate(142.4 17.9)"><tspan x="0" y="0">Confusion Matrix of Shot Scale Labels between Human Annotators</tspan></text>
  <text class="st3" transform="translate(18.5 284.2) rotate(-90)"><tspan x="0" y="0">Primary Coder</tspan></text>
  <text class="st3" transform="translate(296.1 570.2)"><tspan x="0" y="0">Secondary Coder</tspan></text>
</svg>