<?xml version="1.0" encoding="UTF-8"?>
<svg id="Layer_1" xmlns="http://www.w3.org/2000/svg" xmlns:xlink="http://www.w3.org/1999/xlink" version="1.1" viewBox="0 0 1000 390.9">
  <!-- Generator: Adobe Illustrator 29.5.1, SVG Export Plug-In . SVG Version: 2.1.0 Build 141)  -->
  <defs>
    <style>
      .st0, .st1, .st2, .st3, .st4, .st5, .st6, .st7, .st8 {
        fill: none;
      }

      .st9 {
        fill: #ff7f0e;
      }

      .st9, .st10, .st2, .st3, .st4, .st5, .st11, .st6, .st7, .st12, .st8 {
        stroke-linejoin: round;
      }

      .st9, .st10, .st2, .st3, .st4, .st5, .st11, .st7, .st12, .st8 {
        stroke-opacity: .7;
      }

      .st9, .st10, .st11, .st12 {
        fill-opacity: .7;
      }

      .st9, .st2, .st3 {
        stroke: #ff7f0e;
      }

      .st13 {
        font-family: Helvetica, Helvetica;
        font-size: 10px;
      }

      .st1 {
        stroke-linecap: square;
      }

      .st1, .st14, .st6 {
        stroke: #ccc;
      }

      .st1, .st6 {
        stroke-width: .8px;
      }

      .st14 {
        isolation: isolate;
        opacity: .8;
      }

      .st14, .st15 {
        fill: #fff;
      }

      .st10, .st7, .st8 {
        stroke: #1f77b4;
      }

      .st10, .st12 {
        fill: #1f77b4;
      }

      .st2, .st3, .st4, .st5, .st7, .st8 {
        stroke-width: 1.5px;
      }

      .st2, .st4, .st8 {
        stroke-dasharray: 5.6 2.4;
      }

      .st3, .st5, .st6, .st7 {
        stroke-linecap: round;
      }

      .st16 {
        clip-path: url(#clippath-11);
      }

      .st17 {
        clip-path: url(#clippath-10);
      }

      .st18 {
        clip-path: url(#clippath-15);
      }

      .st19 {
        clip-path: url(#clippath-13);
      }

      .st20 {
        clip-path: url(#clippath-14);
      }

      .st21 {
        clip-path: url(#clippath-12);
      }

      .st22 {
        clip-path: url(#clippath-1);
      }

      .st23 {
        clip-path: url(#clippath-3);
      }

      .st24 {
        clip-path: url(#clippath-4);
      }

      .st25 {
        clip-path: url(#clippath-2);
      }

      .st26 {
        clip-path: url(#clippath-7);
      }

      .st27 {
        clip-path: url(#clippath-6);
      }

      .st28 {
        clip-path: url(#clippath-9);
      }

      .st29 {
        clip-path: url(#clippath-8);
      }

      .st30 {
        clip-path: url(#clippath-5);
      }

      .st31 {
        fill: #262626;
      }

      .st4, .st5, .st11, .st12 {
        stroke: #9b9b9b;
      }

      .st11 {
        fill: #9b9b9b;
      }

      .st32 {
        font-family: Helvetica-Bold, Helvetica;
        font-size: 12px;
        font-weight: 700;
      }

      .st33 {
        clip-path: url(#clippath);
      }
    </style>
    <clipPath id="clippath">
      <rect class="st0" x="240.9" y="21.8" width="558" height="332.6"/>
    </clipPath>
    <clipPath id="clippath-1">
      <rect class="st0" x="240.9" y="21.8" width="558" height="332.6"/>
    </clipPath>
    <clipPath id="clippath-2">
      <rect class="st0" x="240.9" y="21.8" width="558" height="332.6"/>
    </clipPath>
    <clipPath id="clippath-3">
      <rect class="st0" x="240.9" y="21.8" width="558" height="332.6"/>
    </clipPath>
    <clipPath id="clippath-4">
      <rect class="st0" x="240.9" y="21.8" width="558" height="332.6"/>
    </clipPath>
    <clipPath id="clippath-5">
      <rect class="st0" x="240.9" y="21.8" width="558" height="332.6"/>
    </clipPath>
    <clipPath id="clippath-6">
      <rect class="st0" x="240.9" y="21.8" width="558" height="332.6"/>
    </clipPath>
    <clipPath id="clippath-7">
      <rect class="st0" x="240.9" y="21.8" width="558" height="332.6"/>
    </clipPath>
    <clipPath id="clippath-8">
      <rect class="st0" x="240.9" y="21.8" width="558" height="332.6"/>
    </clipPath>
    <clipPath id="clippath-9">
      <rect class="st0" x="240.9" y="21.8" width="558" height="332.6"/>
    </clipPath>
    <clipPath id="clippath-10">
      <rect class="st0" x="240.9" y="21.8" width="558" height="332.6"/>
    </clipPath>
    <clipPath id="clippath-11">
      <rect class="st0" x="240.9" y="21.8" width="558" height="332.6"/>
    </clipPath>
    <clipPath id="clippath-12">
      <rect class="st0" x="240.9" y="21.8" width="558" height="332.6"/>
    </clipPath>
    <clipPath id="clippath-13">
      <rect class="st0" x="240.9" y="21.8" width="558" height="332.6"/>
    </clipPath>
    <clipPath id="clippath-14">
      <rect class="st0" x="240.9" y="21.8" width="558" height="332.6"/>
    </clipPath>
    <clipPath id="clippath-15">
      <rect class="st0" x="240.9" y="21.8" width="558" height="332.6"/>
    </clipPath>
  </defs>
  <g id="patch_1">
    <path class="st15" d="M193.9,390.9h612.1V0H193.9v390.9Z"/>
  </g>
  <g id="patch_2">
    <path class="st15" d="M240.9,354.4h558V21.8H240.9v332.6Z"/>
  </g>
  <g id="matplotlib.axis_1">
    <g id="xtick_1">
      <g id="line2d_1">
        <g class="st33">
          <path class="st6" d="M266.2,354.4V21.8"/>
        </g>
      </g>
      <g id="text_1">
        <g>
          <path id="ArialMT-31" class="st31" d="M264.4,368.6h-.9v-5.6c-.2.2-.5.4-.8.6s-.7.4-.9.5v-.9c.5-.2.9-.5,1.3-.8.4-.3.6-.6.8-1h.6v7.2Z"/>
          <path id="ArialMT-61" class="st31" d="M270.3,367.9c-.3.3-.6.5-.9.6-.3.1-.6.2-1,.2-.6,0-1-.1-1.3-.4s-.5-.6-.5-1.1,0-.5.2-.7c.1-.2.3-.4.5-.5s.4-.2.6-.3c.2,0,.4,0,.8-.1.7,0,1.2-.2,1.6-.3,0-.1,0-.2,0-.2,0-.4,0-.6-.3-.8-.2-.2-.6-.3-1-.3s-.7,0-.9.2-.3.4-.4.8h-.9c0-.5.2-.8.4-1,.2-.2.4-.4.8-.5.3-.1.7-.2,1.2-.2s.8,0,1.1.2c.3.1.5.2.6.4.1.2.2.4.3.6,0,.1,0,.4,0,.8v1.2c0,.8,0,1.3,0,1.6,0,.2.1.4.2.6h-.9c0-.2-.1-.4-.2-.6ZM270.2,366c-.3.1-.8.2-1.4.3-.4,0-.6.1-.8.2-.1,0-.3.2-.3.3,0,.1-.1.3-.1.4,0,.2,0,.4.3.6.2.2.4.2.8.2s.6,0,.9-.2c.3-.1.5-.4.6-.6,0-.2.1-.5.1-.9v-.3Z"/>
        </g>
      </g>
    </g>
    <g id="xtick_2">
      <g id="line2d_2">
        <g class="st22">
          <path class="st6" d="M519.9,354.4V21.8"/>
        </g>
      </g>
      <g id="text_2">
        <g>
          <path id="ArialMT-311" data-name="ArialMT-31" class="st31" d="M518,368.6h-.9v-5.6c-.2.2-.5.4-.8.6s-.7.4-.9.5v-.9c.5-.2.9-.5,1.3-.8.4-.3.6-.6.8-1h.6v7.2Z"/>
          <path id="ArialMT-62" class="st31" d="M521.3,368.6h-.8v-7.2h.9v2.6c.4-.5.8-.7,1.4-.7s.6,0,.9.2c.3.1.5.3.7.5.2.2.3.5.4.8.1.3.2.7.2,1.1,0,.9-.2,1.6-.7,2.1-.4.5-1,.7-1.6.7s-1.1-.3-1.4-.8v.7ZM521.3,366c0,.6,0,1.1.3,1.3.3.5.7.7,1.1.7s.7-.2,1-.5c.3-.3.4-.8.4-1.5s-.1-1.2-.4-1.5-.6-.5-1-.5-.7.2-1,.5c-.3.3-.4.8-.4,1.4Z"/>
        </g>
      </g>
    </g>
    <g id="xtick_3">
      <g id="line2d_3">
        <g class="st25">
          <path class="st6" d="M773.5,354.4V21.8"/>
        </g>
      </g>
      <g id="text_3">
        <g>
          <path id="ArialMT-312" data-name="ArialMT-31" class="st31" d="M771.9,368.6h-.9v-5.6c-.2.2-.5.4-.8.6s-.7.4-.9.5v-.9c.5-.2.9-.5,1.3-.8.4-.3.6-.6.8-1h.6v7.2Z"/>
          <path id="ArialMT-63" class="st31" d="M777.8,366.7h.9c0,.7-.3,1.2-.7,1.5-.4.3-.9.5-1.4.5s-1.3-.2-1.7-.7c-.4-.5-.6-1.1-.6-2s0-1,.3-1.5c.2-.4.5-.7.8-.9.4-.2.8-.3,1.2-.3s1,.1,1.4.4c.4.3.6.7.7,1.2h-.9c0-.2-.2-.5-.4-.7-.2-.2-.5-.3-.8-.3-.4,0-.8.2-1.1.5-.3.3-.4.8-.4,1.5s.1,1.2.4,1.5c.3.3.6.5,1,.5s.6-.1.9-.3c.2-.2.4-.5.4-1Z"/>
        </g>
      </g>
    </g>
    <g id="text_4">
      <g>
        <path id="ArialMT-50" class="st31" d="M483.8,381.7v-7.2h2.7c.5,0,.8,0,1.1,0,.4,0,.6.2.9.3.2.2.4.4.6.7.1.3.2.6.2,1,0,.6-.2,1.1-.6,1.5-.4.4-1.1.6-2.1.6h-1.8v2.9h-.9ZM484.7,378h1.9c.6,0,1-.1,1.3-.3s.4-.5.4-1,0-.6-.2-.8c-.2-.2-.4-.4-.6-.4-.2,0-.5,0-.9,0h-1.8v2.6Z"/>
        <path id="ArialMT-72" class="st31" d="M490.3,381.7v-5.2h.8v.8c.2-.4.4-.6.6-.7.2-.1.4-.2.6-.2.3,0,.6,0,.9.3l-.3.8c-.2-.1-.4-.2-.6-.2s-.4,0-.5.2-.3.3-.3.5c0,.3-.1.7-.1,1v2.7h-.9Z"/>
        <path id="ArialMT-6f" class="st31" d="M493.3,379.1c0-1,.3-1.7.8-2.1.4-.4,1-.6,1.6-.6s1.3.2,1.7.7c.5.5.7,1.1.7,1.9s-.1,1.2-.3,1.6c-.2.4-.5.7-.9.9-.4.2-.8.3-1.3.3-.7,0-1.3-.2-1.8-.7-.4-.5-.7-1.1-.7-2ZM494.2,379.1c0,.7.1,1.2.4,1.5.3.3.7.5,1.1.5s.8-.2,1.1-.5c.3-.3.4-.8.4-1.5s-.1-1.1-.4-1.5-.7-.5-1.1-.5-.8.2-1.1.5c-.3.3-.4.8-.4,1.5Z"/>
        <path id="ArialMT-6d" class="st31" d="M499.2,381.7v-5.2h.8v.7c.2-.3.4-.5.6-.6.3-.2.6-.2.9-.2s.7,0,.9.2.4.4.5.7c.4-.6.9-.9,1.6-.9s.9.1,1.2.4c.3.3.4.7.4,1.3v3.6h-.9v-3.3c0-.4,0-.6,0-.8,0-.2-.2-.3-.3-.4-.1,0-.3-.1-.5-.1-.4,0-.7.1-.9.4-.2.2-.4.6-.4,1.2v3h-.9v-3.4c0-.4,0-.7-.2-.9-.1-.2-.4-.3-.7-.3s-.5,0-.7.2c-.2.1-.4.3-.5.6,0,.3-.1.6-.1,1.1v2.7h-.9Z"/>
        <path id="ArialMT-70" class="st31" d="M507.5,383.7v-7.2h.8v.7c.2-.3.4-.5.6-.6.2-.1.5-.2.9-.2s.8.1,1.2.3.6.6.8,1c.2.4.3.9.3,1.4s0,1-.3,1.4c-.2.4-.5.8-.8,1-.4.2-.7.3-1.1.3s-.6,0-.8-.2c-.2-.1-.4-.3-.6-.5v2.5h-.9ZM508.3,379.2c0,.7.1,1.2.4,1.5.3.3.6.5,1,.5s.7-.2,1-.5c.3-.3.4-.8.4-1.5s-.1-1.2-.4-1.5c-.3-.3-.6-.5-1-.5s-.7.2-1,.5c-.3.4-.4.9-.4,1.5Z"/>
        <path id="ArialMT-74" class="st31" d="M515,380.9v.8c-.1,0-.3,0-.5,0-.3,0-.6,0-.7-.2-.2-.1-.3-.2-.4-.4,0-.2-.1-.5-.1-1v-3h-.6v-.7h.6v-1.3l.9-.5v1.8h.9v.7h-.9v3c0,.3,0,.4,0,.5,0,0,0,.1.2.2,0,0,.2,0,.3,0s.2,0,.4,0Z"/>
        <path id="ArialMT-20" class="st31" d="M515.2,381.7"/>
        <path id="ArialMT-56" class="st31" d="M520.8,381.7l-2.8-7.2h1l1.9,5.2c.2.4.3.8.4,1.2.1-.4.2-.8.4-1.2l1.9-5.2h1l-2.8,7.2h-1Z"/>
        <path id="ArialMT-611" data-name="ArialMT-61" class="st31" d="M528,381.1c-.3.3-.6.5-.9.6-.3.1-.6.2-1,.2-.6,0-1-.1-1.3-.4s-.5-.6-.5-1.1,0-.5.2-.7c.1-.2.3-.4.5-.5s.4-.2.6-.3c.2,0,.4,0,.8-.1.7,0,1.2-.2,1.6-.3,0-.1,0-.2,0-.2,0-.4,0-.6-.3-.8-.2-.2-.6-.3-1-.3s-.7,0-.9.2-.3.4-.4.8h-.9c0-.5.2-.8.4-1,.2-.2.4-.4.8-.5.3-.1.7-.2,1.2-.2s.8,0,1.1.2c.3.1.5.2.6.4.1.2.2.4.3.6,0,.1,0,.4,0,.8v1.2c0,.8,0,1.3,0,1.6,0,.2.1.4.2.6h-.9c0-.2-.1-.4-.2-.6ZM527.9,379.1c-.3.1-.8.2-1.4.3-.4,0-.6.1-.8.2-.1,0-.3.2-.3.3,0,.1-.1.3-.1.4,0,.2,0,.4.3.6.2.2.4.2.8.2s.6,0,.9-.2c.3-.1.5-.4.6-.6,0-.2.1-.5.1-.9v-.3Z"/>
        <path id="ArialMT-721" data-name="ArialMT-72" class="st31" d="M530.1,381.7v-5.2h.8v.8c.2-.4.4-.6.6-.7.2-.1.4-.2.6-.2.3,0,.6,0,.9.3l-.3.8c-.2-.1-.4-.2-.6-.2s-.4,0-.5.2-.3.3-.3.5c0,.3-.1.7-.1,1v2.7h-.9Z"/>
        <path id="ArialMT-69" class="st31" d="M533.5,375.6v-1h.9v1h-.9ZM533.5,381.7v-5.2h.9v5.2h-.9Z"/>
        <path id="ArialMT-612" data-name="ArialMT-61" class="st31" d="M539.1,381.1c-.3.3-.6.5-.9.6-.3.1-.6.2-1,.2-.6,0-1-.1-1.3-.4s-.5-.6-.5-1.1,0-.5.2-.7c.1-.2.3-.4.5-.5s.4-.2.6-.3c.2,0,.4,0,.8-.1.7,0,1.2-.2,1.6-.3,0-.1,0-.2,0-.2,0-.4,0-.6-.3-.8-.2-.2-.6-.3-1-.3s-.7,0-.9.2-.3.4-.4.8h-.9c0-.5.2-.8.4-1,.2-.2.4-.4.8-.5.3-.1.7-.2,1.2-.2s.8,0,1.1.2c.3.1.5.2.6.4.1.2.2.4.3.6,0,.1,0,.4,0,.8v1.2c0,.8,0,1.3,0,1.6,0,.2.1.4.2.6h-.9c0-.2-.1-.4-.2-.6ZM539,379.1c-.3.1-.8.2-1.4.3-.4,0-.6.1-.8.2-.1,0-.3.2-.3.3,0,.1-.1.3-.1.4,0,.2,0,.4.3.6.2.2.4.2.8.2s.6,0,.9-.2c.3-.1.5-.4.6-.6,0-.2.1-.5.1-.9v-.3Z"/>
        <path id="ArialMT-741" data-name="ArialMT-74" class="st31" d="M543.2,380.9v.8c-.1,0-.3,0-.5,0-.3,0-.6,0-.7-.2-.2-.1-.3-.2-.4-.4,0-.2-.1-.5-.1-1v-3h-.6v-.7h.6v-1.3l.9-.5v1.8h.9v.7h-.9v3c0,.3,0,.4,0,.5,0,0,0,.1.2.2,0,0,.2,0,.3,0s.2,0,.4,0Z"/>
        <path id="ArialMT-691" data-name="ArialMT-69" class="st31" d="M544.1,375.6v-1h.9v1h-.9ZM544.1,381.7v-5.2h.9v5.2h-.9Z"/>
        <path id="ArialMT-6f1" data-name="ArialMT-6f" class="st31" d="M545.9,379.1c0-1,.3-1.7.8-2.1.4-.4,1-.6,1.6-.6s1.3.2,1.7.7c.5.5.7,1.1.7,1.9s-.1,1.2-.3,1.6c-.2.4-.5.7-.9.9-.4.2-.8.3-1.3.3-.7,0-1.3-.2-1.8-.7-.4-.5-.7-1.1-.7-2ZM546.8,379.1c0,.7.1,1.2.4,1.5.3.3.7.5,1.1.5s.8-.2,1.1-.5c.3-.3.4-.8.4-1.5s-.1-1.1-.4-1.5-.7-.5-1.1-.5-.8.2-1.1.5c-.3.3-.4.8-.4,1.5Z"/>
        <path id="ArialMT-6e" class="st31" d="M551.8,381.7v-5.2h.8v.7c.4-.6.9-.9,1.7-.9s.6,0,.9.2.5.3.6.4.2.4.3.6c0,.2,0,.4,0,.9v3.2h-.9v-3.2c0-.4,0-.6-.1-.8,0-.2-.2-.3-.4-.4-.2-.1-.4-.2-.6-.2-.4,0-.7.1-1,.4s-.4.7-.4,1.4v2.8h-.9Z"/>
      </g>
    </g>
  </g>
  <g id="matplotlib.axis_2">
    <g id="ytick_1">
      <g id="line2d_4">
        <g class="st23">
          <path class="st6" d="M240.9,330.6h558"/>
        </g>
      </g>
      <g id="text_5">
        <g>
          <path id="ArialMT-30" class="st31" d="M214.8,330.7c0-.8,0-1.5.3-2,.2-.5.4-.9.8-1.2.3-.3.8-.4,1.3-.4s.7,0,1,.2c.3.2.5.4.7.7.2.3.3.6.4,1.1.1.4.2,1,.2,1.7s0,1.5-.3,2c-.2.5-.4.9-.8,1.2-.3.3-.8.4-1.3.4s-1.2-.2-1.6-.7c-.5-.6-.7-1.6-.7-2.9ZM215.7,330.7c0,1.2.1,2,.4,2.3.3.4.6.6,1,.6s.7-.2,1-.6.4-1.2.4-2.3-.1-2-.4-2.3c-.3-.4-.6-.6-1-.6s-.7.2-1,.5c-.3.4-.5,1.2-.5,2.4Z"/>
          <path id="ArialMT-2e" class="st31" d="M220.9,334.2v-1h1v1h-1Z"/>
          <path id="ArialMT-37" class="st31" d="M223.2,328v-.8h4.6v.7c-.5.5-.9,1.1-1.4,1.9-.4.8-.8,1.6-1,2.5-.2.6-.3,1.3-.3,2h-.9c0-.6.1-1.2.3-2,.2-.8.5-1.6.9-2.3s.8-1.4,1.3-1.9h-3.5Z"/>
          <path id="ArialMT-35" class="st31" d="M228.7,332.3h.9c0,.4.2.7.5.9.2.2.5.3.9.3s.8-.2,1.1-.5c.3-.3.4-.7.4-1.3s-.1-.9-.4-1.2c-.3-.3-.7-.4-1.1-.4s-.5,0-.8.2c-.2.1-.4.3-.5.5h-.8c0-.1.7-3.8.7-3.8h3.6v.8h-2.9l-.4,1.9c.4-.3.9-.5,1.4-.5s1.2.2,1.6.7c.4.4.6,1,.6,1.7s-.2,1.2-.6,1.7c-.5.6-1.1.9-1.9.9s-1.2-.2-1.6-.5c-.4-.4-.6-.8-.7-1.5Z"/>
        </g>
      </g>
    </g>
    <g id="ytick_2">
      <g id="line2d_5">
        <g class="st24">
          <path class="st6" d="M240.9,263.9h558"/>
        </g>
      </g>
      <g id="text_6">
        <g>
          <path id="ArialMT-301" data-name="ArialMT-30" class="st31" d="M214.8,264c0-.8,0-1.5.3-2,.2-.5.4-.9.8-1.2.3-.3.8-.4,1.3-.4s.7,0,1,.2c.3.2.5.4.7.7.2.3.3.6.4,1.1.1.4.2,1,.2,1.7s0,1.5-.3,2c-.2.5-.4.9-.8,1.2-.3.3-.8.4-1.3.4s-1.2-.2-1.6-.7c-.5-.6-.7-1.6-.7-2.9ZM215.7,264c0,1.2.1,2,.4,2.3.3.4.6.6,1,.6s.7-.2,1-.6.4-1.2.4-2.3-.1-2-.4-2.3c-.3-.4-.6-.6-1-.6s-.7.2-1,.5c-.3.4-.5,1.2-.5,2.4Z"/>
          <path id="ArialMT-2e1" data-name="ArialMT-2e" class="st31" d="M220.9,267.5v-1h1v1h-1Z"/>
          <path id="ArialMT-38" class="st31" d="M224.5,263.6c-.4-.1-.6-.3-.8-.6-.2-.2-.3-.5-.3-.9,0-.5.2-1,.6-1.3.4-.4.9-.5,1.5-.5s1.1.2,1.5.5c.4.4.6.8.6,1.3s0,.6-.3.9c-.2.2-.4.4-.8.6.4.1.8.4,1,.7.2.3.3.7.3,1.1s-.2,1.1-.7,1.5c-.4.4-1,.6-1.7.6s-1.3-.2-1.7-.6c-.4-.4-.7-.9-.7-1.6s.1-.9.4-1.2c.2-.3.6-.5,1-.6ZM224.3,262.1c0,.3.1.6.3.8.2.2.5.3.9.3s.6-.1.8-.3c.2-.2.3-.5.3-.8s-.1-.6-.3-.8c-.2-.2-.5-.3-.8-.3s-.6.1-.8.3c-.2.2-.3.5-.3.8ZM224.1,265.4c0,.3,0,.5.2.7s.3.4.5.5c.2.1.5.2.8.2.4,0,.8-.1,1-.4.3-.3.4-.6.4-1s-.1-.8-.4-1.1c-.3-.3-.6-.4-1.1-.4s-.8.1-1,.4c-.3.3-.4.6-.4,1Z"/>
          <path id="ArialMT-302" data-name="ArialMT-30" class="st31" d="M228.7,264c0-.8,0-1.5.3-2,.2-.5.4-.9.8-1.2.3-.3.8-.4,1.3-.4s.7,0,1,.2c.3.2.5.4.7.7.2.3.3.6.4,1.1.1.4.2,1,.2,1.7s0,1.5-.3,2c-.2.5-.4.9-.8,1.2-.3.3-.8.4-1.3.4s-1.2-.2-1.6-.7c-.5-.6-.7-1.6-.7-2.9ZM229.6,264c0,1.2.1,2,.4,2.3.3.4.6.6,1,.6s.7-.2,1-.6.4-1.2.4-2.3-.1-2-.4-2.3c-.3-.4-.6-.6-1-.6s-.7.2-1,.5c-.3.4-.5,1.2-.5,2.4Z"/>
        </g>
      </g>
    </g>
    <g id="ytick_3">
      <g id="line2d_6">
        <g class="st30">
          <path class="st6" d="M240.9,197.2h558"/>
        </g>
      </g>
      <g id="text_7">
        <g>
          <path id="ArialMT-303" data-name="ArialMT-30" class="st31" d="M214.8,197.2c0-.8,0-1.5.3-2,.2-.5.4-.9.8-1.2.3-.3.8-.4,1.3-.4s.7,0,1,.2c.3.2.5.4.7.7.2.3.3.6.4,1.1.1.4.2,1,.2,1.7s0,1.5-.3,2c-.2.5-.4.9-.8,1.2-.3.3-.8.4-1.3.4s-1.2-.2-1.6-.7c-.5-.6-.7-1.6-.7-2.9ZM215.7,197.2c0,1.2.1,2,.4,2.3.3.4.6.6,1,.6s.7-.2,1-.6.4-1.2.4-2.3-.1-2-.4-2.3c-.3-.4-.6-.6-1-.6s-.7.2-1,.5c-.3.4-.5,1.2-.5,2.4Z"/>
          <path id="ArialMT-2e2" data-name="ArialMT-2e" class="st31" d="M220.9,200.8v-1h1v1h-1Z"/>
          <path id="ArialMT-381" data-name="ArialMT-38" class="st31" d="M224.5,196.9c-.4-.1-.6-.3-.8-.6-.2-.2-.3-.5-.3-.9,0-.5.2-1,.6-1.3.4-.4.9-.5,1.5-.5s1.1.2,1.5.5c.4.4.6.8.6,1.3s0,.6-.3.9c-.2.2-.4.4-.8.6.4.1.8.4,1,.7.2.3.3.7.3,1.1s-.2,1.1-.7,1.5c-.4.4-1,.6-1.7.6s-1.3-.2-1.7-.6c-.4-.4-.7-.9-.7-1.6s.1-.9.4-1.2c.2-.3.6-.5,1-.6ZM224.3,195.4c0,.3.1.6.3.8.2.2.5.3.9.3s.6-.1.8-.3c.2-.2.3-.5.3-.8s-.1-.6-.3-.8c-.2-.2-.5-.3-.8-.3s-.6.1-.8.3c-.2.2-.3.5-.3.8ZM224.1,198.7c0,.3,0,.5.2.7s.3.4.5.5c.2.1.5.2.8.2.4,0,.8-.1,1-.4.3-.3.4-.6.4-1s-.1-.8-.4-1.1c-.3-.3-.6-.4-1.1-.4s-.8.1-1,.4c-.3.3-.4.6-.4,1Z"/>
          <path id="ArialMT-351" data-name="ArialMT-35" class="st31" d="M228.7,198.9h.9c0,.4.2.7.5.9.2.2.5.3.9.3s.8-.2,1.1-.5c.3-.3.4-.7.4-1.3s-.1-.9-.4-1.2c-.3-.3-.7-.4-1.1-.4s-.5,0-.8.2c-.2.1-.4.3-.5.5h-.8c0-.1.7-3.8.7-3.8h3.6v.8h-2.9l-.4,1.9c.4-.3.9-.5,1.4-.5s1.2.2,1.6.7c.4.4.6,1,.6,1.7s-.2,1.2-.6,1.7c-.5.6-1.1.9-1.9.9s-1.2-.2-1.6-.5c-.4-.4-.6-.8-.7-1.5Z"/>
        </g>
      </g>
    </g>
    <g id="ytick_4">
      <g id="line2d_7">
        <g class="st27">
          <path class="st6" d="M240.9,130.5h558"/>
        </g>
      </g>
      <g id="text_8">
        <g>
          <path id="ArialMT-304" data-name="ArialMT-30" class="st31" d="M214.8,130.5c0-.8,0-1.5.3-2,.2-.5.4-.9.8-1.2.3-.3.8-.4,1.3-.4s.7,0,1,.2c.3.2.5.4.7.7.2.3.3.6.4,1.1.1.4.2,1,.2,1.7s0,1.5-.3,2c-.2.5-.4.9-.8,1.2-.3.3-.8.4-1.3.4s-1.2-.2-1.6-.7c-.5-.6-.7-1.6-.7-2.9ZM215.7,130.5c0,1.2.1,2,.4,2.3.3.4.6.6,1,.6s.7-.2,1-.6.4-1.2.4-2.3-.1-2-.4-2.3c-.3-.4-.6-.6-1-.6s-.7.2-1,.5c-.3.4-.5,1.2-.5,2.4Z"/>
          <path id="ArialMT-2e3" data-name="ArialMT-2e" class="st31" d="M220.9,134v-1h1v1h-1Z"/>
          <path id="ArialMT-39" class="st31" d="M223.3,132.4h.8c0,.3.2.6.4.8.2.2.5.3.8.3s.5,0,.7-.2c.2-.1.4-.3.5-.5.1-.2.2-.5.3-.8,0-.4.1-.7.1-1.1s0,0,0-.2c-.2.3-.4.5-.7.7-.3.2-.6.3-1,.3-.6,0-1.1-.2-1.5-.6-.4-.4-.6-1-.6-1.7s.2-1.3.6-1.8c.4-.4,1-.7,1.6-.7s.9.1,1.3.4c.4.3.7.6.9,1.1.2.5.3,1.1.3,2s0,1.6-.3,2.2c-.2.5-.5,1-.9,1.2-.4.3-.9.4-1.4.4s-1-.2-1.4-.5c-.4-.3-.6-.7-.6-1.3ZM226.9,129.2c0-.5-.1-.9-.4-1.2-.3-.3-.6-.4-1-.4s-.7.2-1,.5c-.3.3-.4.7-.4,1.2s.1.8.4,1.1c.3.3.6.4,1,.4s.7-.1,1-.4c.3-.3.4-.7.4-1.2Z"/>
          <path id="ArialMT-305" data-name="ArialMT-30" class="st31" d="M228.7,130.5c0-.8,0-1.5.3-2,.2-.5.4-.9.8-1.2.3-.3.8-.4,1.3-.4s.7,0,1,.2c.3.2.5.4.7.7.2.3.3.6.4,1.1.1.4.2,1,.2,1.7s0,1.5-.3,2c-.2.5-.4.9-.8,1.2-.3.3-.8.4-1.3.4s-1.2-.2-1.6-.7c-.5-.6-.7-1.6-.7-2.9ZM229.6,130.5c0,1.2.1,2,.4,2.3.3.4.6.6,1,.6s.7-.2,1-.6.4-1.2.4-2.3-.1-2-.4-2.3c-.3-.4-.6-.6-1-.6s-.7.2-1,.5c-.3.4-.5,1.2-.5,2.4Z"/>
        </g>
      </g>
    </g>
    <g id="ytick_5">
      <g id="line2d_8">
        <g class="st26">
          <path class="st6" d="M240.9,63.7h558"/>
        </g>
      </g>
      <g id="text_9">
        <g>
          <path id="ArialMT-306" data-name="ArialMT-30" class="st31" d="M214.8,63.8c0-.8,0-1.5.3-2,.2-.5.4-.9.8-1.2.3-.3.8-.4,1.3-.4s.7,0,1,.2c.3.2.5.4.7.7.2.3.3.6.4,1.1.1.4.2,1,.2,1.7s0,1.5-.3,2c-.2.5-.4.9-.8,1.2-.3.3-.8.4-1.3.4s-1.2-.2-1.6-.7c-.5-.6-.7-1.6-.7-2.9ZM215.7,63.8c0,1.2.1,2,.4,2.3.3.4.6.6,1,.6s.7-.2,1-.6.4-1.2.4-2.3-.1-2-.4-2.3c-.3-.4-.6-.6-1-.6s-.7.2-1,.5c-.3.4-.5,1.2-.5,2.4Z"/>
          <path id="ArialMT-2e4" data-name="ArialMT-2e" class="st31" d="M220.9,67.3v-1h1v1h-1Z"/>
          <path id="ArialMT-391" data-name="ArialMT-39" class="st31" d="M223.3,65.7h.8c0,.3.2.6.4.8.2.2.5.3.8.3s.5,0,.7-.2c.2-.1.4-.3.5-.5.1-.2.2-.5.3-.8,0-.4.1-.7.1-1.1s0,0,0-.2c-.2.3-.4.5-.7.7-.3.2-.6.3-1,.3-.6,0-1.1-.2-1.5-.6-.4-.4-.6-1-.6-1.7s.2-1.3.6-1.8c.4-.4,1-.7,1.6-.7s.9.1,1.3.4c.4.3.7.6.9,1.1.2.5.3,1.1.3,2s0,1.6-.3,2.2c-.2.5-.5,1-.9,1.2-.4.3-.9.4-1.4.4s-1-.2-1.4-.5c-.4-.3-.6-.7-.6-1.3ZM226.9,62.5c0-.5-.1-.9-.4-1.2-.3-.3-.6-.4-1-.4s-.7.2-1,.5c-.3.3-.4.7-.4,1.2s.1.8.4,1.1c.3.3.6.4,1,.4s.7-.1,1-.4c.3-.3.4-.7.4-1.2Z"/>
          <path id="ArialMT-352" data-name="ArialMT-35" class="st31" d="M228.7,65.4h.9c0,.4.2.7.5.9.2.2.5.3.9.3s.8-.2,1.1-.5c.3-.3.4-.7.4-1.3s-.1-.9-.4-1.2c-.3-.3-.7-.4-1.1-.4s-.5,0-.8.2c-.2.1-.4.3-.5.5h-.8c0-.1.7-3.8.7-3.8h3.6v.8h-2.9l-.4,1.9c.4-.3.9-.5,1.4-.5s1.2.2,1.6.7c.4.4.6,1,.6,1.7s-.2,1.2-.6,1.7c-.5.6-1.1.9-1.9.9s-1.2-.2-1.6-.5c-.4-.4-.6-.8-.7-1.5Z"/>
        </g>
      </g>
    </g>
    <g id="text_10">
      <g>
        <path id="ArialMT-41" class="st31" d="M208.4,215.4l-7.2-2.7v-1l7.2-2.9v1.1l-2.2.8v3l2.2.8v1ZM205.5,213.3v-2.4l-2,.7c-.6.2-1.1.4-1.5.5.5,0,.9.2,1.4.4l2.1.8Z"/>
        <path id="ArialMT-6c" class="st31" d="M208.4,208h-7.2v-.9h7.2v.9Z"/>
        <path id="ArialMT-701" data-name="ArialMT-70" class="st31" d="M210.4,205.8h-7.2v-.8h.7c-.3-.2-.5-.4-.6-.6-.1-.2-.2-.5-.2-.9s.1-.8.3-1.2.6-.6,1-.8c.4-.2.9-.3,1.4-.3s1,0,1.4.3c.4.2.8.5,1,.8.2.4.3.7.3,1.1s0,.6-.2.8c-.1.2-.3.4-.5.6h2.5v.9ZM205.9,205c.7,0,1.2-.1,1.5-.4.3-.3.5-.6.5-1s-.2-.7-.5-1c-.3-.3-.8-.4-1.5-.4s-1.2.1-1.5.4c-.3.3-.5.6-.5,1s.2.7.5,1c.4.3.9.4,1.5.4Z"/>
        <path id="ArialMT-68" class="st31" d="M208.4,200.2h-7.2v-.9h2.6c-.5-.4-.7-.9-.7-1.6s0-.7.2-1c.2-.3.4-.5.6-.6s.7-.2,1.2-.2h3.3v.9h-3.3c-.4,0-.8,0-1,.3s-.3.5-.3.8,0,.5.2.7c.1.2.3.4.5.5.2,0,.6.1,1,.1h2.8v.9Z"/>
        <path id="ArialMT-613" data-name="ArialMT-61" class="st31" d="M207.8,191.3c.3.3.5.6.6.9.1.3.2.6.2,1,0,.6-.1,1-.4,1.3s-.6.5-1.1.5-.5,0-.7-.2c-.2-.1-.4-.3-.5-.5s-.2-.4-.3-.6c0-.2,0-.4-.1-.8,0-.7-.2-1.2-.3-1.6-.1,0-.2,0-.2,0-.4,0-.6,0-.8.3-.2.2-.3.6-.3,1s0,.7.2.9.4.3.8.4v.9c-.5,0-.8-.2-1-.4-.2-.2-.4-.4-.5-.8-.1-.3-.2-.7-.2-1.2s0-.8.2-1.1c.1-.3.2-.5.4-.6.2-.1.4-.2.6-.3.1,0,.4,0,.8,0h1.2c.8,0,1.3,0,1.6,0,.2,0,.4-.1.6-.2v.9c-.2,0-.4.1-.6.2ZM205.8,191.4c.1.3.2.8.3,1.4,0,.4.1.6.2.8,0,.1.2.3.3.3.1,0,.3.1.4.1.2,0,.4,0,.6-.3.2-.2.2-.4.2-.8s0-.6-.2-.9c-.1-.3-.4-.5-.6-.6-.2,0-.5-.1-.9-.1h-.3Z"/>
        <path id="ArialMT-201" data-name="ArialMT-20" class="st31" d="M208.4,189.8"/>
        <path id="ArialMT-53" class="st31" d="M206.1,186.5v-.9c.3,0,.6-.1.8-.3.2-.2.4-.4.6-.7.1-.3.2-.7.2-1.1s0-.7-.2-1c-.1-.3-.3-.5-.4-.6-.2-.1-.4-.2-.6-.2s-.4,0-.6.2-.3.3-.4.6c0,.2-.2.6-.3,1.3-.2.7-.3,1.1-.4,1.4-.2.3-.4.6-.7.8-.3.2-.6.3-.9.3s-.7-.1-1-.3c-.3-.2-.6-.5-.7-.9-.2-.4-.2-.8-.2-1.3s0-1,.3-1.4c.2-.4.4-.7.8-.9.3-.2.7-.3,1.1-.4v.9c-.4,0-.7.2-1,.5-.2.3-.3.7-.3,1.2s.1,1,.3,1.3c.2.3.5.4.8.4s.5,0,.6-.3c.2-.2.3-.7.5-1.4.2-.8.3-1.3.5-1.6.2-.4.4-.7.7-.9.3-.2.6-.3,1-.3s.7.1,1.1.3c.3.2.6.5.8.9.2.4.3.9.3,1.4s0,1.2-.3,1.6c-.2.4-.5.8-.9,1-.4.2-.8.4-1.3.4Z"/>
        <path id="ArialMT-631" data-name="ArialMT-63" class="st31" d="M206.5,176.3v-.9c.7,0,1.2.3,1.5.7.3.4.5.9.5,1.4s-.2,1.3-.7,1.7c-.5.4-1.1.6-2,.6s-1,0-1.5-.3c-.4-.2-.7-.5-.9-.8-.2-.4-.3-.8-.3-1.2s.1-1,.4-1.4c.3-.4.7-.6,1.2-.7v.9c-.2,0-.5.2-.7.4-.2.2-.3.5-.3.8,0,.4.2.8.5,1.1.3.3.8.4,1.5.4s1.2-.1,1.5-.4c.3-.3.5-.6.5-1s-.1-.6-.3-.9c-.2-.2-.5-.4-1-.4Z"/>
        <path id="ArialMT-6f2" data-name="ArialMT-6f" class="st31" d="M205.8,175c-1,0-1.7-.3-2.1-.8-.4-.4-.6-1-.6-1.6s.2-1.3.7-1.7c.5-.5,1.1-.7,1.9-.7s1.2.1,1.6.3c.4.2.7.5.9.9.2.4.3.8.3,1.3,0,.7-.2,1.3-.7,1.8-.5.4-1.1.7-2,.7ZM205.8,174.1c.7,0,1.2-.1,1.5-.4.3-.3.5-.7.5-1.1s-.2-.8-.5-1.1c-.3-.3-.8-.4-1.5-.4s-1.1.1-1.5.4-.5.7-.5,1.1.2.8.5,1.1c.3.3.8.4,1.5.4Z"/>
        <path id="ArialMT-722" data-name="ArialMT-72" class="st31" d="M208.4,169.1h-5.2v-.8h.8c-.4-.2-.6-.4-.7-.6-.1-.2-.2-.4-.2-.6,0-.3,0-.6.3-.9l.8.3c-.1.2-.2.4-.2.6s0,.4.2.5.3.3.5.3c.3,0,.7.1,1,.1h2.7v.9Z"/>
        <path id="ArialMT-65" class="st31" d="M206.7,162.2v-.9c.6.1,1.1.4,1.3.8.3.4.4.9.4,1.5s-.2,1.4-.7,1.8c-.5.4-1.1.7-2,.7s-1.6-.2-2-.7c-.5-.5-.7-1-.7-1.7s.2-1.3.7-1.7,1.1-.7,2-.7.1,0,.2,0v3.9c.6,0,1-.2,1.3-.5.3-.3.5-.7.5-1.1s0-.6-.3-.8c-.2-.2-.4-.4-.8-.5ZM205.3,165.1v-2.9c-.4,0-.8.1-1,.3-.3.3-.5.6-.5,1.1s.1.7.4,1,.6.4,1.1.5Z"/>
      </g>
    </g>
  </g>
  <g id="line2d_9">
    <g class="st29">
      <path class="st3" d="M266.2,54.6l253.6-17.7,253.6,22.6"/>
    </g>
    <g class="st28">
      <g>
        <path id="m54f35d4379" class="st9" d="M266.2,57.6c.8,0,1.6-.3,2.1-.9.6-.6.9-1.3.9-2.1s-.3-1.6-.9-2.1c-.6-.6-1.3-.9-2.1-.9s-1.6.3-2.1.9c-.6.6-.9,1.3-.9,2.1s.3,1.6.9,2.1c.6.6,1.3.9,2.1.9Z"/>
        <path id="m54f35d43791" data-name="m54f35d4379" class="st9" d="M519.9,39.9c.8,0,1.6-.3,2.1-.9.6-.6.9-1.3.9-2.1s-.3-1.6-.9-2.1c-.6-.6-1.3-.9-2.1-.9s-1.6.3-2.1.9c-.6.6-.9,1.3-.9,2.1s.3,1.6.9,2.1c.6.6,1.3.9,2.1.9Z"/>
        <path id="m54f35d43792" data-name="m54f35d4379" class="st9" d="M773.5,62.5c.8,0,1.6-.3,2.1-.9.6-.6.9-1.3.9-2.1s-.3-1.6-.9-2.1c-.6-.6-1.3-.9-2.1-.9s-1.6.3-2.1.9c-.6.6-.9,1.3-.9,2.1s.3,1.6.9,2.1c.6.6,1.3.9,2.1.9Z"/>
      </g>
    </g>
  </g>
  <g id="line2d_10">
    <g class="st17">
      <path class="st2" d="M266.2,153l253.6-77.1,253.6,69.1"/>
    </g>
    <g class="st16">
      <g>
        <path id="m9620267d73" class="st9" d="M263.2,156l6-6M263.2,150l6,6"/>
        <path id="m9620267d731" data-name="m9620267d73" class="st9" d="M516.9,78.9l6-6M516.9,72.9l6,6"/>
        <path id="m9620267d732" data-name="m9620267d73" class="st9" d="M770.5,148l6-6M770.5,142l6,6"/>
      </g>
    </g>
  </g>
  <g id="line2d_11">
    <g class="st21">
      <path class="st7" d="M266.2,141.5l253.6-51.1,253.6,77.4"/>
    </g>
    <g class="st19">
      <g>
        <path id="m99facfba4c" class="st10" d="M266.2,144.5c.8,0,1.6-.3,2.1-.9.6-.6.9-1.3.9-2.1s-.3-1.6-.9-2.1c-.6-.6-1.3-.9-2.1-.9s-1.6.3-2.1.9c-.6.6-.9,1.3-.9,2.1s.3,1.6.9,2.1c.6.6,1.3.9,2.1.9Z"/>
        <path id="m99facfba4c1" data-name="m99facfba4c" class="st10" d="M519.9,93.4c.8,0,1.6-.3,2.1-.9.6-.6.9-1.3.9-2.1s-.3-1.6-.9-2.1c-.6-.6-1.3-.9-2.1-.9s-1.6.3-2.1.9c-.6.6-.9,1.3-.9,2.1s.3,1.6.9,2.1c.6.6,1.3.9,2.1.9Z"/>
        <path id="m99facfba4c2" data-name="m99facfba4c" class="st10" d="M773.5,170.8c.8,0,1.6-.3,2.1-.9.6-.6.9-1.3.9-2.1s-.3-1.6-.9-2.1c-.6-.6-1.3-.9-2.1-.9s-1.6.3-2.1.9c-.6.6-.9,1.3-.9,2.1s.3,1.6.9,2.1c.6.6,1.3.9,2.1.9Z"/>
      </g>
    </g>
  </g>
  <g id="line2d_12">
    <g class="st20">
      <path class="st8" d="M266.2,312.5l253.6-96.9,253.6,123.7"/>
    </g>
    <g class="st18">
      <g>
        <path id="mf9a2ff717c" class="st10" d="M263.2,315.5l6-6M263.2,309.5l6,6"/>
        <path id="mf9a2ff717c1" data-name="mf9a2ff717c" class="st10" d="M516.9,218.6l6-6M516.9,212.6l6,6"/>
        <path id="mf9a2ff717c2" data-name="mf9a2ff717c" class="st10" d="M770.5,342.3l6-6M770.5,336.3l6,6"/>
      </g>
    </g>
  </g>
  <g id="patch_3">
    <path class="st1" d="M240.9,354.4V21.8"/>
  </g>
  <g id="patch_4">
    <path class="st1" d="M798.9,354.4V21.8"/>
  </g>
  <g id="patch_5">
    <path class="st1" d="M240.9,354.4h558"/>
  </g>
  <g id="patch_6">
    <path class="st1" d="M240.9,21.8h558"/>
  </g>
  <g id="legend_1">
    <g id="patch_7">
      <path class="st14" d="M804.5,325.3h175.8c1.1,0,1.6-.7,1.6-2v-70.8c0-1.3-.5-2-1.6-2h-175.8c-1.1,0-1.6.7-1.6,2v70.8c0,1.3.5,2,1.6,2Z"/>
    </g>
    <g id="line2d_13">
      <path class="st3" d="M806.8,272.5h20"/>
    </g>
    <g id="line2d_15">
      <path class="st5" d="M806.8,301.3h20"/>
      <path id="m99facfba4c3" data-name="m99facfba4c" class="st11" d="M816.8,304.3c.8,0,1.6-.3,2.1-.9.6-.6.9-1.3.9-2.1s-.3-1.6-.9-2.1c-.6-.6-1.3-.9-2.1-.9s-1.6.3-2.1.9c-.6.6-.9,1.3-.9,2.1s.3,1.6.9,2.1c.6.6,1.3.9,2.1.9Z"/>
    </g>
    <g id="line2d_16">
      <path class="st4" d="M806.8,315.7h20"/>
      <path id="mf9a2ff717c3" data-name="mf9a2ff717c" class="st12" d="M813.8,318.7l6-6M813.8,312.7l6,6"/>
    </g>
  </g>
  <text class="st32" transform="translate(348.2 14.3)"><tspan x="0" y="0">Intra-Prompt Agreement by Model Across Prompt Variations</tspan></text>
  <text class="st13" transform="translate(806 262.8)"><tspan x="0" y="0">Legend</tspan></text>
  <text class="st13" transform="translate(835.2 276.3)"><tspan x="0" y="0">Qwen2.5-VL</tspan></text>
  <text class="st13" transform="translate(835.6 290.3)"><tspan x="0" y="0">Qwen2-VL</tspan></text>
  <text class="st13" transform="translate(835.6 305.4)"><tspan x="0" y="0">Ordinal Measurement of Alpha</tspan></text>
  <text class="st13" transform="translate(835.6 319.4)"><tspan x="0" y="0">Nominal Measurement of Alpha</tspan></text>
  <path class="st7" d="M806.8,286.6h20"/>
</svg>