<?xml version="1.0" encoding="UTF-8"?>
<svg xmlns="http://www.w3.org/2000/svg" xmlns:xlink="http://www.w3.org/1999/xlink" version="1.1" viewBox="0 0 860 432">
  <!-- Generator: Adobe Illustrator 29.5.1, SVG Export Plug-In . SVG Version: 2.1.0 Build 141)  -->
  <defs>
    <style>
      .st0, .st1, .st2, .st3, .st4, .st5, .st6, .st7, .st8 {
        fill: none;
      }

      .st1 {
        stroke-linecap: square;
      }

      .st1, .st9, .st7 {
        stroke: #ccc;
      }

      .st1, .st7 {
        stroke-width: .8px;
      }

      .st10 {
        font-family: Helvetica-Bold, Helvetica;
        font-size: 14px;
        font-weight: 700;
      }

      .st9 {
        isolation: isolate;
        opacity: .8;
      }

      .st9, .st11 {
        fill: #fff;
      }

      .st12 {
        font-family: Helvetica, Helvetica;
        font-size: 8.3px;
      }

      .st2 {
        stroke: red;
      }

      .st2, .st3, .st4, .st5, .st6, .st7, .st8 {
        stroke-linecap: round;
        stroke-linejoin: round;
      }

      .st2, .st3, .st4, .st5, .st6, .st8 {
        stroke-width: 2px;
      }

      .st3, .st4 {
        stroke: #ff7f0e;
      }

      .st3, .st6 {
        stroke-opacity: .8;
      }

      .st4, .st5 {
        stroke-opacity: .7;
      }

      .st13 {
        clip-path: url(#clippath-17);
      }

      .st14 {
        clip-path: url(#clippath-19);
      }

      .st15 {
        clip-path: url(#clippath-11);
      }

      .st16 {
        clip-path: url(#clippath-16);
      }

      .st17 {
        clip-path: url(#clippath-18);
      }

      .st18 {
        clip-path: url(#clippath-10);
      }

      .st19 {
        clip-path: url(#clippath-15);
      }

      .st20 {
        clip-path: url(#clippath-13);
      }

      .st21 {
        clip-path: url(#clippath-14);
      }

      .st22 {
        clip-path: url(#clippath-12);
      }

      .st23 {
        clip-path: url(#clippath-27);
      }

      .st24 {
        clip-path: url(#clippath-29);
      }

      .st25 {
        clip-path: url(#clippath-26);
      }

      .st26 {
        clip-path: url(#clippath-28);
      }

      .st27 {
        clip-path: url(#clippath-20);
      }

      .st28 {
        clip-path: url(#clippath-21);
      }

      .st29 {
        clip-path: url(#clippath-22);
      }

      .st30 {
        clip-path: url(#clippath-23);
      }

      .st31 {
        clip-path: url(#clippath-24);
      }

      .st32 {
        clip-path: url(#clippath-25);
      }

      .st33 {
        clip-path: url(#clippath-1);
      }

      .st34 {
        clip-path: url(#clippath-3);
      }

      .st35 {
        clip-path: url(#clippath-4);
      }

      .st36 {
        clip-path: url(#clippath-2);
      }

      .st37 {
        clip-path: url(#clippath-7);
      }

      .st38 {
        clip-path: url(#clippath-6);
      }

      .st39 {
        clip-path: url(#clippath-9);
      }

      .st40 {
        clip-path: url(#clippath-8);
      }

      .st41 {
        clip-path: url(#clippath-5);
      }

      .st42 {
        fill: #262626;
      }

      .st5, .st6 {
        stroke: #1f77b4;
      }

      .st8 {
        stroke: #7cfc00;
      }

      .st43 {
        clip-path: url(#clippath);
      }
    </style>
    <clipPath id="clippath">
      <rect class="st0" x="160" y="-392.7" width="558" height="332.6"/>
    </clipPath>
    <clipPath id="clippath-1">
      <rect class="st0" x="160" y="-392.7" width="558" height="332.6"/>
    </clipPath>
    <clipPath id="clippath-2">
      <rect class="st0" x="160" y="-392.7" width="558" height="332.6"/>
    </clipPath>
    <clipPath id="clippath-3">
      <rect class="st0" x="160" y="-392.7" width="558" height="332.6"/>
    </clipPath>
    <clipPath id="clippath-4">
      <rect class="st0" x="160" y="-392.7" width="558" height="332.6"/>
    </clipPath>
    <clipPath id="clippath-5">
      <rect class="st0" x="160" y="-392.7" width="558" height="332.6"/>
    </clipPath>
    <clipPath id="clippath-6">
      <rect class="st0" x="160" y="-392.7" width="558" height="332.6"/>
    </clipPath>
    <clipPath id="clippath-7">
      <rect class="st0" x="160" y="-392.7" width="558" height="332.6"/>
    </clipPath>
    <clipPath id="clippath-8">
      <rect class="st0" x="160" y="-392.7" width="558" height="332.6"/>
    </clipPath>
    <clipPath id="clippath-9">
      <rect class="st0" x="160" y="-392.7" width="558" height="332.6"/>
    </clipPath>
    <clipPath id="clippath-10">
      <rect class="st0" x="160" y="-392.7" width="558" height="332.6"/>
    </clipPath>
    <clipPath id="clippath-11">
      <rect class="st0" x="160" y="-392.7" width="558" height="332.6"/>
    </clipPath>
    <clipPath id="clippath-12">
      <rect class="st0" x="160" y="-392.7" width="558" height="332.6"/>
    </clipPath>
    <clipPath id="clippath-13">
      <rect class="st0" x="160" y="-392.7" width="558" height="332.6"/>
    </clipPath>
    <clipPath id="clippath-14">
      <rect class="st0" x="160" y="-392.7" width="558" height="332.6"/>
    </clipPath>
    <clipPath id="clippath-15">
      <rect class="st0" x="162.3" y="51.7" width="558" height="332.6"/>
    </clipPath>
    <clipPath id="clippath-16">
      <rect class="st0" x="162.3" y="51.7" width="558" height="332.6"/>
    </clipPath>
    <clipPath id="clippath-17">
      <rect class="st0" x="162.3" y="51.7" width="558" height="332.6"/>
    </clipPath>
    <clipPath id="clippath-18">
      <rect class="st0" x="162.3" y="51.7" width="558" height="332.6"/>
    </clipPath>
    <clipPath id="clippath-19">
      <rect class="st0" x="162.3" y="51.7" width="558" height="332.6"/>
    </clipPath>
    <clipPath id="clippath-20">
      <rect class="st0" x="162.3" y="51.7" width="558" height="332.6"/>
    </clipPath>
    <clipPath id="clippath-21">
      <rect class="st0" x="162.3" y="51.7" width="558" height="332.6"/>
    </clipPath>
    <clipPath id="clippath-22">
      <rect class="st0" x="162.3" y="51.7" width="558" height="332.6"/>
    </clipPath>
    <clipPath id="clippath-23">
      <rect class="st0" x="162.3" y="51.7" width="558" height="332.6"/>
    </clipPath>
    <clipPath id="clippath-24">
      <rect class="st0" x="162.3" y="51.7" width="558" height="332.6"/>
    </clipPath>
    <clipPath id="clippath-25">
      <rect class="st0" x="162.3" y="51.7" width="558" height="332.6"/>
    </clipPath>
    <clipPath id="clippath-26">
      <rect class="st0" x="162.3" y="51.7" width="558" height="332.6"/>
    </clipPath>
    <clipPath id="clippath-27">
      <rect class="st0" x="162.3" y="51.7" width="558" height="332.6"/>
    </clipPath>
    <clipPath id="clippath-28">
      <rect class="st0" x="162.3" y="51.7" width="558" height="332.6"/>
    </clipPath>
    <clipPath id="clippath-29">
      <rect class="st0" x="162.3" y="51.7" width="558" height="332.6"/>
    </clipPath>
  </defs>
  <g id="Layer_1">
    <g id="patch_2">
      <path class="st11" d="M160-60.1h558v-332.6H160V-60.1Z"/>
    </g>
    <g id="matplotlib.axis_1">
      <g id="xtick_1">
        <g id="line2d_1">
          <g class="st43">
            <path class="st7" d="M185.4-60.1v-332.6"/>
          </g>
        </g>
        <g id="text_1">
          <g>
            <path id="ArialMT-31" class="st42" d="M183.5-45.9h-.9v-5.6c-.2.2-.5.4-.8.6s-.7.4-.9.5v-.9c.5-.2.9-.5,1.3-.8.4-.3.6-.6.8-1h.6v7.2Z"/>
            <path id="ArialMT-61" class="st42" d="M189.4-46.6c-.3.3-.6.5-.9.6-.3.1-.6.2-1,.2-.6,0-1-.1-1.3-.4s-.5-.6-.5-1.1,0-.5.2-.7c.1-.2.3-.4.5-.5s.4-.2.6-.3c.2,0,.4,0,.8-.1.7,0,1.2-.2,1.6-.3,0-.1,0-.2,0-.2,0-.4,0-.6-.3-.8-.2-.2-.6-.3-1-.3s-.7,0-.9.2-.3.4-.4.8h-.9c0-.5.2-.8.4-1,.2-.2.4-.4.8-.5.3-.1.7-.2,1.2-.2s.8,0,1.1.2c.3.1.5.2.6.4.1.2.2.4.3.6,0,.1,0,.4,0,.8v1.2c0,.8,0,1.3,0,1.6,0,.2.1.4.2.6h-.9c0-.2-.1-.4-.2-.6ZM189.3-48.5c-.3.1-.8.2-1.4.3-.4,0-.6.1-.8.2-.1,0-.3.2-.3.3,0,.1-.1.3-.1.4,0,.2,0,.4.3.6.2.2.4.2.8.2s.6,0,.9-.2c.3-.1.5-.4.6-.6,0-.2.1-.5.1-.9v-.3Z"/>
          </g>
        </g>
      </g>
      <g id="xtick_2">
        <g id="line2d_2">
          <g class="st33">
            <path class="st7" d="M439-60.1v-332.6"/>
          </g>
        </g>
        <g id="text_2">
          <g>
            <path id="ArialMT-311" data-name="ArialMT-31" class="st42" d="M437.2-45.9h-.9v-5.6c-.2.2-.5.4-.8.6s-.7.4-.9.5v-.9c.5-.2.9-.5,1.3-.8.4-.3.6-.6.8-1h.6v7.2Z"/>
            <path id="ArialMT-62" class="st42" d="M440.5-45.9h-.8v-7.2h.9v2.6c.4-.5.8-.7,1.4-.7s.6,0,.9.2c.3.1.5.3.7.5.2.2.3.5.4.8.1.3.2.7.2,1.1,0,.9-.2,1.6-.7,2.1-.4.5-1,.7-1.6.7s-1.1-.3-1.4-.8v.7ZM440.5-48.5c0,.6,0,1.1.3,1.3.3.5.7.7,1.1.7s.7-.2,1-.5c.3-.3.4-.8.4-1.5s-.1-1.2-.4-1.5-.6-.5-1-.5-.7.2-1,.5c-.3.3-.4.8-.4,1.4Z"/>
          </g>
        </g>
      </g>
      <g id="xtick_3">
        <g id="line2d_3">
          <g class="st36">
            <path class="st7" d="M692.6-60.1v-332.6"/>
          </g>
        </g>
        <g id="text_3">
          <g>
            <path id="ArialMT-312" data-name="ArialMT-31" class="st42" d="M691.1-45.9h-.9v-5.6c-.2.2-.5.4-.8.6s-.7.4-.9.5v-.9c.5-.2.9-.5,1.3-.8.4-.3.6-.6.8-1h.6v7.2Z"/>
            <path id="ArialMT-63" class="st42" d="M697-47.8h.9c0,.7-.3,1.2-.7,1.5-.4.3-.9.5-1.4.5s-1.3-.2-1.7-.7c-.4-.5-.6-1.1-.6-2s0-1,.3-1.5c.2-.4.5-.7.8-.9.4-.2.8-.3,1.2-.3s1,.1,1.4.4c.4.3.6.7.7,1.2h-.9c0-.2-.2-.5-.4-.7-.2-.2-.5-.3-.8-.3-.4,0-.8.2-1.1.5-.3.3-.4.8-.4,1.5s.1,1.2.4,1.5c.3.3.6.5,1,.5s.6-.1.9-.3c.2-.2.4-.5.4-1Z"/>
          </g>
        </g>
      </g>
      <g id="text_4">
        <g>
          <path id="ArialMT-50" class="st42" d="M402.9-32.8v-7.2h2.7c.5,0,.8,0,1.1,0,.4,0,.6.2.9.3.2.2.4.4.6.7.1.3.2.6.2,1,0,.6-.2,1.1-.6,1.5-.4.4-1.1.6-2.1.6h-1.8v2.9h-.9ZM403.9-36.5h1.9c.6,0,1-.1,1.3-.3s.4-.5.4-1,0-.6-.2-.8c-.2-.2-.4-.4-.6-.4-.2,0-.5,0-.9,0h-1.8v2.6Z"/>
          <path id="ArialMT-72" class="st42" d="M409.5-32.8v-5.2h.8v.8c.2-.4.4-.6.6-.7.2-.1.4-.2.6-.2.3,0,.6,0,.9.3l-.3.8c-.2-.1-.4-.2-.6-.2s-.4,0-.5.2-.3.3-.3.5c0,.3-.1.7-.1,1v2.7h-.9Z"/>
          <path id="ArialMT-6f" class="st42" d="M412.5-35.4c0-1,.3-1.7.8-2.1.4-.4,1-.6,1.6-.6s1.3.2,1.7.7c.5.5.7,1.1.7,1.9s-.1,1.2-.3,1.6c-.2.4-.5.7-.9.9-.4.2-.8.3-1.3.3-.7,0-1.3-.2-1.8-.7-.4-.5-.7-1.1-.7-2ZM413.4-35.4c0,.7.1,1.2.4,1.5.3.3.7.5,1.1.5s.8-.2,1.1-.5c.3-.3.4-.8.4-1.5s-.1-1.1-.4-1.5-.7-.5-1.1-.5-.8.2-1.1.5c-.3.3-.4.8-.4,1.5Z"/>
          <path id="ArialMT-6d" class="st42" d="M418.4-32.8v-5.2h.8v.7c.2-.3.4-.5.6-.6.3-.2.6-.2.9-.2s.7,0,.9.2.4.4.5.7c.4-.6.9-.9,1.6-.9s.9.1,1.2.4c.3.3.4.7.4,1.3v3.6h-.9v-3.3c0-.4,0-.6,0-.8,0-.2-.2-.3-.3-.4-.1,0-.3-.1-.5-.1-.4,0-.7.1-.9.4-.2.2-.4.6-.4,1.2v3h-.9v-3.4c0-.4,0-.7-.2-.9-.1-.2-.4-.3-.7-.3s-.5,0-.7.2c-.2.1-.4.3-.5.6,0,.3-.1.6-.1,1.1v2.7h-.9Z"/>
          <path id="ArialMT-70" class="st42" d="M426.7-30.8v-7.2h.8v.7c.2-.3.4-.5.6-.6.2-.1.5-.2.9-.2s.8.1,1.2.3.6.6.8,1c.2.4.3.9.3,1.4s0,1-.3,1.4c-.2.4-.5.8-.8,1-.4.2-.7.3-1.1.3s-.6,0-.8-.2c-.2-.1-.4-.3-.6-.5v2.5h-.9ZM427.5-35.3c0,.7.1,1.2.4,1.5.3.3.6.5,1,.5s.7-.2,1-.5c.3-.3.4-.8.4-1.5s-.1-1.2-.4-1.5c-.3-.3-.6-.5-1-.5s-.7.2-1,.5c-.3.4-.4.9-.4,1.5Z"/>
          <path id="ArialMT-74" class="st42" d="M434.2-33.6v.8c-.1,0-.3,0-.5,0-.3,0-.6,0-.7-.2-.2-.1-.3-.2-.4-.4,0-.2-.1-.5-.1-1v-3h-.6v-.7h.6v-1.3l.9-.5v1.8h.9v.7h-.9v3c0,.3,0,.4,0,.5,0,0,0,.1.2.2,0,0,.2,0,.3,0s.2,0,.4,0Z"/>
          <path id="ArialMT-20" class="st42" d="M434.4-32.8"/>
          <path id="ArialMT-56" class="st42" d="M440-32.8l-2.8-7.2h1l1.9,5.2c.2.4.3.8.4,1.2.1-.4.2-.8.4-1.2l1.9-5.2h1l-2.8,7.2h-1Z"/>
          <path id="ArialMT-611" data-name="ArialMT-61" class="st42" d="M447.1-33.4c-.3.3-.6.5-.9.6-.3.1-.6.2-1,.2-.6,0-1-.1-1.3-.4s-.5-.6-.5-1.1,0-.5.2-.7c.1-.2.3-.4.5-.5s.4-.2.6-.3c.2,0,.4,0,.8-.1.7,0,1.2-.2,1.6-.3,0-.1,0-.2,0-.2,0-.4,0-.6-.3-.8-.2-.2-.6-.3-1-.3s-.7,0-.9.2-.3.4-.4.8h-.9c0-.5.2-.8.4-1,.2-.2.4-.4.8-.5.3-.1.7-.2,1.2-.2s.8,0,1.1.2c.3.1.5.2.6.4.1.2.2.4.3.6,0,.1,0,.4,0,.8v1.2c0,.8,0,1.3,0,1.6,0,.2.1.4.2.6h-.9c0-.2-.1-.4-.2-.6ZM447-35.4c-.3.1-.8.2-1.4.3-.4,0-.6.1-.8.2-.1,0-.3.2-.3.3,0,.1-.1.3-.1.4,0,.2,0,.4.3.6.2.2.4.2.8.2s.6,0,.9-.2c.3-.1.5-.4.6-.6,0-.2.1-.5.1-.9v-.3Z"/>
          <path id="ArialMT-721" data-name="ArialMT-72" class="st42" d="M449.3-32.8v-5.2h.8v.8c.2-.4.4-.6.6-.7.2-.1.4-.2.6-.2.3,0,.6,0,.9.3l-.3.8c-.2-.1-.4-.2-.6-.2s-.4,0-.5.2-.3.3-.3.5c0,.3-.1.7-.1,1v2.7h-.9Z"/>
          <path id="ArialMT-69" class="st42" d="M452.6-38.9v-1h.9v1h-.9ZM452.6-32.8v-5.2h.9v5.2h-.9Z"/>
          <path id="ArialMT-612" data-name="ArialMT-61" class="st42" d="M458.2-33.4c-.3.3-.6.5-.9.6-.3.1-.6.2-1,.2-.6,0-1-.1-1.3-.4s-.5-.6-.5-1.1,0-.5.2-.7c.1-.2.3-.4.5-.5s.4-.2.6-.3c.2,0,.4,0,.8-.1.7,0,1.2-.2,1.6-.3,0-.1,0-.2,0-.2,0-.4,0-.6-.3-.8-.2-.2-.6-.3-1-.3s-.7,0-.9.2-.3.4-.4.8h-.9c0-.5.2-.8.4-1,.2-.2.4-.4.8-.5.3-.1.7-.2,1.2-.2s.8,0,1.1.2c.3.1.5.2.6.4.1.2.2.4.3.6,0,.1,0,.4,0,.8v1.2c0,.8,0,1.3,0,1.6,0,.2.1.4.2.6h-.9c0-.2-.1-.4-.2-.6ZM458.2-35.4c-.3.1-.8.2-1.4.3-.4,0-.6.1-.8.2-.1,0-.3.2-.3.3,0,.1-.1.3-.1.4,0,.2,0,.4.3.6.2.2.4.2.8.2s.6,0,.9-.2c.3-.1.5-.4.6-.6,0-.2.1-.5.1-.9v-.3Z"/>
          <path id="ArialMT-741" data-name="ArialMT-74" class="st42" d="M462.3-33.6v.8c-.1,0-.3,0-.5,0-.3,0-.6,0-.7-.2-.2-.1-.3-.2-.4-.4,0-.2-.1-.5-.1-1v-3h-.6v-.7h.6v-1.3l.9-.5v1.8h.9v.7h-.9v3c0,.3,0,.4,0,.5,0,0,0,.1.2.2,0,0,.2,0,.3,0s.2,0,.4,0Z"/>
          <path id="ArialMT-691" data-name="ArialMT-69" class="st42" d="M463.2-38.9v-1h.9v1h-.9ZM463.2-32.8v-5.2h.9v5.2h-.9Z"/>
          <path id="ArialMT-6f1" data-name="ArialMT-6f" class="st42" d="M465.1-35.4c0-1,.3-1.7.8-2.1.4-.4,1-.6,1.6-.6s1.3.2,1.7.7c.5.5.7,1.1.7,1.9s-.1,1.2-.3,1.6c-.2.4-.5.7-.9.9-.4.2-.8.3-1.3.3-.7,0-1.3-.2-1.8-.7-.4-.5-.7-1.1-.7-2ZM466-35.4c0,.7.1,1.2.4,1.5.3.3.7.5,1.1.5s.8-.2,1.1-.5c.3-.3.4-.8.4-1.5s-.1-1.1-.4-1.5-.7-.5-1.1-.5-.8.2-1.1.5c-.3.3-.4.8-.4,1.5Z"/>
          <path id="ArialMT-6e" class="st42" d="M471-32.8v-5.2h.8v.7c.4-.6.9-.9,1.7-.9s.6,0,.9.2.5.3.6.4.2.4.3.6c0,.2,0,.4,0,.9v3.2h-.9v-3.2c0-.4,0-.6-.1-.8,0-.2-.2-.3-.4-.4-.2-.1-.4-.2-.6-.2-.4,0-.7.1-1,.4s-.4.7-.4,1.4v2.8h-.9Z"/>
        </g>
      </g>
    </g>
    <g id="matplotlib.axis_2">
      <g id="ytick_1">
        <g id="line2d_4">
          <g class="st34">
            <path class="st7" d="M160-74.6h558"/>
          </g>
        </g>
        <g id="text_5">
          <g>
            <path id="ArialMT-30" class="st42" d="M139.5-74.5c0-.8,0-1.5.3-2,.2-.5.4-.9.8-1.2.3-.3.8-.4,1.3-.4s.7,0,1,.2c.3.2.5.4.7.7.2.3.3.6.4,1.1.1.4.2,1,.2,1.7s0,1.5-.3,2c-.2.5-.4.9-.8,1.2-.3.3-.8.4-1.3.4s-1.2-.2-1.6-.7c-.5-.6-.7-1.6-.7-2.9ZM140.4-74.5c0,1.2.1,2,.4,2.3.3.4.6.6,1,.6s.7-.2,1-.6.4-1.2.4-2.3-.1-2-.4-2.3c-.3-.4-.6-.6-1-.6s-.7.2-1,.5c-.3.4-.5,1.2-.5,2.4Z"/>
            <path id="ArialMT-2e" class="st42" d="M145.6-71v-1h1v1h-1Z"/>
            <path id="ArialMT-32" class="st42" d="M152.5-71.8v.8h-4.7c0-.2,0-.4.1-.6.1-.3.3-.6.6-1,.3-.3.6-.7,1.2-1.1.8-.6,1.3-1.1,1.6-1.5.3-.4.4-.7.4-1.1s-.1-.6-.4-.9c-.2-.2-.6-.4-1-.4s-.8.1-1,.4c-.3.3-.4.6-.4,1.1h-.9c0-.8.3-1.3.7-1.6.4-.4.9-.5,1.6-.5s1.2.2,1.6.6c.4.4.6.9.6,1.4s0,.6-.2.8c-.1.3-.3.6-.6.9s-.7.7-1.4,1.3c-.5.4-.9.7-1,.9-.1.2-.3.3-.4.5h3.5Z"/>
          </g>
        </g>
      </g>
      <g id="ytick_2">
        <g id="line2d_5">
          <g class="st35">
            <path class="st7" d="M160-116.7h558"/>
          </g>
        </g>
        <g id="text_6">
          <g>
            <path id="ArialMT-301" data-name="ArialMT-30" class="st42" d="M139.5-116.6c0-.8,0-1.5.3-2,.2-.5.4-.9.8-1.2.3-.3.8-.4,1.3-.4s.7,0,1,.2c.3.2.5.4.7.7.2.3.3.6.4,1.1.1.4.2,1,.2,1.7s0,1.5-.3,2c-.2.5-.4.9-.8,1.2-.3.3-.8.4-1.3.4s-1.2-.2-1.6-.7c-.5-.6-.7-1.6-.7-2.9ZM140.4-116.6c0,1.2.1,2,.4,2.3.3.4.6.6,1,.6s.7-.2,1-.6.4-1.2.4-2.3-.1-2-.4-2.3c-.3-.4-.6-.6-1-.6s-.7.2-1,.5c-.3.4-.5,1.2-.5,2.4Z"/>
            <path id="ArialMT-2e1" data-name="ArialMT-2e" class="st42" d="M145.6-113.1v-1h1v1h-1Z"/>
            <path id="ArialMT-33" class="st42" d="M147.9-115h.9c.1.4.3.7.5,1,.2.2.5.3.9.3s.8-.1,1-.4c.3-.3.4-.6.4-1.1s-.1-.7-.4-1c-.3-.3-.6-.4-1-.4s-.4,0-.6,0v-.8c.2,0,.2,0,.2,0,.4,0,.7,0,1-.3.3-.2.5-.5.5-.9s-.1-.6-.3-.8c-.2-.2-.5-.3-.8-.3s-.6.1-.9.3c-.2.2-.4.5-.4,1l-.9-.2c.1-.6.4-1,.7-1.4.4-.3.9-.5,1.4-.5s.8,0,1.1.3c.3.2.6.4.8.7.2.3.3.6.3.9s0,.6-.3.8c-.2.3-.4.5-.7.6.4,0,.8.3,1,.6.2.3.4.7.4,1.2s-.2,1.2-.7,1.6c-.5.4-1,.7-1.7.7s-1.2-.2-1.6-.6c-.4-.4-.7-.9-.7-1.5Z"/>
          </g>
        </g>
      </g>
      <g id="ytick_3">
        <g id="line2d_6">
          <g class="st41">
            <path class="st7" d="M160-158.8h558"/>
          </g>
        </g>
        <g id="text_7">
          <g>
            <path id="ArialMT-302" data-name="ArialMT-30" class="st42" d="M139.5-158.8c0-.8,0-1.5.3-2,.2-.5.4-.9.8-1.2.3-.3.8-.4,1.3-.4s.7,0,1,.2c.3.2.5.4.7.7.2.3.3.6.4,1.1.1.4.2,1,.2,1.7s0,1.5-.3,2c-.2.5-.4.9-.8,1.2-.3.3-.8.4-1.3.4s-1.2-.2-1.6-.7c-.5-.6-.7-1.6-.7-2.9ZM140.4-158.8c0,1.2.1,2,.4,2.3.3.4.6.6,1,.6s.7-.2,1-.6.4-1.2.4-2.3-.1-2-.4-2.3c-.3-.4-.6-.6-1-.6s-.7.2-1,.5c-.3.4-.5,1.2-.5,2.4Z"/>
            <path id="ArialMT-2e2" data-name="ArialMT-2e" class="st42" d="M145.6-155.2v-1h1v1h-1Z"/>
            <path id="ArialMT-34" class="st42" d="M150.7-155.2v-1.7h-3.1v-.8l3.3-4.6h.7v4.6h1v.8h-1v1.7h-.9ZM150.7-157.8v-3.2l-2.2,3.2h2.2Z"/>
          </g>
        </g>
      </g>
      <g id="ytick_4">
        <g id="line2d_7">
          <g class="st38">
            <path class="st7" d="M160-201h558"/>
          </g>
        </g>
        <g id="text_8">
          <g>
            <path id="ArialMT-303" data-name="ArialMT-30" class="st42" d="M139.5-200.9c0-.8,0-1.5.3-2,.2-.5.4-.9.8-1.2.3-.3.8-.4,1.3-.4s.7,0,1,.2c.3.2.5.4.7.7.2.3.3.6.4,1.1.1.4.2,1,.2,1.7s0,1.5-.3,2c-.2.5-.4.9-.8,1.2-.3.3-.8.4-1.3.4s-1.2-.2-1.6-.7c-.5-.6-.7-1.6-.7-2.9ZM140.4-200.9c0,1.2.1,2,.4,2.3.3.4.6.6,1,.6s.7-.2,1-.6.4-1.2.4-2.3-.1-2-.4-2.3c-.3-.4-.6-.6-1-.6s-.7.2-1,.5c-.3.4-.5,1.2-.5,2.4Z"/>
            <path id="ArialMT-2e3" data-name="ArialMT-2e" class="st42" d="M145.6-197.4v-1h1v1h-1Z"/>
            <path id="ArialMT-35" class="st42" d="M147.9-199.3h.9c0,.4.2.7.5.9.2.2.5.3.9.3s.8-.2,1.1-.5c.3-.3.4-.7.4-1.3s-.1-.9-.4-1.2c-.3-.3-.7-.4-1.1-.4s-.5,0-.8.2c-.2.1-.4.3-.5.5h-.8c0-.1.7-3.8.7-3.8h3.6v.8h-2.9l-.4,1.9c.4-.3.9-.5,1.4-.5s1.2.2,1.6.7c.4.4.6,1,.6,1.7s-.2,1.2-.6,1.7c-.5.6-1.1.9-1.9.9s-1.2-.2-1.6-.5c-.4-.4-.6-.8-.7-1.5Z"/>
          </g>
        </g>
      </g>
      <g id="ytick_5">
        <g id="line2d_8">
          <g class="st37">
            <path class="st7" d="M160-243.1h558"/>
          </g>
        </g>
        <g id="text_9">
          <g>
            <path id="ArialMT-304" data-name="ArialMT-30" class="st42" d="M139.5-243c0-.8,0-1.5.3-2,.2-.5.4-.9.8-1.2.3-.3.8-.4,1.3-.4s.7,0,1,.2c.3.2.5.4.7.7.2.3.3.6.4,1.1.1.4.2,1,.2,1.7s0,1.5-.3,2c-.2.5-.4.9-.8,1.2-.3.3-.8.4-1.3.4s-1.2-.2-1.6-.7c-.5-.6-.7-1.6-.7-2.9ZM140.4-243c0,1.2.1,2,.4,2.3.3.4.6.6,1,.6s.7-.2,1-.6.4-1.2.4-2.3-.1-2-.4-2.3c-.3-.4-.6-.6-1-.6s-.7.2-1,.5c-.3.4-.5,1.2-.5,2.4Z"/>
            <path id="ArialMT-2e4" data-name="ArialMT-2e" class="st42" d="M145.6-239.5v-1h1v1h-1Z"/>
            <path id="ArialMT-36" class="st42" d="M152.4-244.9h-.9c0-.3-.2-.5-.3-.7-.2-.3-.5-.4-.9-.4s-.5,0-.7.2c-.3.2-.5.5-.7.9-.2.4-.2.9-.2,1.7.2-.3.5-.6.8-.7s.6-.2,1-.2c.6,0,1.1.2,1.5.6.4.4.6,1,.6,1.7s0,.9-.3,1.3c-.2.4-.5.7-.8.9-.3.2-.7.3-1.2.3-.7,0-1.3-.3-1.8-.8-.5-.5-.7-1.4-.7-2.7s.3-2.4.8-3c.4-.5,1-.8,1.8-.8s1,.2,1.4.5c.4.3.6.8.6,1.3ZM148.8-241.8c0,.3,0,.6.2.9.1.3.3.5.5.6.2.1.5.2.7.2.4,0,.7-.1,1-.4.3-.3.4-.7.4-1.2s-.1-.9-.4-1.2c-.3-.3-.6-.4-1-.4s-.7.1-1,.4c-.3.3-.4.7-.4,1.1Z"/>
          </g>
        </g>
      </g>
      <g id="ytick_6">
        <g id="line2d_9">
          <g class="st40">
            <path class="st7" d="M160-285.2h558"/>
          </g>
        </g>
        <g id="text_10">
          <g>
            <path id="ArialMT-305" data-name="ArialMT-30" class="st42" d="M139.5-285.2c0-.8,0-1.5.3-2,.2-.5.4-.9.8-1.2.3-.3.8-.4,1.3-.4s.7,0,1,.2c.3.2.5.4.7.7.2.3.3.6.4,1.1.1.4.2,1,.2,1.7s0,1.5-.3,2c-.2.5-.4.9-.8,1.2-.3.3-.8.4-1.3.4s-1.2-.2-1.6-.7c-.5-.6-.7-1.6-.7-2.9ZM140.4-285.2c0,1.2.1,2,.4,2.3.3.4.6.6,1,.6s.7-.2,1-.6.4-1.2.4-2.3-.1-2-.4-2.3c-.3-.4-.6-.6-1-.6s-.7.2-1,.5c-.3.4-.5,1.2-.5,2.4Z"/>
            <path id="ArialMT-2e5" data-name="ArialMT-2e" class="st42" d="M145.6-281.6v-1h1v1h-1Z"/>
            <path id="ArialMT-37" class="st42" d="M147.9-287.9v-.8h4.6v.7c-.5.5-.9,1.1-1.4,1.9-.4.8-.8,1.6-1,2.5-.2.6-.3,1.3-.3,2h-.9c0-.6.1-1.2.3-2,.2-.8.5-1.6.9-2.3s.8-1.4,1.3-1.9h-3.5Z"/>
          </g>
        </g>
      </g>
      <g id="ytick_7">
        <g id="line2d_10">
          <g class="st39">
            <path class="st7" d="M160-327.4h558"/>
          </g>
        </g>
        <g id="text_11">
          <g>
            <path id="ArialMT-306" data-name="ArialMT-30" class="st42" d="M139.5-327.3c0-.8,0-1.5.3-2,.2-.5.4-.9.8-1.2.3-.3.8-.4,1.3-.4s.7,0,1,.2c.3.2.5.4.7.7.2.3.3.6.4,1.1.1.4.2,1,.2,1.7s0,1.5-.3,2c-.2.5-.4.9-.8,1.2-.3.3-.8.4-1.3.4s-1.2-.2-1.6-.7c-.5-.6-.7-1.6-.7-2.9ZM140.4-327.3c0,1.2.1,2,.4,2.3.3.4.6.6,1,.6s.7-.2,1-.6.4-1.2.4-2.3-.1-2-.4-2.3c-.3-.4-.6-.6-1-.6s-.7.2-1,.5c-.3.4-.5,1.2-.5,2.4Z"/>
            <path id="ArialMT-2e6" data-name="ArialMT-2e" class="st42" d="M145.6-323.8v-1h1v1h-1Z"/>
            <path id="ArialMT-38" class="st42" d="M149.2-327.7c-.4-.1-.6-.3-.8-.6-.2-.2-.3-.5-.3-.9,0-.5.2-1,.6-1.3.4-.4.9-.5,1.5-.5s1.1.2,1.5.5c.4.4.6.8.6,1.3s0,.6-.3.9c-.2.2-.4.4-.8.6.4.1.8.4,1,.7.2.3.3.7.3,1.1s-.2,1.1-.7,1.5c-.4.4-1,.6-1.7.6s-1.3-.2-1.7-.6c-.4-.4-.7-.9-.7-1.6s.1-.9.4-1.2c.2-.3.6-.5,1-.6ZM149-329.1c0,.3.1.6.3.8.2.2.5.3.9.3s.6-.1.8-.3c.2-.2.3-.5.3-.8s-.1-.6-.3-.8c-.2-.2-.5-.3-.8-.3s-.6.1-.8.3c-.2.2-.3.5-.3.8ZM148.7-325.8c0,.3,0,.5.2.7s.3.4.5.5c.2.1.5.2.8.2.4,0,.8-.1,1-.4.3-.3.4-.6.4-1s-.1-.8-.4-1.1c-.3-.3-.6-.4-1.1-.4s-.8.1-1,.4c-.3.3-.4.6-.4,1Z"/>
          </g>
        </g>
      </g>
      <g id="ytick_8">
        <g id="line2d_11">
          <g class="st18">
            <path class="st7" d="M160-369.5h558"/>
          </g>
        </g>
        <g id="text_12">
          <g>
            <path id="ArialMT-307" data-name="ArialMT-30" class="st42" d="M139.5-369.4c0-.8,0-1.5.3-2,.2-.5.4-.9.8-1.2.3-.3.8-.4,1.3-.4s.7,0,1,.2c.3.2.5.4.7.7.2.3.3.6.4,1.1.1.4.2,1,.2,1.7s0,1.5-.3,2c-.2.5-.4.9-.8,1.2-.3.3-.8.4-1.3.4s-1.2-.2-1.6-.7c-.5-.6-.7-1.6-.7-2.9ZM140.4-369.4c0,1.2.1,2,.4,2.3.3.4.6.6,1,.6s.7-.2,1-.6.4-1.2.4-2.3-.1-2-.4-2.3c-.3-.4-.6-.6-1-.6s-.7.2-1,.5c-.3.4-.5,1.2-.5,2.4Z"/>
            <path id="ArialMT-2e7" data-name="ArialMT-2e" class="st42" d="M145.6-365.9v-1h1v1h-1Z"/>
            <path id="ArialMT-39" class="st42" d="M148-367.6h.8c0,.3.2.6.4.8.2.2.5.3.8.3s.5,0,.7-.2c.2-.1.4-.3.5-.5.1-.2.2-.5.3-.8,0-.4.1-.7.1-1.1s0,0,0-.2c-.2.3-.4.5-.7.7-.3.2-.6.3-1,.3-.6,0-1.1-.2-1.5-.6-.4-.4-.6-1-.6-1.7s.2-1.3.6-1.8c.4-.4,1-.7,1.6-.7s.9.1,1.3.4c.4.3.7.6.9,1.1.2.5.3,1.1.3,2s0,1.6-.3,2.2c-.2.5-.5,1-.9,1.2-.4.3-.9.4-1.4.4s-1-.2-1.4-.5c-.4-.3-.6-.7-.6-1.3ZM151.6-370.7c0-.5-.1-.9-.4-1.2-.3-.3-.6-.4-1-.4s-.7.2-1,.5c-.3.3-.4.7-.4,1.2s.1.8.4,1.1c.3.3.6.4,1,.4s.7-.1,1-.4c.3-.3.4-.7.4-1.2Z"/>
          </g>
        </g>
      </g>
      <g id="text_13">
        <g>
          <path id="ArialMT-41" class="st42" d="M133.1-199.1l-7.2-2.7v-1l7.2-2.9v1.1l-2.2.8v3l2.2.8v1ZM130.2-201.2v-2.4l-2,.7c-.6.2-1.1.4-1.5.5.5,0,.9.2,1.4.4l2.1.8Z"/>
          <path id="ArialMT-6c" class="st42" d="M133.1-206.5h-7.2v-.9h7.2v.9Z"/>
          <path id="ArialMT-701" data-name="ArialMT-70" class="st42" d="M135.1-208.7h-7.2v-.8h.7c-.3-.2-.5-.4-.6-.6-.1-.2-.2-.5-.2-.9s.1-.8.3-1.2.6-.6,1-.8c.4-.2.9-.3,1.4-.3s1,0,1.4.3c.4.2.8.5,1,.8.2.4.3.7.3,1.1s0,.6-.2.8c-.1.2-.3.4-.5.6h2.5v.9ZM130.5-209.5c.7,0,1.2-.1,1.5-.4.3-.3.5-.6.5-1s-.2-.7-.5-1c-.3-.3-.8-.4-1.5-.4s-1.2.1-1.5.4c-.3.3-.5.6-.5,1s.2.7.5,1c.4.3.9.4,1.5.4Z"/>
          <path id="ArialMT-68" class="st42" d="M133.1-214.3h-7.2v-.9h2.6c-.5-.4-.7-.9-.7-1.6s0-.7.2-1c.2-.3.4-.5.6-.6s.7-.2,1.2-.2h3.3v.9h-3.3c-.4,0-.8,0-1,.3s-.3.5-.3.8,0,.5.2.7c.1.2.3.4.5.5.2,0,.6.1,1,.1h2.8v.9Z"/>
          <path id="ArialMT-613" data-name="ArialMT-61" class="st42" d="M132.5-223.2c.3.3.5.6.6.9.1.3.2.6.2,1,0,.6-.1,1-.4,1.3s-.6.5-1.1.5-.5,0-.7-.2c-.2-.1-.4-.3-.5-.5s-.2-.4-.3-.6c0-.2,0-.4-.1-.8,0-.7-.2-1.2-.3-1.6-.1,0-.2,0-.2,0-.4,0-.6,0-.8.3-.2.2-.3.6-.3,1s0,.7.2.9.4.3.8.4v.9c-.5,0-.8-.2-1-.4-.2-.2-.4-.4-.5-.8-.1-.3-.2-.7-.2-1.2s0-.8.2-1.1c.1-.3.2-.5.4-.6.2-.1.4-.2.6-.3.1,0,.4,0,.8,0h1.2c.8,0,1.3,0,1.6,0,.2,0,.4-.1.6-.2v.9c-.2,0-.4.1-.6.2ZM130.5-223.1c.1.3.2.8.3,1.4,0,.4.1.6.2.8,0,.1.2.3.3.3.1,0,.3.1.4.1.2,0,.4,0,.6-.3.2-.2.2-.4.2-.8s0-.6-.2-.9c-.1-.3-.4-.5-.6-.6-.2,0-.5-.1-.9-.1h-.3Z"/>
          <path id="ArialMT-201" data-name="ArialMT-20" class="st42" d="M133.1-224.7"/>
          <path id="ArialMT-53" class="st42" d="M130.8-228v-.9c.3,0,.6-.1.8-.3.2-.2.4-.4.6-.7.1-.3.2-.7.2-1.1s0-.7-.2-1c-.1-.3-.3-.5-.4-.6-.2-.1-.4-.2-.6-.2s-.4,0-.6.2-.3.3-.4.6c0,.2-.2.6-.3,1.3-.2.7-.3,1.1-.4,1.4-.2.3-.4.6-.7.8-.3.2-.6.3-.9.3s-.7-.1-1-.3c-.3-.2-.6-.5-.7-.9-.2-.4-.2-.8-.2-1.3s0-1,.3-1.4c.2-.4.4-.7.8-.9.3-.2.7-.3,1.1-.4v.9c-.4,0-.7.2-1,.5-.2.3-.3.7-.3,1.2s.1,1,.3,1.3c.2.3.5.4.8.4s.5,0,.6-.3c.2-.2.3-.7.5-1.4.2-.8.3-1.3.5-1.6.2-.4.4-.7.7-.9.3-.2.6-.3,1-.3s.7.1,1.1.3c.3.2.6.5.8.9.2.4.3.9.3,1.4s0,1.2-.3,1.6c-.2.4-.5.8-.9,1-.4.2-.8.4-1.3.4Z"/>
          <path id="ArialMT-631" data-name="ArialMT-63" class="st42" d="M131.2-238.2v-.9c.7,0,1.2.3,1.5.7.3.4.5.9.5,1.4s-.2,1.3-.7,1.7c-.5.4-1.1.6-2,.6s-1,0-1.5-.3c-.4-.2-.7-.5-.9-.8-.2-.4-.3-.8-.3-1.2s.1-1,.4-1.4c.3-.4.7-.6,1.2-.7v.9c-.2,0-.5.2-.7.4-.2.2-.3.5-.3.8,0,.4.2.8.5,1.1.3.3.8.4,1.5.4s1.2-.1,1.5-.4c.3-.3.5-.6.5-1s-.1-.6-.3-.9c-.2-.2-.5-.4-1-.4Z"/>
          <path id="ArialMT-6f2" data-name="ArialMT-6f" class="st42" d="M130.5-239.5c-1,0-1.7-.3-2.1-.8-.4-.4-.6-1-.6-1.6s.2-1.3.7-1.7c.5-.5,1.1-.7,1.9-.7s1.2.1,1.6.3c.4.2.7.5.9.9.2.4.3.8.3,1.3,0,.7-.2,1.3-.7,1.8-.5.4-1.1.7-2,.7ZM130.5-240.4c.7,0,1.2-.1,1.5-.4.3-.3.5-.7.5-1.1s-.2-.8-.5-1.1c-.3-.3-.8-.4-1.5-.4s-1.1.1-1.5.4-.5.7-.5,1.1.2.8.5,1.1c.3.3.8.4,1.5.4Z"/>
          <path id="ArialMT-722" data-name="ArialMT-72" class="st42" d="M133.1-245.4h-5.2v-.8h.8c-.4-.2-.6-.4-.7-.6-.1-.2-.2-.4-.2-.6,0-.3,0-.6.3-.9l.8.3c-.1.2-.2.4-.2.6s0,.4.2.5.3.3.5.3c.3,0,.7.1,1,.1h2.7v.9Z"/>
          <path id="ArialMT-65" class="st42" d="M131.4-252.3v-.9c.6.1,1.1.4,1.3.8.3.4.4.9.4,1.5s-.2,1.4-.7,1.8c-.5.4-1.1.7-2,.7s-1.6-.2-2-.7c-.5-.5-.7-1-.7-1.7s.2-1.3.7-1.7,1.1-.7,2-.7.1,0,.2,0v3.9c.6,0,1-.2,1.3-.5.3-.3.5-.7.5-1.1s0-.6-.3-.8c-.2-.2-.4-.4-.8-.5ZM130-249.4v-2.9c-.4,0-.8.1-1,.3-.3.3-.5.6-.5,1.1s.1.7.4,1,.6.4,1.1.5Z"/>
        </g>
      </g>
    </g>
    <g id="line2d_12">
      <g class="st15">
        <path class="st2" d="M160-377.6h558"/>
      </g>
    </g>
    <g id="line2d_13">
      <g class="st22">
        <path class="st8" d="M160-315.1h558"/>
      </g>
    </g>
    <g id="line2d_14">
      <g class="st20">
        <path class="st3" d="M185.4-148.4l253.6,41.8,253.6-87"/>
      </g>
    </g>
    <g id="line2d_15">
      <g class="st21">
        <path class="st6" d="M185.4-202.4l253.6,127.2,253.6-72.7"/>
      </g>
    </g>
    <g id="patch_3">
      <path class="st1" d="M160-60.1v-332.6"/>
    </g>
    <g id="patch_4">
      <path class="st1" d="M718-60.1v-332.6"/>
    </g>
    <g id="patch_5">
      <path class="st1" d="M160-60.1h558"/>
    </g>
    <g id="patch_6">
      <path class="st1" d="M160-392.7h558"/>
    </g>
    <g id="legend_1">
      <g id="patch_7">
        <path class="st9" d="M728.8-323.5h119.8c1.8,0,2.7-1,2.7-3v-62.4c0-2-.9-3-2.7-3h-119.8c-1.8,0-2.7,1-2.7,3v62.4c0,2,.9,3,2.7,3Z"/>
      </g>
      <path class="st3" d="M731.6-343.9h16.7"/>
      <path class="st8" d="M731.6-356.3h16.7"/>
      <path class="st2" d="M731.6-368.8h16.7"/>
      <path class="st6" d="M731.6-331.5h16.7"/>
      <text class="st12" transform="translate(730.6 -380.6)"><tspan x="0" y="0">Annotation Means</tspan></text>
      <text class="st12" transform="translate(754.2 -340.5)"><tspan x="0" y="0">Qwen2.5-VL</tspan></text>
      <text class="st12" transform="translate(754.2 -328.7)"><tspan x="0" y="0">Qwen2-VL</tspan></text>
      <text class="st12" transform="translate(754.2 -366)"><tspan x="0" y="0">Secondary Human Coder</tspan></text>
      <text class="st12" transform="translate(754.2 -353.6)"><tspan x="0" y="0">Pose estimation</tspan></text>
    </g>
    <text class="st10" transform="translate(277.4 -405.1)"><tspan x="0" y="0">Intercoder Agreement with Primary Human Coder</tspan></text>
  </g>
  <g id="Layer_2">
    <g id="figure_1">
      <g id="patch_1">
        <path class="st11" d="M72.3,431.9h720V-.1H72.3v432Z"/>
      </g>
      <g id="axes_1">
        <g id="patch_21" data-name="patch_2">
          <path class="st11" d="M162.3,384.4h558V51.7H162.3v332.6Z"/>
        </g>
        <g id="matplotlib.axis_11" data-name="matplotlib.axis_1">
          <g id="xtick_11" data-name="xtick_1">
            <g id="line2d_11" data-name="line2d_1">
              <g class="st19">
                <path class="st7" d="M187.6,384.4V51.7"/>
              </g>
            </g>
            <g id="text_11" data-name="text_1">
              <g>
                <path id="ArialMT-313" data-name="ArialMT-31" class="st42" d="M185.8,398.5h-.9v-5.6c-.2.2-.5.4-.8.6s-.7.4-.9.5v-.9c.5-.2.9-.5,1.3-.8.4-.3.6-.6.8-1h.6v7.2Z"/>
                <path id="ArialMT-614" data-name="ArialMT-61" class="st42" d="M191.7,397.9c-.3.3-.6.5-.9.6-.3.1-.6.2-1,.2-.6,0-1-.1-1.3-.4s-.5-.6-.5-1.1,0-.5.2-.7c.1-.2.3-.4.5-.5s.4-.2.6-.3c.2,0,.4,0,.8-.1.7,0,1.2-.2,1.6-.3,0-.1,0-.2,0-.2,0-.4,0-.6-.3-.8-.2-.2-.6-.3-1-.3s-.7,0-.9.2-.3.4-.4.8h-.9c0-.5.2-.8.4-1,.2-.2.4-.4.8-.5.3-.1.7-.2,1.2-.2s.8,0,1.1.2c.3.1.5.2.6.4.1.2.2.4.3.6,0,.1,0,.4,0,.8v1.2c0,.8,0,1.3,0,1.6,0,.2.1.4.2.6h-.9c0-.2-.1-.4-.2-.6ZM191.6,395.9c-.3.1-.8.2-1.4.3-.4,0-.6.1-.8.2-.1,0-.3.2-.3.3,0,.1-.1.3-.1.4,0,.2,0,.4.3.6.2.2.4.2.8.2s.6,0,.9-.2c.3-.1.5-.4.6-.6,0-.2.1-.5.1-.9v-.3Z"/>
              </g>
            </g>
          </g>
          <g id="xtick_21" data-name="xtick_2">
            <g id="line2d_21" data-name="line2d_2">
              <g class="st16">
                <path class="st7" d="M441.3,384.4V51.7"/>
              </g>
            </g>
            <g id="text_21" data-name="text_2">
              <g>
                <path id="ArialMT-314" data-name="ArialMT-31" class="st42" d="M439.4,398.5h-.9v-5.6c-.2.2-.5.4-.8.6s-.7.4-.9.5v-.9c.5-.2.9-.5,1.3-.8.4-.3.6-.6.8-1h.6v7.2Z"/>
                <path id="ArialMT-621" data-name="ArialMT-62" class="st42" d="M442.8,398.5h-.8v-7.2h.9v2.6c.4-.5.8-.7,1.4-.7s.6,0,.9.2c.3.1.5.3.7.5.2.2.3.5.4.8.1.3.2.7.2,1.1,0,.9-.2,1.6-.7,2.1-.4.5-1,.7-1.6.7s-1.1-.3-1.4-.8v.7ZM442.7,395.9c0,.6,0,1.1.3,1.3.3.5.7.7,1.1.7s.7-.2,1-.5c.3-.3.4-.8.4-1.5s-.1-1.2-.4-1.5-.6-.5-1-.5-.7.2-1,.5c-.3.3-.4.8-.4,1.4Z"/>
              </g>
            </g>
          </g>
          <g id="xtick_31" data-name="xtick_3">
            <g id="line2d_31" data-name="line2d_3">
              <g class="st13">
                <path class="st7" d="M694.9,384.4V51.7"/>
              </g>
            </g>
            <g id="text_31" data-name="text_3">
              <g>
                <path id="ArialMT-315" data-name="ArialMT-31" class="st42" d="M693.4,398.5h-.9v-5.6c-.2.2-.5.4-.8.6s-.7.4-.9.5v-.9c.5-.2.9-.5,1.3-.8.4-.3.6-.6.8-1h.6v7.2Z"/>
                <path id="ArialMT-632" data-name="ArialMT-63" class="st42" d="M699.2,396.6h.9c0,.7-.3,1.2-.7,1.5-.4.3-.9.5-1.4.5s-1.3-.2-1.7-.7c-.4-.5-.6-1.1-.6-2s0-1,.3-1.5c.2-.4.5-.7.8-.9.4-.2.8-.3,1.2-.3s1,.1,1.4.4c.4.3.6.7.7,1.2h-.9c0-.2-.2-.5-.4-.7-.2-.2-.5-.3-.8-.3-.4,0-.8.2-1.1.5-.3.3-.4.8-.4,1.5s.1,1.2.4,1.5c.3.3.6.5,1,.5s.6-.1.9-.3c.2-.2.4-.5.4-1Z"/>
              </g>
            </g>
          </g>
          <g id="text_41" data-name="text_4">
            <g>
              <path id="ArialMT-501" data-name="ArialMT-50" class="st42" d="M405.2,411.7v-7.2h2.7c.5,0,.8,0,1.1,0,.4,0,.6.2.9.3.2.2.4.4.6.7.1.3.2.6.2,1,0,.6-.2,1.1-.6,1.5-.4.4-1.1.6-2.1.6h-1.8v2.9h-.9ZM406.1,407.9h1.9c.6,0,1-.1,1.3-.3s.4-.5.4-1,0-.6-.2-.8c-.2-.2-.4-.4-.6-.4-.2,0-.5,0-.9,0h-1.8v2.6Z"/>
              <path id="ArialMT-723" data-name="ArialMT-72" class="st42" d="M411.7,411.7v-5.2h.8v.8c.2-.4.4-.6.6-.7.2-.1.4-.2.6-.2.3,0,.6,0,.9.3l-.3.8c-.2-.1-.4-.2-.6-.2s-.4,0-.5.2-.3.3-.3.5c0,.3-.1.7-.1,1v2.7h-.9Z"/>
              <path id="ArialMT-6f3" data-name="ArialMT-6f" class="st42" d="M414.7,409.1c0-1,.3-1.7.8-2.1.4-.4,1-.6,1.6-.6s1.3.2,1.7.7c.5.5.7,1.1.7,1.9s-.1,1.2-.3,1.6c-.2.4-.5.7-.9.9-.4.2-.8.3-1.3.3-.7,0-1.3-.2-1.8-.7-.4-.5-.7-1.1-.7-2ZM415.6,409.1c0,.7.1,1.2.4,1.5.3.3.7.5,1.1.5s.8-.2,1.1-.5c.3-.3.4-.8.4-1.5s-.1-1.1-.4-1.5-.7-.5-1.1-.5-.8.2-1.1.5c-.3.3-.4.8-.4,1.5Z"/>
              <path id="ArialMT-6d1" data-name="ArialMT-6d" class="st42" d="M420.6,411.7v-5.2h.8v.7c.2-.3.4-.5.6-.6.3-.2.6-.2.9-.2s.7,0,.9.2.4.4.5.7c.4-.6.9-.9,1.6-.9s.9.1,1.2.4c.3.3.4.7.4,1.3v3.6h-.9v-3.3c0-.4,0-.6,0-.8,0-.2-.2-.3-.3-.4-.1,0-.3-.1-.5-.1-.4,0-.7.1-.9.4-.2.2-.4.6-.4,1.2v3h-.9v-3.4c0-.4,0-.7-.2-.9-.1-.2-.4-.3-.7-.3s-.5,0-.7.2c-.2.1-.4.3-.5.6,0,.3-.1.6-.1,1.1v2.7h-.9Z"/>
              <path id="ArialMT-702" data-name="ArialMT-70" class="st42" d="M429,413.6v-7.2h.8v.7c.2-.3.4-.5.6-.6.2-.1.5-.2.9-.2s.8.1,1.2.3.6.6.8,1c.2.4.3.9.3,1.4s0,1-.3,1.4c-.2.4-.5.8-.8,1-.4.2-.7.3-1.1.3s-.6,0-.8-.2c-.2-.1-.4-.3-.6-.5v2.5h-.9ZM429.8,409.1c0,.7.1,1.2.4,1.5.3.3.6.5,1,.5s.7-.2,1-.5c.3-.3.4-.8.4-1.5s-.1-1.2-.4-1.5c-.3-.3-.6-.5-1-.5s-.7.2-1,.5c-.3.4-.4.9-.4,1.5Z"/>
              <path id="ArialMT-742" data-name="ArialMT-74" class="st42" d="M436.4,410.9v.8c-.1,0-.3,0-.5,0-.3,0-.6,0-.7-.2-.2-.1-.3-.2-.4-.4,0-.2-.1-.5-.1-1v-3h-.6v-.7h.6v-1.3l.9-.5v1.8h.9v.7h-.9v3c0,.3,0,.4,0,.5,0,0,0,.1.2.2,0,0,.2,0,.3,0s.2,0,.4,0Z"/>
              <path id="ArialMT-202" data-name="ArialMT-20" class="st42" d="M436.6,411.7"/>
              <path id="ArialMT-561" data-name="ArialMT-56" class="st42" d="M442.2,411.7l-2.8-7.2h1l1.9,5.2c.2.4.3.8.4,1.2.1-.4.2-.8.4-1.2l1.9-5.2h1l-2.8,7.2h-1Z"/>
              <path id="ArialMT-615" data-name="ArialMT-61" class="st42" d="M449.4,411c-.3.3-.6.5-.9.6-.3.1-.6.2-1,.2-.6,0-1-.1-1.3-.4s-.5-.6-.5-1.1,0-.5.2-.7c.1-.2.3-.4.5-.5s.4-.2.6-.3c.2,0,.4,0,.8-.1.7,0,1.2-.2,1.6-.3,0-.1,0-.2,0-.2,0-.4,0-.6-.3-.8-.2-.2-.6-.3-1-.3s-.7,0-.9.2-.3.4-.4.8h-.9c0-.5.2-.8.4-1,.2-.2.4-.4.8-.5.3-.1.7-.2,1.2-.2s.8,0,1.1.2c.3.1.5.2.6.4.1.2.2.4.3.6,0,.1,0,.4,0,.8v1.2c0,.8,0,1.3,0,1.6,0,.2.1.4.2.6h-.9c0-.2-.1-.4-.2-.6ZM449.3,409.1c-.3.1-.8.2-1.4.3-.4,0-.6.1-.8.2-.1,0-.3.2-.3.3,0,.1-.1.3-.1.4,0,.2,0,.4.3.6.2.2.4.2.8.2s.6,0,.9-.2c.3-.1.5-.4.6-.6,0-.2.1-.5.1-.9v-.3Z"/>
              <path id="ArialMT-724" data-name="ArialMT-72" class="st42" d="M451.6,411.7v-5.2h.8v.8c.2-.4.4-.6.6-.7.2-.1.4-.2.6-.2.3,0,.6,0,.9.3l-.3.8c-.2-.1-.4-.2-.6-.2s-.4,0-.5.2-.3.3-.3.5c0,.3-.1.7-.1,1v2.7h-.9Z"/>
              <path id="ArialMT-692" data-name="ArialMT-69" class="st42" d="M454.9,405.5v-1h.9v1h-.9ZM454.9,411.7v-5.2h.9v5.2h-.9Z"/>
              <path id="ArialMT-616" data-name="ArialMT-61" class="st42" d="M460.5,411c-.3.3-.6.5-.9.6-.3.1-.6.2-1,.2-.6,0-1-.1-1.3-.4s-.5-.6-.5-1.1,0-.5.2-.7c.1-.2.3-.4.5-.5s.4-.2.6-.3c.2,0,.4,0,.8-.1.7,0,1.2-.2,1.6-.3,0-.1,0-.2,0-.2,0-.4,0-.6-.3-.8-.2-.2-.6-.3-1-.3s-.7,0-.9.2-.3.4-.4.8h-.9c0-.5.2-.8.4-1,.2-.2.4-.4.8-.5.3-.1.7-.2,1.2-.2s.8,0,1.1.2c.3.1.5.2.6.4.1.2.2.4.3.6,0,.1,0,.4,0,.8v1.2c0,.8,0,1.3,0,1.6,0,.2.1.4.2.6h-.9c0-.2-.1-.4-.2-.6ZM460.4,409.1c-.3.1-.8.2-1.4.3-.4,0-.6.1-.8.2-.1,0-.3.2-.3.3,0,.1-.1.3-.1.4,0,.2,0,.4.3.6.2.2.4.2.8.2s.6,0,.9-.2c.3-.1.5-.4.6-.6,0-.2.1-.5.1-.9v-.3Z"/>
              <path id="ArialMT-743" data-name="ArialMT-74" class="st42" d="M464.6,410.9v.8c-.1,0-.3,0-.5,0-.3,0-.6,0-.7-.2-.2-.1-.3-.2-.4-.4,0-.2-.1-.5-.1-1v-3h-.6v-.7h.6v-1.3l.9-.5v1.8h.9v.7h-.9v3c0,.3,0,.4,0,.5,0,0,0,.1.2.2,0,0,.2,0,.3,0s.2,0,.4,0Z"/>
              <path id="ArialMT-693" data-name="ArialMT-69" class="st42" d="M465.5,405.5v-1h.9v1h-.9ZM465.5,411.7v-5.2h.9v5.2h-.9Z"/>
              <path id="ArialMT-6f4" data-name="ArialMT-6f" class="st42" d="M467.4,409.1c0-1,.3-1.7.8-2.1.4-.4,1-.6,1.6-.6s1.3.2,1.7.7c.5.5.7,1.1.7,1.9s-.1,1.2-.3,1.6c-.2.4-.5.7-.9.9-.4.2-.8.3-1.3.3-.7,0-1.3-.2-1.8-.7-.4-.5-.7-1.1-.7-2ZM468.3,409.1c0,.7.1,1.2.4,1.5.3.3.7.5,1.1.5s.8-.2,1.1-.5c.3-.3.4-.8.4-1.5s-.1-1.1-.4-1.5-.7-.5-1.1-.5-.8.2-1.1.5c-.3.3-.4.8-.4,1.5Z"/>
              <path id="ArialMT-6e1" data-name="ArialMT-6e" class="st42" d="M473.3,411.7v-5.2h.8v.7c.4-.6.9-.9,1.7-.9s.6,0,.9.2.5.3.6.4.2.4.3.6c0,.2,0,.4,0,.9v3.2h-.9v-3.2c0-.4,0-.6-.1-.8,0-.2-.2-.3-.4-.4-.2-.1-.4-.2-.6-.2-.4,0-.7.1-1,.4s-.4.7-.4,1.4v2.8h-.9Z"/>
            </g>
          </g>
        </g>
        <g id="matplotlib.axis_21" data-name="matplotlib.axis_2">
          <g id="ytick_11" data-name="ytick_1">
            <g id="line2d_41" data-name="line2d_4">
              <g class="st17">
                <path class="st7" d="M162.3,359.9h558"/>
              </g>
            </g>
            <g id="text_51" data-name="text_5">
              <g>
                <path id="ArialMT-2212" class="st42" d="M135.3,360.4h-4.7v-.8h4.7v.8Z"/>
                <path id="ArialMT-316" data-name="ArialMT-31" class="st42" d="M139.5,363.5h-.9v-5.6c-.2.2-.5.4-.8.6s-.7.4-.9.5v-.9c.5-.2.9-.5,1.3-.8.4-.3.6-.6.8-1h.6v7.2Z"/>
                <path id="ArialMT-2e8" data-name="ArialMT-2e" class="st42" d="M142.3,363.5v-1h1v1h-1Z"/>
                <path id="ArialMT-371" data-name="ArialMT-37" class="st42" d="M144.6,357.3v-.8h4.6v.7c-.5.5-.9,1.1-1.4,1.9-.4.8-.8,1.6-1,2.5-.2.6-.3,1.3-.3,2h-.9c0-.6.1-1.2.3-2,.2-.8.5-1.6.9-2.3s.8-1.4,1.3-1.9h-3.5Z"/>
                <path id="ArialMT-351" data-name="ArialMT-35" class="st42" d="M150.1,361.6h.9c0,.4.2.7.5.9.2.2.5.3.9.3s.8-.2,1.1-.5c.3-.3.4-.7.4-1.3s-.1-.9-.4-1.2c-.3-.3-.7-.4-1.1-.4s-.5,0-.8.2c-.2.1-.4.3-.5.5h-.8c0-.1.7-3.8.7-3.8h3.6v.8h-2.9l-.4,1.9c.4-.3.9-.5,1.4-.5s1.2.2,1.6.7c.4.4.6,1,.6,1.7s-.2,1.2-.6,1.7c-.5.6-1.1.9-1.9.9s-1.2-.2-1.6-.5c-.4-.4-.6-.8-.7-1.5Z"/>
              </g>
            </g>
          </g>
          <g id="ytick_21" data-name="ytick_2">
            <g id="line2d_51" data-name="line2d_5">
              <g class="st14">
                <path class="st7" d="M162.3,319.2h558"/>
              </g>
            </g>
            <g id="text_61" data-name="text_6">
              <g>
                <path id="ArialMT-22121" data-name="ArialMT-2212" class="st42" d="M135.3,319.7h-4.7v-.8h4.7v.8Z"/>
                <path id="ArialMT-317" data-name="ArialMT-31" class="st42" d="M139.5,322.8h-.9v-5.6c-.2.2-.5.4-.8.6s-.7.4-.9.5v-.9c.5-.2.9-.5,1.3-.8.4-.3.6-.6.8-1h.6v7.2Z"/>
                <path id="ArialMT-2e9" data-name="ArialMT-2e" class="st42" d="M142.3,322.8v-1h1v1h-1Z"/>
                <path id="ArialMT-352" data-name="ArialMT-35" class="st42" d="M144.6,320.9h.9c0,.4.2.7.5.9.2.2.5.3.9.3s.8-.2,1.1-.5c.3-.3.4-.7.4-1.3s-.1-.9-.4-1.2c-.3-.3-.7-.4-1.1-.4s-.5,0-.8.2c-.2.1-.4.3-.5.5h-.8c0-.1.7-3.8.7-3.8h3.6v.8h-2.9l-.4,1.9c.4-.3.9-.5,1.4-.5s1.2.2,1.6.7c.4.4.6,1,.6,1.7s-.2,1.2-.6,1.7c-.5.6-1.1.9-1.9.9s-1.2-.2-1.6-.5c-.4-.4-.6-.8-.7-1.5Z"/>
                <path id="ArialMT-308" data-name="ArialMT-30" class="st42" d="M150.1,319.2c0-.8,0-1.5.3-2,.2-.5.4-.9.8-1.2.3-.3.8-.4,1.3-.4s.7,0,1,.2c.3.2.5.4.7.7.2.3.3.6.4,1.1.1.4.2,1,.2,1.7s0,1.5-.3,2c-.2.5-.4.9-.8,1.2-.3.3-.8.4-1.3.4s-1.2-.2-1.6-.7c-.5-.6-.7-1.6-.7-2.9ZM151,319.2c0,1.2.1,2,.4,2.3.3.4.6.6,1,.6s.7-.2,1-.6.4-1.2.4-2.3-.1-2-.4-2.3c-.3-.4-.6-.6-1-.6s-.7.2-1,.5c-.3.4-.5,1.2-.5,2.4Z"/>
              </g>
            </g>
          </g>
          <g id="ytick_31" data-name="ytick_3">
            <g id="line2d_61" data-name="line2d_6">
              <g class="st27">
                <path class="st7" d="M162.3,278.5h558"/>
              </g>
            </g>
            <g id="text_71" data-name="text_7">
              <g>
                <path id="ArialMT-22122" data-name="ArialMT-2212" class="st42" d="M135.3,278.9h-4.7v-.8h4.7v.8Z"/>
                <path id="ArialMT-318" data-name="ArialMT-31" class="st42" d="M139.5,282.1h-.9v-5.6c-.2.2-.5.4-.8.6s-.7.4-.9.5v-.9c.5-.2.9-.5,1.3-.8.4-.3.6-.6.8-1h.6v7.2Z"/>
                <path id="ArialMT-2e10" data-name="ArialMT-2e" class="st42" d="M142.3,282.1v-1h1v1h-1Z"/>
                <path id="ArialMT-321" data-name="ArialMT-32" class="st42" d="M149.2,281.2v.8h-4.7c0-.2,0-.4.1-.6.1-.3.3-.6.6-1,.3-.3.6-.7,1.2-1.1.8-.6,1.3-1.1,1.6-1.5.3-.4.4-.7.4-1.1s-.1-.6-.4-.9c-.2-.2-.6-.4-1-.4s-.8.1-1,.4c-.3.3-.4.6-.4,1.1h-.9c0-.8.3-1.3.7-1.6.4-.4.9-.5,1.6-.5s1.2.2,1.6.6c.4.4.6.9.6,1.4s0,.6-.2.8c-.1.3-.3.6-.6.9s-.7.7-1.4,1.3c-.5.4-.9.7-1,.9-.1.2-.3.3-.4.5h3.5Z"/>
                <path id="ArialMT-353" data-name="ArialMT-35" class="st42" d="M150.1,280.2h.9c0,.4.2.7.5.9.2.2.5.3.9.3s.8-.2,1.1-.5c.3-.3.4-.7.4-1.3s-.1-.9-.4-1.2c-.3-.3-.7-.4-1.1-.4s-.5,0-.8.2c-.2.1-.4.3-.5.5h-.8c0-.1.7-3.8.7-3.8h3.6v.8h-2.9l-.4,1.9c.4-.3.9-.5,1.4-.5s1.2.2,1.6.7c.4.4.6,1,.6,1.7s-.2,1.2-.6,1.7c-.5.6-1.1.9-1.9.9s-1.2-.2-1.6-.5c-.4-.4-.6-.8-.7-1.5Z"/>
              </g>
            </g>
          </g>
          <g id="ytick_41" data-name="ytick_4">
            <g id="line2d_71" data-name="line2d_7">
              <g class="st28">
                <path class="st7" d="M162.3,237.8h558"/>
              </g>
            </g>
            <g id="text_81" data-name="text_8">
              <g>
                <path id="ArialMT-22123" data-name="ArialMT-2212" class="st42" d="M135.3,238.2h-4.7v-.8h4.7v.8Z"/>
                <path id="ArialMT-319" data-name="ArialMT-31" class="st42" d="M139.5,241.3h-.9v-5.6c-.2.2-.5.4-.8.6s-.7.4-.9.5v-.9c.5-.2.9-.5,1.3-.8.4-.3.6-.6.8-1h.6v7.2Z"/>
                <path id="ArialMT-2e11" data-name="ArialMT-2e" class="st42" d="M142.3,241.3v-1h1v1h-1Z"/>
                <path id="ArialMT-309" data-name="ArialMT-30" class="st42" d="M144.6,237.8c0-.8,0-1.5.3-2,.2-.5.4-.9.8-1.2.3-.3.8-.4,1.3-.4s.7,0,1,.2c.3.2.5.4.7.7.2.3.3.6.4,1.1.1.4.2,1,.2,1.7s0,1.5-.3,2c-.2.5-.4.9-.8,1.2-.3.3-.8.4-1.3.4s-1.2-.2-1.6-.7c-.5-.6-.7-1.6-.7-2.9ZM145.5,237.8c0,1.2.1,2,.4,2.3.3.4.6.6,1,.6s.7-.2,1-.6.4-1.2.4-2.3-.1-2-.4-2.3c-.3-.4-.6-.6-1-.6s-.7.2-1,.5c-.3.4-.5,1.2-.5,2.4Z"/>
                <path id="ArialMT-3010" data-name="ArialMT-30" class="st42" d="M150.1,237.8c0-.8,0-1.5.3-2,.2-.5.4-.9.8-1.2.3-.3.8-.4,1.3-.4s.7,0,1,.2c.3.2.5.4.7.7.2.3.3.6.4,1.1.1.4.2,1,.2,1.7s0,1.5-.3,2c-.2.5-.4.9-.8,1.2-.3.3-.8.4-1.3.4s-1.2-.2-1.6-.7c-.5-.6-.7-1.6-.7-2.9ZM151,237.8c0,1.2.1,2,.4,2.3.3.4.6.6,1,.6s.7-.2,1-.6.4-1.2.4-2.3-.1-2-.4-2.3c-.3-.4-.6-.6-1-.6s-.7.2-1,.5c-.3.4-.5,1.2-.5,2.4Z"/>
              </g>
            </g>
          </g>
          <g id="ytick_51" data-name="ytick_5">
            <g id="line2d_81" data-name="line2d_8">
              <g class="st29">
                <path class="st7" d="M162.3,197h558"/>
              </g>
            </g>
            <g id="text_91" data-name="text_9">
              <g>
                <path id="ArialMT-22124" data-name="ArialMT-2212" class="st42" d="M135.3,197.5h-4.7v-.8h4.7v.8Z"/>
                <path id="ArialMT-3011" data-name="ArialMT-30" class="st42" d="M136.2,197.1c0-.8,0-1.5.3-2,.2-.5.4-.9.8-1.2.3-.3.8-.4,1.3-.4s.7,0,1,.2c.3.2.5.4.7.7.2.3.3.6.4,1.1.1.4.2,1,.2,1.7s0,1.5-.3,2c-.2.5-.4.9-.8,1.2-.3.3-.8.4-1.3.4s-1.2-.2-1.6-.7c-.5-.6-.7-1.6-.7-2.9ZM137.1,197.1c0,1.2.1,2,.4,2.3.3.4.6.6,1,.6s.7-.2,1-.6.4-1.2.4-2.3-.1-2-.4-2.3c-.3-.4-.6-.6-1-.6s-.7.2-1,.5c-.3.4-.5,1.2-.5,2.4Z"/>
                <path id="ArialMT-2e12" data-name="ArialMT-2e" class="st42" d="M142.3,200.6v-1h1v1h-1Z"/>
                <path id="ArialMT-372" data-name="ArialMT-37" class="st42" d="M144.6,194.4v-.8h4.6v.7c-.5.5-.9,1.1-1.4,1.9-.4.8-.8,1.6-1,2.5-.2.6-.3,1.3-.3,2h-.9c0-.6.1-1.2.3-2,.2-.8.5-1.6.9-2.3s.8-1.4,1.3-1.9h-3.5Z"/>
                <path id="ArialMT-354" data-name="ArialMT-35" class="st42" d="M150.1,198.7h.9c0,.4.2.7.5.9.2.2.5.3.9.3s.8-.2,1.1-.5c.3-.3.4-.7.4-1.3s-.1-.9-.4-1.2c-.3-.3-.7-.4-1.1-.4s-.5,0-.8.2c-.2.1-.4.3-.5.5h-.8c0-.1.7-3.8.7-3.8h3.6v.8h-2.9l-.4,1.9c.4-.3.9-.5,1.4-.5s1.2.2,1.6.7c.4.4.6,1,.6,1.7s-.2,1.2-.6,1.7c-.5.6-1.1.9-1.9.9s-1.2-.2-1.6-.5c-.4-.4-.6-.8-.7-1.5Z"/>
              </g>
            </g>
          </g>
          <g id="ytick_61" data-name="ytick_6">
            <g id="line2d_91" data-name="line2d_9">
              <g class="st30">
                <path class="st7" d="M162.3,156.3h558"/>
              </g>
            </g>
            <g id="text_101" data-name="text_10">
              <g>
                <path id="ArialMT-22125" data-name="ArialMT-2212" class="st42" d="M135.3,156.8h-4.7v-.8h4.7v.8Z"/>
                <path id="ArialMT-3012" data-name="ArialMT-30" class="st42" d="M136.2,156.4c0-.8,0-1.5.3-2,.2-.5.4-.9.8-1.2.3-.3.8-.4,1.3-.4s.7,0,1,.2c.3.2.5.4.7.7.2.3.3.6.4,1.1.1.4.2,1,.2,1.7s0,1.5-.3,2c-.2.5-.4.9-.8,1.2-.3.3-.8.4-1.3.4s-1.2-.2-1.6-.7c-.5-.6-.7-1.6-.7-2.9ZM137.1,156.4c0,1.2.1,2,.4,2.3.3.4.6.6,1,.6s.7-.2,1-.6.4-1.2.4-2.3-.1-2-.4-2.3c-.3-.4-.6-.6-1-.6s-.7.2-1,.5c-.3.4-.5,1.2-.5,2.4Z"/>
                <path id="ArialMT-2e13" data-name="ArialMT-2e" class="st42" d="M142.3,159.9v-1h1v1h-1Z"/>
                <path id="ArialMT-355" data-name="ArialMT-35" class="st42" d="M144.6,158h.9c0,.4.2.7.5.9.2.2.5.3.9.3s.8-.2,1.1-.5c.3-.3.4-.7.4-1.3s-.1-.9-.4-1.2c-.3-.3-.7-.4-1.1-.4s-.5,0-.8.2c-.2.1-.4.3-.5.5h-.8c0-.1.7-3.8.7-3.8h3.6v.8h-2.9l-.4,1.9c.4-.3.9-.5,1.4-.5s1.2.2,1.6.7c.4.4.6,1,.6,1.7s-.2,1.2-.6,1.7c-.5.6-1.1.9-1.9.9s-1.2-.2-1.6-.5c-.4-.4-.6-.8-.7-1.5Z"/>
                <path id="ArialMT-3013" data-name="ArialMT-30" class="st42" d="M150.1,156.4c0-.8,0-1.5.3-2,.2-.5.4-.9.8-1.2.3-.3.8-.4,1.3-.4s.7,0,1,.2c.3.2.5.4.7.7.2.3.3.6.4,1.1.1.4.2,1,.2,1.7s0,1.5-.3,2c-.2.5-.4.9-.8,1.2-.3.3-.8.4-1.3.4s-1.2-.2-1.6-.7c-.5-.6-.7-1.6-.7-2.9ZM151,156.4c0,1.2.1,2,.4,2.3.3.4.6.6,1,.6s.7-.2,1-.6.4-1.2.4-2.3-.1-2-.4-2.3c-.3-.4-.6-.6-1-.6s-.7.2-1,.5c-.3.4-.5,1.2-.5,2.4Z"/>
              </g>
            </g>
          </g>
          <g id="ytick_71" data-name="ytick_7">
            <g id="line2d_101" data-name="line2d_10">
              <g class="st31">
                <path class="st7" d="M162.3,115.6h558"/>
              </g>
            </g>
            <g id="text_111" data-name="text_11">
              <g>
                <path id="ArialMT-22126" data-name="ArialMT-2212" class="st42" d="M135.3,116.1h-4.7v-.8h4.7v.8Z"/>
                <path id="ArialMT-3014" data-name="ArialMT-30" class="st42" d="M136.2,115.7c0-.8,0-1.5.3-2,.2-.5.4-.9.8-1.2.3-.3.8-.4,1.3-.4s.7,0,1,.2c.3.2.5.4.7.7.2.3.3.6.4,1.1.1.4.2,1,.2,1.7s0,1.5-.3,2c-.2.5-.4.9-.8,1.2-.3.3-.8.4-1.3.4s-1.2-.2-1.6-.7c-.5-.6-.7-1.6-.7-2.9ZM137.1,115.7c0,1.2.1,2,.4,2.3.3.4.6.6,1,.6s.7-.2,1-.6.4-1.2.4-2.3-.1-2-.4-2.3c-.3-.4-.6-.6-1-.6s-.7.2-1,.5c-.3.4-.5,1.2-.5,2.4Z"/>
                <path id="ArialMT-2e14" data-name="ArialMT-2e" class="st42" d="M142.3,119.2v-1h1v1h-1Z"/>
                <path id="ArialMT-322" data-name="ArialMT-32" class="st42" d="M149.2,118.3v.8h-4.7c0-.2,0-.4.1-.6.1-.3.3-.6.6-1,.3-.3.6-.7,1.2-1.1.8-.6,1.3-1.1,1.6-1.5.3-.4.4-.7.4-1.1s-.1-.6-.4-.9c-.2-.2-.6-.4-1-.4s-.8.1-1,.4c-.3.3-.4.6-.4,1.1h-.9c0-.8.3-1.3.7-1.6.4-.4.9-.5,1.6-.5s1.2.2,1.6.6c.4.4.6.9.6,1.4s0,.6-.2.8c-.1.3-.3.6-.6.9s-.7.7-1.4,1.3c-.5.4-.9.7-1,.9-.1.2-.3.3-.4.5h3.5Z"/>
                <path id="ArialMT-356" data-name="ArialMT-35" class="st42" d="M150.1,117.3h.9c0,.4.2.7.5.9.2.2.5.3.9.3s.8-.2,1.1-.5c.3-.3.4-.7.4-1.3s-.1-.9-.4-1.2c-.3-.3-.7-.4-1.1-.4s-.5,0-.8.2c-.2.1-.4.3-.5.5h-.8c0-.1.7-3.8.7-3.8h3.6v.8h-2.9l-.4,1.9c.4-.3.9-.5,1.4-.5s1.2.2,1.6.7c.4.4.6,1,.6,1.7s-.2,1.2-.6,1.7c-.5.6-1.1.9-1.9.9s-1.2-.2-1.6-.5c-.4-.4-.6-.8-.7-1.5Z"/>
              </g>
            </g>
          </g>
          <g id="ytick_81" data-name="ytick_8">
            <g id="line2d_111" data-name="line2d_11">
              <g class="st32">
                <path class="st7" d="M162.3,74.9h558"/>
              </g>
            </g>
            <g id="text_121" data-name="text_12">
              <g>
                <path id="ArialMT-3015" data-name="ArialMT-30" class="st42" d="M136.2,74.9c0-.8,0-1.5.3-2,.2-.5.4-.9.8-1.2.3-.3.8-.4,1.3-.4s.7,0,1,.2c.3.2.5.4.7.7.2.3.3.6.4,1.1.1.4.2,1,.2,1.7s0,1.5-.3,2c-.2.5-.4.9-.8,1.2-.3.3-.8.4-1.3.4s-1.2-.2-1.6-.7c-.5-.6-.7-1.6-.7-2.9ZM137.1,74.9c0,1.2.1,2,.4,2.3.3.4.6.6,1,.6s.7-.2,1-.6.4-1.2.4-2.3-.1-2-.4-2.3c-.3-.4-.6-.6-1-.6s-.7.2-1,.5c-.3.4-.5,1.2-.5,2.4Z"/>
                <path id="ArialMT-2e15" data-name="ArialMT-2e" class="st42" d="M142.3,78.5v-1h1v1h-1Z"/>
                <path id="ArialMT-3016" data-name="ArialMT-30" class="st42" d="M144.6,74.9c0-.8,0-1.5.3-2,.2-.5.4-.9.8-1.2.3-.3.8-.4,1.3-.4s.7,0,1,.2c.3.2.5.4.7.7.2.3.3.6.4,1.1.1.4.2,1,.2,1.7s0,1.5-.3,2c-.2.5-.4.9-.8,1.2-.3.3-.8.4-1.3.4s-1.2-.2-1.6-.7c-.5-.6-.7-1.6-.7-2.9ZM145.5,74.9c0,1.2.1,2,.4,2.3.3.4.6.6,1,.6s.7-.2,1-.6.4-1.2.4-2.3-.1-2-.4-2.3c-.3-.4-.6-.6-1-.6s-.7.2-1,.5c-.3.4-.5,1.2-.5,2.4Z"/>
                <path id="ArialMT-3017" data-name="ArialMT-30" class="st42" d="M150.1,74.9c0-.8,0-1.5.3-2,.2-.5.4-.9.8-1.2.3-.3.8-.4,1.3-.4s.7,0,1,.2c.3.2.5.4.7.7.2.3.3.6.4,1.1.1.4.2,1,.2,1.7s0,1.5-.3,2c-.2.5-.4.9-.8,1.2-.3.3-.8.4-1.3.4s-1.2-.2-1.6-.7c-.5-.6-.7-1.6-.7-2.9ZM151,74.9c0,1.2.1,2,.4,2.3.3.4.6.6,1,.6s.7-.2,1-.6.4-1.2.4-2.3-.1-2-.4-2.3c-.3-.4-.6-.6-1-.6s-.7.2-1,.5c-.3.4-.5,1.2-.5,2.4Z"/>
              </g>
            </g>
          </g>
          <g id="text_131" data-name="text_13">
            <g>
              <path id="ArialMT-4d" class="st42" d="M124,228.4h-7.2v-1.4l5.1-1.7c.5-.2.8-.3,1.1-.3-.3,0-.6-.2-1.1-.4l-5-1.7v-1.3h7.2v.9h-6l6,2.1v.9l-6.1,2.1h6.1v.9Z"/>
              <path id="ArialMT-531" data-name="ArialMT-53" class="st42" d="M121.7,220.4v-.9c.3,0,.6-.1.8-.3.2-.2.4-.4.6-.7.1-.3.2-.7.2-1.1s0-.7-.2-1c-.1-.3-.3-.5-.4-.6-.2-.1-.4-.2-.6-.2s-.4,0-.6.2-.3.3-.4.6c0,.2-.2.6-.3,1.3-.2.7-.3,1.1-.4,1.4-.2.3-.4.6-.7.8-.3.2-.6.3-.9.3s-.7-.1-1-.3c-.3-.2-.6-.5-.7-.9-.2-.4-.2-.8-.2-1.3s0-1,.3-1.4c.2-.4.4-.7.8-.9.3-.2.7-.3,1.1-.4v.9c-.4,0-.7.2-1,.5-.2.3-.3.7-.3,1.2s.1,1,.3,1.3c.2.3.5.4.8.4s.5,0,.6-.3c.2-.2.3-.7.5-1.4.2-.8.3-1.3.5-1.6.2-.4.4-.7.7-.9.3-.2.6-.3,1-.3s.7.1,1.1.3c.3.2.6.5.8.9.2.4.3.9.3,1.4s0,1.2-.3,1.6c-.2.4-.5.8-.9,1-.4.2-.8.4-1.3.4Z"/>
              <path id="ArialMT-44" class="st42" d="M124,213.4h-7.2v-2.5c0-.6,0-1,.1-1.3,0-.4.3-.8.5-1,.3-.4.7-.7,1.2-.8.5-.2,1.1-.3,1.7-.3s1,0,1.4.2c.4.1.8.3,1,.5.3.2.5.4.7.7.2.2.3.5.4.9s.1.7.1,1.2v2.6ZM123.1,212.4v-1.5c0-.5,0-.8-.1-1.1s-.2-.5-.4-.6c-.2-.2-.5-.4-.9-.5s-.8-.2-1.4-.2-1.3.1-1.7.4-.7.5-.8.9c0,.3-.1.7-.1,1.2v1.5h5.5Z"/>
            </g>
          </g>
        </g>
        <g id="line2d_121" data-name="line2d_12">
          <g class="st25">
            <path class="st2" d="M162.3,75.1h558"/>
          </g>
        </g>
        <g id="line2d_131" data-name="line2d_13">
          <g class="st23">
            <path class="st8" d="M162.3,66.8h558"/>
          </g>
        </g>
        <g id="line2d_141" data-name="line2d_14">
          <g class="st26">
            <path class="st4" d="M187.6,328.9l253.6-47.3,253.6,10.2"/>
          </g>
        </g>
        <g id="line2d_151" data-name="line2d_15">
          <g class="st24">
            <path class="st5" d="M187.6,265.1l253.6,104.2,253.6-59.6"/>
          </g>
        </g>
        <g id="patch_31" data-name="patch_3">
          <path class="st1" d="M162.3,384.4V51.7"/>
        </g>
        <g id="patch_41" data-name="patch_4">
          <path class="st1" d="M720.3,384.4V51.7"/>
        </g>
        <g id="patch_51" data-name="patch_5">
          <path class="st1" d="M162.3,384.4h558"/>
        </g>
        <g id="patch_61" data-name="patch_6">
          <path class="st1" d="M162.3,51.7h558"/>
        </g>
      </g>
    </g>
    <text class="st10" transform="translate(246.7 40.2)"><tspan x="0" y="0">Mean Signed Difference (MSD) with Primary Human Coder</tspan></text>
    <g id="legend_11" data-name="legend_1">
      <g id="patch_71" data-name="patch_7">
        <path class="st9" d="M728.8,120.1h119.8c1.8,0,2.7-1,2.7-3v-62.4c0-2-.9-3-2.7-3h-119.8c-1.8,0-2.7,1-2.7,3v62.4c0,2,.9,3,2.7,3Z"/>
      </g>
      <path class="st3" d="M731.6,99.7h16.7"/>
      <path class="st8" d="M731.6,87.2h16.7"/>
      <path class="st2" d="M731.6,74.8h16.7"/>
      <path class="st6" d="M731.6,112.1h16.7"/>
      <text class="st12" transform="translate(730.6 63)"><tspan x="0" y="0">Annotation Means</tspan></text>
      <text class="st12" transform="translate(754.2 103.1)"><tspan x="0" y="0">Qwen2.5-VL</tspan></text>
      <text class="st12" transform="translate(754.2 114.9)"><tspan x="0" y="0">Qwen2-VL</tspan></text>
      <text class="st12" transform="translate(754.2 77.6)"><tspan x="0" y="0">Secondary Human Coder</tspan></text>
      <text class="st12" transform="translate(754.2 90)"><tspan x="0" y="0">Pose estimation</tspan></text>
    </g>
  </g>
</svg>