<?xml version="1.0" encoding="UTF-8"?>
<svg id="Layer_1" xmlns="http://www.w3.org/2000/svg" xmlns:xlink="http://www.w3.org/1999/xlink" version="1.1" viewBox="0 0 864 432">
  <!-- Generator: Adobe Illustrator 29.5.1, SVG Export Plug-In . SVG Version: 2.1.0 Build 141)  -->
  <defs>
    <style>
      .st0, .st1, .st2 {
        fill: none;
      }

      .st3 {
        fill: #ff7f0e;
      }

      .st4 {
        font-family: Helvetica, Helvetica;
        font-size: 10px;
      }

      .st1 {
        stroke-linecap: square;
      }

      .st1, .st5, .st2 {
        stroke: #ccc;
      }

      .st1, .st2 {
        stroke-width: .8px;
      }

      .st5 {
        isolation: isolate;
        opacity: .8;
      }

      .st5, .st6 {
        fill: #fff;
      }

      .st7 {
        clip-path: url(#clippath-17);
      }

      .st8 {
        clip-path: url(#clippath-19);
      }

      .st9 {
        clip-path: url(#clippath-11);
      }

      .st10 {
        clip-path: url(#clippath-16);
      }

      .st11 {
        clip-path: url(#clippath-18);
      }

      .st12 {
        clip-path: url(#clippath-10);
      }

      .st13 {
        clip-path: url(#clippath-15);
      }

      .st14 {
        clip-path: url(#clippath-13);
      }

      .st15 {
        clip-path: url(#clippath-14);
      }

      .st16 {
        clip-path: url(#clippath-12);
      }

      .st17 {
        clip-path: url(#clippath-50);
      }

      .st18 {
        clip-path: url(#clippath-52);
      }

      .st19 {
        clip-path: url(#clippath-51);
      }

      .st20 {
        clip-path: url(#clippath-31);
      }

      .st21 {
        clip-path: url(#clippath-32);
      }

      .st22 {
        clip-path: url(#clippath-33);
      }

      .st23 {
        clip-path: url(#clippath-34);
      }

      .st24 {
        clip-path: url(#clippath-35);
      }

      .st25 {
        clip-path: url(#clippath-39);
      }

      .st26 {
        clip-path: url(#clippath-30);
      }

      .st27 {
        clip-path: url(#clippath-36);
      }

      .st28 {
        clip-path: url(#clippath-37);
      }

      .st29 {
        clip-path: url(#clippath-38);
      }

      .st30 {
        clip-path: url(#clippath-27);
      }

      .st31 {
        clip-path: url(#clippath-29);
      }

      .st32 {
        clip-path: url(#clippath-26);
      }

      .st33 {
        clip-path: url(#clippath-28);
      }

      .st34 {
        clip-path: url(#clippath-20);
      }

      .st35 {
        clip-path: url(#clippath-21);
      }

      .st36 {
        clip-path: url(#clippath-22);
      }

      .st37 {
        clip-path: url(#clippath-23);
      }

      .st38 {
        clip-path: url(#clippath-24);
      }

      .st39 {
        clip-path: url(#clippath-25);
      }

      .st40 {
        clip-path: url(#clippath-41);
      }

      .st41 {
        clip-path: url(#clippath-42);
      }

      .st42 {
        clip-path: url(#clippath-43);
      }

      .st43 {
        clip-path: url(#clippath-44);
      }

      .st44 {
        clip-path: url(#clippath-45);
      }

      .st45 {
        clip-path: url(#clippath-49);
      }

      .st46 {
        clip-path: url(#clippath-40);
      }

      .st47 {
        clip-path: url(#clippath-46);
      }

      .st48 {
        clip-path: url(#clippath-47);
      }

      .st49 {
        clip-path: url(#clippath-48);
      }

      .st50 {
        clip-path: url(#clippath-1);
      }

      .st51 {
        clip-path: url(#clippath-3);
      }

      .st52 {
        clip-path: url(#clippath-4);
      }

      .st53 {
        clip-path: url(#clippath-2);
      }

      .st54 {
        clip-path: url(#clippath-7);
      }

      .st55 {
        clip-path: url(#clippath-6);
      }

      .st56 {
        clip-path: url(#clippath-9);
      }

      .st57 {
        clip-path: url(#clippath-8);
      }

      .st58 {
        clip-path: url(#clippath-5);
      }

      .st59 {
        fill: #262626;
      }

      .st2 {
        stroke-linecap: round;
        stroke-linejoin: round;
      }

      .st60 {
        font-family: Helvetica-Bold, Helvetica;
        font-size: 12px;
        font-weight: 700;
      }

      .st61 {
        fill: #1f77b4;
      }

      .st62 {
        clip-path: url(#clippath);
      }
    </style>
    <clipPath id="clippath">
      <rect class="st0" x="48.6" y="-430.4" width="804.6" height="314.1"/>
    </clipPath>
    <clipPath id="clippath-1">
      <rect class="st0" x="48.6" y="-430.4" width="804.6" height="314.1"/>
    </clipPath>
    <clipPath id="clippath-2">
      <rect class="st0" x="48.6" y="-430.4" width="804.6" height="314.1"/>
    </clipPath>
    <clipPath id="clippath-3">
      <rect class="st0" x="48.6" y="-430.4" width="804.6" height="314.1"/>
    </clipPath>
    <clipPath id="clippath-4">
      <rect class="st0" x="48.6" y="-430.4" width="804.6" height="314.1"/>
    </clipPath>
    <clipPath id="clippath-5">
      <rect class="st0" x="48.6" y="-430.4" width="804.6" height="314.1"/>
    </clipPath>
    <clipPath id="clippath-6">
      <rect class="st0" x="48.6" y="-430.4" width="804.6" height="314.1"/>
    </clipPath>
    <clipPath id="clippath-7">
      <rect class="st0" x="48.6" y="-430.4" width="804.6" height="314.1"/>
    </clipPath>
    <clipPath id="clippath-8">
      <rect class="st0" x="48.6" y="-430.4" width="804.6" height="314.1"/>
    </clipPath>
    <clipPath id="clippath-9">
      <rect class="st0" x="48.6" y="-430.4" width="804.6" height="314.1"/>
    </clipPath>
    <clipPath id="clippath-10">
      <rect class="st0" x="48.6" y="-430.4" width="804.6" height="314.1"/>
    </clipPath>
    <clipPath id="clippath-11">
      <rect class="st0" x="48.6" y="-430.4" width="804.6" height="314.1"/>
    </clipPath>
    <clipPath id="clippath-12">
      <rect class="st0" x="48.6" y="-430.4" width="804.6" height="314.1"/>
    </clipPath>
    <clipPath id="clippath-13">
      <rect class="st0" x="48.6" y="-430.4" width="804.6" height="314.1"/>
    </clipPath>
    <clipPath id="clippath-14">
      <rect class="st0" x="48.6" y="-430.4" width="804.6" height="314.1"/>
    </clipPath>
    <clipPath id="clippath-15">
      <rect class="st0" x="48.6" y="-430.4" width="804.6" height="314.1"/>
    </clipPath>
    <clipPath id="clippath-16">
      <rect class="st0" x="48.6" y="-430.4" width="804.6" height="314.1"/>
    </clipPath>
    <clipPath id="clippath-17">
      <rect class="st0" x="48.6" y="-430.4" width="804.6" height="314.1"/>
    </clipPath>
    <clipPath id="clippath-18">
      <rect class="st0" x="48.6" y="-430.4" width="804.6" height="314.1"/>
    </clipPath>
    <clipPath id="clippath-19">
      <rect class="st0" x="48.6" y="-430.4" width="804.6" height="314.1"/>
    </clipPath>
    <clipPath id="clippath-20">
      <rect class="st0" x="48.6" y="-430.4" width="804.6" height="314.1"/>
    </clipPath>
    <clipPath id="clippath-21">
      <rect class="st0" x="48.6" y="-430.4" width="804.6" height="314.1"/>
    </clipPath>
    <clipPath id="clippath-22">
      <rect class="st0" x="48.6" y="-430.4" width="804.6" height="314.1"/>
    </clipPath>
    <clipPath id="clippath-23">
      <rect class="st0" x="48.6" y="-430.4" width="804.6" height="314.1"/>
    </clipPath>
    <clipPath id="clippath-24">
      <rect class="st0" x="48.6" y="-430.4" width="804.6" height="314.1"/>
    </clipPath>
    <clipPath id="clippath-25">
      <rect class="st0" x="48.6" y="-430.4" width="804.6" height="314.1"/>
    </clipPath>
    <clipPath id="clippath-26">
      <rect class="st0" x="52.7" y="22.8" width="804.6" height="328.8"/>
    </clipPath>
    <clipPath id="clippath-27">
      <rect class="st0" x="52.7" y="22.8" width="804.6" height="328.8"/>
    </clipPath>
    <clipPath id="clippath-28">
      <rect class="st0" x="52.7" y="22.8" width="804.6" height="328.8"/>
    </clipPath>
    <clipPath id="clippath-29">
      <rect class="st0" x="52.7" y="22.8" width="804.6" height="328.8"/>
    </clipPath>
    <clipPath id="clippath-30">
      <rect class="st0" x="52.7" y="22.8" width="804.6" height="328.8"/>
    </clipPath>
    <clipPath id="clippath-31">
      <rect class="st0" x="52.7" y="22.8" width="804.6" height="328.8"/>
    </clipPath>
    <clipPath id="clippath-32">
      <rect class="st0" x="52.7" y="22.8" width="804.6" height="328.8"/>
    </clipPath>
    <clipPath id="clippath-33">
      <rect class="st0" x="52.7" y="22.8" width="804.6" height="328.8"/>
    </clipPath>
    <clipPath id="clippath-34">
      <rect class="st0" x="52.7" y="22.8" width="804.6" height="328.8"/>
    </clipPath>
    <clipPath id="clippath-35">
      <rect class="st0" x="52.7" y="22.8" width="804.6" height="328.8"/>
    </clipPath>
    <clipPath id="clippath-36">
      <rect class="st0" x="52.7" y="22.8" width="804.6" height="328.8"/>
    </clipPath>
    <clipPath id="clippath-37">
      <rect class="st0" x="52.7" y="22.8" width="804.6" height="328.8"/>
    </clipPath>
    <clipPath id="clippath-38">
      <rect class="st0" x="52.7" y="22.8" width="804.6" height="328.8"/>
    </clipPath>
    <clipPath id="clippath-39">
      <rect class="st0" x="52.7" y="22.8" width="804.6" height="328.8"/>
    </clipPath>
    <clipPath id="clippath-40">
      <rect class="st0" x="52.7" y="22.8" width="804.6" height="328.8"/>
    </clipPath>
    <clipPath id="clippath-41">
      <rect class="st0" x="52.7" y="22.8" width="804.6" height="328.8"/>
    </clipPath>
    <clipPath id="clippath-42">
      <rect class="st0" x="52.7" y="22.8" width="804.6" height="328.8"/>
    </clipPath>
    <clipPath id="clippath-43">
      <rect class="st0" x="52.7" y="22.8" width="804.6" height="328.8"/>
    </clipPath>
    <clipPath id="clippath-44">
      <rect class="st0" x="52.7" y="22.8" width="804.6" height="328.8"/>
    </clipPath>
    <clipPath id="clippath-45">
      <rect class="st0" x="52.7" y="22.8" width="804.6" height="328.8"/>
    </clipPath>
    <clipPath id="clippath-46">
      <rect class="st0" x="52.7" y="22.8" width="804.6" height="328.8"/>
    </clipPath>
    <clipPath id="clippath-47">
      <rect class="st0" x="52.7" y="22.8" width="804.6" height="328.8"/>
    </clipPath>
    <clipPath id="clippath-48">
      <rect class="st0" x="52.7" y="22.8" width="804.6" height="328.8"/>
    </clipPath>
    <clipPath id="clippath-49">
      <rect class="st0" x="52.7" y="22.8" width="804.6" height="328.8"/>
    </clipPath>
    <clipPath id="clippath-50">
      <rect class="st0" x="52.7" y="22.8" width="804.6" height="328.8"/>
    </clipPath>
    <clipPath id="clippath-51">
      <rect class="st0" x="52.7" y="22.8" width="804.6" height="328.8"/>
    </clipPath>
    <clipPath id="clippath-52">
      <rect class="st0" x="52.7" y="22.8" width="804.6" height="328.8"/>
    </clipPath>
  </defs>
  <g id="figure_1">
    <g id="patch_1">
      <path class="st6" d="M0-23.9h864v-432H0V-23.9Z"/>
    </g>
    <g id="axes_1">
      <g id="patch_2">
        <path class="st6" d="M48.6-116.3h804.6v-314.1H48.6V-116.3Z"/>
      </g>
      <g id="matplotlib.axis_1">
        <g id="xtick_1">
          <g id="line2d_1">
            <g class="st62">
              <path class="st2" d="M106.1-116.3v-314.1"/>
            </g>
          </g>
          <g id="text_1">
            <g>
              <path id="ArialMT-45" class="st59" d="M85.1-84.8l-5.1-5.1,3.7-3.7.6.6-3,3,1.6,1.6,2.8-2.8.6.6-2.8,2.8,1.7,1.7,3.1-3.1.6.6-3.8,3.8Z"/>
              <path id="ArialMT-6d" class="st59" d="M89.7-89.4l-3.7-3.7.6-.6.5.5c0-.3,0-.6,0-.9,0-.3.2-.6.5-.8s.6-.4.8-.5.6,0,.8.1c-.1-.7,0-1.3.5-1.8s.7-.5,1.1-.5c.4,0,.8.2,1.2.6l2.5,2.5-.6.6-2.3-2.3c-.2-.2-.4-.4-.6-.5-.1,0-.3,0-.5,0-.2,0-.3.1-.5.3-.3.3-.4.6-.4.9,0,.3.2.7.6,1.1l2.1,2.1-.6.6-2.4-2.4c-.3-.3-.5-.4-.8-.5-.2,0-.5,0-.7.3s-.3.4-.3.6c0,.2,0,.5,0,.7.1.2.3.5.7.9l1.9,1.9-.6.6Z"/>
              <path id="ArialMT-70" class="st59" d="M97-93.9l-5.1-5.1.6-.6.5.5c0-.3,0-.6,0-.9,0-.3.2-.5.5-.8s.7-.5,1.1-.6.8,0,1.2.1c.4.2.8.4,1.1.8s.6.8.8,1.2c.2.4.2.9.1,1.3,0,.4-.3.8-.6,1s-.4.3-.7.4c-.3,0-.5.1-.7,0l1.8,1.8-.6.6ZM94.4-97.7c.5.5.9.7,1.3.8.4,0,.8,0,1-.4s.4-.6.4-1.1c0-.4-.3-.9-.8-1.4s-.9-.7-1.3-.8c-.4,0-.8,0-1,.3s-.4.6-.3,1.1c0,.5.3.9.8,1.4Z"/>
              <path id="ArialMT-74" class="st59" d="M100.4-101.1l.6.5c-.1.2-.3.4-.4.5-.2.2-.4.4-.6.4-.2,0-.4,0-.5,0-.2,0-.4-.3-.8-.7l-2.1-2.1-.5.5-.5-.5.5-.5-.9-.9.2-1,1.3,1.3.6-.6.5.5-.6.6,2.1,2.1c.2.2.3.3.4.3,0,0,.1,0,.2,0,0,0,.2,0,.3-.2s.2-.2.2-.3Z"/>
              <path id="ArialMT-79" class="st59" d="M102.9-99.7l-.7-.5c.2,0,.3-.2.4-.3s.2-.3.3-.4c0-.1,0-.3,0-.4,0-.1-.1-.3-.3-.7,0,0,0-.1,0-.2l-5.1-2.3.7-.7,2.9,1.4c.4.2.7.4,1.1.6-.2-.4-.4-.7-.6-1.1l-1.4-2.9.6-.6,2.3,5.1c.3.6.4.9.5,1.2,0,.3.1.6,0,.8,0,.2-.2.5-.4.7s-.3.2-.5.3Z"/>
            </g>
          </g>
        </g>
        <g id="xtick_2">
          <g id="line2d_2">
            <g class="st50">
              <path class="st2" d="M221-116.3v-314.1"/>
            </g>
          </g>
          <g id="text_2">
            <g>
              <path id="ArialMT-57" class="st59" d="M189.6-74.2l-6.4-3.7.7-.7,4.1,2.5c.4.3.8.5,1.2.8-.4-.7-.6-1.1-.7-1.2l-2.5-4.4.8-.8,3.3,1.8c.8.5,1.5.9,2.2,1.4-.3-.4-.5-.8-.8-1.4l-2.5-4,.7-.7,3.7,6.4-.6.6-4.9-2.8c-.4-.2-.7-.4-.8-.4.2.3.3.5.4.7l2.8,4.9-.7.7Z"/>
              <path id="ArialMT-69" class="st59" d="M191-84.3l-.7-.7.6-.6.7.7-.6.6ZM195.3-80l-3.7-3.7.6-.6,3.7,3.7-.6.6Z"/>
              <path id="ArialMT-64" class="st59" d="M199.3-83.9l-.5-.5c.1.6,0,1.1-.5,1.6s-.6.5-1,.6-.8,0-1.2-.1c-.4-.2-.8-.4-1.2-.8s-.6-.8-.8-1.2c-.2-.4-.2-.8-.1-1.2,0-.4.3-.8.6-1.1s.5-.4.7-.4c.3,0,.5,0,.8,0l-1.8-1.8.6-.6,5.1,5.1-.6.6ZM195.5-83.8c.5.5.9.7,1.3.8.4,0,.8,0,1-.4s.4-.6.4-1c0-.4-.3-.8-.7-1.3s-1-.8-1.4-.8c-.4,0-.8,0-1.1.4s-.4.6-.4,1c0,.4.3.9.8,1.3Z"/>
              <path id="ArialMT-65" class="st59" d="M202.2-89.1l.7-.6c.3.5.4,1,.3,1.4,0,.5-.3.9-.7,1.4s-1.1.8-1.8.8c-.6,0-1.3-.3-1.9-.9s-.9-1.3-1-1.9c0-.7.2-1.2.7-1.7s1.1-.7,1.7-.7,1.3.3,1.9.9,0,0,.2.2l-2.7,2.7c.4.4.8.6,1.3.6.4,0,.8-.1,1.1-.4s.4-.5.4-.8c0-.3,0-.6-.2-1ZM199.1-88.1l2-2c-.3-.3-.6-.4-.9-.5-.4,0-.8,0-1.1.4s-.4.6-.4,1,.1.7.4,1.1Z"/>
              <path id="ArialMT-20" class="st59" d="M204.3-88.9"/>
              <path id="ArialMT-73" class="st59" d="M205.4-92.2l.5-.7c.3.2.6.3.9.3.3,0,.6-.2.9-.5s.4-.6.5-.8c0-.3,0-.5-.2-.6s-.3-.2-.5-.1c-.1,0-.4.2-.8.4-.6.3-1,.6-1.2.6s-.5.1-.7,0c-.2,0-.4-.2-.6-.4s-.3-.4-.3-.6c0-.2,0-.4,0-.7,0-.2,0-.4.2-.6.1-.2.3-.4.5-.6.3-.3.6-.5.9-.6.3-.1.6-.2.8-.1.2,0,.5.2.8.4l-.5.7c-.2-.2-.4-.2-.7-.2-.2,0-.5.2-.7.4s-.4.5-.5.8c0,.2,0,.4.1.5s.2.1.3.1c.1,0,.3,0,.4,0,0,0,.3-.2.7-.4.6-.3,1-.5,1.2-.6.2,0,.5-.1.7,0,.2,0,.5.2.7.4s.3.5.4.8c0,.3,0,.6,0,.9-.1.3-.3.6-.6.9-.5.5-.9.7-1.4.8-.4,0-.9,0-1.4-.4Z"/>
              <path id="ArialMT-68" class="st59" d="M210.3-94.9l-5.1-5.1.6-.6,1.8,1.8c0-.6.2-1.2.6-1.6s.6-.5.9-.5c.3,0,.6,0,.9,0s.6.3,1,.7l2.3,2.3-.6.6-2.3-2.3c-.3-.3-.6-.5-.9-.5s-.5.1-.8.4-.3.4-.4.7c0,.3,0,.5,0,.7,0,.2.3.5.6.8l2,2-.6.6Z"/>
              <path id="ArialMT-6f" class="st59" d="M212.1-100.4c-.7-.7-1-1.4-.9-2.1,0-.6.3-1.1.7-1.6s1.1-.8,1.7-.7c.7,0,1.3.3,1.8.9s.8.9.9,1.3c.1.4.1.8,0,1.2-.1.4-.3.8-.7,1.1-.5.5-1.1.8-1.7.8-.6,0-1.3-.3-1.9-.9ZM212.8-101.1c.5.5.9.7,1.4.7.4,0,.8-.1,1.1-.4s.4-.7.4-1.1c0-.4-.3-.9-.8-1.4s-.9-.7-1.3-.7-.8.1-1.1.4-.5.7-.4,1.1c0,.4.3.9.7,1.4Z"/>
              <path id="ArialMT-741" data-name="ArialMT-74" class="st59" d="M218.9-104.7l.6.5c-.1.2-.3.4-.4.5-.2.2-.4.4-.6.4-.2,0-.4,0-.5,0-.2,0-.4-.3-.8-.7l-2.1-2.1-.5.5-.5-.5.5-.5-.9-.9.2-1,1.3,1.3.6-.6.5.5-.6.6,2.1,2.1c.2.2.3.3.4.3,0,0,.1,0,.2,0,0,0,.2,0,.3-.2s.2-.2.2-.3Z"/>
            </g>
          </g>
        </g>
        <g id="xtick_3">
          <g id="line2d_3">
            <g class="st53">
              <path class="st2" d="M336-116.3v-314.1"/>
            </g>
          </g>
          <g id="text_3">
            <g>
              <path id="ArialMT-46" class="st59" d="M308.4-78.1l-5.1-5.1,3.4-3.4.6.6-2.7,2.7,1.6,1.6,2.4-2.4.6.6-2.4,2.4,2.3,2.3-.7.7Z"/>
              <path id="ArialMT-75" class="st59" d="M315-84.7l-.5-.5c.1.7,0,1.3-.5,1.8s-.5.4-.7.5c-.3.1-.5.1-.7.1-.2,0-.4-.1-.7-.3-.1,0-.4-.3-.6-.5l-2.3-2.3.6-.6,2,2c.3.3.6.5.7.6.2.1.4.2.6.1.2,0,.4-.1.6-.3s.3-.4.4-.7c0-.3,0-.5,0-.7,0-.2-.3-.5-.6-.8l-2-2,.6-.6,3.7,3.7-.6.6Z"/>
              <path id="ArialMT-6c" class="st59" d="M316.5-86.2l-5.1-5.1.6-.6,5.1,5.1-.6.6Z"/>
              <path id="ArialMT-6c1" data-name="ArialMT-6c" class="st59" d="M318.1-87.8l-5.1-5.1.6-.6,5.1,5.1-.6.6Z"/>
              <path id="ArialMT-201" data-name="ArialMT-20" class="st59" d="M319.2-88.9"/>
              <path id="ArialMT-731" data-name="ArialMT-73" class="st59" d="M320.3-92.2l.5-.7c.3.2.6.3.9.3.3,0,.6-.2.9-.5s.4-.6.5-.8c0-.3,0-.5-.2-.6s-.3-.2-.5-.1c-.1,0-.4.2-.8.4-.6.3-1,.6-1.2.6s-.5.1-.7,0c-.2,0-.4-.2-.6-.4s-.3-.4-.3-.6c0-.2,0-.4,0-.7,0-.2,0-.4.2-.6.1-.2.3-.4.5-.6.3-.3.6-.5.9-.6.3-.1.6-.2.8-.1.2,0,.5.2.8.4l-.5.7c-.2-.2-.4-.2-.7-.2-.2,0-.5.2-.7.4s-.4.5-.5.8c0,.2,0,.4.1.5s.2.1.3.1c.1,0,.3,0,.4,0,0,0,.3-.2.7-.4.6-.3,1-.5,1.2-.6.2,0,.5-.1.7,0,.2,0,.5.2.7.4s.3.5.4.8c0,.3,0,.6,0,.9-.1.3-.3.6-.6.9-.5.5-.9.7-1.4.8-.4,0-.9,0-1.4-.4Z"/>
              <path id="ArialMT-681" data-name="ArialMT-68" class="st59" d="M325.2-94.9l-5.1-5.1.6-.6,1.8,1.8c0-.6.2-1.2.6-1.6s.6-.5.9-.5c.3,0,.6,0,.9,0s.6.3,1,.7l2.3,2.3-.6.6-2.3-2.3c-.3-.3-.6-.5-.9-.5s-.5.1-.8.4-.3.4-.4.7c0,.3,0,.5,0,.7,0,.2.3.5.6.8l2,2-.6.6Z"/>
              <path id="ArialMT-6f1" data-name="ArialMT-6f" class="st59" d="M327.1-100.4c-.7-.7-1-1.4-.9-2.1,0-.6.3-1.1.7-1.6s1.1-.8,1.7-.7c.7,0,1.3.3,1.8.9s.8.9.9,1.3c.1.4.1.8,0,1.2-.1.4-.3.8-.7,1.1-.5.5-1.1.8-1.7.8-.6,0-1.3-.3-1.9-.9ZM327.7-101.1c.5.5.9.7,1.4.7.4,0,.8-.1,1.1-.4s.4-.7.4-1.1c0-.4-.3-.9-.8-1.4s-.9-.7-1.3-.7-.8.1-1.1.4-.5.7-.4,1.1c0,.4.3.9.7,1.4Z"/>
              <path id="ArialMT-742" data-name="ArialMT-74" class="st59" d="M333.9-104.7l.6.5c-.1.2-.3.4-.4.5-.2.2-.4.4-.6.4-.2,0-.4,0-.5,0-.2,0-.4-.3-.8-.7l-2.1-2.1-.5.5-.5-.5.5-.5-.9-.9.2-1,1.3,1.3.6-.6.5.5-.6.6,2.1,2.1c.2.2.3.3.4.3,0,0,.1,0,.2,0,0,0,.2,0,.3-.2s.2-.2.2-.3Z"/>
            </g>
          </g>
        </g>
        <g id="xtick_4">
          <g id="line2d_4">
            <g class="st51">
              <path class="st2" d="M450.9-116.3v-314.1"/>
            </g>
          </g>
          <g id="text_4">
            <g>
              <path id="ArialMT-4d" class="st59" d="M398.5-53.3l-5.1-5.1,1-1,4.8,2.4c.4.2.8.4,1,.5-.1-.2-.3-.6-.5-1.1l-2.3-4.7.9-.9,5.1,5.1-.6.6-4.2-4.2,2.8,5.7-.6.6-5.8-2.8,4.3,4.3-.6.6Z"/>
              <path id="ArialMT-651" data-name="ArialMT-65" class="st59" d="M405.7-62.8l.7-.6c.3.5.4,1,.3,1.4,0,.5-.3.9-.7,1.4s-1.1.8-1.8.8c-.6,0-1.3-.3-1.9-.9s-.9-1.3-1-1.9c0-.7.2-1.2.7-1.7s1.1-.7,1.7-.7,1.3.3,1.9.9,0,0,.2.2l-2.7,2.7c.4.4.8.6,1.3.6.4,0,.8-.1,1.1-.4s.4-.5.4-.8c0-.3,0-.6-.2-1ZM402.7-61.8l2-2c-.3-.3-.6-.4-.9-.5-.4,0-.8,0-1.1.4s-.4.6-.4,1,.1.7.4,1.1Z"/>
              <path id="ArialMT-641" data-name="ArialMT-64" class="st59" d="M410.7-65.4l-.5-.5c.1.6,0,1.1-.5,1.6s-.6.5-1,.6-.8,0-1.2-.1c-.4-.2-.8-.4-1.2-.8s-.6-.8-.8-1.2c-.2-.4-.2-.8-.1-1.2,0-.4.3-.8.6-1.1s.5-.4.7-.4c.3,0,.5,0,.8,0l-1.8-1.8.6-.6,5.1,5.1-.6.6ZM406.9-65.3c.5.5.9.7,1.3.8.4,0,.8,0,1-.4s.4-.6.4-1c0-.4-.3-.8-.7-1.3s-1-.8-1.4-.8c-.4,0-.8,0-1.1.4s-.4.6-.4,1c0,.4.3.9.8,1.3Z"/>
              <path id="ArialMT-691" data-name="ArialMT-69" class="st59" d="M407.9-71.3l-.7-.7.6-.6.7.7-.6.6ZM412.3-67l-3.7-3.7.6-.6,3.7,3.7-.6.6Z"/>
              <path id="ArialMT-751" data-name="ArialMT-75" class="st59" d="M416.2-71l-.5-.5c.1.7,0,1.3-.5,1.8s-.5.4-.7.5c-.3.1-.5.1-.7.1-.2,0-.4-.1-.7-.3-.1,0-.4-.3-.6-.5l-2.3-2.3.6-.6,2,2c.3.3.6.5.7.6.2.1.4.2.6.1.2,0,.4-.1.6-.3s.3-.4.4-.7c0-.3,0-.5,0-.7,0-.2-.3-.5-.6-.8l-2-2,.6-.6,3.7,3.7-.6.6Z"/>
              <path id="ArialMT-6d1" data-name="ArialMT-6d" class="st59" d="M417.8-72.5l-3.7-3.7.6-.6.5.5c0-.3,0-.6,0-.9,0-.3.2-.6.5-.8s.6-.4.8-.5.6,0,.8.1c-.1-.7,0-1.3.5-1.8s.7-.5,1.1-.5c.4,0,.8.2,1.2.6l2.5,2.5-.6.6-2.3-2.3c-.2-.2-.4-.4-.6-.5-.1,0-.3,0-.5,0-.2,0-.3.1-.5.3-.3.3-.4.6-.4.9,0,.3.2.7.6,1.1l2.1,2.1-.6.6-2.4-2.4c-.3-.3-.5-.4-.8-.5-.2,0-.5,0-.7.3s-.3.4-.3.6c0,.2,0,.5,0,.7.1.2.3.5.7.9l1.9,1.9-.6.6Z"/>
              <path id="ArialMT-202" data-name="ArialMT-20" class="st59" d="M423.2-77.9"/>
              <path id="ArialMT-66" class="st59" d="M425.8-80.5l-3.2-3.2-.5.5-.5-.5.5-.5-.4-.4c-.2-.2-.4-.5-.5-.6-.1-.2-.1-.5,0-.7,0-.3.2-.5.5-.8s.4-.3.6-.5l.4.6c-.2.1-.3.2-.4.3-.2.2-.3.4-.3.5,0,.2.1.3.3.6l.3.3.7-.7.5.5-.7.7,3.2,3.2-.6.6Z"/>
              <path id="ArialMT-752" data-name="ArialMT-75" class="st59" d="M430-84.7l-.5-.5c.1.7,0,1.3-.5,1.8s-.5.4-.7.5c-.3.1-.5.1-.7.1-.2,0-.4-.1-.7-.3-.1,0-.4-.3-.6-.5l-2.3-2.3.6-.6,2,2c.3.3.6.5.7.6.2.1.4.2.6.1.2,0,.4-.1.6-.3s.3-.4.4-.7c0-.3,0-.5,0-.7,0-.2-.3-.5-.6-.8l-2-2,.6-.6,3.7,3.7-.6.6Z"/>
              <path id="ArialMT-6c2" data-name="ArialMT-6c" class="st59" d="M431.5-86.2l-5.1-5.1.6-.6,5.1,5.1-.6.6Z"/>
              <path id="ArialMT-6c3" data-name="ArialMT-6c" class="st59" d="M433.1-87.8l-5.1-5.1.6-.6,5.1,5.1-.6.6Z"/>
              <path id="ArialMT-203" data-name="ArialMT-20" class="st59" d="M434.2-88.9"/>
              <path id="ArialMT-732" data-name="ArialMT-73" class="st59" d="M435.3-92.2l.5-.7c.3.2.6.3.9.3.3,0,.6-.2.9-.5s.4-.6.5-.8c0-.3,0-.5-.2-.6s-.3-.2-.5-.1c-.1,0-.4.2-.8.4-.6.3-1,.6-1.2.6s-.5.1-.7,0c-.2,0-.4-.2-.6-.4s-.3-.4-.3-.6c0-.2,0-.4,0-.7,0-.2,0-.4.2-.6.1-.2.3-.4.5-.6.3-.3.6-.5.9-.6.3-.1.6-.2.8-.1.2,0,.5.2.8.4l-.5.7c-.2-.2-.4-.2-.7-.2-.2,0-.5.2-.7.4s-.4.5-.5.8c0,.2,0,.4.1.5s.2.1.3.1c.1,0,.3,0,.4,0,0,0,.3-.2.7-.4.6-.3,1-.5,1.2-.6.2,0,.5-.1.7,0,.2,0,.5.2.7.4s.3.5.4.8c0,.3,0,.6,0,.9-.1.3-.3.6-.6.9-.5.5-.9.7-1.4.8-.4,0-.9,0-1.4-.4Z"/>
              <path id="ArialMT-682" data-name="ArialMT-68" class="st59" d="M440.1-94.9l-5.1-5.1.6-.6,1.8,1.8c0-.6.2-1.2.6-1.6s.6-.5.9-.5c.3,0,.6,0,.9,0s.6.3,1,.7l2.3,2.3-.6.6-2.3-2.3c-.3-.3-.6-.5-.9-.5s-.5.1-.8.4-.3.4-.4.7c0,.3,0,.5,0,.7,0,.2.3.5.6.8l2,2-.6.6Z"/>
              <path id="ArialMT-6f2" data-name="ArialMT-6f" class="st59" d="M442-100.4c-.7-.7-1-1.4-.9-2.1,0-.6.3-1.1.7-1.6s1.1-.8,1.7-.7c.7,0,1.3.3,1.8.9s.8.9.9,1.3c.1.4.1.8,0,1.2-.1.4-.3.8-.7,1.1-.5.5-1.1.8-1.7.8-.6,0-1.3-.3-1.9-.9ZM442.7-101.1c.5.5.9.7,1.4.7.4,0,.8-.1,1.1-.4s.4-.7.4-1.1c0-.4-.3-.9-.8-1.4s-.9-.7-1.3-.7-.8.1-1.1.4-.5.7-.4,1.1c0,.4.3.9.7,1.4Z"/>
              <path id="ArialMT-743" data-name="ArialMT-74" class="st59" d="M448.8-104.7l.6.5c-.1.2-.3.4-.4.5-.2.2-.4.4-.6.4-.2,0-.4,0-.5,0-.2,0-.4-.3-.8-.7l-2.1-2.1-.5.5-.5-.5.5-.5-.9-.9.2-1,1.3,1.3.6-.6.5.5-.6.6,2.1,2.1c.2.2.3.3.4.3,0,0,.1,0,.2,0,0,0,.2,0,.3-.2s.2-.2.2-.3Z"/>
            </g>
          </g>
        </g>
        <g id="xtick_5">
          <g id="line2d_5">
            <g class="st52">
              <path class="st2" d="M565.8-116.3v-314.1"/>
            </g>
          </g>
          <g id="text_5">
            <g>
              <path id="ArialMT-4d1" data-name="ArialMT-4d" class="st59" d="M524.5-64.3l-5.1-5.1,1-1,4.8,2.4c.4.2.8.4,1,.5-.1-.2-.3-.6-.5-1.1l-2.3-4.7.9-.9,5.1,5.1-.6.6-4.2-4.2,2.8,5.7-.6.6-5.8-2.8,4.3,4.3-.6.6Z"/>
              <path id="ArialMT-652" data-name="ArialMT-65" class="st59" d="M531.7-73.8l.7-.6c.3.5.4,1,.3,1.4,0,.5-.3.9-.7,1.4s-1.1.8-1.8.8c-.6,0-1.3-.3-1.9-.9s-.9-1.3-1-1.9c0-.7.2-1.2.7-1.7s1.1-.7,1.7-.7,1.3.3,1.9.9,0,0,.2.2l-2.7,2.7c.4.4.8.6,1.3.6.4,0,.8-.1,1.1-.4s.4-.5.4-.8c0-.3,0-.6-.2-1ZM528.6-72.8l2-2c-.3-.3-.6-.4-.9-.5-.4,0-.8,0-1.1.4s-.4.6-.4,1,.1.7.4,1.1Z"/>
              <path id="ArialMT-642" data-name="ArialMT-64" class="st59" d="M536.6-76.4l-.5-.5c.1.6,0,1.1-.5,1.6s-.6.5-1,.6-.8,0-1.2-.1c-.4-.2-.8-.4-1.2-.8s-.6-.8-.8-1.2c-.2-.4-.2-.8-.1-1.2,0-.4.3-.8.6-1.1s.5-.4.7-.4c.3,0,.5,0,.8,0l-1.8-1.8.6-.6,5.1,5.1-.6.6ZM532.8-76.3c.5.5.9.7,1.3.8.4,0,.8,0,1-.4s.4-.6.4-1c0-.4-.3-.8-.7-1.3s-1-.8-1.4-.8c-.4,0-.8,0-1.1.4s-.4.6-.4,1c0,.4.3.9.8,1.3Z"/>
              <path id="ArialMT-692" data-name="ArialMT-69" class="st59" d="M533.8-82.3l-.7-.7.6-.6.7.7-.6.6ZM538.2-78l-3.7-3.7.6-.6,3.7,3.7-.6.6Z"/>
              <path id="ArialMT-753" data-name="ArialMT-75" class="st59" d="M542.2-82l-.5-.5c.1.7,0,1.3-.5,1.8s-.5.4-.7.5c-.3.1-.5.1-.7.1-.2,0-.4-.1-.7-.3-.1,0-.4-.3-.6-.5l-2.3-2.3.6-.6,2,2c.3.3.6.5.7.6.2.1.4.2.6.1.2,0,.4-.1.6-.3s.3-.4.4-.7c0-.3,0-.5,0-.7,0-.2-.3-.5-.6-.8l-2-2,.6-.6,3.7,3.7-.6.6Z"/>
              <path id="ArialMT-6d2" data-name="ArialMT-6d" class="st59" d="M543.7-83.5l-3.7-3.7.6-.6.5.5c0-.3,0-.6,0-.9,0-.3.2-.6.5-.8s.6-.4.8-.5.6,0,.8.1c-.1-.7,0-1.3.5-1.8s.7-.5,1.1-.5c.4,0,.8.2,1.2.6l2.5,2.5-.6.6-2.3-2.3c-.2-.2-.4-.4-.6-.5-.1,0-.3,0-.5,0-.2,0-.3.1-.5.3-.3.3-.4.6-.4.9,0,.3.2.7.6,1.1l2.1,2.1-.6.6-2.4-2.4c-.3-.3-.5-.4-.8-.5-.2,0-.5,0-.7.3s-.3.4-.3.6c0,.2,0,.5,0,.7.1.2.3.5.7.9l1.9,1.9-.6.6Z"/>
              <path id="ArialMT-204" data-name="ArialMT-20" class="st59" d="M549.1-88.9"/>
              <path id="ArialMT-733" data-name="ArialMT-73" class="st59" d="M550.2-92.2l.5-.7c.3.2.6.3.9.3.3,0,.6-.2.9-.5s.4-.6.5-.8c0-.3,0-.5-.2-.6s-.3-.2-.5-.1c-.1,0-.4.2-.8.4-.6.3-1,.6-1.2.6s-.5.1-.7,0c-.2,0-.4-.2-.6-.4s-.3-.4-.3-.6c0-.2,0-.4,0-.7,0-.2,0-.4.2-.6.1-.2.3-.4.5-.6.3-.3.6-.5.9-.6.3-.1.6-.2.8-.1.2,0,.5.2.8.4l-.5.7c-.2-.2-.4-.2-.7-.2-.2,0-.5.2-.7.4s-.4.5-.5.8c0,.2,0,.4.1.5s.2.1.3.1c.1,0,.3,0,.4,0,0,0,.3-.2.7-.4.6-.3,1-.5,1.2-.6.2,0,.5-.1.7,0,.2,0,.5.2.7.4s.3.5.4.8c0,.3,0,.6,0,.9-.1.3-.3.6-.6.9-.5.5-.9.7-1.4.8-.4,0-.9,0-1.4-.4Z"/>
              <path id="ArialMT-683" data-name="ArialMT-68" class="st59" d="M555.1-94.9l-5.1-5.1.6-.6,1.8,1.8c0-.6.2-1.2.6-1.6s.6-.5.9-.5c.3,0,.6,0,.9,0s.6.3,1,.7l2.3,2.3-.6.6-2.3-2.3c-.3-.3-.6-.5-.9-.5s-.5.1-.8.4-.3.4-.4.7c0,.3,0,.5,0,.7,0,.2.3.5.6.8l2,2-.6.6Z"/>
              <path id="ArialMT-6f3" data-name="ArialMT-6f" class="st59" d="M557-100.4c-.7-.7-1-1.4-.9-2.1,0-.6.3-1.1.7-1.6s1.1-.8,1.7-.7c.7,0,1.3.3,1.8.9s.8.9.9,1.3c.1.4.1.8,0,1.2-.1.4-.3.8-.7,1.1-.5.5-1.1.8-1.7.8-.6,0-1.3-.3-1.9-.9ZM557.6-101.1c.5.5.9.7,1.4.7.4,0,.8-.1,1.1-.4s.4-.7.4-1.1c0-.4-.3-.9-.8-1.4s-.9-.7-1.3-.7-.8.1-1.1.4-.5.7-.4,1.1c0,.4.3.9.7,1.4Z"/>
              <path id="ArialMT-744" data-name="ArialMT-74" class="st59" d="M563.8-104.7l.6.5c-.1.2-.3.4-.4.5-.2.2-.4.4-.6.4-.2,0-.4,0-.5,0-.2,0-.4-.3-.8-.7l-2.1-2.1-.5.5-.5-.5.5-.5-.9-.9.2-1,1.3,1.3.6-.6.5.5-.6.6,2.1,2.1c.2.2.3.3.4.3,0,0,.1,0,.2,0,0,0,.2,0,.3-.2s.2-.2.2-.3Z"/>
            </g>
          </g>
        </g>
        <g id="xtick_6">
          <g id="line2d_6">
            <g class="st58">
              <path class="st2" d="M680.8-116.3v-314.1"/>
            </g>
          </g>
          <g id="text_6">
            <g>
              <path id="ArialMT-4d2" data-name="ArialMT-4d" class="st59" d="M626.5-51.3l-5.1-5.1,1-1,4.8,2.4c.4.2.8.4,1,.5-.1-.2-.3-.6-.5-1.1l-2.3-4.7.9-.9,5.1,5.1-.6.6-4.2-4.2,2.8,5.7-.6.6-5.8-2.8,4.3,4.3-.6.6Z"/>
              <path id="ArialMT-653" data-name="ArialMT-65" class="st59" d="M633.6-60.9l.7-.6c.3.5.4,1,.3,1.4,0,.5-.3.9-.7,1.4s-1.1.8-1.8.8c-.6,0-1.3-.3-1.9-.9s-.9-1.3-1-1.9c0-.7.2-1.2.7-1.7s1.1-.7,1.7-.7,1.3.3,1.9.9,0,0,.2.2l-2.7,2.7c.4.4.8.6,1.3.6.4,0,.8-.1,1.1-.4s.4-.5.4-.8c0-.3,0-.6-.2-1ZM630.6-59.8l2-2c-.3-.3-.6-.4-.9-.5-.4,0-.8,0-1.1.4s-.4.6-.4,1,.1.7.4,1.1Z"/>
              <path id="ArialMT-643" data-name="ArialMT-64" class="st59" d="M638.6-63.5l-.5-.5c.1.6,0,1.1-.5,1.6s-.6.5-1,.6-.8,0-1.2-.1c-.4-.2-.8-.4-1.2-.8s-.6-.8-.8-1.2c-.2-.4-.2-.8-.1-1.2,0-.4.3-.8.6-1.1s.5-.4.7-.4c.3,0,.5,0,.8,0l-1.8-1.8.6-.6,5.1,5.1-.6.6ZM634.8-63.3c.5.5.9.7,1.3.8.4,0,.8,0,1-.4s.4-.6.4-1c0-.4-.3-.8-.7-1.3s-1-.8-1.4-.8c-.4,0-.8,0-1.1.4s-.4.6-.4,1c0,.4.3.9.8,1.3Z"/>
              <path id="ArialMT-693" data-name="ArialMT-69" class="st59" d="M635.8-69.4l-.7-.7.6-.6.7.7-.6.6ZM640.2-65l-3.7-3.7.6-.6,3.7,3.7-.6.6Z"/>
              <path id="ArialMT-754" data-name="ArialMT-75" class="st59" d="M644.1-69l-.5-.5c.1.7,0,1.3-.5,1.8s-.5.4-.7.5c-.3.1-.5.1-.7.1-.2,0-.4-.1-.7-.3-.1,0-.4-.3-.6-.5l-2.3-2.3.6-.6,2,2c.3.3.6.5.7.6.2.1.4.2.6.1.2,0,.4-.1.6-.3s.3-.4.4-.7c0-.3,0-.5,0-.7,0-.2-.3-.5-.6-.8l-2-2,.6-.6,3.7,3.7-.6.6Z"/>
              <path id="ArialMT-6d3" data-name="ArialMT-6d" class="st59" d="M645.7-70.5l-3.7-3.7.6-.6.5.5c0-.3,0-.6,0-.9,0-.3.2-.6.5-.8s.6-.4.8-.5.6,0,.8.1c-.1-.7,0-1.3.5-1.8s.7-.5,1.1-.5c.4,0,.8.2,1.2.6l2.5,2.5-.6.6-2.3-2.3c-.2-.2-.4-.4-.6-.5-.1,0-.3,0-.5,0-.2,0-.3.1-.5.3-.3.3-.4.6-.4.9,0,.3.2.7.6,1.1l2.1,2.1-.6.6-2.4-2.4c-.3-.3-.5-.4-.8-.5-.2,0-.5,0-.7.3s-.3.4-.3.6c0,.2,0,.5,0,.7.1.2.3.5.7.9l1.9,1.9-.6.6Z"/>
              <path id="ArialMT-205" data-name="ArialMT-20" class="st59" d="M651.1-76"/>
              <path id="ArialMT-63" class="st59" d="M654.6-82.1l.7-.5c.4.5.5,1,.5,1.5,0,.5-.3,1-.7,1.4s-1.1.7-1.7.7c-.6,0-1.3-.3-1.9-1s-.7-.8-.8-1.2c-.2-.4-.2-.9,0-1.3.1-.4.3-.8.7-1.1s.8-.6,1.3-.7c.5,0,.9,0,1.3.4l-.5.7c-.3-.2-.6-.3-.9-.2-.3,0-.5.1-.7.3-.3.3-.5.7-.4,1.1,0,.4.3.9.8,1.4s.9.8,1.4.8c.4,0,.8-.1,1.1-.4s.4-.5.4-.8c0-.3-.1-.6-.4-1Z"/>
              <path id="ArialMT-6c4" data-name="ArialMT-6c" class="st59" d="M657-81.9l-5.1-5.1.6-.6,5.1,5.1-.6.6Z"/>
              <path id="ArialMT-6f4" data-name="ArialMT-6f" class="st59" d="M656.6-85.1c-.7-.7-1-1.4-.9-2.1,0-.6.3-1.1.7-1.6s1.1-.8,1.7-.7c.7,0,1.3.3,1.8.9s.8.9.9,1.3c.1.4.1.8,0,1.2-.1.4-.3.8-.7,1.1-.5.5-1.1.8-1.7.8-.6,0-1.3-.3-1.9-.9ZM657.2-85.7c.5.5.9.7,1.4.7.4,0,.8-.1,1.1-.4s.4-.7.4-1.1c0-.4-.3-.9-.8-1.4s-.9-.7-1.3-.7-.8.1-1.1.4-.5.7-.4,1.1c0,.4.3.9.7,1.4Z"/>
              <path id="ArialMT-734" data-name="ArialMT-73" class="st59" d="M661.2-88.3l.5-.7c.3.2.6.3.9.3.3,0,.6-.2.9-.5s.4-.6.5-.8c0-.3,0-.5-.2-.6s-.3-.2-.5-.1c-.1,0-.4.2-.8.4-.6.3-1,.6-1.2.6s-.5.1-.7,0c-.2,0-.4-.2-.6-.4s-.3-.4-.3-.6c0-.2,0-.4,0-.7,0-.2,0-.4.2-.6.1-.2.3-.4.5-.6.3-.3.6-.5.9-.6.3-.1.6-.2.8-.1.2,0,.5.2.8.4l-.5.7c-.2-.2-.4-.2-.7-.2-.2,0-.5.2-.7.4s-.4.5-.5.8c0,.2,0,.4.1.5s.2.1.3.1c.1,0,.3,0,.4,0,0,0,.3-.2.7-.4.6-.3,1-.5,1.2-.6.2,0,.5-.1.7,0,.2,0,.5.2.7.4s.3.5.4.8c0,.3,0,.6,0,.9-.1.3-.3.6-.6.9-.5.5-.9.7-1.4.8-.4,0-.9,0-1.4-.4Z"/>
              <path id="ArialMT-654" data-name="ArialMT-65" class="st59" d="M667.4-94.7l.7-.6c.3.5.4,1,.3,1.4,0,.5-.3.9-.7,1.4s-1.1.8-1.8.8c-.6,0-1.3-.3-1.9-.9s-.9-1.3-1-1.9c0-.7.2-1.2.7-1.7s1.1-.7,1.7-.7,1.3.3,1.9.9,0,0,.2.2l-2.7,2.7c.4.4.8.6,1.3.6.4,0,.8-.1,1.1-.4s.4-.5.4-.8c0-.3,0-.6-.2-1ZM664.4-93.6l2-2c-.3-.3-.6-.4-.9-.5-.4,0-.8,0-1.1.4s-.4.6-.4,1,.1.7.4,1.1Z"/>
              <path id="ArialMT-206" data-name="ArialMT-20" class="st59" d="M669.6-94.4"/>
              <path id="ArialMT-755" data-name="ArialMT-75" class="st59" d="M674.4-99.3l-.5-.5c.1.7,0,1.3-.5,1.8s-.5.4-.7.5c-.3.1-.5.1-.7.1-.2,0-.4-.1-.7-.3-.1,0-.4-.3-.6-.5l-2.3-2.3.6-.6,2,2c.3.3.6.5.7.6.2.1.4.2.6.1.2,0,.4-.1.6-.3s.3-.4.4-.7c0-.3,0-.5,0-.7,0-.2-.3-.5-.6-.8l-2-2,.6-.6,3.7,3.7-.6.6Z"/>
              <path id="ArialMT-701" data-name="ArialMT-70" class="st59" d="M677.3-99.4l-5.1-5.1.6-.6.5.5c0-.3,0-.6,0-.9,0-.3.2-.5.5-.8s.7-.5,1.1-.6.8,0,1.2.1c.4.2.8.4,1.1.8s.6.8.8,1.2c.2.4.2.9.1,1.3,0,.4-.3.8-.6,1s-.4.3-.7.4c-.3,0-.5.1-.7,0l1.8,1.8-.6.6ZM674.7-103.2c.5.5.9.7,1.3.8.4,0,.8,0,1-.4s.4-.6.4-1.1c0-.4-.3-.9-.8-1.4s-.9-.7-1.3-.8c-.4,0-.8,0-1,.3s-.4.6-.3,1.1c0,.5.3.9.8,1.4Z"/>
            </g>
          </g>
        </g>
        <g id="xtick_7">
          <g id="line2d_7">
            <g class="st55">
              <path class="st2" d="M795.7-116.3v-314.1"/>
            </g>
          </g>
          <g id="text_7">
            <g>
              <path id="ArialMT-43" class="st59" d="M768.8-82.2l.8-.5c.4.7.6,1.4.5,2,0,.7-.4,1.2-.9,1.8s-1.1.9-1.7,1c-.6.1-1.1,0-1.7-.2-.6-.2-1.1-.6-1.6-1.1s-.9-1.1-1.1-1.7c-.2-.6-.2-1.2,0-1.8.2-.6.5-1.1.9-1.5s1.1-.8,1.7-.9c.6,0,1.2,0,1.8.4l-.5.8c-.5-.3-.9-.3-1.3-.3-.4,0-.8.3-1.1.6s-.6.8-.7,1.3c0,.4,0,.9.2,1.3.2.4.5.8.8,1.1s.9.7,1.3.9c.4.2.9.2,1.3.1.4-.1.8-.3,1.1-.6s.6-.8.6-1.3c0-.5-.1-1-.4-1.5Z"/>
              <path id="ArialMT-6c5" data-name="ArialMT-6c" class="st59" d="M772-81.8l-5.1-5.1.6-.6,5.1,5.1-.6.6Z"/>
              <path id="ArialMT-6f5" data-name="ArialMT-6f" class="st59" d="M771.5-85c-.7-.7-1-1.4-.9-2.1,0-.6.3-1.1.7-1.6s1.1-.8,1.7-.7c.7,0,1.3.3,1.8.9s.8.9.9,1.3c.1.4.1.8,0,1.2-.1.4-.3.8-.7,1.1-.5.5-1.1.8-1.7.8-.6,0-1.3-.3-1.9-.9ZM772.1-85.6c.5.5.9.7,1.4.7.4,0,.8-.1,1.1-.4s.4-.7.4-1.1c0-.4-.3-.9-.8-1.4s-.9-.7-1.3-.7-.8.1-1.1.4-.5.7-.4,1.1c0,.4.3.9.7,1.4Z"/>
              <path id="ArialMT-735" data-name="ArialMT-73" class="st59" d="M776.2-88.2l.5-.7c.3.2.6.3.9.3.3,0,.6-.2.9-.5s.4-.6.5-.8c0-.3,0-.5-.2-.6s-.3-.2-.5-.1c-.1,0-.4.2-.8.4-.6.3-1,.6-1.2.6s-.5.1-.7,0c-.2,0-.4-.2-.6-.4s-.3-.4-.3-.6c0-.2,0-.4,0-.7,0-.2,0-.4.2-.6.1-.2.3-.4.5-.6.3-.3.6-.5.9-.6.3-.1.6-.2.8-.1.2,0,.5.2.8.4l-.5.7c-.2-.2-.4-.2-.7-.2-.2,0-.5.2-.7.4s-.4.5-.5.8c0,.2,0,.4.1.5s.2.1.3.1c.1,0,.3,0,.4,0,0,0,.3-.2.7-.4.6-.3,1-.5,1.2-.6.2,0,.5-.1.7,0,.2,0,.5.2.7.4s.3.5.4.8c0,.3,0,.6,0,.9-.1.3-.3.6-.6.9-.5.5-.9.7-1.4.8-.4,0-.9,0-1.4-.4Z"/>
              <path id="ArialMT-655" data-name="ArialMT-65" class="st59" d="M782.4-94.6l.7-.6c.3.5.4,1,.3,1.4,0,.5-.3.9-.7,1.4s-1.1.8-1.8.8c-.6,0-1.3-.3-1.9-.9s-.9-1.3-1-1.9c0-.7.2-1.2.7-1.7s1.1-.7,1.7-.7,1.3.3,1.9.9,0,0,.2.2l-2.7,2.7c.4.4.8.6,1.3.6.4,0,.8-.1,1.1-.4s.4-.5.4-.8c0-.3,0-.6-.2-1ZM779.3-93.5l2-2c-.3-.3-.6-.4-.9-.5-.4,0-.8,0-1.1.4s-.4.6-.4,1,.1.7.4,1.1Z"/>
              <path id="ArialMT-207" data-name="ArialMT-20" class="st59" d="M784.5-94.3"/>
              <path id="ArialMT-756" data-name="ArialMT-75" class="st59" d="M789.3-99.2l-.5-.5c.1.7,0,1.3-.5,1.8s-.5.4-.7.5c-.3.1-.5.1-.7.1-.2,0-.4-.1-.7-.3-.1,0-.4-.3-.6-.5l-2.3-2.3.6-.6,2,2c.3.3.6.5.7.6.2.1.4.2.6.1.2,0,.4-.1.6-.3s.3-.4.4-.7c0-.3,0-.5,0-.7,0-.2-.3-.5-.6-.8l-2-2,.6-.6,3.7,3.7-.6.6Z"/>
              <path id="ArialMT-702" data-name="ArialMT-70" class="st59" d="M792.3-99.3l-5.1-5.1.6-.6.5.5c0-.3,0-.6,0-.9,0-.3.2-.5.5-.8s.7-.5,1.1-.6.8,0,1.2.1c.4.2.8.4,1.1.8s.6.8.8,1.2c.2.4.2.9.1,1.3,0,.4-.3.8-.6,1s-.4.3-.7.4c-.3,0-.5.1-.7,0l1.8,1.8-.6.6ZM789.6-103.1c.5.5.9.7,1.3.8.4,0,.8,0,1-.4s.4-.6.4-1.1c0-.4-.3-.9-.8-1.4s-.9-.7-1.3-.8c-.4,0-.8,0-1,.3s-.4.6-.3,1.1c0,.5.3.9.8,1.4Z"/>
            </g>
          </g>
        </g>
        <g id="text_8">
          <g>
            <path id="ArialMT-53" class="st59" d="M427.2-40.5h.9c0,.3.1.6.3.8.2.2.4.4.7.6.3.1.7.2,1.1.2s.7,0,1-.2c.3-.1.5-.3.6-.4.1-.2.2-.4.2-.6s0-.4-.2-.6-.3-.3-.6-.4c-.2,0-.6-.2-1.3-.3-.7-.2-1.1-.3-1.4-.4-.3-.2-.6-.4-.8-.7-.2-.3-.3-.6-.3-.9s.1-.7.3-1c.2-.3.5-.6.9-.7.4-.2.8-.2,1.3-.2s1,0,1.4.3c.4.2.7.4.9.8.2.3.3.7.4,1.1h-.9c0-.4-.2-.7-.5-1-.3-.2-.7-.3-1.2-.3s-1,.1-1.3.3c-.3.2-.4.5-.4.8s0,.5.3.6c.2.2.7.3,1.4.5.8.2,1.3.3,1.6.5.4.2.7.4.9.7.2.3.3.6.3,1s-.1.7-.3,1.1c-.2.3-.5.6-.9.8-.4.2-.9.3-1.4.3s-1.2,0-1.6-.3c-.4-.2-.8-.5-1-.9-.2-.4-.4-.8-.4-1.3Z"/>
            <path id="ArialMT-684" data-name="ArialMT-68" class="st59" d="M434.1-38.2v-7.2h.9v2.6c.4-.5.9-.7,1.6-.7s.7,0,1,.2c.3.2.5.4.6.6s.2.7.2,1.2v3.3h-.9v-3.3c0-.4,0-.8-.3-1s-.5-.3-.8-.3-.5,0-.7.2c-.2.1-.4.3-.5.5,0,.2-.1.6-.1,1v2.8h-.9Z"/>
            <path id="ArialMT-6f6" data-name="ArialMT-6f" class="st59" d="M439.3-40.8c0-1,.3-1.7.8-2.1.4-.4,1-.6,1.6-.6s1.3.2,1.7.7c.5.5.7,1.1.7,1.9s-.1,1.2-.3,1.6c-.2.4-.5.7-.9.9-.4.2-.8.3-1.3.3-.7,0-1.3-.2-1.8-.7-.4-.5-.7-1.1-.7-2ZM440.2-40.8c0,.7.1,1.2.4,1.5.3.3.7.5,1.1.5s.8-.2,1.1-.5c.3-.3.4-.8.4-1.5s-.1-1.1-.4-1.5-.7-.5-1.1-.5-.8.2-1.1.5c-.3.3-.4.8-.4,1.5Z"/>
            <path id="ArialMT-745" data-name="ArialMT-74" class="st59" d="M447.1-39v.8c-.1,0-.3,0-.5,0-.3,0-.6,0-.7-.2-.2-.1-.3-.2-.4-.4,0-.2-.1-.5-.1-1v-3h-.6v-.7h.6v-1.3l.9-.5v1.8h.9v.7h-.9v3c0,.3,0,.4,0,.5,0,0,0,.1.2.2,0,0,.2,0,.3,0s.2,0,.4,0Z"/>
            <path id="ArialMT-208" data-name="ArialMT-20" class="st59" d="M447.3-38.2"/>
            <path id="ArialMT-531" data-name="ArialMT-53" class="st59" d="M450.5-40.5h.9c0,.3.1.6.3.8.2.2.4.4.7.6.3.1.7.2,1.1.2s.7,0,1-.2c.3-.1.5-.3.6-.4.1-.2.2-.4.2-.6s0-.4-.2-.6-.3-.3-.6-.4c-.2,0-.6-.2-1.3-.3-.7-.2-1.1-.3-1.4-.4-.3-.2-.6-.4-.8-.7-.2-.3-.3-.6-.3-.9s.1-.7.3-1c.2-.3.5-.6.9-.7.4-.2.8-.2,1.3-.2s1,0,1.4.3c.4.2.7.4.9.8.2.3.3.7.4,1.1h-.9c0-.4-.2-.7-.5-1-.3-.2-.7-.3-1.2-.3s-1,.1-1.3.3c-.3.2-.4.5-.4.8s0,.5.3.6c.2.2.7.3,1.4.5.8.2,1.3.3,1.6.5.4.2.7.4.9.7.2.3.3.6.3,1s-.1.7-.3,1.1c-.2.3-.5.6-.9.8-.4.2-.9.3-1.4.3s-1.2,0-1.6-.3c-.4-.2-.8-.5-1-.9-.2-.4-.4-.8-.4-1.3Z"/>
            <path id="ArialMT-631" data-name="ArialMT-63" class="st59" d="M460.8-40.1h.9c0,.7-.3,1.2-.7,1.5-.4.3-.9.5-1.4.5s-1.3-.2-1.7-.7c-.4-.5-.6-1.1-.6-2s0-1,.3-1.5c.2-.4.5-.7.8-.9.4-.2.8-.3,1.2-.3s1,.1,1.4.4c.4.3.6.7.7,1.2h-.9c0-.2-.2-.5-.4-.7-.2-.2-.5-.3-.8-.3-.4,0-.8.2-1.1.5-.3.3-.4.8-.4,1.5s.1,1.2.4,1.5c.3.3.6.5,1,.5s.6-.1.9-.3c.2-.2.4-.5.4-1Z"/>
            <path id="ArialMT-61" class="st59" d="M465.8-38.9c-.3.3-.6.5-.9.6-.3.1-.6.2-1,.2-.6,0-1-.1-1.3-.4s-.5-.6-.5-1.1,0-.5.2-.7c.1-.2.3-.4.5-.5s.4-.2.6-.3c.2,0,.4,0,.8-.1.7,0,1.2-.2,1.6-.3,0-.1,0-.2,0-.2,0-.4,0-.6-.3-.8-.2-.2-.6-.3-1-.3s-.7,0-.9.2-.3.4-.4.8h-.9c0-.5.2-.8.4-1,.2-.2.4-.4.8-.5.3-.1.7-.2,1.2-.2s.8,0,1.1.2c.3.1.5.2.6.4.1.2.2.4.3.6,0,.1,0,.4,0,.8v1.2c0,.8,0,1.3,0,1.6,0,.2.1.4.2.6h-.9c0-.2-.1-.4-.2-.6ZM465.7-40.8c-.3.1-.8.2-1.4.3-.4,0-.6.1-.8.2-.1,0-.3.2-.3.3,0,.1-.1.3-.1.4,0,.2,0,.4.3.6.2.2.4.2.8.2s.6,0,.9-.2c.3-.1.5-.4.6-.6,0-.2.1-.5.1-.9v-.3Z"/>
            <path id="ArialMT-6c6" data-name="ArialMT-6c" class="st59" d="M467.9-38.2v-7.2h.9v7.2h-.9Z"/>
            <path id="ArialMT-656" data-name="ArialMT-65" class="st59" d="M473.7-39.9h.9c-.1.6-.4,1.1-.8,1.3-.4.3-.9.4-1.5.4s-1.4-.2-1.8-.7c-.4-.5-.7-1.1-.7-2s.2-1.6.7-2c.5-.5,1-.7,1.7-.7s1.3.2,1.7.7.7,1.1.7,2,0,.1,0,.2h-3.9c0,.6.2,1,.5,1.3.3.3.7.5,1.1.5s.6,0,.8-.3c.2-.2.4-.4.5-.8ZM470.9-41.3h2.9c0-.4-.1-.8-.3-1-.3-.3-.6-.5-1.1-.5s-.7.1-1,.4-.4.6-.5,1.1Z"/>
          </g>
        </g>
      </g>
      <g id="matplotlib.axis_2">
        <g id="ytick_1">
          <g id="line2d_8">
            <g class="st54">
              <path class="st2" d="M48.6-116.3h804.6"/>
            </g>
          </g>
          <g id="text_9">
            <path id="ArialMT-30" class="st59" d="M36.5-116.3c0-.8,0-1.5.3-2,.2-.5.4-.9.8-1.2.3-.3.8-.4,1.3-.4s.7,0,1,.2c.3.2.5.4.7.7.2.3.3.6.4,1.1.1.4.2,1,.2,1.7s0,1.5-.3,2c-.2.5-.4.9-.8,1.2-.3.3-.8.4-1.3.4s-1.2-.2-1.6-.7c-.5-.6-.7-1.6-.7-2.9ZM37.4-116.3c0,1.2.1,2,.4,2.3.3.4.6.6,1,.6s.7-.2,1-.6.4-1.2.4-2.3-.1-2-.4-2.3c-.3-.4-.6-.6-1-.6s-.7.2-1,.5c-.3.4-.5,1.2-.5,2.4Z"/>
          </g>
        </g>
        <g id="ytick_2">
          <g id="line2d_9">
            <g class="st57">
              <path class="st2" d="M48.6-180.4h804.6"/>
            </g>
          </g>
          <g id="text_10">
            <g>
              <path id="ArialMT-31" class="st59" d="M28.7-176.8h-.9v-5.6c-.2.2-.5.4-.8.6s-.7.4-.9.5v-.9c.5-.2.9-.5,1.3-.8.4-.3.6-.6.8-1h.6v7.2Z"/>
              <path id="ArialMT-301" data-name="ArialMT-30" class="st59" d="M30.9-180.3c0-.8,0-1.5.3-2,.2-.5.4-.9.8-1.2.3-.3.8-.4,1.3-.4s.7,0,1,.2c.3.2.5.4.7.7.2.3.3.6.4,1.1.1.4.2,1,.2,1.7s0,1.5-.3,2c-.2.5-.4.9-.8,1.2-.3.3-.8.4-1.3.4s-1.2-.2-1.6-.7c-.5-.6-.7-1.6-.7-2.9ZM31.8-180.3c0,1.2.1,2,.4,2.3.3.4.6.6,1,.6s.7-.2,1-.6.4-1.2.4-2.3-.1-2-.4-2.3c-.3-.4-.6-.6-1-.6s-.7.2-1,.5c-.3.4-.5,1.2-.5,2.4Z"/>
              <path id="ArialMT-302" data-name="ArialMT-30" class="st59" d="M36.5-180.3c0-.8,0-1.5.3-2,.2-.5.4-.9.8-1.2.3-.3.8-.4,1.3-.4s.7,0,1,.2c.3.2.5.4.7.7.2.3.3.6.4,1.1.1.4.2,1,.2,1.7s0,1.5-.3,2c-.2.5-.4.9-.8,1.2-.3.3-.8.4-1.3.4s-1.2-.2-1.6-.7c-.5-.6-.7-1.6-.7-2.9ZM37.4-180.3c0,1.2.1,2,.4,2.3.3.4.6.6,1,.6s.7-.2,1-.6.4-1.2.4-2.3-.1-2-.4-2.3c-.3-.4-.6-.6-1-.6s-.7.2-1,.5c-.3.4-.5,1.2-.5,2.4Z"/>
            </g>
          </g>
        </g>
        <g id="ytick_3">
          <g id="line2d_10">
            <g class="st56">
              <path class="st2" d="M48.6-244.4h804.6"/>
            </g>
          </g>
          <g id="text_11">
            <g>
              <path id="ArialMT-32" class="st59" d="M30-241.7v.8h-4.7c0-.2,0-.4.1-.6.1-.3.3-.6.6-1,.3-.3.6-.7,1.2-1.1.8-.6,1.3-1.1,1.6-1.5.3-.4.4-.7.4-1.1s-.1-.6-.4-.9c-.2-.2-.6-.4-1-.4s-.8.1-1,.4c-.3.3-.4.6-.4,1.1h-.9c0-.8.3-1.3.7-1.6.4-.4.9-.5,1.6-.5s1.2.2,1.6.6c.4.4.6.9.6,1.4s0,.6-.2.8c-.1.3-.3.6-.6.9s-.7.7-1.4,1.3c-.5.4-.9.7-1,.9-.1.2-.3.3-.4.5h3.5Z"/>
              <path id="ArialMT-303" data-name="ArialMT-30" class="st59" d="M30.9-244.4c0-.8,0-1.5.3-2,.2-.5.4-.9.8-1.2.3-.3.8-.4,1.3-.4s.7,0,1,.2c.3.2.5.4.7.7.2.3.3.6.4,1.1.1.4.2,1,.2,1.7s0,1.5-.3,2c-.2.5-.4.9-.8,1.2-.3.3-.8.4-1.3.4s-1.2-.2-1.6-.7c-.5-.6-.7-1.6-.7-2.9ZM31.8-244.4c0,1.2.1,2,.4,2.3.3.4.6.6,1,.6s.7-.2,1-.6.4-1.2.4-2.3-.1-2-.4-2.3c-.3-.4-.6-.6-1-.6s-.7.2-1,.5c-.3.4-.5,1.2-.5,2.4Z"/>
              <path id="ArialMT-304" data-name="ArialMT-30" class="st59" d="M36.5-244.4c0-.8,0-1.5.3-2,.2-.5.4-.9.8-1.2.3-.3.8-.4,1.3-.4s.7,0,1,.2c.3.2.5.4.7.7.2.3.3.6.4,1.1.1.4.2,1,.2,1.7s0,1.5-.3,2c-.2.5-.4.9-.8,1.2-.3.3-.8.4-1.3.4s-1.2-.2-1.6-.7c-.5-.6-.7-1.6-.7-2.9ZM37.4-244.4c0,1.2.1,2,.4,2.3.3.4.6.6,1,.6s.7-.2,1-.6.4-1.2.4-2.3-.1-2-.4-2.3c-.3-.4-.6-.6-1-.6s-.7.2-1,.5c-.3.4-.5,1.2-.5,2.4Z"/>
            </g>
          </g>
        </g>
        <g id="ytick_4">
          <g id="line2d_11">
            <g class="st12">
              <path class="st2" d="M48.6-308.5h804.6"/>
            </g>
          </g>
          <g id="text_12">
            <g>
              <path id="ArialMT-33" class="st59" d="M25.4-306.8h.9c.1.4.3.7.5,1,.2.2.5.3.9.3s.8-.1,1-.4c.3-.3.4-.6.4-1.1s-.1-.7-.4-1c-.3-.3-.6-.4-1-.4s-.4,0-.6,0v-.8c.2,0,.2,0,.2,0,.4,0,.7,0,1-.3.3-.2.5-.5.5-.9s-.1-.6-.3-.8c-.2-.2-.5-.3-.8-.3s-.6.1-.9.3c-.2.2-.4.5-.4,1l-.9-.2c.1-.6.4-1,.7-1.4.4-.3.9-.5,1.4-.5s.8,0,1.1.3c.3.2.6.4.8.7.2.3.3.6.3.9s0,.6-.3.8c-.2.3-.4.5-.7.6.4,0,.8.3,1,.6.2.3.4.7.4,1.2s-.2,1.2-.7,1.6c-.5.4-1,.7-1.7.7s-1.2-.2-1.6-.6c-.4-.4-.7-.9-.7-1.5Z"/>
              <path id="ArialMT-305" data-name="ArialMT-30" class="st59" d="M30.9-308.4c0-.8,0-1.5.3-2,.2-.5.4-.9.8-1.2.3-.3.8-.4,1.3-.4s.7,0,1,.2c.3.2.5.4.7.7.2.3.3.6.4,1.1.1.4.2,1,.2,1.7s0,1.5-.3,2c-.2.5-.4.9-.8,1.2-.3.3-.8.4-1.3.4s-1.2-.2-1.6-.7c-.5-.6-.7-1.6-.7-2.9ZM31.8-308.4c0,1.2.1,2,.4,2.3.3.4.6.6,1,.6s.7-.2,1-.6.4-1.2.4-2.3-.1-2-.4-2.3c-.3-.4-.6-.6-1-.6s-.7.2-1,.5c-.3.4-.5,1.2-.5,2.4Z"/>
              <path id="ArialMT-306" data-name="ArialMT-30" class="st59" d="M36.5-308.4c0-.8,0-1.5.3-2,.2-.5.4-.9.8-1.2.3-.3.8-.4,1.3-.4s.7,0,1,.2c.3.2.5.4.7.7.2.3.3.6.4,1.1.1.4.2,1,.2,1.7s0,1.5-.3,2c-.2.5-.4.9-.8,1.2-.3.3-.8.4-1.3.4s-1.2-.2-1.6-.7c-.5-.6-.7-1.6-.7-2.9ZM37.4-308.4c0,1.2.1,2,.4,2.3.3.4.6.6,1,.6s.7-.2,1-.6.4-1.2.4-2.3-.1-2-.4-2.3c-.3-.4-.6-.6-1-.6s-.7.2-1,.5c-.3.4-.5,1.2-.5,2.4Z"/>
            </g>
          </g>
        </g>
        <g id="ytick_5">
          <g id="line2d_12">
            <g class="st9">
              <path class="st2" d="M48.6-372.5h804.6"/>
            </g>
          </g>
          <g id="text_13">
            <g>
              <path id="ArialMT-34" class="st59" d="M28.2-369v-1.7h-3.1v-.8l3.3-4.6h.7v4.6h1v.8h-1v1.7h-.9ZM28.2-371.5v-3.2l-2.2,3.2h2.2Z"/>
              <path id="ArialMT-307" data-name="ArialMT-30" class="st59" d="M30.9-372.5c0-.8,0-1.5.3-2,.2-.5.4-.9.8-1.2.3-.3.8-.4,1.3-.4s.7,0,1,.2c.3.2.5.4.7.7.2.3.3.6.4,1.1.1.4.2,1,.2,1.7s0,1.5-.3,2c-.2.5-.4.9-.8,1.2-.3.3-.8.4-1.3.4s-1.2-.2-1.6-.7c-.5-.6-.7-1.6-.7-2.9ZM31.8-372.5c0,1.2.1,2,.4,2.3.3.4.6.6,1,.6s.7-.2,1-.6.4-1.2.4-2.3-.1-2-.4-2.3c-.3-.4-.6-.6-1-.6s-.7.2-1,.5c-.3.4-.5,1.2-.5,2.4Z"/>
              <path id="ArialMT-308" data-name="ArialMT-30" class="st59" d="M36.5-372.5c0-.8,0-1.5.3-2,.2-.5.4-.9.8-1.2.3-.3.8-.4,1.3-.4s.7,0,1,.2c.3.2.5.4.7.7.2.3.3.6.4,1.1.1.4.2,1,.2,1.7s0,1.5-.3,2c-.2.5-.4.9-.8,1.2-.3.3-.8.4-1.3.4s-1.2-.2-1.6-.7c-.5-.6-.7-1.6-.7-2.9ZM37.4-372.5c0,1.2.1,2,.4,2.3.3.4.6.6,1,.6s.7-.2,1-.6.4-1.2.4-2.3-.1-2-.4-2.3c-.3-.4-.6-.6-1-.6s-.7.2-1,.5c-.3.4-.5,1.2-.5,2.4Z"/>
            </g>
          </g>
        </g>
        <g id="text_14">
          <g>
            <path id="ArialMT-431" data-name="ArialMT-43" class="st59" d="M16.4-265.9l.2-.9c.8.2,1.4.6,1.8,1.1.4.5.6,1.1.6,1.9s-.2,1.4-.5,1.9c-.3.5-.8.9-1.4,1.1-.6.3-1.2.4-1.9.4s-1.4-.1-2-.4c-.6-.3-1-.7-1.3-1.2-.3-.5-.4-1.1-.4-1.7s.2-1.3.5-1.8c.4-.5.9-.8,1.5-1l.2.9c-.5.2-.9.4-1.1.7-.2.3-.4.7-.4,1.2s.1,1,.4,1.4c.3.4.6.6,1.1.8.4.1.9.2,1.4.2s1.1,0,1.6-.3c.5-.2.8-.5,1-.8.2-.4.3-.8.3-1.2s-.2-1-.5-1.3c-.3-.4-.8-.6-1.4-.7Z"/>
            <path id="ArialMT-6f7" data-name="ArialMT-6f" class="st59" d="M16.4-267.6c-1,0-1.7-.3-2.1-.8-.4-.4-.6-1-.6-1.6s.2-1.3.7-1.7c.5-.5,1.1-.7,1.9-.7s1.2.1,1.6.3c.4.2.7.5.9.9.2.4.3.8.3,1.3,0,.7-.2,1.3-.7,1.8-.5.4-1.1.7-2,.7ZM16.4-268.5c.7,0,1.2-.1,1.5-.4.3-.3.5-.7.5-1.1s-.2-.8-.5-1.1c-.3-.3-.8-.4-1.5-.4s-1.1.1-1.5.4-.5.7-.5,1.1.2.8.5,1.1c.3.3.8.4,1.5.4Z"/>
            <path id="ArialMT-757" data-name="ArialMT-75" class="st59" d="M18.9-276.9h-.8c.6.4.9,1,.9,1.6s0,.6-.2.9c-.1.3-.3.5-.4.6-.2.1-.4.2-.7.3-.2,0-.4,0-.8,0h-3.2v-.9h2.9c.5,0,.8,0,.9,0,.2,0,.4-.2.5-.4.1-.2.2-.4.2-.7s0-.5-.2-.7c-.1-.2-.3-.4-.6-.5-.2,0-.6-.1-1-.1h-2.8v-.9h5.2v.8Z"/>
            <path id="ArialMT-6e" class="st59" d="M18.9-279h-5.2v-.8h.7c-.6-.4-.9-.9-.9-1.7s0-.6.2-.9.3-.5.4-.6.4-.2.6-.3c.2,0,.4,0,.9,0h3.2v.9h-3.2c-.4,0-.6,0-.8.1-.2,0-.3.2-.4.4-.1.2-.2.4-.2.6,0,.4.1.7.4,1s.7.4,1.4.4h2.8v.9Z"/>
            <path id="ArialMT-746" data-name="ArialMT-74" class="st59" d="M18.2-286.5h.8c0,.1,0,.3,0,.5,0,.3,0,.6-.2.7-.1.2-.2.3-.4.4-.2,0-.5.1-1,.1h-3v.6h-.7v-.6h-1.3l-.5-.9h1.8v-.9h.7v.9h3c.3,0,.4,0,.5,0,0,0,.1,0,.2-.2,0,0,0-.2,0-.3s0-.2,0-.4Z"/>
          </g>
        </g>
      </g>
      <g id="patch_3">
        <g class="st16">
          <path class="st61" d="M77.4-116.3h28.7v-221h-28.7V-116.3Z"/>
        </g>
      </g>
      <g id="patch_4">
        <g class="st14">
          <path class="st61" d="M192.3-116.3h28.7v-64.1h-28.7v64.1Z"/>
        </g>
      </g>
      <g id="patch_5">
        <g class="st15">
          <path class="st61" d="M307.2-116.3h28.7v-48h-28.7v48Z"/>
        </g>
      </g>
      <g id="patch_6">
        <g class="st13">
          <path class="st61" d="M422.2-116.3h28.7v-110.8h-28.7v110.8Z"/>
        </g>
      </g>
      <g id="patch_7">
        <g class="st10">
          <path class="st61" d="M537.1-116.3h28.7v-299.1h-28.7V-116.3Z"/>
        </g>
      </g>
      <g id="patch_8">
        <g class="st7">
          <path class="st61" d="M652.1-116.3h28.7v-152.5h-28.7V-116.3Z"/>
        </g>
      </g>
      <g id="patch_9">
        <g class="st11">
          <path class="st61" d="M767-116.3h28.7v-25h-28.7v25Z"/>
        </g>
      </g>
      <g id="patch_10">
        <g class="st8">
          <path class="st3" d="M106.1-116.3h28.7v-208.2h-28.7V-116.3Z"/>
        </g>
      </g>
      <g id="patch_11">
        <g class="st34">
          <path class="st3" d="M221-116.3h28.7v-90.3h-28.7v90.3Z"/>
        </g>
      </g>
      <g id="patch_12">
        <g class="st35">
          <path class="st3" d="M336-116.3h28.7v-25.6h-28.7v25.6Z"/>
        </g>
      </g>
      <g id="patch_13">
        <g class="st36">
          <path class="st3" d="M450.9-116.3h28.7v-140.9h-28.7V-116.3Z"/>
        </g>
      </g>
      <g id="patch_14">
        <g class="st37">
          <path class="st3" d="M565.8-116.3h28.7v-255.6h-28.7V-116.3Z"/>
        </g>
      </g>
      <g id="patch_15">
        <g class="st38">
          <path class="st3" d="M680.8-116.3h28.7v-183.2h-28.7V-116.3Z"/>
        </g>
      </g>
      <g id="patch_16">
        <g class="st39">
          <path class="st3" d="M795.7-116.3h28.7v-16.7h-28.7v16.7Z"/>
        </g>
      </g>
      <g id="patch_17">
        <path class="st1" d="M48.6-116.3v-314.1"/>
      </g>
      <g id="patch_18">
        <path class="st1" d="M853.2-116.3v-314.1"/>
      </g>
      <g id="patch_19">
        <path class="st1" d="M48.6-116.3h804.6"/>
      </g>
      <g id="patch_20">
        <path class="st1" d="M48.6-430.4h804.6"/>
      </g>
    </g>
  </g>
  <text class="st60" transform="translate(274.3 -437.1)"><tspan x="0" y="0">Distribution of Shot Scale Labels between Human Annotators</tspan></text>
  <text class="st60" transform="translate(161.3 15.4)"><tspan x="0" y="0">Distribution of Shot Scale Labels between Primary Coder and Classification through Pose Estimation</tspan></text>
  <g>
    <g id="legend_1">
      <g id="patch_21">
        <path class="st5" d="M729.7-394.5h115.6c1.6,0,2.5-.7,2.5-2v-27.3c0-1.3-.8-2-2.5-2h-115.6c-1.6,0-2.5.7-2.5,2v27.3c0,1.3.8,2,2.5,2Z"/>
      </g>
      <g id="patch_22">
        <path class="st61" d="M731.3-414.6h20v-7h-20v7Z"/>
      </g>
      <g id="patch_23">
        <path class="st3" d="M731.3-400.5h20v-7h-20v7Z"/>
      </g>
    </g>
    <text class="st4" transform="translate(756.7 -400.1)"><tspan x="0" y="0">Secondary Coder</tspan></text>
    <text class="st4" transform="translate(756.7 -414.3)"><tspan x="0" y="0">Primary Coder</tspan></text>
  </g>
  <g id="axes_11" data-name="axes_1">
    <g id="patch_21" data-name="patch_2">
      <path class="st6" d="M52.7,351.6h804.6V22.8H52.7v328.8Z"/>
    </g>
    <g id="matplotlib.axis_11" data-name="matplotlib.axis_1">
      <g id="xtick_11" data-name="xtick_1">
        <g id="line2d_11" data-name="line2d_1">
          <g class="st32">
            <path class="st2" d="M110.2,351.6V22.8"/>
          </g>
        </g>
        <g id="text_11" data-name="text_1">
          <g>
            <path id="ArialMT-451" data-name="ArialMT-45" class="st59" d="M89.2,383.1l-5.1-5.1,3.7-3.7.6.6-3,3,1.6,1.6,2.8-2.8.6.6-2.8,2.8,1.7,1.7,3.1-3.1.6.6-3.8,3.8Z"/>
            <path id="ArialMT-6d4" data-name="ArialMT-6d" class="st59" d="M93.8,378.5l-3.7-3.7.6-.6.5.5c0-.3,0-.6,0-.9,0-.3.2-.6.5-.8s.6-.4.8-.5.6,0,.8.1c-.1-.7,0-1.3.5-1.8s.7-.5,1.1-.5c.4,0,.8.2,1.2.6l2.5,2.5-.6.6-2.3-2.3c-.2-.2-.4-.4-.6-.5-.1,0-.3,0-.5,0-.2,0-.3.1-.5.3-.3.3-.4.6-.4.9,0,.3.2.7.6,1.1l2.1,2.1-.6.6-2.4-2.4c-.3-.3-.5-.4-.8-.5-.2,0-.5,0-.7.3s-.3.4-.3.6c0,.2,0,.5,0,.7.1.2.3.5.7.9l1.9,1.9-.6.6Z"/>
            <path id="ArialMT-703" data-name="ArialMT-70" class="st59" d="M101.1,374l-5.1-5.1.6-.6.5.5c0-.3,0-.6,0-.9,0-.3.2-.5.5-.8s.7-.5,1.1-.6.8,0,1.2.1c.4.2.8.4,1.1.8s.6.8.8,1.2c.2.4.2.9.1,1.3,0,.4-.3.8-.6,1s-.4.3-.7.4c-.3,0-.5.1-.7,0l1.8,1.8-.6.6ZM98.4,370.2c.5.5.9.7,1.3.8.4,0,.8,0,1-.4s.4-.6.4-1.1c0-.4-.3-.9-.8-1.4s-.9-.7-1.3-.8c-.4,0-.8,0-1,.3s-.4.6-.3,1.1c0,.5.3.9.8,1.4Z"/>
            <path id="ArialMT-747" data-name="ArialMT-74" class="st59" d="M104.4,366.8l.6.5c-.1.2-.3.4-.4.5-.2.2-.4.4-.6.4-.2,0-.4,0-.5,0-.2,0-.4-.3-.8-.7l-2.1-2.1-.5.5-.5-.5.5-.5-.9-.9.2-1,1.3,1.3.6-.6.5.5-.6.6,2.1,2.1c.2.2.3.3.4.3,0,0,.1,0,.2,0,0,0,.2,0,.3-.2s.2-.2.2-.3Z"/>
            <path id="ArialMT-791" data-name="ArialMT-79" class="st59" d="M107,368.1l-.7-.5c.2,0,.3-.2.4-.3s.2-.3.3-.4c0-.1,0-.3,0-.4,0-.1-.1-.3-.3-.7,0,0,0-.1,0-.2l-5.1-2.3.7-.7,2.9,1.4c.4.2.7.4,1.1.6-.2-.4-.4-.7-.6-1.1l-1.4-2.9.6-.6,2.3,5.1c.3.6.4.9.5,1.2,0,.3.1.6,0,.8,0,.2-.2.5-.4.7s-.3.2-.5.3Z"/>
          </g>
        </g>
      </g>
      <g id="xtick_21" data-name="xtick_2">
        <g id="line2d_21" data-name="line2d_2">
          <g class="st30">
            <path class="st2" d="M225.1,351.6V22.8"/>
          </g>
        </g>
        <g id="text_21" data-name="text_2">
          <g>
            <path id="ArialMT-571" data-name="ArialMT-57" class="st59" d="M193.7,393.6l-6.4-3.7.7-.7,4.1,2.5c.4.3.8.5,1.2.8-.4-.7-.6-1.1-.7-1.2l-2.5-4.4.8-.8,3.3,1.8c.8.5,1.5.9,2.2,1.4-.3-.4-.5-.8-.8-1.4l-2.5-4,.7-.7,3.7,6.4-.6.6-4.9-2.8c-.4-.2-.7-.4-.8-.4.2.3.3.5.4.7l2.8,4.9-.7.7Z"/>
            <path id="ArialMT-694" data-name="ArialMT-69" class="st59" d="M195,383.6l-.7-.7.6-.6.7.7-.6.6ZM199.4,387.9l-3.7-3.7.6-.6,3.7,3.7-.6.6Z"/>
            <path id="ArialMT-644" data-name="ArialMT-64" class="st59" d="M203.3,384l-.5-.5c.1.6,0,1.1-.5,1.6s-.6.5-1,.6-.8,0-1.2-.1c-.4-.2-.8-.4-1.2-.8s-.6-.8-.8-1.2c-.2-.4-.2-.8-.1-1.2,0-.4.3-.8.6-1.1s.5-.4.7-.4c.3,0,.5,0,.8,0l-1.8-1.8.6-.6,5.1,5.1-.6.6ZM199.5,384.1c.5.5.9.7,1.3.8.4,0,.8,0,1-.4s.4-.6.4-1c0-.4-.3-.8-.7-1.3s-1-.8-1.4-.8c-.4,0-.8,0-1.1.4s-.4.6-.4,1c0,.4.3.9.8,1.3Z"/>
            <path id="ArialMT-657" data-name="ArialMT-65" class="st59" d="M206.2,378.7l.7-.6c.3.5.4,1,.3,1.4,0,.5-.3.9-.7,1.4s-1.1.8-1.8.8c-.6,0-1.3-.3-1.9-.9s-.9-1.3-1-1.9c0-.7.2-1.2.7-1.7s1.1-.7,1.7-.7,1.3.3,1.9.9,0,0,.2.2l-2.7,2.7c.4.4.8.6,1.3.6.4,0,.8-.1,1.1-.4s.4-.5.4-.8c0-.3,0-.6-.2-1ZM203.2,379.8l2-2c-.3-.3-.6-.4-.9-.5-.4,0-.8,0-1.1.4s-.4.6-.4,1,.1.7.4,1.1Z"/>
            <path id="ArialMT-209" data-name="ArialMT-20" class="st59" d="M208.4,379"/>
            <path id="ArialMT-736" data-name="ArialMT-73" class="st59" d="M209.4,375.7l.5-.7c.3.2.6.3.9.3.3,0,.6-.2.9-.5s.4-.6.5-.8c0-.3,0-.5-.2-.6s-.3-.2-.5-.1c-.1,0-.4.2-.8.4-.6.3-1,.6-1.2.6s-.5.1-.7,0c-.2,0-.4-.2-.6-.4s-.3-.4-.3-.6c0-.2,0-.4,0-.7,0-.2,0-.4.2-.6.1-.2.3-.4.5-.6.3-.3.6-.5.9-.6.3-.1.6-.2.8-.1.2,0,.5.2.8.4l-.5.7c-.2-.2-.4-.2-.7-.2-.2,0-.5.2-.7.4s-.4.5-.5.8c0,.2,0,.4.1.5s.2.1.3.1c.1,0,.3,0,.4,0,0,0,.3-.2.7-.4.6-.3,1-.5,1.2-.6.2,0,.5-.1.7,0,.2,0,.5.2.7.4s.3.5.4.8c0,.3,0,.6,0,.9-.1.3-.3.6-.6.9-.5.5-.9.7-1.4.8-.4,0-.9,0-1.4-.4Z"/>
            <path id="ArialMT-685" data-name="ArialMT-68" class="st59" d="M214.3,373l-5.1-5.1.6-.6,1.8,1.8c0-.6.2-1.2.6-1.6s.6-.5.9-.5c.3,0,.6,0,.9,0s.6.3,1,.7l2.3,2.3-.6.6-2.3-2.3c-.3-.3-.6-.5-.9-.5s-.5.1-.8.4-.3.4-.4.7c0,.3,0,.5,0,.7,0,.2.3.5.6.8l2,2-.6.6Z"/>
            <path id="ArialMT-6f8" data-name="ArialMT-6f" class="st59" d="M216.2,367.5c-.7-.7-1-1.4-.9-2.1,0-.6.3-1.1.7-1.6s1.1-.8,1.7-.7c.7,0,1.3.3,1.8.9s.8.9.9,1.3c.1.4.1.8,0,1.2-.1.4-.3.8-.7,1.1-.5.5-1.1.8-1.7.8-.6,0-1.3-.3-1.9-.9ZM216.8,366.8c.5.5.9.7,1.4.7.4,0,.8-.1,1.1-.4s.4-.7.4-1.1c0-.4-.3-.9-.8-1.4s-.9-.7-1.3-.7-.8.1-1.1.4-.5.7-.4,1.1c0,.4.3.9.7,1.4Z"/>
            <path id="ArialMT-748" data-name="ArialMT-74" class="st59" d="M223,363.2l.6.5c-.1.2-.3.4-.4.5-.2.2-.4.4-.6.4-.2,0-.4,0-.5,0-.2,0-.4-.3-.8-.7l-2.1-2.1-.5.5-.5-.5.5-.5-.9-.9.2-1,1.3,1.3.6-.6.5.5-.6.6,2.1,2.1c.2.2.3.3.4.3,0,0,.1,0,.2,0,0,0,.2,0,.3-.2s.2-.2.2-.3Z"/>
          </g>
        </g>
      </g>
      <g id="xtick_31" data-name="xtick_3">
        <g id="line2d_31" data-name="line2d_3">
          <g class="st33">
            <path class="st2" d="M340,351.6V22.8"/>
          </g>
        </g>
        <g id="text_31" data-name="text_3">
          <g>
            <path id="ArialMT-461" data-name="ArialMT-46" class="st59" d="M312.5,389.8l-5.1-5.1,3.4-3.4.6.6-2.7,2.7,1.6,1.6,2.4-2.4.6.6-2.4,2.4,2.3,2.3-.7.7Z"/>
            <path id="ArialMT-758" data-name="ArialMT-75" class="st59" d="M319.1,383.2l-.5-.5c.1.7,0,1.3-.5,1.8s-.5.4-.7.5c-.3.1-.5.1-.7.1-.2,0-.4-.1-.7-.3-.1,0-.4-.3-.6-.5l-2.3-2.3.6-.6,2,2c.3.3.6.5.7.6.2.1.4.2.6.1.2,0,.4-.1.6-.3s.3-.4.4-.7c0-.3,0-.5,0-.7,0-.2-.3-.5-.6-.8l-2-2,.6-.6,3.7,3.7-.6.6Z"/>
            <path id="ArialMT-6c7" data-name="ArialMT-6c" class="st59" d="M320.6,381.7l-5.1-5.1.6-.6,5.1,5.1-.6.6Z"/>
            <path id="ArialMT-6c8" data-name="ArialMT-6c" class="st59" d="M322.2,380.1l-5.1-5.1.6-.6,5.1,5.1-.6.6Z"/>
            <path id="ArialMT-2010" data-name="ArialMT-20" class="st59" d="M323.3,379"/>
            <path id="ArialMT-737" data-name="ArialMT-73" class="st59" d="M324.4,375.7l.5-.7c.3.2.6.3.9.3.3,0,.6-.2.9-.5s.4-.6.5-.8c0-.3,0-.5-.2-.6s-.3-.2-.5-.1c-.1,0-.4.2-.8.4-.6.3-1,.6-1.2.6s-.5.1-.7,0c-.2,0-.4-.2-.6-.4s-.3-.4-.3-.6c0-.2,0-.4,0-.7,0-.2,0-.4.2-.6.1-.2.3-.4.5-.6.3-.3.6-.5.9-.6.3-.1.6-.2.8-.1.2,0,.5.2.8.4l-.5.7c-.2-.2-.4-.2-.7-.2-.2,0-.5.2-.7.4s-.4.5-.5.8c0,.2,0,.4.1.5s.2.1.3.1c.1,0,.3,0,.4,0,0,0,.3-.2.7-.4.6-.3,1-.5,1.2-.6.2,0,.5-.1.7,0,.2,0,.5.2.7.4s.3.5.4.8c0,.3,0,.6,0,.9-.1.3-.3.6-.6.9-.5.5-.9.7-1.4.8-.4,0-.9,0-1.4-.4Z"/>
            <path id="ArialMT-686" data-name="ArialMT-68" class="st59" d="M329.3,373l-5.1-5.1.6-.6,1.8,1.8c0-.6.2-1.2.6-1.6s.6-.5.9-.5c.3,0,.6,0,.9,0s.6.3,1,.7l2.3,2.3-.6.6-2.3-2.3c-.3-.3-.6-.5-.9-.5s-.5.1-.8.4-.3.4-.4.7c0,.3,0,.5,0,.7,0,.2.3.5.6.8l2,2-.6.6Z"/>
            <path id="ArialMT-6f9" data-name="ArialMT-6f" class="st59" d="M331.1,367.5c-.7-.7-1-1.4-.9-2.1,0-.6.3-1.1.7-1.6s1.1-.8,1.7-.7c.7,0,1.3.3,1.8.9s.8.9.9,1.3c.1.4.1.8,0,1.2-.1.4-.3.8-.7,1.1-.5.5-1.1.8-1.7.8-.6,0-1.3-.3-1.9-.9ZM331.8,366.8c.5.5.9.7,1.4.7.4,0,.8-.1,1.1-.4s.4-.7.4-1.1c0-.4-.3-.9-.8-1.4s-.9-.7-1.3-.7-.8.1-1.1.4-.5.7-.4,1.1c0,.4.3.9.7,1.4Z"/>
            <path id="ArialMT-749" data-name="ArialMT-74" class="st59" d="M337.9,363.2l.6.5c-.1.2-.3.4-.4.5-.2.2-.4.4-.6.4-.2,0-.4,0-.5,0-.2,0-.4-.3-.8-.7l-2.1-2.1-.5.5-.5-.5.5-.5-.9-.9.2-1,1.3,1.3.6-.6.5.5-.6.6,2.1,2.1c.2.2.3.3.4.3,0,0,.1,0,.2,0,0,0,.2,0,.3-.2s.2-.2.2-.3Z"/>
          </g>
        </g>
      </g>
      <g id="xtick_41" data-name="xtick_4">
        <g id="line2d_41" data-name="line2d_4">
          <g class="st31">
            <path class="st2" d="M455,351.6V22.8"/>
          </g>
        </g>
        <g id="text_41" data-name="text_4">
          <g>
            <path id="ArialMT-4d3" data-name="ArialMT-4d" class="st59" d="M402.6,414.6l-5.1-5.1,1-1,4.8,2.4c.4.2.8.4,1,.5-.1-.2-.3-.6-.5-1.1l-2.3-4.7.9-.9,5.1,5.1-.6.6-4.2-4.2,2.8,5.7-.6.6-5.8-2.8,4.3,4.3-.6.6Z"/>
            <path id="ArialMT-658" data-name="ArialMT-65" class="st59" d="M409.8,405.1l.7-.6c.3.5.4,1,.3,1.4,0,.5-.3.9-.7,1.4s-1.1.8-1.8.8c-.6,0-1.3-.3-1.9-.9s-.9-1.3-1-1.9c0-.7.2-1.2.7-1.7s1.1-.7,1.7-.7,1.3.3,1.9.9,0,0,.2.2l-2.7,2.7c.4.4.8.6,1.3.6.4,0,.8-.1,1.1-.4s.4-.5.4-.8c0-.3,0-.6-.2-1ZM406.7,406.1l2-2c-.3-.3-.6-.4-.9-.5-.4,0-.8,0-1.1.4s-.4.6-.4,1,.1.7.4,1.1Z"/>
            <path id="ArialMT-645" data-name="ArialMT-64" class="st59" d="M414.8,402.5l-.5-.5c.1.6,0,1.1-.5,1.6s-.6.5-1,.6-.8,0-1.2-.1c-.4-.2-.8-.4-1.2-.8s-.6-.8-.8-1.2c-.2-.4-.2-.8-.1-1.2,0-.4.3-.8.6-1.1s.5-.4.7-.4c.3,0,.5,0,.8,0l-1.8-1.8.6-.6,5.1,5.1-.6.6ZM411,402.6c.5.5.9.7,1.3.8.4,0,.8,0,1-.4s.4-.6.4-1c0-.4-.3-.8-.7-1.3s-1-.8-1.4-.8c-.4,0-.8,0-1.1.4s-.4.6-.4,1c0,.4.3.9.8,1.3Z"/>
            <path id="ArialMT-695" data-name="ArialMT-69" class="st59" d="M412,396.5l-.7-.7.6-.6.7.7-.6.6ZM416.3,400.9l-3.7-3.7.6-.6,3.7,3.7-.6.6Z"/>
            <path id="ArialMT-759" data-name="ArialMT-75" class="st59" d="M420.3,396.9l-.5-.5c.1.7,0,1.3-.5,1.8s-.5.4-.7.5c-.3.1-.5.1-.7.1-.2,0-.4-.1-.7-.3-.1,0-.4-.3-.6-.5l-2.3-2.3.6-.6,2,2c.3.3.6.5.7.6.2.1.4.2.6.1.2,0,.4-.1.6-.3s.3-.4.4-.7c0-.3,0-.5,0-.7,0-.2-.3-.5-.6-.8l-2-2,.6-.6,3.7,3.7-.6.6Z"/>
            <path id="ArialMT-6d5" data-name="ArialMT-6d" class="st59" d="M421.8,395.4l-3.7-3.7.6-.6.5.5c0-.3,0-.6,0-.9,0-.3.2-.6.5-.8s.6-.4.8-.5.6,0,.8.1c-.1-.7,0-1.3.5-1.8s.7-.5,1.1-.5c.4,0,.8.2,1.2.6l2.5,2.5-.6.6-2.3-2.3c-.2-.2-.4-.4-.6-.5-.1,0-.3,0-.5,0-.2,0-.3.1-.5.3-.3.3-.4.6-.4.9,0,.3.2.7.6,1.1l2.1,2.1-.6.6-2.4-2.4c-.3-.3-.5-.4-.8-.5-.2,0-.5,0-.7.3s-.3.4-.3.6c0,.2,0,.5,0,.7.1.2.3.5.7.9l1.9,1.9-.6.6Z"/>
            <path id="ArialMT-2011" data-name="ArialMT-20" class="st59" d="M427.2,390"/>
            <path id="ArialMT-661" data-name="ArialMT-66" class="st59" d="M429.8,387.4l-3.2-3.2-.5.5-.5-.5.5-.5-.4-.4c-.2-.2-.4-.5-.5-.6-.1-.2-.1-.5,0-.7,0-.3.2-.5.5-.8s.4-.3.6-.5l.4.6c-.2.1-.3.2-.4.3-.2.2-.3.4-.3.5,0,.2.1.3.3.6l.3.3.7-.7.5.5-.7.7,3.2,3.2-.6.6Z"/>
            <path id="ArialMT-7510" data-name="ArialMT-75" class="st59" d="M434,383.2l-.5-.5c.1.7,0,1.3-.5,1.8s-.5.4-.7.5c-.3.1-.5.1-.7.1-.2,0-.4-.1-.7-.3-.1,0-.4-.3-.6-.5l-2.3-2.3.6-.6,2,2c.3.3.6.5.7.6.2.1.4.2.6.1.2,0,.4-.1.6-.3s.3-.4.4-.7c0-.3,0-.5,0-.7,0-.2-.3-.5-.6-.8l-2-2,.6-.6,3.7,3.7-.6.6Z"/>
            <path id="ArialMT-6c9" data-name="ArialMT-6c" class="st59" d="M435.6,381.7l-5.1-5.1.6-.6,5.1,5.1-.6.6Z"/>
            <path id="ArialMT-6c10" data-name="ArialMT-6c" class="st59" d="M437.1,380.1l-5.1-5.1.6-.6,5.1,5.1-.6.6Z"/>
            <path id="ArialMT-2012" data-name="ArialMT-20" class="st59" d="M438.2,379"/>
            <path id="ArialMT-738" data-name="ArialMT-73" class="st59" d="M439.3,375.7l.5-.7c.3.2.6.3.9.3.3,0,.6-.2.9-.5s.4-.6.5-.8c0-.3,0-.5-.2-.6s-.3-.2-.5-.1c-.1,0-.4.2-.8.4-.6.3-1,.6-1.2.6s-.5.1-.7,0c-.2,0-.4-.2-.6-.4s-.3-.4-.3-.6c0-.2,0-.4,0-.7,0-.2,0-.4.2-.6.1-.2.3-.4.5-.6.3-.3.6-.5.9-.6.3-.1.6-.2.8-.1.2,0,.5.2.8.4l-.5.7c-.2-.2-.4-.2-.7-.2-.2,0-.5.2-.7.4s-.4.5-.5.8c0,.2,0,.4.1.5s.2.1.3.1c.1,0,.3,0,.4,0,0,0,.3-.2.7-.4.6-.3,1-.5,1.2-.6.2,0,.5-.1.7,0,.2,0,.5.2.7.4s.3.5.4.8c0,.3,0,.6,0,.9-.1.3-.3.6-.6.9-.5.5-.9.7-1.4.8-.4,0-.9,0-1.4-.4Z"/>
            <path id="ArialMT-687" data-name="ArialMT-68" class="st59" d="M444.2,373l-5.1-5.1.6-.6,1.8,1.8c0-.6.2-1.2.6-1.6s.6-.5.9-.5c.3,0,.6,0,.9,0s.6.3,1,.7l2.3,2.3-.6.6-2.3-2.3c-.3-.3-.6-.5-.9-.5s-.5.1-.8.4-.3.4-.4.7c0,.3,0,.5,0,.7,0,.2.3.5.6.8l2,2-.6.6Z"/>
            <path id="ArialMT-6f10" data-name="ArialMT-6f" class="st59" d="M446.1,367.5c-.7-.7-1-1.4-.9-2.1,0-.6.3-1.1.7-1.6s1.1-.8,1.7-.7c.7,0,1.3.3,1.8.9s.8.9.9,1.3c.1.4.1.8,0,1.2-.1.4-.3.8-.7,1.1-.5.5-1.1.8-1.7.8-.6,0-1.3-.3-1.9-.9ZM446.7,366.8c.5.5.9.7,1.4.7.4,0,.8-.1,1.1-.4s.4-.7.4-1.1c0-.4-.3-.9-.8-1.4s-.9-.7-1.3-.7-.8.1-1.1.4-.5.7-.4,1.1c0,.4.3.9.7,1.4Z"/>
            <path id="ArialMT-7410" data-name="ArialMT-74" class="st59" d="M452.9,363.2l.6.5c-.1.2-.3.4-.4.5-.2.2-.4.4-.6.4-.2,0-.4,0-.5,0-.2,0-.4-.3-.8-.7l-2.1-2.1-.5.5-.5-.5.5-.5-.9-.9.2-1,1.3,1.3.6-.6.5.5-.6.6,2.1,2.1c.2.2.3.3.4.3,0,0,.1,0,.2,0,0,0,.2,0,.3-.2s.2-.2.2-.3Z"/>
          </g>
        </g>
      </g>
      <g id="xtick_51" data-name="xtick_5">
        <g id="line2d_51" data-name="line2d_5">
          <g class="st26">
            <path class="st2" d="M569.9,351.6V22.8"/>
          </g>
        </g>
        <g id="text_51" data-name="text_5">
          <g>
            <path id="ArialMT-4d4" data-name="ArialMT-4d" class="st59" d="M528.6,403.6l-5.1-5.1,1-1,4.8,2.4c.4.2.8.4,1,.5-.1-.2-.3-.6-.5-1.1l-2.3-4.7.9-.9,5.1,5.1-.6.6-4.2-4.2,2.8,5.7-.6.6-5.8-2.8,4.3,4.3-.6.6Z"/>
            <path id="ArialMT-659" data-name="ArialMT-65" class="st59" d="M535.7,394.1l.7-.6c.3.5.4,1,.3,1.4,0,.5-.3.9-.7,1.4s-1.1.8-1.8.8c-.6,0-1.3-.3-1.9-.9s-.9-1.3-1-1.9c0-.7.2-1.2.7-1.7s1.1-.7,1.7-.7,1.3.3,1.9.9,0,0,.2.2l-2.7,2.7c.4.4.8.6,1.3.6.4,0,.8-.1,1.1-.4s.4-.5.4-.8c0-.3,0-.6-.2-1ZM532.7,395.1l2-2c-.3-.3-.6-.4-.9-.5-.4,0-.8,0-1.1.4s-.4.6-.4,1,.1.7.4,1.1Z"/>
            <path id="ArialMT-646" data-name="ArialMT-64" class="st59" d="M540.7,391.4l-.5-.5c.1.6,0,1.1-.5,1.6s-.6.5-1,.6-.8,0-1.2-.1c-.4-.2-.8-.4-1.2-.8s-.6-.8-.8-1.2c-.2-.4-.2-.8-.1-1.2,0-.4.3-.8.6-1.1s.5-.4.7-.4c.3,0,.5,0,.8,0l-1.8-1.8.6-.6,5.1,5.1-.6.6ZM536.9,391.6c.5.5.9.7,1.3.8.4,0,.8,0,1-.4s.4-.6.4-1c0-.4-.3-.8-.7-1.3s-1-.8-1.4-.8c-.4,0-.8,0-1.1.4s-.4.6-.4,1c0,.4.3.9.8,1.3Z"/>
            <path id="ArialMT-696" data-name="ArialMT-69" class="st59" d="M537.9,385.5l-.7-.7.6-.6.7.7-.6.6ZM542.3,389.9l-3.7-3.7.6-.6,3.7,3.7-.6.6Z"/>
            <path id="ArialMT-7511" data-name="ArialMT-75" class="st59" d="M546.2,385.9l-.5-.5c.1.7,0,1.3-.5,1.8s-.5.4-.7.5c-.3.1-.5.1-.7.1-.2,0-.4-.1-.7-.3-.1,0-.4-.3-.6-.5l-2.3-2.3.6-.6,2,2c.3.3.6.5.7.6.2.1.4.2.6.1.2,0,.4-.1.6-.3s.3-.4.4-.7c0-.3,0-.5,0-.7,0-.2-.3-.5-.6-.8l-2-2,.6-.6,3.7,3.7-.6.6Z"/>
            <path id="ArialMT-6d6" data-name="ArialMT-6d" class="st59" d="M547.8,384.4l-3.7-3.7.6-.6.5.5c0-.3,0-.6,0-.9,0-.3.2-.6.5-.8s.6-.4.8-.5.6,0,.8.1c-.1-.7,0-1.3.5-1.8s.7-.5,1.1-.5c.4,0,.8.2,1.2.6l2.5,2.5-.6.6-2.3-2.3c-.2-.2-.4-.4-.6-.5-.1,0-.3,0-.5,0-.2,0-.3.1-.5.3-.3.3-.4.6-.4.9,0,.3.2.7.6,1.1l2.1,2.1-.6.6-2.4-2.4c-.3-.3-.5-.4-.8-.5-.2,0-.5,0-.7.3s-.3.4-.3.6c0,.2,0,.5,0,.7.1.2.3.5.7.9l1.9,1.9-.6.6Z"/>
            <path id="ArialMT-2013" data-name="ArialMT-20" class="st59" d="M553.2,379"/>
            <path id="ArialMT-739" data-name="ArialMT-73" class="st59" d="M554.3,375.7l.5-.7c.3.2.6.3.9.3.3,0,.6-.2.9-.5s.4-.6.5-.8c0-.3,0-.5-.2-.6s-.3-.2-.5-.1c-.1,0-.4.2-.8.4-.6.3-1,.6-1.2.6s-.5.1-.7,0c-.2,0-.4-.2-.6-.4s-.3-.4-.3-.6c0-.2,0-.4,0-.7,0-.2,0-.4.2-.6.1-.2.3-.4.5-.6.3-.3.6-.5.9-.6.3-.1.6-.2.8-.1.2,0,.5.2.8.4l-.5.7c-.2-.2-.4-.2-.7-.2-.2,0-.5.2-.7.4s-.4.5-.5.8c0,.2,0,.4.1.5s.2.1.3.1c.1,0,.3,0,.4,0,0,0,.3-.2.7-.4.6-.3,1-.5,1.2-.6.2,0,.5-.1.7,0,.2,0,.5.2.7.4s.3.5.4.8c0,.3,0,.6,0,.9-.1.3-.3.6-.6.9-.5.5-.9.7-1.4.8-.4,0-.9,0-1.4-.4Z"/>
            <path id="ArialMT-688" data-name="ArialMT-68" class="st59" d="M559.1,373l-5.1-5.1.6-.6,1.8,1.8c0-.6.2-1.2.6-1.6s.6-.5.9-.5c.3,0,.6,0,.9,0s.6.3,1,.7l2.3,2.3-.6.6-2.3-2.3c-.3-.3-.6-.5-.9-.5s-.5.1-.8.4-.3.4-.4.7c0,.3,0,.5,0,.7,0,.2.3.5.6.8l2,2-.6.6Z"/>
            <path id="ArialMT-6f11" data-name="ArialMT-6f" class="st59" d="M561,367.5c-.7-.7-1-1.4-.9-2.1,0-.6.3-1.1.7-1.6s1.1-.8,1.7-.7c.7,0,1.3.3,1.8.9s.8.9.9,1.3c.1.4.1.8,0,1.2-.1.4-.3.8-.7,1.1-.5.5-1.1.8-1.7.8-.6,0-1.3-.3-1.9-.9ZM561.7,366.8c.5.5.9.7,1.4.7.4,0,.8-.1,1.1-.4s.4-.7.4-1.1c0-.4-.3-.9-.8-1.4s-.9-.7-1.3-.7-.8.1-1.1.4-.5.7-.4,1.1c0,.4.3.9.7,1.4Z"/>
            <path id="ArialMT-7411" data-name="ArialMT-74" class="st59" d="M567.8,363.2l.6.5c-.1.2-.3.4-.4.5-.2.2-.4.4-.6.4-.2,0-.4,0-.5,0-.2,0-.4-.3-.8-.7l-2.1-2.1-.5.5-.5-.5.5-.5-.9-.9.2-1,1.3,1.3.6-.6.5.5-.6.6,2.1,2.1c.2.2.3.3.4.3,0,0,.1,0,.2,0,0,0,.2,0,.3-.2s.2-.2.2-.3Z"/>
          </g>
        </g>
      </g>
      <g id="xtick_61" data-name="xtick_6">
        <g id="line2d_61" data-name="line2d_6">
          <g class="st20">
            <path class="st2" d="M684.9,351.6V22.8"/>
          </g>
        </g>
        <g id="text_61" data-name="text_6">
          <g>
            <path id="ArialMT-4d5" data-name="ArialMT-4d" class="st59" d="M630.5,416.6l-5.1-5.1,1-1,4.8,2.4c.4.2.8.4,1,.5-.1-.2-.3-.6-.5-1.1l-2.3-4.7.9-.9,5.1,5.1-.6.6-4.2-4.2,2.8,5.7-.6.6-5.8-2.8,4.3,4.3-.6.6Z"/>
            <path id="ArialMT-6510" data-name="ArialMT-65" class="st59" d="M637.7,407l.7-.6c.3.5.4,1,.3,1.4,0,.5-.3.9-.7,1.4s-1.1.8-1.8.8c-.6,0-1.3-.3-1.9-.9s-.9-1.3-1-1.9c0-.7.2-1.2.7-1.7s1.1-.7,1.7-.7,1.3.3,1.9.9,0,0,.2.2l-2.7,2.7c.4.4.8.6,1.3.6.4,0,.8-.1,1.1-.4s.4-.5.4-.8c0-.3,0-.6-.2-1ZM634.6,408.1l2-2c-.3-.3-.6-.4-.9-.5-.4,0-.8,0-1.1.4s-.4.6-.4,1,.1.7.4,1.1Z"/>
            <path id="ArialMT-647" data-name="ArialMT-64" class="st59" d="M642.7,404.4l-.5-.5c.1.6,0,1.1-.5,1.6s-.6.5-1,.6-.8,0-1.2-.1c-.4-.2-.8-.4-1.2-.8s-.6-.8-.8-1.2c-.2-.4-.2-.8-.1-1.2,0-.4.3-.8.6-1.1s.5-.4.7-.4c.3,0,.5,0,.8,0l-1.8-1.8.6-.6,5.1,5.1-.6.6ZM638.9,404.6c.5.5.9.7,1.3.8.4,0,.8,0,1-.4s.4-.6.4-1c0-.4-.3-.8-.7-1.3s-1-.8-1.4-.8c-.4,0-.8,0-1.1.4s-.4.6-.4,1c0,.4.3.9.8,1.3Z"/>
            <path id="ArialMT-697" data-name="ArialMT-69" class="st59" d="M639.9,398.5l-.7-.7.6-.6.7.7-.6.6ZM644.2,402.9l-3.7-3.7.6-.6,3.7,3.7-.6.6Z"/>
            <path id="ArialMT-7512" data-name="ArialMT-75" class="st59" d="M648.2,398.9l-.5-.5c.1.7,0,1.3-.5,1.8s-.5.4-.7.5c-.3.1-.5.1-.7.1-.2,0-.4-.1-.7-.3-.1,0-.4-.3-.6-.5l-2.3-2.3.6-.6,2,2c.3.3.6.5.7.6.2.1.4.2.6.1.2,0,.4-.1.6-.3s.3-.4.4-.7c0-.3,0-.5,0-.7,0-.2-.3-.5-.6-.8l-2-2,.6-.6,3.7,3.7-.6.6Z"/>
            <path id="ArialMT-6d7" data-name="ArialMT-6d" class="st59" d="M649.7,397.4l-3.7-3.7.6-.6.5.5c0-.3,0-.6,0-.9,0-.3.2-.6.5-.8s.6-.4.8-.5.6,0,.8.1c-.1-.7,0-1.3.5-1.8s.7-.5,1.1-.5c.4,0,.8.2,1.2.6l2.5,2.5-.6.6-2.3-2.3c-.2-.2-.4-.4-.6-.5-.1,0-.3,0-.5,0-.2,0-.3.1-.5.3-.3.3-.4.6-.4.9,0,.3.2.7.6,1.1l2.1,2.1-.6.6-2.4-2.4c-.3-.3-.5-.4-.8-.5-.2,0-.5,0-.7.3s-.3.4-.3.6c0,.2,0,.5,0,.7.1.2.3.5.7.9l1.9,1.9-.6.6Z"/>
            <path id="ArialMT-2014" data-name="ArialMT-20" class="st59" d="M655.2,391.9"/>
            <path id="ArialMT-632" data-name="ArialMT-63" class="st59" d="M658.6,385.8l.7-.5c.4.5.5,1,.5,1.5,0,.5-.3,1-.7,1.4s-1.1.7-1.7.7c-.6,0-1.3-.3-1.9-1s-.7-.8-.8-1.2c-.2-.4-.2-.9,0-1.3.1-.4.3-.8.7-1.1s.8-.6,1.3-.7c.5,0,.9,0,1.3.4l-.5.7c-.3-.2-.6-.3-.9-.2-.3,0-.5.1-.7.3-.3.3-.5.7-.4,1.1,0,.4.3.9.8,1.4s.9.8,1.4.8c.4,0,.8-.1,1.1-.4s.4-.5.4-.8c0-.3-.1-.6-.4-1Z"/>
            <path id="ArialMT-6c11" data-name="ArialMT-6c" class="st59" d="M661.1,386l-5.1-5.1.6-.6,5.1,5.1-.6.6Z"/>
            <path id="ArialMT-6f12" data-name="ArialMT-6f" class="st59" d="M660.6,382.8c-.7-.7-1-1.4-.9-2.1,0-.6.3-1.1.7-1.6s1.1-.8,1.7-.7c.7,0,1.3.3,1.8.9s.8.9.9,1.3c.1.4.1.8,0,1.2-.1.4-.3.8-.7,1.1-.5.5-1.1.8-1.7.8-.6,0-1.3-.3-1.9-.9ZM661.3,382.2c.5.5.9.7,1.4.7.4,0,.8-.1,1.1-.4s.4-.7.4-1.1c0-.4-.3-.9-.8-1.4s-.9-.7-1.3-.7-.8.1-1.1.4-.5.7-.4,1.1c0,.4.3.9.7,1.4Z"/>
            <path id="ArialMT-7310" data-name="ArialMT-73" class="st59" d="M665.3,379.6l.5-.7c.3.2.6.3.9.3.3,0,.6-.2.9-.5s.4-.6.5-.8c0-.3,0-.5-.2-.6s-.3-.2-.5-.1c-.1,0-.4.2-.8.4-.6.3-1,.6-1.2.6s-.5.1-.7,0c-.2,0-.4-.2-.6-.4s-.3-.4-.3-.6c0-.2,0-.4,0-.7,0-.2,0-.4.2-.6.1-.2.3-.4.5-.6.3-.3.6-.5.9-.6.3-.1.6-.2.8-.1.2,0,.5.2.8.4l-.5.7c-.2-.2-.4-.2-.7-.2-.2,0-.5.2-.7.4s-.4.5-.5.8c0,.2,0,.4.1.5s.2.1.3.1c.1,0,.3,0,.4,0,0,0,.3-.2.7-.4.6-.3,1-.5,1.2-.6.2,0,.5-.1.7,0,.2,0,.5.2.7.4s.3.5.4.8c0,.3,0,.6,0,.9-.1.3-.3.6-.6.9-.5.5-.9.7-1.4.8-.4,0-.9,0-1.4-.4Z"/>
            <path id="ArialMT-6511" data-name="ArialMT-65" class="st59" d="M671.5,373.2l.7-.6c.3.5.4,1,.3,1.4,0,.5-.3.9-.7,1.4s-1.1.8-1.8.8c-.6,0-1.3-.3-1.9-.9s-.9-1.3-1-1.9c0-.7.2-1.2.7-1.7s1.1-.7,1.7-.7,1.3.3,1.9.9,0,0,.2.2l-2.7,2.7c.4.4.8.6,1.3.6.4,0,.8-.1,1.1-.4s.4-.5.4-.8c0-.3,0-.6-.2-1ZM668.4,374.3l2-2c-.3-.3-.6-.4-.9-.5-.4,0-.8,0-1.1.4s-.4.6-.4,1,.1.7.4,1.1Z"/>
            <path id="ArialMT-2015" data-name="ArialMT-20" class="st59" d="M673.6,373.5"/>
            <path id="ArialMT-7513" data-name="ArialMT-75" class="st59" d="M678.5,368.6l-.5-.5c.1.7,0,1.3-.5,1.8s-.5.4-.7.5c-.3.1-.5.1-.7.1-.2,0-.4-.1-.7-.3-.1,0-.4-.3-.6-.5l-2.3-2.3.6-.6,2,2c.3.3.6.5.7.6.2.1.4.2.6.1.2,0,.4-.1.6-.3s.3-.4.4-.7c0-.3,0-.5,0-.7,0-.2-.3-.5-.6-.8l-2-2,.6-.6,3.7,3.7-.6.6Z"/>
            <path id="ArialMT-704" data-name="ArialMT-70" class="st59" d="M681.4,368.5l-5.1-5.1.6-.6.5.5c0-.3,0-.6,0-.9,0-.3.2-.5.5-.8s.7-.5,1.1-.6.8,0,1.2.1c.4.2.8.4,1.1.8s.6.8.8,1.2c.2.4.2.9.1,1.3,0,.4-.3.8-.6,1s-.4.3-.7.4c-.3,0-.5.1-.7,0l1.8,1.8-.6.6ZM678.7,364.7c.5.5.9.7,1.3.8.4,0,.8,0,1-.4s.4-.6.4-1.1c0-.4-.3-.9-.8-1.4s-.9-.7-1.3-.8c-.4,0-.8,0-1,.3s-.4.6-.3,1.1c0,.5.3.9.8,1.4Z"/>
          </g>
        </g>
      </g>
      <g id="xtick_71" data-name="xtick_7">
        <g id="line2d_71" data-name="line2d_7">
          <g class="st21">
            <path class="st2" d="M799.8,351.6V22.8"/>
          </g>
        </g>
        <g id="text_71" data-name="text_7">
          <g>
            <path id="ArialMT-432" data-name="ArialMT-43" class="st59" d="M772.9,385.7l.8-.5c.4.7.6,1.4.5,2,0,.7-.4,1.2-.9,1.8s-1.1.9-1.7,1c-.6.1-1.1,0-1.7-.2-.6-.2-1.1-.6-1.6-1.1s-.9-1.1-1.1-1.7c-.2-.6-.2-1.2,0-1.8.2-.6.5-1.1.9-1.5s1.1-.8,1.7-.9c.6,0,1.2,0,1.8.4l-.5.8c-.5-.3-.9-.3-1.3-.3-.4,0-.8.3-1.1.6s-.6.8-.7,1.3c0,.4,0,.9.2,1.3.2.4.5.8.8,1.1s.9.7,1.3.9c.4.2.9.2,1.3.1.4-.1.8-.3,1.1-.6s.6-.8.6-1.3c0-.5-.1-1-.4-1.5Z"/>
            <path id="ArialMT-6c12" data-name="ArialMT-6c" class="st59" d="M776,386.1l-5.1-5.1.6-.6,5.1,5.1-.6.6Z"/>
            <path id="ArialMT-6f13" data-name="ArialMT-6f" class="st59" d="M775.6,382.9c-.7-.7-1-1.4-.9-2.1,0-.6.3-1.1.7-1.6s1.1-.8,1.7-.7c.7,0,1.3.3,1.8.9s.8.9.9,1.3c.1.4.1.8,0,1.2-.1.4-.3.8-.7,1.1-.5.5-1.1.8-1.7.8-.6,0-1.3-.3-1.9-.9ZM776.2,382.2c.5.5.9.7,1.4.7.4,0,.8-.1,1.1-.4s.4-.7.4-1.1c0-.4-.3-.9-.8-1.4s-.9-.7-1.3-.7-.8.1-1.1.4-.5.7-.4,1.1c0,.4.3.9.7,1.4Z"/>
            <path id="ArialMT-7311" data-name="ArialMT-73" class="st59" d="M780.2,379.7l.5-.7c.3.2.6.3.9.3.3,0,.6-.2.9-.5s.4-.6.5-.8c0-.3,0-.5-.2-.6s-.3-.2-.5-.1c-.1,0-.4.2-.8.4-.6.3-1,.6-1.2.6s-.5.1-.7,0c-.2,0-.4-.2-.6-.4s-.3-.4-.3-.6c0-.2,0-.4,0-.7,0-.2,0-.4.2-.6.1-.2.3-.4.5-.6.3-.3.6-.5.9-.6.3-.1.6-.2.8-.1.2,0,.5.2.8.4l-.5.7c-.2-.2-.4-.2-.7-.2-.2,0-.5.2-.7.4s-.4.5-.5.8c0,.2,0,.4.1.5s.2.1.3.1c.1,0,.3,0,.4,0,0,0,.3-.2.7-.4.6-.3,1-.5,1.2-.6.2,0,.5-.1.7,0,.2,0,.5.2.7.4s.3.5.4.8c0,.3,0,.6,0,.9-.1.3-.3.6-.6.9-.5.5-.9.7-1.4.8-.4,0-.9,0-1.4-.4Z"/>
            <path id="ArialMT-6512" data-name="ArialMT-65" class="st59" d="M786.4,373.3l.7-.6c.3.5.4,1,.3,1.4,0,.5-.3.9-.7,1.4s-1.1.8-1.8.8c-.6,0-1.3-.3-1.9-.9s-.9-1.3-1-1.9c0-.7.2-1.2.7-1.7s1.1-.7,1.7-.7,1.3.3,1.9.9,0,0,.2.2l-2.7,2.7c.4.4.8.6,1.3.6.4,0,.8-.1,1.1-.4s.4-.5.4-.8c0-.3,0-.6-.2-1ZM783.4,374.4l2-2c-.3-.3-.6-.4-.9-.5-.4,0-.8,0-1.1.4s-.4.6-.4,1,.1.7.4,1.1Z"/>
            <path id="ArialMT-2016" data-name="ArialMT-20" class="st59" d="M788.6,373.6"/>
            <path id="ArialMT-7514" data-name="ArialMT-75" class="st59" d="M793.4,368.7l-.5-.5c.1.7,0,1.3-.5,1.8s-.5.4-.7.5c-.3.1-.5.1-.7.1-.2,0-.4-.1-.7-.3-.1,0-.4-.3-.6-.5l-2.3-2.3.6-.6,2,2c.3.3.6.5.7.6.2.1.4.2.6.1.2,0,.4-.1.6-.3s.3-.4.4-.7c0-.3,0-.5,0-.7,0-.2-.3-.5-.6-.8l-2-2,.6-.6,3.7,3.7-.6.6Z"/>
            <path id="ArialMT-705" data-name="ArialMT-70" class="st59" d="M796.3,368.6l-5.1-5.1.6-.6.5.5c0-.3,0-.6,0-.9,0-.3.2-.5.5-.8s.7-.5,1.1-.6.8,0,1.2.1c.4.2.8.4,1.1.8s.6.8.8,1.2c.2.4.2.9.1,1.3,0,.4-.3.8-.6,1s-.4.3-.7.4c-.3,0-.5.1-.7,0l1.8,1.8-.6.6ZM793.7,364.8c.5.5.9.7,1.3.8.4,0,.8,0,1-.4s.4-.6.4-1.1c0-.4-.3-.9-.8-1.4s-.9-.7-1.3-.8c-.4,0-.8,0-1,.3s-.4.6-.3,1.1c0,.5.3.9.8,1.4Z"/>
          </g>
        </g>
      </g>
      <g id="text_81" data-name="text_8">
        <g>
          <path id="ArialMT-532" data-name="ArialMT-53" class="st59" d="M431.2,427.3h.9c0,.3.1.6.3.8.2.2.4.4.7.6.3.1.7.2,1.1.2s.7,0,1-.2c.3-.1.5-.3.6-.4.1-.2.2-.4.2-.6s0-.4-.2-.6-.3-.3-.6-.4c-.2,0-.6-.2-1.3-.3-.7-.2-1.1-.3-1.4-.4-.3-.2-.6-.4-.8-.7-.2-.3-.3-.6-.3-.9s.1-.7.3-1c.2-.3.5-.6.9-.7.4-.2.8-.2,1.3-.2s1,0,1.4.3c.4.2.7.4.9.8.2.3.3.7.4,1.1h-.9c0-.4-.2-.7-.5-1-.3-.2-.7-.3-1.2-.3s-1,.1-1.3.3c-.3.2-.4.5-.4.8s0,.5.3.6c.2.2.7.3,1.4.5.8.2,1.3.3,1.6.5.4.2.7.4.9.7.2.3.3.6.3,1s-.1.7-.3,1.1c-.2.3-.5.6-.9.8-.4.2-.9.3-1.4.3s-1.2,0-1.6-.3c-.4-.2-.8-.5-1-.9-.2-.4-.4-.8-.4-1.3Z"/>
          <path id="ArialMT-689" data-name="ArialMT-68" class="st59" d="M438.1,429.6v-7.2h.9v2.6c.4-.5.9-.7,1.6-.7s.7,0,1,.2c.3.2.5.4.6.6s.2.7.2,1.2v3.3h-.9v-3.3c0-.4,0-.8-.3-1s-.5-.3-.8-.3-.5,0-.7.2c-.2.1-.4.3-.5.5,0,.2-.1.6-.1,1v2.8h-.9Z"/>
          <path id="ArialMT-6f14" data-name="ArialMT-6f" class="st59" d="M443.4,427.1c0-1,.3-1.7.8-2.1.4-.4,1-.6,1.6-.6s1.3.2,1.7.7c.5.5.7,1.1.7,1.9s-.1,1.2-.3,1.6c-.2.4-.5.7-.9.9-.4.2-.8.3-1.3.3-.7,0-1.3-.2-1.8-.7-.4-.5-.7-1.1-.7-2ZM444.3,427.1c0,.7.1,1.2.4,1.5.3.3.7.5,1.1.5s.8-.2,1.1-.5c.3-.3.4-.8.4-1.5s-.1-1.1-.4-1.5-.7-.5-1.1-.5-.8.2-1.1.5c-.3.3-.4.8-.4,1.5Z"/>
          <path id="ArialMT-7412" data-name="ArialMT-74" class="st59" d="M451.2,428.9v.8c-.1,0-.3,0-.5,0-.3,0-.6,0-.7-.2-.2-.1-.3-.2-.4-.4,0-.2-.1-.5-.1-1v-3h-.6v-.7h.6v-1.3l.9-.5v1.8h.9v.7h-.9v3c0,.3,0,.4,0,.5,0,0,0,.1.2.2,0,0,.2,0,.3,0s.2,0,.4,0Z"/>
          <path id="ArialMT-2017" data-name="ArialMT-20" class="st59" d="M451.4,429.6"/>
          <path id="ArialMT-533" data-name="ArialMT-53" class="st59" d="M454.6,427.3h.9c0,.3.1.6.3.8.2.2.4.4.7.6.3.1.7.2,1.1.2s.7,0,1-.2c.3-.1.5-.3.6-.4.1-.2.2-.4.2-.6s0-.4-.2-.6-.3-.3-.6-.4c-.2,0-.6-.2-1.3-.3-.7-.2-1.1-.3-1.4-.4-.3-.2-.6-.4-.8-.7-.2-.3-.3-.6-.3-.9s.1-.7.3-1c.2-.3.5-.6.9-.7.4-.2.8-.2,1.3-.2s1,0,1.4.3c.4.2.7.4.9.8.2.3.3.7.4,1.1h-.9c0-.4-.2-.7-.5-1-.3-.2-.7-.3-1.2-.3s-1,.1-1.3.3c-.3.2-.4.5-.4.8s0,.5.3.6c.2.2.7.3,1.4.5.8.2,1.3.3,1.6.5.4.2.7.4.9.7.2.3.3.6.3,1s-.1.7-.3,1.1c-.2.3-.5.6-.9.8-.4.2-.9.3-1.4.3s-1.2,0-1.6-.3c-.4-.2-.8-.5-1-.9-.2-.4-.4-.8-.4-1.3Z"/>
          <path id="ArialMT-633" data-name="ArialMT-63" class="st59" d="M464.9,427.7h.9c0,.7-.3,1.2-.7,1.5-.4.3-.9.5-1.4.5s-1.3-.2-1.7-.7c-.4-.5-.6-1.1-.6-2s0-1,.3-1.5c.2-.4.5-.7.8-.9.4-.2.8-.3,1.2-.3s1,.1,1.4.4c.4.3.6.7.7,1.2h-.9c0-.2-.2-.5-.4-.7-.2-.2-.5-.3-.8-.3-.4,0-.8.2-1.1.5-.3.3-.4.8-.4,1.5s.1,1.2.4,1.5c.3.3.6.5,1,.5s.6-.1.9-.3c.2-.2.4-.5.4-1Z"/>
          <path id="ArialMT-611" data-name="ArialMT-61" class="st59" d="M469.9,429c-.3.3-.6.5-.9.6-.3.1-.6.2-1,.2-.6,0-1-.1-1.3-.4s-.5-.6-.5-1.1,0-.5.2-.7c.1-.2.3-.4.5-.5s.4-.2.6-.3c.2,0,.4,0,.8-.1.7,0,1.2-.2,1.6-.3,0-.1,0-.2,0-.2,0-.4,0-.6-.3-.8-.2-.2-.6-.3-1-.3s-.7,0-.9.2-.3.4-.4.8h-.9c0-.5.2-.8.4-1,.2-.2.4-.4.8-.5.3-.1.7-.2,1.2-.2s.8,0,1.1.2c.3.1.5.2.6.4.1.2.2.4.3.6,0,.1,0,.4,0,.8v1.2c0,.8,0,1.3,0,1.6,0,.2.1.4.2.6h-.9c0-.2-.1-.4-.2-.6ZM469.8,427c-.3.1-.8.2-1.4.3-.4,0-.6.1-.8.2-.1,0-.3.2-.3.3,0,.1-.1.3-.1.4,0,.2,0,.4.3.6.2.2.4.2.8.2s.6,0,.9-.2c.3-.1.5-.4.6-.6,0-.2.1-.5.1-.9v-.3Z"/>
          <path id="ArialMT-6c13" data-name="ArialMT-6c" class="st59" d="M472,429.6v-7.2h.9v7.2h-.9Z"/>
          <path id="ArialMT-6513" data-name="ArialMT-65" class="st59" d="M477.8,428h.9c-.1.6-.4,1.1-.8,1.3-.4.3-.9.4-1.5.4s-1.4-.2-1.8-.7c-.4-.5-.7-1.1-.7-2s.2-1.6.7-2c.5-.5,1-.7,1.7-.7s1.3.2,1.7.7.7,1.1.7,2,0,.1,0,.2h-3.9c0,.6.2,1,.5,1.3.3.3.7.5,1.1.5s.6,0,.8-.3c.2-.2.4-.4.5-.8ZM474.9,426.6h2.9c0-.4-.1-.8-.3-1-.3-.3-.6-.5-1.1-.5s-.7.1-1,.4-.4.6-.5,1.1Z"/>
        </g>
      </g>
    </g>
    <g id="matplotlib.axis_21" data-name="matplotlib.axis_2">
      <g id="ytick_11" data-name="ytick_1">
        <g id="line2d_81" data-name="line2d_8">
          <g class="st22">
            <path class="st2" d="M52.7,351.6h804.6"/>
          </g>
        </g>
        <g id="text_91" data-name="text_9">
          <path id="ArialMT-309" data-name="ArialMT-30" class="st59" d="M40.5,351.6c0-.8,0-1.5.3-2,.2-.5.4-.9.8-1.2.3-.3.8-.4,1.3-.4s.7,0,1,.2c.3.2.5.4.7.7.2.3.3.6.4,1.1.1.4.2,1,.2,1.7s0,1.5-.3,2c-.2.5-.4.9-.8,1.2-.3.3-.8.4-1.3.4s-1.2-.2-1.6-.7c-.5-.6-.7-1.6-.7-2.9ZM41.4,351.6c0,1.2.1,2,.4,2.3.3.4.6.6,1,.6s.7-.2,1-.6.4-1.2.4-2.3-.1-2-.4-2.3c-.3-.4-.6-.6-1-.6s-.7.2-1,.5c-.3.4-.5,1.2-.5,2.4Z"/>
        </g>
      </g>
      <g id="ytick_21" data-name="ytick_2">
        <g id="line2d_91" data-name="line2d_9">
          <g class="st23">
            <path class="st2" d="M52.7,289.8h804.6"/>
          </g>
        </g>
        <g id="text_101" data-name="text_10">
          <g>
            <path id="ArialMT-311" data-name="ArialMT-31" class="st59" d="M32.7,293.4h-.9v-5.6c-.2.2-.5.4-.8.6s-.7.4-.9.5v-.9c.5-.2.9-.5,1.3-.8.4-.3.6-.6.8-1h.6v7.2Z"/>
            <path id="ArialMT-3010" data-name="ArialMT-30" class="st59" d="M35,289.9c0-.8,0-1.5.3-2,.2-.5.4-.9.8-1.2.3-.3.8-.4,1.3-.4s.7,0,1,.2c.3.2.5.4.7.7.2.3.3.6.4,1.1.1.4.2,1,.2,1.7s0,1.5-.3,2c-.2.5-.4.9-.8,1.2-.3.3-.8.4-1.3.4s-1.2-.2-1.6-.7c-.5-.6-.7-1.6-.7-2.9ZM35.9,289.9c0,1.2.1,2,.4,2.3.3.4.6.6,1,.6s.7-.2,1-.6.4-1.2.4-2.3-.1-2-.4-2.3c-.3-.4-.6-.6-1-.6s-.7.2-1,.5c-.3.4-.5,1.2-.5,2.4Z"/>
            <path id="ArialMT-3011" data-name="ArialMT-30" class="st59" d="M40.5,289.9c0-.8,0-1.5.3-2,.2-.5.4-.9.8-1.2.3-.3.8-.4,1.3-.4s.7,0,1,.2c.3.2.5.4.7.7.2.3.3.6.4,1.1.1.4.2,1,.2,1.7s0,1.5-.3,2c-.2.5-.4.9-.8,1.2-.3.3-.8.4-1.3.4s-1.2-.2-1.6-.7c-.5-.6-.7-1.6-.7-2.9ZM41.4,289.9c0,1.2.1,2,.4,2.3.3.4.6.6,1,.6s.7-.2,1-.6.4-1.2.4-2.3-.1-2-.4-2.3c-.3-.4-.6-.6-1-.6s-.7.2-1,.5c-.3.4-.5,1.2-.5,2.4Z"/>
          </g>
        </g>
      </g>
      <g id="ytick_31" data-name="ytick_3">
        <g id="line2d_101" data-name="line2d_10">
          <g class="st24">
            <path class="st2" d="M52.7,228h804.6"/>
          </g>
        </g>
        <g id="text_111" data-name="text_11">
          <g>
            <path id="ArialMT-321" data-name="ArialMT-32" class="st59" d="M34,230.8v.8h-4.7c0-.2,0-.4.1-.6.1-.3.3-.6.6-1,.3-.3.6-.7,1.2-1.1.8-.6,1.3-1.1,1.6-1.5.3-.4.4-.7.4-1.1s-.1-.6-.4-.9c-.2-.2-.6-.4-1-.4s-.8.1-1,.4c-.3.3-.4.6-.4,1.1h-.9c0-.8.3-1.3.7-1.6.4-.4.9-.5,1.6-.5s1.2.2,1.6.6c.4.4.6.9.6,1.4s0,.6-.2.8c-.1.3-.3.6-.6.9s-.7.7-1.4,1.3c-.5.4-.9.7-1,.9-.1.2-.3.3-.4.5h3.5Z"/>
            <path id="ArialMT-3012" data-name="ArialMT-30" class="st59" d="M35,228.1c0-.8,0-1.5.3-2,.2-.5.4-.9.8-1.2.3-.3.8-.4,1.3-.4s.7,0,1,.2c.3.2.5.4.7.7.2.3.3.6.4,1.1.1.4.2,1,.2,1.7s0,1.5-.3,2c-.2.5-.4.9-.8,1.2-.3.3-.8.4-1.3.4s-1.2-.2-1.6-.7c-.5-.6-.7-1.6-.7-2.9ZM35.9,228.1c0,1.2.1,2,.4,2.3.3.4.6.6,1,.6s.7-.2,1-.6.4-1.2.4-2.3-.1-2-.4-2.3c-.3-.4-.6-.6-1-.6s-.7.2-1,.5c-.3.4-.5,1.2-.5,2.4Z"/>
            <path id="ArialMT-3013" data-name="ArialMT-30" class="st59" d="M40.5,228.1c0-.8,0-1.5.3-2,.2-.5.4-.9.8-1.2.3-.3.8-.4,1.3-.4s.7,0,1,.2c.3.2.5.4.7.7.2.3.3.6.4,1.1.1.4.2,1,.2,1.7s0,1.5-.3,2c-.2.5-.4.9-.8,1.2-.3.3-.8.4-1.3.4s-1.2-.2-1.6-.7c-.5-.6-.7-1.6-.7-2.9ZM41.4,228.1c0,1.2.1,2,.4,2.3.3.4.6.6,1,.6s.7-.2,1-.6.4-1.2.4-2.3-.1-2-.4-2.3c-.3-.4-.6-.6-1-.6s-.7.2-1,.5c-.3.4-.5,1.2-.5,2.4Z"/>
          </g>
        </g>
      </g>
      <g id="ytick_41" data-name="ytick_4">
        <g id="line2d_111" data-name="line2d_11">
          <g class="st27">
            <path class="st2" d="M52.7,166.3h804.6"/>
          </g>
        </g>
        <g id="text_121" data-name="text_12">
          <g>
            <path id="ArialMT-331" data-name="ArialMT-33" class="st59" d="M29.4,168h.9c.1.4.3.7.5,1,.2.2.5.3.9.3s.8-.1,1-.4c.3-.3.4-.6.4-1.1s-.1-.7-.4-1c-.3-.3-.6-.4-1-.4s-.4,0-.6,0v-.8c.2,0,.2,0,.2,0,.4,0,.7,0,1-.3.3-.2.5-.5.5-.9s-.1-.6-.3-.8c-.2-.2-.5-.3-.8-.3s-.6.1-.9.3c-.2.2-.4.5-.4,1l-.9-.2c.1-.6.4-1,.7-1.4.4-.3.9-.5,1.4-.5s.8,0,1.1.3c.3.2.6.4.8.7.2.3.3.6.3.9s0,.6-.3.8c-.2.3-.4.5-.7.6.4,0,.8.3,1,.6.2.3.4.7.4,1.2s-.2,1.2-.7,1.6c-.5.4-1,.7-1.7.7s-1.2-.2-1.6-.6c-.4-.4-.7-.9-.7-1.5Z"/>
            <path id="ArialMT-3014" data-name="ArialMT-30" class="st59" d="M35,166.3c0-.8,0-1.5.3-2,.2-.5.4-.9.8-1.2.3-.3.8-.4,1.3-.4s.7,0,1,.2c.3.2.5.4.7.7.2.3.3.6.4,1.1.1.4.2,1,.2,1.7s0,1.5-.3,2c-.2.5-.4.9-.8,1.2-.3.3-.8.4-1.3.4s-1.2-.2-1.6-.7c-.5-.6-.7-1.6-.7-2.9ZM35.9,166.3c0,1.2.1,2,.4,2.3.3.4.6.6,1,.6s.7-.2,1-.6.4-1.2.4-2.3-.1-2-.4-2.3c-.3-.4-.6-.6-1-.6s-.7.2-1,.5c-.3.4-.5,1.2-.5,2.4Z"/>
            <path id="ArialMT-3015" data-name="ArialMT-30" class="st59" d="M40.5,166.3c0-.8,0-1.5.3-2,.2-.5.4-.9.8-1.2.3-.3.8-.4,1.3-.4s.7,0,1,.2c.3.2.5.4.7.7.2.3.3.6.4,1.1.1.4.2,1,.2,1.7s0,1.5-.3,2c-.2.5-.4.9-.8,1.2-.3.3-.8.4-1.3.4s-1.2-.2-1.6-.7c-.5-.6-.7-1.6-.7-2.9ZM41.4,166.3c0,1.2.1,2,.4,2.3.3.4.6.6,1,.6s.7-.2,1-.6.4-1.2.4-2.3-.1-2-.4-2.3c-.3-.4-.6-.6-1-.6s-.7.2-1,.5c-.3.4-.5,1.2-.5,2.4Z"/>
          </g>
        </g>
      </g>
      <g id="ytick_51" data-name="ytick_5">
        <g id="line2d_121" data-name="line2d_12">
          <g class="st28">
            <path class="st2" d="M52.7,104.5h804.6"/>
          </g>
        </g>
        <g id="text_131" data-name="text_13">
          <g>
            <path id="ArialMT-341" data-name="ArialMT-34" class="st59" d="M32.2,108.1v-1.7h-3.1v-.8l3.3-4.6h.7v4.6h1v.8h-1v1.7h-.9ZM32.2,105.6v-3.2l-2.2,3.2h2.2Z"/>
            <path id="ArialMT-3016" data-name="ArialMT-30" class="st59" d="M35,104.6c0-.8,0-1.5.3-2,.2-.5.4-.9.8-1.2.3-.3.8-.4,1.3-.4s.7,0,1,.2c.3.2.5.4.7.7.2.3.3.6.4,1.1.1.4.2,1,.2,1.7s0,1.5-.3,2c-.2.5-.4.9-.8,1.2-.3.3-.8.4-1.3.4s-1.2-.2-1.6-.7c-.5-.6-.7-1.6-.7-2.9ZM35.9,104.6c0,1.2.1,2,.4,2.3.3.4.6.6,1,.6s.7-.2,1-.6.4-1.2.4-2.3-.1-2-.4-2.3c-.3-.4-.6-.6-1-.6s-.7.2-1,.5c-.3.4-.5,1.2-.5,2.4Z"/>
            <path id="ArialMT-3017" data-name="ArialMT-30" class="st59" d="M40.5,104.6c0-.8,0-1.5.3-2,.2-.5.4-.9.8-1.2.3-.3.8-.4,1.3-.4s.7,0,1,.2c.3.2.5.4.7.7.2.3.3.6.4,1.1.1.4.2,1,.2,1.7s0,1.5-.3,2c-.2.5-.4.9-.8,1.2-.3.3-.8.4-1.3.4s-1.2-.2-1.6-.7c-.5-.6-.7-1.6-.7-2.9ZM41.4,104.6c0,1.2.1,2,.4,2.3.3.4.6.6,1,.6s.7-.2,1-.6.4-1.2.4-2.3-.1-2-.4-2.3c-.3-.4-.6-.6-1-.6s-.7.2-1,.5c-.3.4-.5,1.2-.5,2.4Z"/>
          </g>
        </g>
      </g>
      <g id="ytick_6">
        <g id="line2d_13">
          <g class="st29">
            <path class="st2" d="M52.7,42.8h804.6"/>
          </g>
        </g>
        <g id="text_141" data-name="text_14">
          <g>
            <path id="ArialMT-35" class="st59" d="M29.4,44.5h.9c0,.4.2.7.5.9.2.2.5.3.9.3s.8-.2,1.1-.5c.3-.3.4-.7.4-1.3s-.1-.9-.4-1.2c-.3-.3-.7-.4-1.1-.4s-.5,0-.8.2c-.2.1-.4.3-.5.5h-.8c0-.1.7-3.8.7-3.8h3.6v.8h-2.9l-.4,1.9c.4-.3.9-.5,1.4-.5s1.2.2,1.6.7c.4.4.6,1,.6,1.7s-.2,1.2-.6,1.7c-.5.6-1.1.9-1.9.9s-1.2-.2-1.6-.5c-.4-.4-.6-.8-.7-1.5Z"/>
            <path id="ArialMT-3018" data-name="ArialMT-30" class="st59" d="M35,42.8c0-.8,0-1.5.3-2,.2-.5.4-.9.8-1.2.3-.3.8-.4,1.3-.4s.7,0,1,.2c.3.2.5.4.7.7.2.3.3.6.4,1.1.1.4.2,1,.2,1.7s0,1.5-.3,2c-.2.5-.4.9-.8,1.2-.3.3-.8.4-1.3.4s-1.2-.2-1.6-.7c-.5-.6-.7-1.6-.7-2.9ZM35.9,42.8c0,1.2.1,2,.4,2.3.3.4.6.6,1,.6s.7-.2,1-.6.4-1.2.4-2.3-.1-2-.4-2.3c-.3-.4-.6-.6-1-.6s-.7.2-1,.5c-.3.4-.5,1.2-.5,2.4Z"/>
            <path id="ArialMT-3019" data-name="ArialMT-30" class="st59" d="M40.5,42.8c0-.8,0-1.5.3-2,.2-.5.4-.9.8-1.2.3-.3.8-.4,1.3-.4s.7,0,1,.2c.3.2.5.4.7.7.2.3.3.6.4,1.1.1.4.2,1,.2,1.7s0,1.5-.3,2c-.2.5-.4.9-.8,1.2-.3.3-.8.4-1.3.4s-1.2-.2-1.6-.7c-.5-.6-.7-1.6-.7-2.9ZM41.4,42.8c0,1.2.1,2,.4,2.3.3.4.6.6,1,.6s.7-.2,1-.6.4-1.2.4-2.3-.1-2-.4-2.3c-.3-.4-.6-.6-1-.6s-.7.2-1,.5c-.3.4-.5,1.2-.5,2.4Z"/>
          </g>
        </g>
      </g>
      <g id="text_15">
        <g>
          <path id="ArialMT-433" data-name="ArialMT-43" class="st59" d="M20.5,194.6l.2-.9c.8.2,1.4.6,1.8,1.1.4.5.6,1.1.6,1.9s-.2,1.4-.5,1.9c-.3.5-.8.9-1.4,1.1-.6.3-1.2.4-1.9.4s-1.4-.1-2-.4c-.6-.3-1-.7-1.3-1.2-.3-.5-.4-1.1-.4-1.7s.2-1.3.5-1.8c.4-.5.9-.8,1.5-1l.2.9c-.5.2-.9.4-1.1.7-.2.3-.4.7-.4,1.2s.1,1,.4,1.4c.3.4.6.6,1.1.8.4.1.9.2,1.4.2s1.1,0,1.6-.3c.5-.2.8-.5,1-.8.2-.4.3-.8.3-1.2s-.2-1-.5-1.3c-.3-.4-.8-.6-1.4-.7Z"/>
          <path id="ArialMT-6f15" data-name="ArialMT-6f" class="st59" d="M20.4,193c-1,0-1.7-.3-2.1-.8-.4-.4-.6-1-.6-1.6s.2-1.3.7-1.7c.5-.5,1.1-.7,1.9-.7s1.2.1,1.6.3c.4.2.7.5.9.9.2.4.3.8.3,1.3,0,.7-.2,1.3-.7,1.8-.5.4-1.1.7-2,.7ZM20.4,192.1c.7,0,1.2-.1,1.5-.4.3-.3.5-.7.5-1.1s-.2-.8-.5-1.1c-.3-.3-.8-.4-1.5-.4s-1.1.1-1.5.4-.5.7-.5,1.1.2.8.5,1.1c.3.3.8.4,1.5.4Z"/>
          <path id="ArialMT-7515" data-name="ArialMT-75" class="st59" d="M23,183.7h-.8c.6.4.9,1,.9,1.6s0,.6-.2.9c-.1.3-.3.5-.4.6-.2.1-.4.2-.7.3-.2,0-.4,0-.8,0h-3.2v-.9h2.9c.5,0,.8,0,.9,0,.2,0,.4-.2.5-.4.1-.2.2-.4.2-.7s0-.5-.2-.7c-.1-.2-.3-.4-.6-.5-.2,0-.6-.1-1-.1h-2.8v-.9h5.2v.8Z"/>
          <path id="ArialMT-6e1" data-name="ArialMT-6e" class="st59" d="M23,181.5h-5.2v-.8h.7c-.6-.4-.9-.9-.9-1.7s0-.6.2-.9.3-.5.4-.6.4-.2.6-.3c.2,0,.4,0,.9,0h3.2v.9h-3.2c-.4,0-.6,0-.8.1-.2,0-.3.2-.4.4-.1.2-.2.4-.2.6,0,.4.1.7.4,1s.7.4,1.4.4h2.8v.9Z"/>
          <path id="ArialMT-7413" data-name="ArialMT-74" class="st59" d="M22.2,174h.8c0,.1,0,.3,0,.5,0,.3,0,.6-.2.7-.1.2-.2.3-.4.4-.2,0-.5.1-1,.1h-3v.6h-.7v-.6h-1.3l-.5-.9h1.8v-.9h.7v.9h3c.3,0,.4,0,.5,0,0,0,.1,0,.2-.2,0,0,0-.2,0-.3s0-.2,0-.4Z"/>
        </g>
      </g>
    </g>
    <g id="patch_31" data-name="patch_3">
      <g class="st25">
        <path class="st61" d="M81.4,351.6h28.7v-213.1h-28.7v213.1Z"/>
      </g>
    </g>
    <g id="patch_41" data-name="patch_4">
      <g class="st46">
        <path class="st61" d="M196.4,351.6h28.7v-61.8h-28.7v61.8Z"/>
      </g>
    </g>
    <g id="patch_51" data-name="patch_5">
      <g class="st40">
        <path class="st61" d="M311.3,351.6h28.7v-46.3h-28.7v46.3Z"/>
      </g>
    </g>
    <g id="patch_61" data-name="patch_6">
      <g class="st41">
        <path class="st61" d="M426.2,351.6h28.7v-106.9h-28.7v106.9Z"/>
      </g>
    </g>
    <g id="patch_71" data-name="patch_7">
      <g class="st42">
        <path class="st61" d="M541.2,351.6h28.7V63.1h-28.7v288.4Z"/>
      </g>
    </g>
    <g id="patch_81" data-name="patch_8">
      <g class="st43">
        <path class="st61" d="M656.1,351.6h28.7v-147h-28.7v147Z"/>
      </g>
    </g>
    <g id="patch_91" data-name="patch_9">
      <g class="st44">
        <path class="st61" d="M771.1,351.6h28.7v-24.1h-28.7v24.1Z"/>
      </g>
    </g>
    <g id="patch_101" data-name="patch_10">
      <g class="st47">
        <path class="st3" d="M110.2,351.6h28.7V110.1h-28.7v241.5Z"/>
      </g>
    </g>
    <g id="patch_111" data-name="patch_11">
      <g class="st48">
        <path class="st3" d="M225.1,351.6h28.7v-52.5h-28.7v52.5Z"/>
      </g>
    </g>
    <g id="patch_121" data-name="patch_12">
      <g class="st49">
        <path class="st3" d="M340,351.6h28.7v-35.2h-28.7v35.2Z"/>
      </g>
    </g>
    <g id="patch_131" data-name="patch_13">
      <g class="st45">
        <path class="st3" d="M455,351.6h28.7v-77.8h-28.7v77.8Z"/>
      </g>
    </g>
    <g id="patch_141" data-name="patch_14">
      <g class="st17">
        <path class="st3" d="M569.9,351.6h28.7V38.4h-28.7v313.1Z"/>
      </g>
    </g>
    <g id="patch_151" data-name="patch_15">
      <g class="st19">
        <path class="st3" d="M684.9,351.6h28.7v-148.9h-28.7v148.9Z"/>
      </g>
    </g>
    <g id="patch_161" data-name="patch_16">
      <g class="st18">
        <path class="st3" d="M799.8,351.6h28.7v-18.5h-28.7v18.5Z"/>
      </g>
    </g>
    <g id="patch_171" data-name="patch_17">
      <path class="st1" d="M52.7,351.6V22.8"/>
    </g>
    <g id="patch_181" data-name="patch_18">
      <path class="st1" d="M857.3,351.6V22.8"/>
    </g>
    <g id="patch_191" data-name="patch_19">
      <path class="st1" d="M52.7,351.6h804.6"/>
    </g>
    <g id="patch_201" data-name="patch_20">
      <path class="st1" d="M52.7,22.8h804.6"/>
    </g>
  </g>
  <g>
    <g id="legend_11" data-name="legend_1">
      <g id="patch_211" data-name="patch_21">
        <path class="st5" d="M732,60.1h115.6c1.6,0,2.5-.7,2.5-2v-27.3c0-1.3-.8-2-2.5-2h-115.6c-1.6,0-2.5.7-2.5,2v27.3c0,1.3.8,2,2.5,2Z"/>
      </g>
      <g id="patch_221" data-name="patch_22">
        <path class="st61" d="M733.5,40h20v-7h-20v7Z"/>
      </g>
      <g id="patch_231" data-name="patch_23">
        <path class="st3" d="M733.5,54.1h20v-7h-20v7Z"/>
      </g>
    </g>
    <text class="st4" transform="translate(758.9 54.4)"><tspan x="0" y="0">Pose Estimation</tspan></text>
    <text class="st4" transform="translate(758.9 40.3)"><tspan x="0" y="0">Primary Coder</tspan></text>
  </g>
</svg>