<?xml version="1.0" encoding="UTF-8"?>
<svg id="Layer_1" xmlns="http://www.w3.org/2000/svg" xmlns:xlink="http://www.w3.org/1999/xlink" version="1.1" viewBox="0 0 583.8 451.2">
  <!-- Generator: Adobe Illustrator 29.5.1, SVG Export Plug-In . SVG Version: 2.1.0 Build 141)  -->
  <defs>
    <style>
      .st0 {
        stroke: #7cfc00;
      }

      .st0, .st1 {
        fill: #7cfc00;
      }

      .st2, .st3, .st4 {
        fill: none;
      }

      .st3 {
        stroke-linecap: square;
      }

      .st3, .st5, .st4 {
        stroke: #ccc;
      }

      .st3, .st4 {
        stroke-width: .8px;
      }

      .st5 {
        isolation: isolate;
        opacity: .8;
      }

      .st5, .st6 {
        fill: #fff;
      }

      .st7 {
        font-family: ArialMT, Arial;
        font-size: 10px;
      }

      .st8 {
        clip-path: url(#clippath-17);
      }

      .st9 {
        clip-path: url(#clippath-19);
      }

      .st10 {
        clip-path: url(#clippath-11);
      }

      .st11 {
        clip-path: url(#clippath-16);
      }

      .st12 {
        clip-path: url(#clippath-18);
      }

      .st13 {
        clip-path: url(#clippath-10);
      }

      .st14 {
        clip-path: url(#clippath-15);
      }

      .st15 {
        clip-path: url(#clippath-13);
      }

      .st16 {
        clip-path: url(#clippath-14);
      }

      .st17 {
        clip-path: url(#clippath-12);
      }

      .st18 {
        clip-path: url(#clippath-20);
      }

      .st19 {
        clip-path: url(#clippath-21);
      }

      .st20 {
        clip-path: url(#clippath-22);
      }

      .st21 {
        clip-path: url(#clippath-23);
      }

      .st22 {
        clip-path: url(#clippath-24);
      }

      .st23 {
        clip-path: url(#clippath-25);
      }

      .st24, .st1, .st25, .st26 {
        stroke: #fff;
      }

      .st24, .st27 {
        fill: #ff7f0e;
      }

      .st28 {
        stroke: #1f77b4;
      }

      .st28, .st26 {
        fill: #1f77b4;
      }

      .st29 {
        clip-path: url(#clippath-1);
      }

      .st30 {
        clip-path: url(#clippath-3);
      }

      .st31 {
        clip-path: url(#clippath-4);
      }

      .st32 {
        clip-path: url(#clippath-2);
      }

      .st33 {
        clip-path: url(#clippath-7);
      }

      .st34 {
        clip-path: url(#clippath-6);
      }

      .st35 {
        clip-path: url(#clippath-9);
      }

      .st36 {
        clip-path: url(#clippath-8);
      }

      .st37 {
        clip-path: url(#clippath-5);
      }

      .st38 {
        fill: #262626;
      }

      .st25, .st39 {
        fill: red;
      }

      .st40 {
        font-family: Arial-BoldMT, Arial;
        font-size: 12px;
        font-weight: 700;
      }

      .st4 {
        stroke-linecap: round;
        stroke-linejoin: round;
      }

      .st39 {
        stroke: red;
      }

      .st27 {
        stroke: #ff7f0e;
      }

      .st41 {
        clip-path: url(#clippath);
      }
    </style>
    <clipPath id="clippath">
      <rect class="st2" x="25.8" y="12.8" width="558" height="332.6"/>
    </clipPath>
    <clipPath id="clippath-1">
      <rect class="st2" x="25.8" y="12.8" width="558" height="332.6"/>
    </clipPath>
    <clipPath id="clippath-2">
      <rect class="st2" x="25.8" y="12.8" width="558" height="332.6"/>
    </clipPath>
    <clipPath id="clippath-3">
      <rect class="st2" x="25.8" y="12.8" width="558" height="332.6"/>
    </clipPath>
    <clipPath id="clippath-4">
      <rect class="st2" x="25.8" y="12.8" width="558" height="332.6"/>
    </clipPath>
    <clipPath id="clippath-5">
      <rect class="st2" x="25.8" y="12.8" width="558" height="332.6"/>
    </clipPath>
    <clipPath id="clippath-6">
      <rect class="st2" x="25.8" y="12.8" width="558" height="332.6"/>
    </clipPath>
    <clipPath id="clippath-7">
      <rect class="st2" x="25.8" y="12.8" width="558" height="332.6"/>
    </clipPath>
    <clipPath id="clippath-8">
      <rect class="st2" x="25.8" y="12.8" width="558" height="332.6"/>
    </clipPath>
    <clipPath id="clippath-9">
      <rect class="st2" x="25.8" y="12.8" width="558" height="332.6"/>
    </clipPath>
    <clipPath id="clippath-10">
      <rect class="st2" x="25.8" y="12.8" width="558" height="332.6"/>
    </clipPath>
    <clipPath id="clippath-11">
      <rect class="st2" x="25.8" y="12.8" width="558" height="332.6"/>
    </clipPath>
    <clipPath id="clippath-12">
      <rect class="st2" x="25.8" y="12.8" width="558" height="332.6"/>
    </clipPath>
    <clipPath id="clippath-13">
      <rect class="st2" x="25.8" y="12.8" width="558" height="332.6"/>
    </clipPath>
    <clipPath id="clippath-14">
      <rect class="st2" x="25.8" y="12.8" width="558" height="332.6"/>
    </clipPath>
    <clipPath id="clippath-15">
      <rect class="st2" x="25.8" y="12.8" width="558" height="332.6"/>
    </clipPath>
    <clipPath id="clippath-16">
      <rect class="st2" x="25.8" y="12.8" width="558" height="332.6"/>
    </clipPath>
    <clipPath id="clippath-17">
      <rect class="st2" x="25.8" y="12.8" width="558" height="332.6"/>
    </clipPath>
    <clipPath id="clippath-18">
      <rect class="st2" x="25.8" y="12.8" width="558" height="332.6"/>
    </clipPath>
    <clipPath id="clippath-19">
      <rect class="st2" x="25.8" y="12.8" width="558" height="332.6"/>
    </clipPath>
    <clipPath id="clippath-20">
      <rect class="st2" x="25.8" y="12.8" width="558" height="332.6"/>
    </clipPath>
    <clipPath id="clippath-21">
      <rect class="st2" x="25.8" y="12.8" width="558" height="332.6"/>
    </clipPath>
    <clipPath id="clippath-22">
      <rect class="st2" x="25.8" y="12.8" width="558" height="332.6"/>
    </clipPath>
    <clipPath id="clippath-23">
      <rect class="st2" x="25.8" y="12.8" width="558" height="332.6"/>
    </clipPath>
    <clipPath id="clippath-24">
      <rect class="st2" x="25.8" y="12.8" width="558" height="332.6"/>
    </clipPath>
    <clipPath id="clippath-25">
      <rect class="st2" x="25.8" y="12.8" width="558" height="332.6"/>
    </clipPath>
  </defs>
  <g id="patch_2">
    <path class="st6" d="M25.8,345.4h558V12.7H25.8v332.6Z"/>
  </g>
  <g id="line2d_1">
    <g class="st41">
      <path class="st4" d="M68.9,345.4V12.7"/>
    </g>
  </g>
  <g id="text_1">
    <g>
      <path id="ArialMT-50" class="st38" d="M20.4,424.5l-5.1-5.1,1.9-1.9c.3-.3.6-.6.8-.7.3-.2.6-.3.9-.4.3,0,.6,0,.9,0,.3.1.6.3.8.5.4.4.7.9.7,1.5,0,.6-.3,1.2-1,1.9l-1.3,1.3,2.1,2.1-.7.7ZM18.4,421.2l1.3-1.3c.4-.4.7-.8.7-1.2s-.1-.7-.4-1-.4-.3-.7-.4c-.3,0-.5,0-.7.1-.1,0-.4.3-.7.6l-1.3,1.3,1.8,1.8Z"/>
      <path id="ArialMT-72" class="st38" d="M25.1,419.9l-3.7-3.7.6-.6.6.6c-.1-.4-.2-.7-.1-.9,0-.2.1-.4.3-.5.2-.2.5-.4.8-.4l.4.8c-.2,0-.4.2-.6.3s-.2.3-.2.5,0,.4.1.6c.2.3.4.6.6.8l1.9,1.9-.6.6Z"/>
      <path id="ArialMT-69" class="st38" d="M23.1,413.2l-.7-.7.6-.6.7.7-.6.6ZM27.4,417.5l-3.7-3.7.6-.6,3.7,3.7-.6.6Z"/>
      <path id="ArialMT-6d" class="st38" d="M29,415.9l-3.7-3.7.6-.6.5.5c0-.3,0-.6,0-.9,0-.3.2-.6.5-.8s.6-.4.8-.5.6,0,.8.1c-.1-.7,0-1.3.5-1.8s.7-.5,1.1-.5c.4,0,.8.2,1.2.6l2.5,2.5-.6.6-2.3-2.3c-.2-.2-.4-.4-.6-.5-.1,0-.3,0-.5,0-.2,0-.3.1-.5.3-.3.3-.4.6-.4.9,0,.3.2.7.6,1.1l2.1,2.1-.6.6-2.4-2.4c-.3-.3-.5-.4-.8-.5-.2,0-.5,0-.7.3s-.3.4-.3.6c0,.2,0,.5,0,.7.1.2.3.5.7.9l1.9,1.9-.6.6Z"/>
      <path id="ArialMT-61" class="st38" d="M36.8,407.2c0,.4-.1.8-.3,1.1-.1.3-.3.6-.6.8-.4.4-.8.6-1.2.6s-.8-.1-1.1-.4-.3-.4-.4-.6c0-.2,0-.5,0-.7s.1-.4.2-.7c0-.2.2-.4.5-.6.4-.6.7-1,.9-1.3,0,0-.1-.1-.2-.2-.3-.3-.5-.4-.7-.4-.3,0-.6.2-.9.5s-.5.6-.5.8,0,.5.2.9l-.7.5c-.2-.3-.3-.6-.4-.9,0-.3,0-.6.2-.9.2-.3.4-.6.7-1s.6-.5.9-.7c.3-.1.5-.2.7-.2.2,0,.4,0,.6.2.1,0,.3.3.6.5l.8.8c.6.6,1,.9,1.1,1.1.2.1.4.2.6.3l-.6.6c-.2,0-.4-.2-.6-.3ZM35.4,405.9c-.1.3-.4.7-.8,1.3-.2.3-.4.5-.4.7,0,.2,0,.3,0,.4,0,.1.1.3.2.4.2.2.4.2.6.2.2,0,.5-.1.7-.4s.4-.5.5-.8c0-.3,0-.6,0-.8,0-.2-.2-.4-.5-.7l-.2-.2Z"/>
      <path id="ArialMT-721" data-name="ArialMT-72" class="st38" d="M38.8,406.1l-3.7-3.7.6-.6.6.6c-.1-.4-.2-.7-.1-.9,0-.2.1-.4.3-.5.2-.2.5-.4.8-.4l.4.8c-.2,0-.4.2-.6.3s-.2.3-.2.5,0,.4.1.6c.2.3.4.6.6.8l1.9,1.9-.6.6Z"/>
      <path id="ArialMT-79" class="st38" d="M42.5,405.2l-.7-.5c.2,0,.3-.2.4-.3s.2-.3.3-.4c0-.1,0-.3,0-.4,0-.1-.1-.3-.3-.7,0,0,0-.1,0-.2l-5.1-2.3.7-.7,2.9,1.4c.4.2.7.4,1.1.6-.2-.4-.4-.7-.6-1.1l-1.4-2.9.6-.6,2.3,5.1c.3.6.4.9.5,1.2,0,.3.1.6,0,.8,0,.2-.2.5-.4.7s-.3.2-.5.3Z"/>
      <path id="ArialMT-20" class="st38" d="M44.2,400.7"/>
      <path id="ArialMT-68" class="st38" d="M46.7,398.3l-5.1-5.1.6-.6,1.8,1.8c0-.6.2-1.2.6-1.6s.6-.5.9-.5c.3,0,.6,0,.9,0s.6.3,1,.7l2.3,2.3-.6.6-2.3-2.3c-.3-.3-.6-.5-.9-.5s-.5.1-.8.4-.3.4-.4.7c0,.3,0,.5,0,.7,0,.2.3.5.6.8l2,2-.6.6Z"/>
      <path id="ArialMT-75" class="st38" d="M53,391.9l-.5-.5c.1.7,0,1.3-.5,1.8s-.5.4-.7.5c-.3.1-.5.1-.7.1-.2,0-.4-.1-.7-.3-.1,0-.4-.3-.6-.5l-2.3-2.3.6-.6,2,2c.3.3.6.5.7.6.2.1.4.2.6.1.2,0,.4-.1.6-.3s.3-.4.4-.7c0-.3,0-.5,0-.7,0-.2-.3-.5-.6-.8l-2-2,.6-.6,3.7,3.7-.6.6Z"/>
      <path id="ArialMT-6d1" data-name="ArialMT-6d" class="st38" d="M54.5,390.4l-3.7-3.7.6-.6.5.5c0-.3,0-.6,0-.9,0-.3.2-.6.5-.8s.6-.4.8-.5.6,0,.8.1c-.1-.7,0-1.3.5-1.8s.7-.5,1.1-.5c.4,0,.8.2,1.2.6l2.5,2.5-.6.6-2.3-2.3c-.2-.2-.4-.4-.6-.5-.1,0-.3,0-.5,0-.2,0-.3.1-.5.3-.3.3-.4.6-.4.9,0,.3.2.7.6,1.1l2.1,2.1-.6.6-2.4-2.4c-.3-.3-.5-.4-.8-.5-.2,0-.5,0-.7.3s-.3.4-.3.6c0,.2,0,.5,0,.7.1.2.3.5.7.9l1.9,1.9-.6.6Z"/>
      <path id="ArialMT-611" data-name="ArialMT-61" class="st38" d="M62.4,381.7c0,.4-.1.8-.3,1.1-.1.3-.3.6-.6.8-.4.4-.8.6-1.2.6s-.8-.1-1.1-.4-.3-.4-.4-.6c0-.2,0-.5,0-.7s.1-.4.2-.7c0-.2.2-.4.5-.6.4-.6.7-1,.9-1.3,0,0-.1-.1-.2-.2-.3-.3-.5-.4-.7-.4-.3,0-.6.2-.9.5s-.5.6-.5.8,0,.5.2.9l-.7.5c-.2-.3-.3-.6-.4-.9,0-.3,0-.6.2-.9.2-.3.4-.6.7-1s.6-.5.9-.7c.3-.1.5-.2.7-.2.2,0,.4,0,.6.2.1,0,.3.3.6.5l.8.8c.6.6,1,.9,1.1,1.1.2.1.4.2.6.3l-.6.6c-.2,0-.4-.2-.6-.3ZM60.9,380.3c-.1.3-.4.7-.8,1.3-.2.3-.4.5-.4.7,0,.2,0,.3,0,.4,0,.1.1.3.2.4.2.2.4.2.6.2.2,0,.5-.1.7-.4s.4-.5.5-.8c0-.3,0-.6,0-.8,0-.2-.2-.4-.5-.7l-.2-.2Z"/>
      <path id="ArialMT-6e" class="st38" d="M64.3,380.6l-3.7-3.7.6-.6.5.5c-.1-.7,0-1.3.6-1.8s.5-.4.7-.5.5-.1.7-.1.4.1.7.3c.1,0,.4.3.6.6l2.3,2.3-.6.6-2.2-2.2c-.3-.3-.5-.4-.6-.5-.2,0-.4,0-.6,0-.2,0-.4.2-.5.3-.3.3-.4.6-.4.9s.2.8.7,1.2l2,2-.6.6Z"/>
      <path id="ArialMT-201" data-name="ArialMT-20" class="st38" d="M67.8,377.1"/>
      <path id="ArialMT-63" class="st38" d="M71.3,370.9l.7-.5c.4.5.5,1,.5,1.5,0,.5-.3,1-.7,1.4s-1.1.7-1.7.7c-.6,0-1.3-.3-1.9-1s-.7-.8-.8-1.2c-.2-.4-.2-.9,0-1.3.1-.4.3-.8.7-1.1s.8-.6,1.3-.7c.5,0,.9,0,1.3.4l-.5.7c-.3-.2-.6-.3-.9-.2-.3,0-.5.1-.7.3-.3.3-.5.7-.4,1.1,0,.4.3.9.8,1.4s.9.8,1.4.8c.4,0,.8-.1,1.1-.4s.4-.5.4-.8c0-.3-.1-.6-.4-1Z"/>
      <path id="ArialMT-6f" class="st38" d="M71.7,369.5c-.7-.7-1-1.4-.9-2.1,0-.6.3-1.1.7-1.6s1.1-.8,1.7-.7c.7,0,1.3.3,1.8.9s.8.9.9,1.3c.1.4.1.8,0,1.2-.1.4-.3.8-.7,1.1-.5.5-1.1.8-1.7.8-.6,0-1.3-.3-1.9-.9ZM72.4,368.9c.5.5.9.7,1.4.7.4,0,.8-.1,1.1-.4s.4-.7.4-1.1c0-.4-.3-.9-.8-1.4s-.9-.7-1.3-.7-.8.1-1.1.4-.5.7-.4,1.1c0,.4.3.9.7,1.4Z"/>
      <path id="ArialMT-64" class="st38" d="M80.1,364.8l-.5-.5c.1.6,0,1.1-.5,1.6s-.6.5-1,.6-.8,0-1.2-.1c-.4-.2-.8-.4-1.2-.8s-.6-.8-.8-1.2c-.2-.4-.2-.8-.1-1.2,0-.4.3-.8.6-1.1s.5-.4.7-.4c.3,0,.5,0,.8,0l-1.8-1.8.6-.6,5.1,5.1-.6.6ZM76.3,365c.5.5.9.7,1.3.8.4,0,.8,0,1-.4s.4-.6.4-1c0-.4-.3-.8-.7-1.3s-1-.8-1.4-.8c-.4,0-.8,0-1.1.4s-.4.6-.4,1c0,.4.3.9.8,1.3Z"/>
      <path id="ArialMT-65" class="st38" d="M83,359.6l.7-.6c.3.5.4,1,.3,1.4,0,.5-.3.9-.7,1.4s-1.1.8-1.8.8c-.6,0-1.3-.3-1.9-.9s-.9-1.3-1-1.9c0-.7.2-1.2.7-1.7s1.1-.7,1.7-.7,1.3.3,1.9.9,0,0,.2.2l-2.7,2.7c.4.4.8.6,1.3.6.4,0,.8-.1,1.1-.4s.4-.5.4-.8c0-.3,0-.6-.2-1ZM79.9,360.6l2-2c-.3-.3-.6-.4-.9-.5-.4,0-.8,0-1.1.4s-.4.6-.4,1,.1.7.4,1.1Z"/>
      <path id="ArialMT-722" data-name="ArialMT-72" class="st38" d="M85.6,359.3l-3.7-3.7.6-.6.6.6c-.1-.4-.2-.7-.1-.9,0-.2.1-.4.3-.5.2-.2.5-.4.8-.4l.4.8c-.2,0-.4.2-.6.3s-.2.3-.2.5,0,.4.1.6c.2.3.4.6.6.8l1.9,1.9-.6.6Z"/>
    </g>
  </g>
  <g id="line2d_2">
    <g class="st29">
      <path class="st4" d="M127.9,345.4V12.7"/>
    </g>
  </g>
  <g id="text_2">
    <g>
      <path id="ArialMT-53" class="st38" d="M68.9,432.6l.6-.7c.3.2.6.4.8.4.3,0,.6,0,.9-.1.3-.1.6-.3.9-.6s.4-.5.6-.8c.1-.3.2-.5.1-.7,0-.2-.1-.4-.3-.6s-.3-.3-.6-.3-.5,0-.8.2c-.2,0-.6.3-1.1.7-.6.4-1,.6-1.3.7-.4.1-.7.1-1,0-.3,0-.6-.2-.8-.5s-.4-.6-.5-.9c0-.4,0-.7.1-1.1.2-.4.4-.8.8-1.1s.8-.6,1.2-.8c.4-.2.8-.2,1.2-.1.4,0,.7.3,1,.5l-.6.7c-.4-.3-.7-.4-1.1-.4-.4,0-.7.2-1.1.6s-.6.8-.7,1.1c0,.3,0,.6.3.8s.4.3.6.3c.2,0,.7-.2,1.4-.6.7-.4,1.1-.7,1.4-.8.4-.2.8-.2,1.2-.1.3,0,.7.2.9.5s.4.6.5,1c0,.4,0,.8-.1,1.2-.2.4-.4.8-.8,1.2s-.9.8-1.4,1c-.4.2-.9.2-1.3.1-.4,0-.8-.3-1.2-.6Z"/>
      <path id="ArialMT-651" data-name="ArialMT-65" class="st38" d="M76.7,425.7l.7-.6c.3.5.4,1,.3,1.4,0,.5-.3.9-.7,1.4s-1.1.8-1.8.8c-.6,0-1.3-.3-1.9-.9s-.9-1.3-1-1.9c0-.7.2-1.2.7-1.7s1.1-.7,1.7-.7,1.3.3,1.9.9,0,0,.2.2l-2.7,2.7c.4.4.8.6,1.3.6.4,0,.8-.1,1.1-.4s.4-.5.4-.8c0-.3,0-.6-.2-1ZM73.6,426.7l2-2c-.3-.3-.6-.4-.9-.5-.4,0-.8,0-1.1.4s-.4.6-.4,1,.1.7.4,1.1Z"/>
      <path id="ArialMT-631" data-name="ArialMT-63" class="st38" d="M80.3,421.7l.7-.5c.4.5.5,1,.5,1.5,0,.5-.3,1-.7,1.4s-1.1.7-1.7.7c-.6,0-1.3-.3-1.9-1s-.7-.8-.8-1.2c-.2-.4-.2-.9,0-1.3.1-.4.3-.8.7-1.1s.8-.6,1.3-.7c.5,0,.9,0,1.3.4l-.5.7c-.3-.2-.6-.3-.9-.2-.3,0-.5.1-.7.3-.3.3-.5.7-.4,1.1,0,.4.3.9.8,1.4s.9.8,1.4.8c.4,0,.8-.1,1.1-.4s.4-.5.4-.8c0-.3-.1-.6-.4-1Z"/>
      <path id="ArialMT-6f1" data-name="ArialMT-6f" class="st38" d="M80.8,420.3c-.7-.7-1-1.4-.9-2.1,0-.6.3-1.1.7-1.6s1.1-.8,1.7-.7c.7,0,1.3.3,1.8.9s.8.9.9,1.3c.1.4.1.8,0,1.2-.1.4-.3.8-.7,1.1-.5.5-1.1.8-1.7.8-.6,0-1.3-.3-1.9-.9ZM81.4,419.7c.5.5.9.7,1.4.7.4,0,.8-.1,1.1-.4s.4-.7.4-1.1c0-.4-.3-.9-.8-1.4s-.9-.7-1.3-.7-.8.1-1.1.4-.5.7-.4,1.1c0,.4.3.9.7,1.4Z"/>
      <path id="ArialMT-6e1" data-name="ArialMT-6e" class="st38" d="M86.8,418l-3.7-3.7.6-.6.5.5c-.1-.7,0-1.3.6-1.8s.5-.4.7-.5.5-.1.7-.1.4.1.7.3c.1,0,.4.3.6.6l2.3,2.3-.6.6-2.2-2.2c-.3-.3-.5-.4-.6-.5-.2,0-.4,0-.6,0-.2,0-.4.2-.5.3-.3.3-.4.6-.4.9s.2.8.7,1.2l2,2-.6.6Z"/>
      <path id="ArialMT-641" data-name="ArialMT-64" class="st38" d="M93.1,411.7l-.5-.5c.1.6,0,1.1-.5,1.6s-.6.5-1,.6-.8,0-1.2-.1c-.4-.2-.8-.4-1.2-.8s-.6-.8-.8-1.2c-.2-.4-.2-.8-.1-1.2,0-.4.3-.8.6-1.1s.5-.4.7-.4c.3,0,.5,0,.8,0l-1.8-1.8.6-.6,5.1,5.1-.6.6ZM89.3,411.8c.5.5.9.7,1.3.8.4,0,.8,0,1-.4s.4-.6.4-1c0-.4-.3-.8-.7-1.3s-1-.8-1.4-.8c-.4,0-.8,0-1.1.4s-.4.6-.4,1c0,.4.3.9.8,1.3Z"/>
      <path id="ArialMT-612" data-name="ArialMT-61" class="st38" d="M96.6,407.3c0,.4-.1.8-.3,1.1-.1.3-.3.6-.6.8-.4.4-.8.6-1.2.6s-.8-.1-1.1-.4-.3-.4-.4-.6c0-.2,0-.5,0-.7s.1-.4.2-.7c0-.2.2-.4.5-.6.4-.6.7-1,.9-1.3,0,0-.1-.1-.2-.2-.3-.3-.5-.4-.7-.4-.3,0-.6.2-.9.5s-.5.6-.5.8,0,.5.2.9l-.7.5c-.2-.3-.3-.6-.4-.9,0-.3,0-.6.2-.9.2-.3.4-.6.7-1s.6-.5.9-.7c.3-.1.5-.2.7-.2.2,0,.4,0,.6.2.1,0,.3.3.6.5l.8.8c.6.6,1,.9,1.1,1.1.2.1.4.2.6.3l-.6.6c-.2,0-.4-.2-.6-.3ZM95.1,405.9c-.1.3-.4.7-.8,1.3-.2.3-.4.5-.4.7,0,.2,0,.3,0,.4,0,.1.1.3.2.4.2.2.4.2.6.2.2,0,.5-.1.7-.4s.4-.5.5-.8c0-.3,0-.6,0-.8,0-.2-.2-.4-.5-.7l-.2-.2Z"/>
      <path id="ArialMT-723" data-name="ArialMT-72" class="st38" d="M98.6,406.2l-3.7-3.7.6-.6.6.6c-.1-.4-.2-.7-.1-.9,0-.2.1-.4.3-.5.2-.2.5-.4.8-.4l.4.8c-.2,0-.4.2-.6.3s-.2.3-.2.5,0,.4.1.6c.2.3.4.6.6.8l1.9,1.9-.6.6Z"/>
      <path id="ArialMT-791" data-name="ArialMT-79" class="st38" d="M102.3,405.3l-.7-.5c.2,0,.3-.2.4-.3s.2-.3.3-.4c0-.1,0-.3,0-.4,0-.1-.1-.3-.3-.7,0,0,0-.1,0-.2l-5.1-2.3.7-.7,2.9,1.4c.4.2.7.4,1.1.6-.2-.4-.4-.7-.6-1.1l-1.4-2.9.6-.6,2.3,5.1c.3.6.4.9.5,1.2,0,.3.1.6,0,.8,0,.2-.2.5-.4.7s-.3.2-.5.3Z"/>
      <path id="ArialMT-202" data-name="ArialMT-20" class="st38" d="M104,400.8"/>
      <path id="ArialMT-681" data-name="ArialMT-68" class="st38" d="M106.4,398.3l-5.1-5.1.6-.6,1.8,1.8c0-.6.2-1.2.6-1.6s.6-.5.9-.5c.3,0,.6,0,.9,0s.6.3,1,.7l2.3,2.3-.6.6-2.3-2.3c-.3-.3-.6-.5-.9-.5s-.5.1-.8.4-.3.4-.4.7c0,.3,0,.5,0,.7,0,.2.3.5.6.8l2,2-.6.6Z"/>
      <path id="ArialMT-751" data-name="ArialMT-75" class="st38" d="M112.8,392l-.5-.5c.1.7,0,1.3-.5,1.8s-.5.4-.7.5c-.3.1-.5.1-.7.1-.2,0-.4-.1-.7-.3-.1,0-.4-.3-.6-.5l-2.3-2.3.6-.6,2,2c.3.3.6.5.7.6.2.1.4.2.6.1.2,0,.4-.1.6-.3s.3-.4.4-.7c0-.3,0-.5,0-.7,0-.2-.3-.5-.6-.8l-2-2,.6-.6,3.7,3.7-.6.6Z"/>
      <path id="ArialMT-6d2" data-name="ArialMT-6d" class="st38" d="M114.3,390.5l-3.7-3.7.6-.6.5.5c0-.3,0-.6,0-.9,0-.3.2-.6.5-.8s.6-.4.8-.5.6,0,.8.1c-.1-.7,0-1.3.5-1.8s.7-.5,1.1-.5c.4,0,.8.2,1.2.6l2.5,2.5-.6.6-2.3-2.3c-.2-.2-.4-.4-.6-.5-.1,0-.3,0-.5,0-.2,0-.3.1-.5.3-.3.3-.4.6-.4.9,0,.3.2.7.6,1.1l2.1,2.1-.6.6-2.4-2.4c-.3-.3-.5-.4-.8-.5-.2,0-.5,0-.7.3s-.3.4-.3.6c0,.2,0,.5,0,.7.1.2.3.5.7.9l1.9,1.9-.6.6Z"/>
      <path id="ArialMT-613" data-name="ArialMT-61" class="st38" d="M122.1,381.7c0,.4-.1.8-.3,1.1-.1.3-.3.6-.6.8-.4.4-.8.6-1.2.6s-.8-.1-1.1-.4-.3-.4-.4-.6c0-.2,0-.5,0-.7s.1-.4.2-.7c0-.2.2-.4.5-.6.4-.6.7-1,.9-1.3,0,0-.1-.1-.2-.2-.3-.3-.5-.4-.7-.4-.3,0-.6.2-.9.5s-.5.6-.5.8,0,.5.2.9l-.7.5c-.2-.3-.3-.6-.4-.9,0-.3,0-.6.2-.9.2-.3.4-.6.7-1s.6-.5.9-.7c.3-.1.5-.2.7-.2.2,0,.4,0,.6.2.1,0,.3.3.6.5l.8.8c.6.6,1,.9,1.1,1.1.2.1.4.2.6.3l-.6.6c-.2,0-.4-.2-.6-.3ZM120.7,380.4c-.1.3-.4.7-.8,1.3-.2.3-.4.5-.4.7,0,.2,0,.3,0,.4,0,.1.1.3.2.4.2.2.4.2.6.2.2,0,.5-.1.7-.4s.4-.5.5-.8c0-.3,0-.6,0-.8,0-.2-.2-.4-.5-.7l-.2-.2Z"/>
      <path id="ArialMT-6e2" data-name="ArialMT-6e" class="st38" d="M124.1,380.7l-3.7-3.7.6-.6.5.5c-.1-.7,0-1.3.6-1.8s.5-.4.7-.5.5-.1.7-.1.4.1.7.3c.1,0,.4.3.6.6l2.3,2.3-.6.6-2.2-2.2c-.3-.3-.5-.4-.6-.5-.2,0-.4,0-.6,0-.2,0-.4.2-.5.3-.3.3-.4.6-.4.9s.2.8.7,1.2l2,2-.6.6Z"/>
      <path id="ArialMT-203" data-name="ArialMT-20" class="st38" d="M127.6,377.2"/>
      <path id="ArialMT-632" data-name="ArialMT-63" class="st38" d="M131,371l.7-.5c.4.5.5,1,.5,1.5,0,.5-.3,1-.7,1.4s-1.1.7-1.7.7c-.6,0-1.3-.3-1.9-1s-.7-.8-.8-1.2c-.2-.4-.2-.9,0-1.3.1-.4.3-.8.7-1.1s.8-.6,1.3-.7c.5,0,.9,0,1.3.4l-.5.7c-.3-.2-.6-.3-.9-.2-.3,0-.5.1-.7.3-.3.3-.5.7-.4,1.1,0,.4.3.9.8,1.4s.9.8,1.4.8c.4,0,.8-.1,1.1-.4s.4-.5.4-.8c0-.3-.1-.6-.4-1Z"/>
      <path id="ArialMT-6f2" data-name="ArialMT-6f" class="st38" d="M131.5,369.6c-.7-.7-1-1.4-.9-2.1,0-.6.3-1.1.7-1.6s1.1-.8,1.7-.7c.7,0,1.3.3,1.8.9s.8.9.9,1.3c.1.4.1.8,0,1.2-.1.4-.3.8-.7,1.1-.5.5-1.1.8-1.7.8-.6,0-1.3-.3-1.9-.9ZM132.1,369c.5.5.9.7,1.4.7.4,0,.8-.1,1.1-.4s.4-.7.4-1.1c0-.4-.3-.9-.8-1.4s-.9-.7-1.3-.7-.8.1-1.1.4-.5.7-.4,1.1c0,.4.3.9.7,1.4Z"/>
      <path id="ArialMT-642" data-name="ArialMT-64" class="st38" d="M139.8,364.9l-.5-.5c.1.6,0,1.1-.5,1.6s-.6.5-1,.6-.8,0-1.2-.1c-.4-.2-.8-.4-1.2-.8s-.6-.8-.8-1.2c-.2-.4-.2-.8-.1-1.2,0-.4.3-.8.6-1.1s.5-.4.7-.4c.3,0,.5,0,.8,0l-1.8-1.8.6-.6,5.1,5.1-.6.6ZM136.1,365c.5.5.9.7,1.3.8.4,0,.8,0,1-.4s.4-.6.4-1c0-.4-.3-.8-.7-1.3s-1-.8-1.4-.8c-.4,0-.8,0-1.1.4s-.4.6-.4,1c0,.4.3.9.8,1.3Z"/>
      <path id="ArialMT-652" data-name="ArialMT-65" class="st38" d="M142.7,359.7l.7-.6c.3.5.4,1,.3,1.4,0,.5-.3.9-.7,1.4s-1.1.8-1.8.8c-.6,0-1.3-.3-1.9-.9s-.9-1.3-1-1.9c0-.7.2-1.2.7-1.7s1.1-.7,1.7-.7,1.3.3,1.9.9,0,0,.2.2l-2.7,2.7c.4.4.8.6,1.3.6.4,0,.8-.1,1.1-.4s.4-.5.4-.8c0-.3,0-.6-.2-1ZM139.7,360.7l2-2c-.3-.3-.6-.4-.9-.5-.4,0-.8,0-1.1.4s-.4.6-.4,1,.1.7.4,1.1Z"/>
      <path id="ArialMT-724" data-name="ArialMT-72" class="st38" d="M145.3,359.4l-3.7-3.7.6-.6.6.6c-.1-.4-.2-.7-.1-.9,0-.2.1-.4.3-.5.2-.2.5-.4.8-.4l.4.8c-.2,0-.4.2-.6.3s-.2.3-.2.5,0,.4.1.6c.2.3.4.6.6.8l1.9,1.9-.6.6Z"/>
    </g>
  </g>
  <g id="line2d_3">
    <g class="st32">
      <path class="st4" d="M186.9,345.4V12.7"/>
    </g>
  </g>
  <g id="text_3">
    <g>
      <path id="ArialMT-501" data-name="ArialMT-50" class="st38" d="M154.1,407.2l-5.1-5.1,1.9-1.9c.3-.3.6-.6.8-.7.3-.2.6-.3.9-.4.3,0,.6,0,.9,0,.3.1.6.3.8.5.4.4.7.9.7,1.5,0,.6-.3,1.2-1,1.9l-1.3,1.3,2.1,2.1-.7.7ZM152.1,403.9l1.3-1.3c.4-.4.7-.8.7-1.2s-.1-.7-.4-1-.4-.3-.7-.4c-.3,0-.5,0-.7.1-.1,0-.4.3-.7.6l-1.3,1.3,1.8,1.8Z"/>
      <path id="ArialMT-6f3" data-name="ArialMT-6f" class="st38" d="M156.6,401c-.7-.7-1-1.4-.9-2.1,0-.6.3-1.1.7-1.6s1.1-.8,1.7-.7c.7,0,1.3.3,1.8.9s.8.9.9,1.3c.1.4.1.8,0,1.2-.1.4-.3.8-.7,1.1-.5.5-1.1.8-1.7.8-.6,0-1.3-.3-1.9-.9ZM157.3,400.3c.5.5.9.7,1.4.7.4,0,.8-.1,1.1-.4s.4-.7.4-1.1c0-.4-.3-.9-.8-1.4s-.9-.7-1.3-.7-.8.1-1.1.4-.5.7-.4,1.1c0,.4.3.9.7,1.4Z"/>
      <path id="ArialMT-73" class="st38" d="M161.3,397.8l.5-.7c.3.2.6.3.9.3.3,0,.6-.2.9-.5s.4-.6.5-.8c0-.3,0-.5-.2-.6s-.3-.2-.5-.1c-.1,0-.4.2-.8.4-.6.3-1,.6-1.2.6s-.5.1-.7,0c-.2,0-.4-.2-.6-.4s-.3-.4-.3-.6c0-.2,0-.4,0-.7,0-.2,0-.4.2-.6.1-.2.3-.4.5-.6.3-.3.6-.5.9-.6.3-.1.6-.2.8-.1.2,0,.5.2.8.4l-.5.7c-.2-.2-.4-.2-.7-.2-.2,0-.5.2-.7.4s-.4.5-.5.8c0,.2,0,.4.1.5s.2.1.3.1c.1,0,.3,0,.4,0,0,0,.3-.2.7-.4.6-.3,1-.5,1.2-.6.2,0,.5-.1.7,0,.2,0,.5.2.7.4s.3.5.4.8c0,.3,0,.6,0,.9-.1.3-.3.6-.6.9-.5.5-.9.7-1.4.8-.4,0-.9,0-1.4-.4Z"/>
      <path id="ArialMT-653" data-name="ArialMT-65" class="st38" d="M167.5,391.4l.7-.6c.3.5.4,1,.3,1.4,0,.5-.3.9-.7,1.4s-1.1.8-1.8.8c-.6,0-1.3-.3-1.9-.9s-.9-1.3-1-1.9c0-.7.2-1.2.7-1.7s1.1-.7,1.7-.7,1.3.3,1.9.9,0,0,.2.2l-2.7,2.7c.4.4.8.6,1.3.6.4,0,.8-.1,1.1-.4s.4-.5.4-.8c0-.3,0-.6-.2-1ZM164.5,392.5l2-2c-.3-.3-.6-.4-.9-.5-.4,0-.8,0-1.1.4s-.4.6-.4,1,.1.7.4,1.1Z"/>
      <path id="ArialMT-204" data-name="ArialMT-20" class="st38" d="M169.6,391.6"/>
      <path id="ArialMT-654" data-name="ArialMT-65" class="st38" d="M173.4,385.5l.7-.6c.3.5.4,1,.3,1.4,0,.5-.3.9-.7,1.4s-1.1.8-1.8.8c-.6,0-1.3-.3-1.9-.9s-.9-1.3-1-1.9c0-.7.2-1.2.7-1.7s1.1-.7,1.7-.7,1.3.3,1.9.9,0,0,.2.2l-2.7,2.7c.4.4.8.6,1.3.6.4,0,.8-.1,1.1-.4s.4-.5.4-.8c0-.3,0-.6-.2-1ZM170.4,386.6l2-2c-.3-.3-.6-.4-.9-.5-.4,0-.8,0-1.1.4s-.4.6-.4,1,.1.7.4,1.1Z"/>
      <path id="ArialMT-731" data-name="ArialMT-73" class="st38" d="M174.7,384.4l.5-.7c.3.2.6.3.9.3.3,0,.6-.2.9-.5s.4-.6.5-.8c0-.3,0-.5-.2-.6s-.3-.2-.5-.1c-.1,0-.4.2-.8.4-.6.3-1,.6-1.2.6s-.5.1-.7,0c-.2,0-.4-.2-.6-.4s-.3-.4-.3-.6c0-.2,0-.4,0-.7,0-.2,0-.4.2-.6.1-.2.3-.4.5-.6.3-.3.6-.5.9-.6.3-.1.6-.2.8-.1.2,0,.5.2.8.4l-.5.7c-.2-.2-.4-.2-.7-.2-.2,0-.5.2-.7.4s-.4.5-.5.8c0,.2,0,.4.1.5s.2.1.3.1c.1,0,.3,0,.4,0,0,0,.3-.2.7-.4.6-.3,1-.5,1.2-.6.2,0,.5-.1.7,0,.2,0,.5.2.7.4s.3.5.4.8c0,.3,0,.6,0,.9-.1.3-.3.6-.6.9-.5.5-.9.7-1.4.8-.4,0-.9,0-1.4-.4Z"/>
      <path id="ArialMT-74" class="st38" d="M180.3,379.8l.6.5c-.1.2-.3.4-.4.5-.2.2-.4.4-.6.4-.2,0-.4,0-.5,0-.2,0-.4-.3-.8-.7l-2.1-2.1-.5.5-.5-.5.5-.5-.9-.9.2-1,1.3,1.3.6-.6.5.5-.6.6,2.1,2.1c.2.2.3.3.4.3,0,0,.1,0,.2,0,0,0,.2,0,.3-.2s.2-.2.2-.3Z"/>
      <path id="ArialMT-691" data-name="ArialMT-69" class="st38" d="M177.2,375.4l-.7-.7.6-.6.7.7-.6.6ZM181.5,379.8l-3.7-3.7.6-.6,3.7,3.7-.6.6Z"/>
      <path id="ArialMT-6d3" data-name="ArialMT-6d" class="st38" d="M183.1,378.2l-3.7-3.7.6-.6.5.5c0-.3,0-.6,0-.9,0-.3.2-.6.5-.8s.6-.4.8-.5.6,0,.8.1c-.1-.7,0-1.3.5-1.8s.7-.5,1.1-.5c.4,0,.8.2,1.2.6l2.5,2.5-.6.6-2.3-2.3c-.2-.2-.4-.4-.6-.5-.1,0-.3,0-.5,0-.2,0-.3.1-.5.3-.3.3-.4.6-.4.9,0,.3.2.7.6,1.1l2.1,2.1-.6.6-2.4-2.4c-.3-.3-.5-.4-.8-.5-.2,0-.5,0-.7.3s-.3.4-.3.6c0,.2,0,.5,0,.7.1.2.3.5.7.9l1.9,1.9-.6.6Z"/>
      <path id="ArialMT-614" data-name="ArialMT-61" class="st38" d="M190.9,369.5c0,.4-.1.8-.3,1.1-.1.3-.3.6-.6.8-.4.4-.8.6-1.2.6s-.8-.1-1.1-.4-.3-.4-.4-.6c0-.2,0-.5,0-.7s.1-.4.2-.7c0-.2.2-.4.5-.6.4-.6.7-1,.9-1.3,0,0-.1-.1-.2-.2-.3-.3-.5-.4-.7-.4-.3,0-.6.2-.9.5s-.5.6-.5.8,0,.5.2.9l-.7.5c-.2-.3-.3-.6-.4-.9,0-.3,0-.6.2-.9.2-.3.4-.6.7-1s.6-.5.9-.7c.3-.1.5-.2.7-.2.2,0,.4,0,.6.2.1,0,.3.3.6.5l.8.8c.6.6,1,.9,1.1,1.1.2.1.4.2.6.3l-.6.6c-.2,0-.4-.2-.6-.3ZM189.5,368.1c-.1.3-.4.7-.8,1.3-.2.3-.4.5-.4.7,0,.2,0,.3,0,.4,0,.1.1.3.2.4.2.2.4.2.6.2.2,0,.5-.1.7-.4s.4-.5.5-.8c0-.3,0-.6,0-.8,0-.2-.2-.4-.5-.7l-.2-.2Z"/>
      <path id="ArialMT-741" data-name="ArialMT-74" class="st38" d="M193.7,366.5l.6.5c-.1.2-.3.4-.4.5-.2.2-.4.4-.6.4-.2,0-.4,0-.5,0-.2,0-.4-.3-.8-.7l-2.1-2.1-.5.5-.5-.5.5-.5-.9-.9.2-1,1.3,1.3.6-.6.5.5-.6.6,2.1,2.1c.2.2.3.3.4.3,0,0,.1,0,.2,0,0,0,.2,0,.3-.2s.2-.2.2-.3Z"/>
      <path id="ArialMT-692" data-name="ArialMT-69" class="st38" d="M190.5,362.1l-.7-.7.6-.6.7.7-.6.6ZM194.9,366.4l-3.7-3.7.6-.6,3.7,3.7-.6.6Z"/>
      <path id="ArialMT-6f4" data-name="ArialMT-6f" class="st38" d="M194.4,363.2c-.7-.7-1-1.4-.9-2.1,0-.6.3-1.1.7-1.6s1.1-.8,1.7-.7c.7,0,1.3.3,1.8.9s.8.9.9,1.3c.1.4.1.8,0,1.2-.1.4-.3.8-.7,1.1-.5.5-1.1.8-1.7.8-.6,0-1.3-.3-1.9-.9ZM195,362.6c.5.5.9.7,1.4.7.4,0,.8-.1,1.1-.4s.4-.7.4-1.1c0-.4-.3-.9-.8-1.4s-.9-.7-1.3-.7-.8.1-1.1.4-.5.7-.4,1.1c0,.4.3.9.7,1.4Z"/>
      <path id="ArialMT-6e3" data-name="ArialMT-6e" class="st38" d="M200.4,360.9l-3.7-3.7.6-.6.5.5c-.1-.7,0-1.3.6-1.8s.5-.4.7-.5.5-.1.7-.1.4.1.7.3c.1,0,.4.3.6.6l2.3,2.3-.6.6-2.2-2.2c-.3-.3-.5-.4-.6-.5-.2,0-.4,0-.6,0-.2,0-.4.2-.5.3-.3.3-.4.6-.4.9s.2.8.7,1.2l2,2-.6.6Z"/>
    </g>
  </g>
  <g id="line2d_4">
    <g class="st30">
      <path class="st4" d="M245.8,345.4V12.7"/>
    </g>
  </g>
  <g id="text_4">
    <g>
      <path id="ArialMT-51" class="st38" d="M212.3,407c.5,0,1-.2,1.3-.4l.3.7c-.5.2-1.1.4-1.7.5-.2.6-.5,1.1-.9,1.6s-1,.8-1.6.9c-.6.2-1.2.1-1.8,0-.6-.2-1.2-.6-1.7-1.1s-.9-1.1-1.1-1.7c-.2-.6-.2-1.2,0-1.8.2-.6.5-1.1.9-1.6s1-.8,1.6-.9c.6-.2,1.2-.1,1.8,0s1.1.6,1.6,1.1.7.9.9,1.3c.2.5.3.9.3,1.4ZM210,407.6c.5-.3,1-.4,1.4-.5,0-.8-.3-1.5-1-2.2s-.8-.7-1.3-.9c-.4-.2-.9-.2-1.3-.1s-.8.3-1.2.6c-.5.5-.7,1.1-.7,1.8s.4,1.3,1,2,1.3,1,2,1c.7,0,1.3-.2,1.8-.7s.4-.5.5-.8c-.3,0-.7.2-1,.4l-.3-.6Z"/>
      <path id="ArialMT-77" class="st38" d="M215.1,405.3l-4.8-2.5.6-.6,2.7,1.5,1,.6s-.2-.4-.6-.9l-1.6-2.7.6-.6,2.7,1.6.9.5-.5-.9-1.5-2.7.6-.6,2.5,4.8-.6.6-2.8-1.6-.8-.5,2.1,3.6-.6.6Z"/>
      <path id="ArialMT-655" data-name="ArialMT-65" class="st38" d="M220.9,397.1l.7-.6c.3.5.4,1,.3,1.4,0,.5-.3.9-.7,1.4s-1.1.8-1.8.8c-.6,0-1.3-.3-1.9-.9s-.9-1.3-1-1.9c0-.7.2-1.2.7-1.7s1.1-.7,1.7-.7,1.3.3,1.9.9,0,0,.2.2l-2.7,2.7c.4.4.8.6,1.3.6.4,0,.8-.1,1.1-.4s.4-.5.4-.8c0-.3,0-.6-.2-1ZM217.8,398.2l2-2c-.3-.3-.6-.4-.9-.5-.4,0-.8,0-1.1.4s-.4.6-.4,1,.1.7.4,1.1Z"/>
      <path id="ArialMT-6e4" data-name="ArialMT-6e" class="st38" d="M223.5,396.9l-3.7-3.7.6-.6.5.5c-.1-.7,0-1.3.6-1.8s.5-.4.7-.5.5-.1.7-.1.4.1.7.3c.1,0,.4.3.6.6l2.3,2.3-.6.6-2.2-2.2c-.3-.3-.5-.4-.6-.5-.2,0-.4,0-.6,0-.2,0-.4.2-.5.3-.3.3-.4.6-.4.9s.2.8.7,1.2l2,2-.6.6Z"/>
      <path id="ArialMT-32" class="st38" d="M229.9,389.3l.6.6-3.3,3.3c-.2-.1-.3-.3-.4-.5-.1-.3-.2-.7-.3-1.1,0-.4,0-.9,0-1.6,0-1,.1-1.7,0-2.2,0-.5-.2-.8-.5-1s-.5-.4-.9-.4c-.3,0-.7.2-.9.4s-.4.6-.4,1c0,.4.2.7.5,1l-.7.6c-.4-.5-.6-1-.6-1.6,0-.5.3-1,.8-1.5s1-.7,1.6-.7c.6,0,1,.2,1.4.6s.4.4.5.7c.1.3.2.6.2,1s0,1,0,1.8c0,.7,0,1.1,0,1.4,0,.2,0,.4,0,.6l2.5-2.5Z"/>
      <path id="ArialMT-2e" class="st38" d="M231.5,388.9l-.7-.7.7-.7.7.7-.7.7Z"/>
      <path id="ArialMT-35" class="st38" d="M231.8,385.9l.6-.7c.4.3.7.4,1.1.4.3,0,.6-.1.9-.4s.4-.7.4-1.1c0-.4-.2-.8-.6-1.2s-.7-.5-1.1-.5c-.4,0-.8.2-1.1.5s-.3.4-.4.7c0,.3,0,.5,0,.7l-.7.5-2.1-3.1,2.5-2.5.6.6-2,2,1.1,1.6c0-.5.3-.9.6-1.3s1-.7,1.6-.7c.6,0,1.2.2,1.6.7s.7,1,.8,1.6c0,.7-.2,1.4-.7,1.9s-1,.7-1.5.7c-.5,0-1.1-.1-1.5-.5Z"/>
      <path id="ArialMT-2d" class="st38" d="M235.5,381.9l-.6-.6,1.9-1.9.6.6-1.9,1.9Z"/>
      <path id="ArialMT-56" class="st38" d="M241.1,379.3l-7-3.1.7-.7,5,2.4c.4.2.8.4,1.1.6-.2-.4-.4-.7-.6-1.1l-2.3-5,.7-.7,3.1,7-.7.7Z"/>
      <path id="ArialMT-4c" class="st38" d="M244.4,376l-5.1-5.1.7-.7,4.5,4.5,2.5-2.5.6.6-3.2,3.2Z"/>
      <path id="ArialMT-205" data-name="ArialMT-20" class="st38" d="M247.5,372.9"/>
      <path id="ArialMT-28" class="st38" d="M252.6,370.7c-.8,0-1.6-.3-2.4-.6-.8-.3-1.5-.8-2.2-1.4s-1-1.2-1.3-1.8c-.4-.8-.6-1.7-.8-2.7l.4-.4c.2.8.4,1.3.5,1.6.2.5.4.9.7,1.3.3.5.7,1,1.2,1.4,1.1,1.1,2.6,1.9,4.3,2.3l-.4.4Z"/>
      <path id="ArialMT-31" class="st38" d="M254.5,365.9l-.6.6-4-4c0,.3,0,.6-.2,1s-.2.7-.3,1l-.6-.6c.2-.5.3-1,.3-1.5,0-.5,0-.9-.1-1.2l.4-.4,5.1,5.1Z"/>
      <path id="ArialMT-41" class="st38" d="M255.8,364.6l-3.1-7,.7-.7,7.1,3-.8.8-2.1-.9-2.1,2.1,1,2.1-.7.7ZM255.2,361.1l1.7-1.7-1.9-.9c-.6-.3-1.1-.5-1.4-.7.3.4.5.8.7,1.2l.9,2Z"/>
      <path id="ArialMT-29" class="st38" d="M262.9,360.5l-.4.4c-.4-1.8-1.2-3.2-2.3-4.3s-.9-.8-1.4-1.1c-.4-.3-.9-.5-1.3-.7-.3-.1-.8-.3-1.6-.5l.4-.4c1,.1,1.9.4,2.7.8.7.3,1.3.8,1.8,1.3s1.1,1.3,1.4,2.2c.3.8.6,1.6.7,2.4Z"/>
    </g>
  </g>
  <g id="line2d_5">
    <g class="st31">
      <path class="st4" d="M304.8,345.4V12.7"/>
    </g>
  </g>
  <g id="text_5">
    <g>
      <path id="ArialMT-511" data-name="ArialMT-51" class="st38" d="M271.3,407c.5,0,1-.2,1.3-.4l.3.7c-.5.2-1.1.4-1.7.5-.2.6-.5,1.1-.9,1.6s-1,.8-1.6.9c-.6.2-1.2.1-1.8,0-.6-.2-1.2-.6-1.7-1.1s-.9-1.1-1.1-1.7c-.2-.6-.2-1.2,0-1.8.2-.6.5-1.1.9-1.6s1-.8,1.6-.9c.6-.2,1.2-.1,1.8,0s1.1.6,1.6,1.1.7.9.9,1.3c.2.5.3.9.3,1.4ZM269,407.6c.5-.3,1-.4,1.4-.5,0-.8-.3-1.5-1-2.2s-.8-.7-1.3-.9c-.4-.2-.9-.2-1.3-.1s-.8.3-1.2.6c-.5.5-.7,1.1-.7,1.8s.4,1.3,1,2,1.3,1,2,1c.7,0,1.3-.2,1.8-.7s.4-.5.5-.8c-.3,0-.7.2-1,.4l-.3-.6Z"/>
      <path id="ArialMT-771" data-name="ArialMT-77" class="st38" d="M274.1,405.3l-4.8-2.5.6-.6,2.7,1.5,1,.6s-.2-.4-.6-.9l-1.6-2.7.6-.6,2.7,1.6.9.5-.5-.9-1.5-2.7.6-.6,2.5,4.8-.6.6-2.8-1.6-.8-.5,2.1,3.6-.6.6Z"/>
      <path id="ArialMT-656" data-name="ArialMT-65" class="st38" d="M279.9,397.1l.7-.6c.3.5.4,1,.3,1.4,0,.5-.3.9-.7,1.4s-1.1.8-1.8.8c-.6,0-1.3-.3-1.9-.9s-.9-1.3-1-1.9c0-.7.2-1.2.7-1.7s1.1-.7,1.7-.7,1.3.3,1.9.9,0,0,.2.2l-2.7,2.7c.4.4.8.6,1.3.6.4,0,.8-.1,1.1-.4s.4-.5.4-.8c0-.3,0-.6-.2-1ZM276.8,398.2l2-2c-.3-.3-.6-.4-.9-.5-.4,0-.8,0-1.1.4s-.4.6-.4,1,.1.7.4,1.1Z"/>
      <path id="ArialMT-6e5" data-name="ArialMT-6e" class="st38" d="M282.5,396.9l-3.7-3.7.6-.6.5.5c-.1-.7,0-1.3.6-1.8s.5-.4.7-.5.5-.1.7-.1.4.1.7.3c.1,0,.4.3.6.6l2.3,2.3-.6.6-2.2-2.2c-.3-.3-.5-.4-.6-.5-.2,0-.4,0-.6,0-.2,0-.4.2-.5.3-.3.3-.4.6-.4.9s.2.8.7,1.2l2,2-.6.6Z"/>
      <path id="ArialMT-321" data-name="ArialMT-32" class="st38" d="M288.9,389.3l.6.6-3.3,3.3c-.2-.1-.3-.3-.4-.5-.1-.3-.2-.7-.3-1.1,0-.4,0-.9,0-1.6,0-1,.1-1.7,0-2.2,0-.5-.2-.8-.5-1s-.5-.4-.9-.4c-.3,0-.7.2-.9.4s-.4.6-.4,1c0,.4.2.7.5,1l-.7.6c-.4-.5-.6-1-.6-1.6,0-.5.3-1,.8-1.5s1-.7,1.6-.7c.6,0,1,.2,1.4.6s.4.4.5.7c.1.3.2.6.2,1s0,1,0,1.8c0,.7,0,1.1,0,1.4,0,.2,0,.4,0,.6l2.5-2.5Z"/>
      <path id="ArialMT-2e1" data-name="ArialMT-2e" class="st38" d="M290.5,388.9l-.7-.7.7-.7.7.7-.7.7Z"/>
      <path id="ArialMT-351" data-name="ArialMT-35" class="st38" d="M290.8,385.9l.6-.7c.4.3.7.4,1.1.4.3,0,.6-.1.9-.4s.4-.7.4-1.1c0-.4-.2-.8-.6-1.2s-.7-.5-1.1-.5c-.4,0-.8.2-1.1.5s-.3.4-.4.7c0,.3,0,.5,0,.7l-.7.5-2.1-3.1,2.5-2.5.6.6-2,2,1.1,1.6c0-.5.3-.9.6-1.3s1-.7,1.6-.7c.6,0,1.2.2,1.6.7s.7,1,.8,1.6c0,.7-.2,1.4-.7,1.9s-1,.7-1.5.7c-.5,0-1.1-.1-1.5-.5Z"/>
      <path id="ArialMT-2d1" data-name="ArialMT-2d" class="st38" d="M294.5,381.9l-.6-.6,1.9-1.9.6.6-1.9,1.9Z"/>
      <path id="ArialMT-561" data-name="ArialMT-56" class="st38" d="M300.1,379.3l-7-3.1.7-.7,5,2.4c.4.2.8.4,1.1.6-.2-.4-.4-.7-.6-1.1l-2.3-5,.7-.7,3.1,7-.7.7Z"/>
      <path id="ArialMT-4c1" data-name="ArialMT-4c" class="st38" d="M303.4,376l-5.1-5.1.7-.7,4.5,4.5,2.5-2.5.6.6-3.2,3.2Z"/>
      <path id="ArialMT-206" data-name="ArialMT-20" class="st38" d="M306.5,372.9"/>
      <path id="ArialMT-281" data-name="ArialMT-28" class="st38" d="M311.6,370.7c-.8,0-1.6-.3-2.4-.6-.8-.3-1.5-.8-2.2-1.4s-1-1.2-1.3-1.8c-.4-.8-.6-1.7-.8-2.7l.4-.4c.2.8.4,1.3.5,1.6.2.5.4.9.7,1.3.3.5.7,1,1.2,1.4,1.1,1.1,2.6,1.9,4.3,2.3l-.4.4Z"/>
      <path id="ArialMT-311" data-name="ArialMT-31" class="st38" d="M313.5,365.9l-.6.6-4-4c0,.3,0,.6-.2,1s-.2.7-.3,1l-.6-.6c.2-.5.3-1,.3-1.5,0-.5,0-.9-.1-1.2l.4-.4,5.1,5.1Z"/>
      <path id="ArialMT-42" class="st38" d="M315.3,364.1l-5.1-5.1,1.9-1.9c.4-.4.7-.6,1.1-.8s.7-.2,1,0c.3,0,.6.2.9.5s.4.5.4.8c0,.3,0,.6,0,1,.4-.2.8-.3,1.2-.2.4,0,.7.2,1,.5s.4.5.5.8c.1.3.1.6,0,.8s-.1.5-.3.8c-.2.3-.4.6-.7.9l-1.9,1.9ZM313,360.5l1.1-1.1c.3-.3.5-.5.6-.7.1-.2.2-.4.1-.6,0-.2-.1-.4-.3-.6s-.4-.3-.6-.3c-.2,0-.4,0-.6,0-.2.1-.5.3-.8.7l-1,1,1.5,1.5ZM315.4,362.8l1.3-1.3c.2-.2.4-.4.4-.5.1-.2.2-.4.2-.5,0-.2,0-.3,0-.5,0-.2-.2-.4-.3-.5s-.4-.3-.6-.3c-.2,0-.5,0-.7.1-.2.1-.5.3-.8.7l-1.2,1.2,1.7,1.7Z"/>
      <path id="ArialMT-291" data-name="ArialMT-29" class="st38" d="M321.8,360.5l-.4.4c-.4-1.8-1.2-3.2-2.3-4.3s-.9-.8-1.4-1.1c-.4-.3-.9-.5-1.3-.7-.3-.1-.8-.3-1.6-.5l.4-.4c1,.1,1.9.4,2.7.8.7.3,1.3.8,1.8,1.3s1.1,1.3,1.4,2.2c.3.8.6,1.6.7,2.4Z"/>
    </g>
  </g>
  <g id="line2d_6">
    <g class="st37">
      <path class="st4" d="M363.8,345.4V12.7"/>
    </g>
  </g>
  <g id="text_6">
    <g>
      <path id="ArialMT-512" data-name="ArialMT-51" class="st38" d="M330.1,407.4c.5,0,1-.2,1.3-.4l.3.7c-.5.2-1.1.4-1.7.5-.2.6-.5,1.1-.9,1.6s-1,.8-1.6.9c-.6.2-1.2.1-1.8,0-.6-.2-1.2-.6-1.7-1.1s-.9-1.1-1.1-1.7c-.2-.6-.2-1.2,0-1.8.2-.6.5-1.1.9-1.6s1-.8,1.6-.9c.6-.2,1.2-.1,1.8,0s1.1.6,1.6,1.1.7.9.9,1.3c.2.5.3.9.3,1.4ZM327.8,408c.5-.3,1-.4,1.4-.5,0-.8-.3-1.5-1-2.2s-.8-.7-1.3-.9c-.4-.2-.9-.2-1.3-.1s-.8.3-1.2.6c-.5.5-.7,1.1-.7,1.8s.4,1.3,1,2,1.3,1,2,1c.7,0,1.3-.2,1.8-.7s.4-.5.5-.8c-.3,0-.7.2-1,.4l-.3-.6Z"/>
      <path id="ArialMT-772" data-name="ArialMT-77" class="st38" d="M332.9,405.6l-4.8-2.5.6-.6,2.7,1.5,1,.6s-.2-.4-.6-.9l-1.6-2.7.6-.6,2.7,1.6.9.5-.5-.9-1.5-2.7.6-.6,2.5,4.8-.6.6-2.8-1.6-.8-.5,2.1,3.6-.6.6Z"/>
      <path id="ArialMT-657" data-name="ArialMT-65" class="st38" d="M338.7,397.5l.7-.6c.3.5.4,1,.3,1.4,0,.5-.3.9-.7,1.4s-1.1.8-1.8.8c-.6,0-1.3-.3-1.9-.9s-.9-1.3-1-1.9c0-.7.2-1.2.7-1.7s1.1-.7,1.7-.7,1.3.3,1.9.9,0,0,.2.2l-2.7,2.7c.4.4.8.6,1.3.6.4,0,.8-.1,1.1-.4s.4-.5.4-.8c0-.3,0-.6-.2-1ZM335.6,398.6l2-2c-.3-.3-.6-.4-.9-.5-.4,0-.8,0-1.1.4s-.4.6-.4,1,.1.7.4,1.1Z"/>
      <path id="ArialMT-6e6" data-name="ArialMT-6e" class="st38" d="M341.3,397.3l-3.7-3.7.6-.6.5.5c-.1-.7,0-1.3.6-1.8s.5-.4.7-.5.5-.1.7-.1.4.1.7.3c.1,0,.4.3.6.6l2.3,2.3-.6.6-2.2-2.2c-.3-.3-.5-.4-.6-.5-.2,0-.4,0-.6,0-.2,0-.4.2-.5.3-.3.3-.4.6-.4.9s.2.8.7,1.2l2,2-.6.6Z"/>
      <path id="ArialMT-322" data-name="ArialMT-32" class="st38" d="M347.7,389.7l.6.6-3.3,3.3c-.2-.1-.3-.3-.4-.5-.1-.3-.2-.7-.3-1.1,0-.4,0-.9,0-1.6,0-1,.1-1.7,0-2.2,0-.5-.2-.8-.5-1s-.5-.4-.9-.4c-.3,0-.7.2-.9.4s-.4.6-.4,1c0,.4.2.7.5,1l-.7.6c-.4-.5-.6-1-.6-1.6,0-.5.3-1,.8-1.5s1-.7,1.6-.7c.6,0,1,.2,1.4.6s.4.4.5.7c.1.3.2.6.2,1s0,1,0,1.8c0,.7,0,1.1,0,1.4,0,.2,0,.4,0,.6l2.5-2.5Z"/>
      <path id="ArialMT-2e2" data-name="ArialMT-2e" class="st38" d="M349.3,389.2l-.7-.7.7-.7.7.7-.7.7Z"/>
      <path id="ArialMT-352" data-name="ArialMT-35" class="st38" d="M349.6,386.3l.6-.7c.4.3.7.4,1.1.4.3,0,.6-.1.9-.4s.4-.7.4-1.1c0-.4-.2-.8-.6-1.2s-.7-.5-1.1-.5c-.4,0-.8.2-1.1.5s-.3.4-.4.7c0,.3,0,.5,0,.7l-.7.5-2.1-3.1,2.5-2.5.6.6-2,2,1.1,1.6c0-.5.3-.9.6-1.3s1-.7,1.6-.7c.6,0,1.2.2,1.6.7s.7,1,.8,1.6c0,.7-.2,1.4-.7,1.9s-1,.7-1.5.7c-.5,0-1.1-.1-1.5-.5Z"/>
      <path id="ArialMT-2d2" data-name="ArialMT-2d" class="st38" d="M353.3,382.2l-.6-.6,1.9-1.9.6.6-1.9,1.9Z"/>
      <path id="ArialMT-562" data-name="ArialMT-56" class="st38" d="M358.9,379.6l-7-3.1.7-.7,5,2.4c.4.2.8.4,1.1.6-.2-.4-.4-.7-.6-1.1l-2.3-5,.7-.7,3.1,7-.7.7Z"/>
      <path id="ArialMT-4c2" data-name="ArialMT-4c" class="st38" d="M362.2,376.4l-5.1-5.1.7-.7,4.5,4.5,2.5-2.5.6.6-3.2,3.2Z"/>
      <path id="ArialMT-207" data-name="ArialMT-20" class="st38" d="M365.3,373.3"/>
      <path id="ArialMT-282" data-name="ArialMT-28" class="st38" d="M370.4,371.1c-.8,0-1.6-.3-2.4-.6-.8-.3-1.5-.8-2.2-1.4s-1-1.2-1.3-1.8c-.4-.8-.6-1.7-.8-2.7l.4-.4c.2.8.4,1.3.5,1.6.2.5.4.9.7,1.3.3.5.7,1,1.2,1.4,1.1,1.1,2.6,1.9,4.3,2.3l-.4.4Z"/>
      <path id="ArialMT-312" data-name="ArialMT-31" class="st38" d="M372.3,366.3l-.6.6-4-4c0,.3,0,.6-.2,1s-.2.7-.3,1l-.6-.6c.2-.5.3-1,.3-1.5,0-.5,0-.9-.1-1.2l.4-.4,5.1,5.1Z"/>
      <path id="ArialMT-43" class="st38" d="M375.9,359.1l.8-.5c.4.7.6,1.4.5,2,0,.7-.4,1.2-.9,1.8s-1.1.9-1.7,1c-.6.1-1.1,0-1.7-.2-.6-.2-1.1-.6-1.6-1.1s-.9-1.1-1.1-1.7c-.2-.6-.2-1.2,0-1.8.2-.6.5-1.1.9-1.5s1.1-.8,1.7-.9c.6,0,1.2,0,1.8.4l-.5.8c-.5-.3-.9-.3-1.3-.3-.4,0-.8.3-1.1.6s-.6.8-.7,1.3c0,.4,0,.9.2,1.3.2.4.5.8.8,1.1s.9.7,1.3.9c.4.2.9.2,1.3.1.4-.1.8-.3,1.1-.6s.6-.8.6-1.3c0-.5-.1-1-.4-1.5Z"/>
      <path id="ArialMT-292" data-name="ArialMT-29" class="st38" d="M381,360.5l-.4.4c-.4-1.8-1.2-3.2-2.3-4.3s-.9-.8-1.4-1.1c-.4-.3-.9-.5-1.3-.7-.3-.1-.8-.3-1.6-.5l.4-.4c1,.1,1.9.4,2.7.8.7.3,1.3.8,1.8,1.3s1.1,1.3,1.4,2.2c.3.8.6,1.6.7,2.4Z"/>
    </g>
  </g>
  <g id="line2d_7">
    <g class="st34">
      <path class="st4" d="M422.8,345.4V12.7"/>
    </g>
  </g>
  <g id="text_7">
    <g>
      <path id="ArialMT-513" data-name="ArialMT-51" class="st38" d="M395.2,401.1c.5,0,1-.2,1.3-.4l.3.7c-.5.2-1.1.4-1.7.5-.2.6-.5,1.1-.9,1.6s-1,.8-1.6.9c-.6.2-1.2.1-1.8,0-.6-.2-1.2-.6-1.7-1.1s-.9-1.1-1.1-1.7c-.2-.6-.2-1.2,0-1.8.2-.6.5-1.1.9-1.6s1-.8,1.6-.9c.6-.2,1.2-.1,1.8,0s1.1.6,1.6,1.1.7.9.9,1.3c.2.5.3.9.3,1.4ZM392.9,401.7c.5-.3,1-.4,1.4-.5,0-.8-.3-1.5-1-2.2s-.8-.7-1.3-.9c-.4-.2-.9-.2-1.3-.1s-.8.3-1.2.6c-.5.5-.7,1.1-.7,1.8s.4,1.3,1,2,1.3,1,2,1c.7,0,1.3-.2,1.8-.7s.4-.5.5-.8c-.3,0-.7.2-1,.4l-.3-.6Z"/>
      <path id="ArialMT-773" data-name="ArialMT-77" class="st38" d="M398,399.4l-4.8-2.5.6-.6,2.7,1.5,1,.6s-.2-.4-.6-.9l-1.6-2.7.6-.6,2.7,1.6.9.5-.5-.9-1.5-2.7.6-.6,2.5,4.8-.6.6-2.8-1.6-.8-.5,2.1,3.6-.6.6Z"/>
      <path id="ArialMT-658" data-name="ArialMT-65" class="st38" d="M403.8,391.2l.7-.6c.3.5.4,1,.3,1.4,0,.5-.3.9-.7,1.4s-1.1.8-1.8.8c-.6,0-1.3-.3-1.9-.9s-.9-1.3-1-1.9c0-.7.2-1.2.7-1.7s1.1-.7,1.7-.7,1.3.3,1.9.9,0,0,.2.2l-2.7,2.7c.4.4.8.6,1.3.6.4,0,.8-.1,1.1-.4s.4-.5.4-.8c0-.3,0-.6-.2-1ZM400.8,392.3l2-2c-.3-.3-.6-.4-.9-.5-.4,0-.8,0-1.1.4s-.4.6-.4,1,.1.7.4,1.1Z"/>
      <path id="ArialMT-6e7" data-name="ArialMT-6e" class="st38" d="M406.4,391l-3.7-3.7.6-.6.5.5c-.1-.7,0-1.3.6-1.8s.5-.4.7-.5.5-.1.7-.1.4.1.7.3c.1,0,.4.3.6.6l2.3,2.3-.6.6-2.2-2.2c-.3-.3-.5-.4-.6-.5-.2,0-.4,0-.6,0-.2,0-.4.2-.5.3-.3.3-.4.6-.4.9s.2.8.7,1.2l2,2-.6.6Z"/>
      <path id="ArialMT-323" data-name="ArialMT-32" class="st38" d="M412.8,383.4l.6.6-3.3,3.3c-.2-.1-.3-.3-.4-.5-.1-.3-.2-.7-.3-1.1,0-.4,0-.9,0-1.6,0-1,.1-1.7,0-2.2,0-.5-.2-.8-.5-1s-.5-.4-.9-.4c-.3,0-.7.2-.9.4s-.4.6-.4,1c0,.4.2.7.5,1l-.7.6c-.4-.5-.6-1-.6-1.6,0-.5.3-1,.8-1.5s1-.7,1.6-.7c.6,0,1,.2,1.4.6s.4.4.5.7c.1.3.2.6.2,1s0,1,0,1.8c0,.7,0,1.1,0,1.4,0,.2,0,.4,0,.6l2.5-2.5Z"/>
      <path id="ArialMT-2d3" data-name="ArialMT-2d" class="st38" d="M412.5,381.9l-.6-.6,1.9-1.9.6.6-1.9,1.9Z"/>
      <path id="ArialMT-563" data-name="ArialMT-56" class="st38" d="M418.1,379.3l-7-3.1.7-.7,5,2.4c.4.2.8.4,1.1.6-.2-.4-.4-.7-.6-1.1l-2.3-5,.7-.7,3.1,7-.7.7Z"/>
      <path id="ArialMT-4c3" data-name="ArialMT-4c" class="st38" d="M421.4,376l-5.1-5.1.7-.7,4.5,4.5,2.5-2.5.6.6-3.2,3.2Z"/>
      <path id="ArialMT-208" data-name="ArialMT-20" class="st38" d="M424.5,372.9"/>
      <path id="ArialMT-283" data-name="ArialMT-28" class="st38" d="M429.6,370.7c-.8,0-1.6-.3-2.4-.6-.8-.3-1.5-.8-2.2-1.4s-1-1.2-1.3-1.8c-.4-.8-.6-1.7-.8-2.7l.4-.4c.2.8.4,1.3.5,1.6.2.5.4.9.7,1.3.3.5.7,1,1.2,1.4,1.1,1.1,2.6,1.9,4.3,2.3l-.4.4Z"/>
      <path id="ArialMT-313" data-name="ArialMT-31" class="st38" d="M431.5,365.9l-.6.6-4-4c0,.3,0,.6-.2,1s-.2.7-.3,1l-.6-.6c.2-.5.3-1,.3-1.5,0-.5,0-.9-.1-1.2l.4-.4,5.1,5.1Z"/>
      <path id="ArialMT-411" data-name="ArialMT-41" class="st38" d="M432.8,364.6l-3.1-7,.7-.7,7.1,3-.8.8-2.1-.9-2.1,2.1,1,2.1-.7.7ZM432.2,361.1l1.7-1.7-1.9-.9c-.6-.3-1.1-.5-1.4-.7.3.4.5.8.7,1.2l.9,2Z"/>
      <path id="ArialMT-293" data-name="ArialMT-29" class="st38" d="M439.9,360.5l-.4.4c-.4-1.8-1.2-3.2-2.3-4.3s-.9-.8-1.4-1.1c-.4-.3-.9-.5-1.3-.7-.3-.1-.8-.3-1.6-.5l.4-.4c1,.1,1.9.4,2.7.8.7.3,1.3.8,1.8,1.3s1.1,1.3,1.4,2.2c.3.8.6,1.6.7,2.4Z"/>
    </g>
  </g>
  <g id="line2d_8">
    <g class="st33">
      <path class="st4" d="M481.8,345.4V12.7"/>
    </g>
  </g>
  <g id="text_8">
    <g>
      <path id="ArialMT-514" data-name="ArialMT-51" class="st38" d="M453.2,401.1c.5,0,1-.2,1.3-.4l.3.7c-.5.2-1.1.4-1.7.5-.2.6-.5,1.1-.9,1.6s-1,.8-1.6.9c-.6.2-1.2.1-1.8,0-.6-.2-1.2-.6-1.7-1.1s-.9-1.1-1.1-1.7c-.2-.6-.2-1.2,0-1.8.2-.6.5-1.1.9-1.6s1-.8,1.6-.9c.6-.2,1.2-.1,1.8,0s1.1.6,1.6,1.1.7.9.9,1.3c.2.5.3.9.3,1.4ZM450.9,401.7c.5-.3,1-.4,1.4-.5,0-.8-.3-1.5-1-2.2s-.8-.7-1.3-.9c-.4-.2-.9-.2-1.3-.1s-.8.3-1.2.6c-.5.5-.7,1.1-.7,1.8s.4,1.3,1,2,1.3,1,2,1c.7,0,1.3-.2,1.8-.7s.4-.5.5-.8c-.3,0-.7.2-1,.4l-.3-.6Z"/>
      <path id="ArialMT-774" data-name="ArialMT-77" class="st38" d="M456,399.4l-4.8-2.5.6-.6,2.7,1.5,1,.6s-.2-.4-.6-.9l-1.6-2.7.6-.6,2.7,1.6.9.5-.5-.9-1.5-2.7.6-.6,2.5,4.8-.6.6-2.8-1.6-.8-.5,2.1,3.6-.6.6Z"/>
      <path id="ArialMT-659" data-name="ArialMT-65" class="st38" d="M461.8,391.2l.7-.6c.3.5.4,1,.3,1.4,0,.5-.3.9-.7,1.4s-1.1.8-1.8.8c-.6,0-1.3-.3-1.9-.9s-.9-1.3-1-1.9c0-.7.2-1.2.7-1.7s1.1-.7,1.7-.7,1.3.3,1.9.9,0,0,.2.2l-2.7,2.7c.4.4.8.6,1.3.6.4,0,.8-.1,1.1-.4s.4-.5.4-.8c0-.3,0-.6-.2-1ZM458.7,392.3l2-2c-.3-.3-.6-.4-.9-.5-.4,0-.8,0-1.1.4s-.4.6-.4,1,.1.7.4,1.1Z"/>
      <path id="ArialMT-6e8" data-name="ArialMT-6e" class="st38" d="M464.4,391l-3.7-3.7.6-.6.5.5c-.1-.7,0-1.3.6-1.8s.5-.4.7-.5.5-.1.7-.1.4.1.7.3c.1,0,.4.3.6.6l2.3,2.3-.6.6-2.2-2.2c-.3-.3-.5-.4-.6-.5-.2,0-.4,0-.6,0-.2,0-.4.2-.5.3-.3.3-.4.6-.4.9s.2.8.7,1.2l2,2-.6.6Z"/>
      <path id="ArialMT-324" data-name="ArialMT-32" class="st38" d="M470.8,383.4l.6.6-3.3,3.3c-.2-.1-.3-.3-.4-.5-.1-.3-.2-.7-.3-1.1,0-.4,0-.9,0-1.6,0-1,.1-1.7,0-2.2,0-.5-.2-.8-.5-1s-.5-.4-.9-.4c-.3,0-.7.2-.9.4s-.4.6-.4,1c0,.4.2.7.5,1l-.7.6c-.4-.5-.6-1-.6-1.6,0-.5.3-1,.8-1.5s1-.7,1.6-.7c.6,0,1,.2,1.4.6s.4.4.5.7c.1.3.2.6.2,1s0,1,0,1.8c0,.7,0,1.1,0,1.4,0,.2,0,.4,0,.6l2.5-2.5Z"/>
      <path id="ArialMT-2d4" data-name="ArialMT-2d" class="st38" d="M470.5,381.9l-.6-.6,1.9-1.9.6.6-1.9,1.9Z"/>
      <path id="ArialMT-564" data-name="ArialMT-56" class="st38" d="M476.1,379.3l-7-3.1.7-.7,5,2.4c.4.2.8.4,1.1.6-.2-.4-.4-.7-.6-1.1l-2.3-5,.7-.7,3.1,7-.7.7Z"/>
      <path id="ArialMT-4c4" data-name="ArialMT-4c" class="st38" d="M479.4,376l-5.1-5.1.7-.7,4.5,4.5,2.5-2.5.6.6-3.2,3.2Z"/>
      <path id="ArialMT-209" data-name="ArialMT-20" class="st38" d="M482.5,372.9"/>
      <path id="ArialMT-284" data-name="ArialMT-28" class="st38" d="M487.6,370.7c-.8,0-1.6-.3-2.4-.6-.8-.3-1.5-.8-2.2-1.4s-1-1.2-1.3-1.8c-.4-.8-.6-1.7-.8-2.7l.4-.4c.2.8.4,1.3.5,1.6.2.5.4.9.7,1.3.3.5.7,1,1.2,1.4,1.1,1.1,2.6,1.9,4.3,2.3l-.4.4Z"/>
      <path id="ArialMT-314" data-name="ArialMT-31" class="st38" d="M489.5,365.9l-.6.6-4-4c0,.3,0,.6-.2,1s-.2.7-.3,1l-.6-.6c.2-.5.3-1,.3-1.5,0-.5,0-.9-.1-1.2l.4-.4,5.1,5.1Z"/>
      <path id="ArialMT-421" data-name="ArialMT-42" class="st38" d="M491.3,364.1l-5.1-5.1,1.9-1.9c.4-.4.7-.6,1.1-.8s.7-.2,1,0c.3,0,.6.2.9.5s.4.5.4.8c0,.3,0,.6,0,1,.4-.2.8-.3,1.2-.2.4,0,.7.2,1,.5s.4.5.5.8c.1.3.1.6,0,.8s-.1.5-.3.8c-.2.3-.4.6-.7.9l-1.9,1.9ZM489,360.5l1.1-1.1c.3-.3.5-.5.6-.7.1-.2.2-.4.1-.6,0-.2-.1-.4-.3-.6s-.4-.3-.6-.3c-.2,0-.4,0-.6,0-.2.1-.5.3-.8.7l-1,1,1.5,1.5ZM491.4,362.8l1.3-1.3c.2-.2.4-.4.4-.5.1-.2.2-.4.2-.5,0-.2,0-.3,0-.5,0-.2-.2-.4-.3-.5s-.4-.3-.6-.3c-.2,0-.5,0-.7.1-.2.1-.5.3-.8.7l-1.2,1.2,1.7,1.7Z"/>
      <path id="ArialMT-294" data-name="ArialMT-29" class="st38" d="M497.9,360.5l-.4.4c-.4-1.8-1.2-3.2-2.3-4.3s-.9-.8-1.4-1.1c-.4-.3-.9-.5-1.3-.7-.3-.1-.8-.3-1.6-.5l.4-.4c1,.1,1.9.4,2.7.8.7.3,1.3.8,1.8,1.3s1.1,1.3,1.4,2.2c.3.8.6,1.6.7,2.4Z"/>
    </g>
  </g>
  <g id="line2d_9">
    <g class="st36">
      <path class="st4" d="M540.8,345.4V12.7"/>
    </g>
  </g>
  <g id="text_9">
    <g>
      <path id="ArialMT-515" data-name="ArialMT-51" class="st38" d="M512,401.5c.5,0,1-.2,1.3-.4l.3.7c-.5.2-1.1.4-1.7.5-.2.6-.5,1.1-.9,1.6s-1,.8-1.6.9c-.6.2-1.2.1-1.8,0-.6-.2-1.2-.6-1.7-1.1s-.9-1.1-1.1-1.7c-.2-.6-.2-1.2,0-1.8.2-.6.5-1.1.9-1.6s1-.8,1.6-.9c.6-.2,1.2-.1,1.8,0s1.1.6,1.6,1.1.7.9.9,1.3c.2.5.3.9.3,1.4ZM509.7,402.1c.5-.3,1-.4,1.4-.5,0-.8-.3-1.5-1-2.2s-.8-.7-1.3-.9c-.4-.2-.9-.2-1.3-.1s-.8.3-1.2.6c-.5.5-.7,1.1-.7,1.8s.4,1.3,1,2,1.3,1,2,1c.7,0,1.3-.2,1.8-.7s.4-.5.5-.8c-.3,0-.7.2-1,.4l-.3-.6Z"/>
      <path id="ArialMT-775" data-name="ArialMT-77" class="st38" d="M514.8,399.8l-4.8-2.5.6-.6,2.7,1.5,1,.6s-.2-.4-.6-.9l-1.6-2.7.6-.6,2.7,1.6.9.5-.5-.9-1.5-2.7.6-.6,2.5,4.8-.6.6-2.8-1.6-.8-.5,2.1,3.6-.6.6Z"/>
      <path id="ArialMT-6510" data-name="ArialMT-65" class="st38" d="M520.6,391.6l.7-.6c.3.5.4,1,.3,1.4,0,.5-.3.9-.7,1.4s-1.1.8-1.8.8c-.6,0-1.3-.3-1.9-.9s-.9-1.3-1-1.9c0-.7.2-1.2.7-1.7s1.1-.7,1.7-.7,1.3.3,1.9.9,0,0,.2.2l-2.7,2.7c.4.4.8.6,1.3.6.4,0,.8-.1,1.1-.4s.4-.5.4-.8c0-.3,0-.6-.2-1ZM517.5,392.7l2-2c-.3-.3-.6-.4-.9-.5-.4,0-.8,0-1.1.4s-.4.6-.4,1,.1.7.4,1.1Z"/>
      <path id="ArialMT-6e9" data-name="ArialMT-6e" class="st38" d="M523.2,391.4l-3.7-3.7.6-.6.5.5c-.1-.7,0-1.3.6-1.8s.5-.4.7-.5.5-.1.7-.1.4.1.7.3c.1,0,.4.3.6.6l2.3,2.3-.6.6-2.2-2.2c-.3-.3-.5-.4-.6-.5-.2,0-.4,0-.6,0-.2,0-.4.2-.5.3-.3.3-.4.6-.4.9s.2.8.7,1.2l2,2-.6.6Z"/>
      <path id="ArialMT-325" data-name="ArialMT-32" class="st38" d="M529.6,383.8l.6.6-3.3,3.3c-.2-.1-.3-.3-.4-.5-.1-.3-.2-.7-.3-1.1,0-.4,0-.9,0-1.6,0-1,.1-1.7,0-2.2,0-.5-.2-.8-.5-1s-.5-.4-.9-.4c-.3,0-.7.2-.9.4s-.4.6-.4,1c0,.4.2.7.5,1l-.7.6c-.4-.5-.6-1-.6-1.6,0-.5.3-1,.8-1.5s1-.7,1.6-.7c.6,0,1,.2,1.4.6s.4.4.5.7c.1.3.2.6.2,1s0,1,0,1.8c0,.7,0,1.1,0,1.4,0,.2,0,.4,0,.6l2.5-2.5Z"/>
      <path id="ArialMT-2d5" data-name="ArialMT-2d" class="st38" d="M529.3,382.2l-.6-.6,1.9-1.9.6.6-1.9,1.9Z"/>
      <path id="ArialMT-565" data-name="ArialMT-56" class="st38" d="M534.9,379.6l-7-3.1.7-.7,5,2.4c.4.2.8.4,1.1.6-.2-.4-.4-.7-.6-1.1l-2.3-5,.7-.7,3.1,7-.7.7Z"/>
      <path id="ArialMT-4c5" data-name="ArialMT-4c" class="st38" d="M538.2,376.4l-5.1-5.1.7-.7,4.5,4.5,2.5-2.5.6.6-3.2,3.2Z"/>
      <path id="ArialMT-2010" data-name="ArialMT-20" class="st38" d="M541.3,373.3"/>
      <path id="ArialMT-285" data-name="ArialMT-28" class="st38" d="M546.4,371.1c-.8,0-1.6-.3-2.4-.6-.8-.3-1.5-.8-2.2-1.4s-1-1.2-1.3-1.8c-.4-.8-.6-1.7-.8-2.7l.4-.4c.2.8.4,1.3.5,1.6.2.5.4.9.7,1.3.3.5.7,1,1.2,1.4,1.1,1.1,2.6,1.9,4.3,2.3l-.4.4Z"/>
      <path id="ArialMT-315" data-name="ArialMT-31" class="st38" d="M548.3,366.3l-.6.6-4-4c0,.3,0,.6-.2,1s-.2.7-.3,1l-.6-.6c.2-.5.3-1,.3-1.5,0-.5,0-.9-.1-1.2l.4-.4,5.1,5.1Z"/>
      <path id="ArialMT-431" data-name="ArialMT-43" class="st38" d="M551.9,359.1l.8-.5c.4.7.6,1.4.5,2,0,.7-.4,1.2-.9,1.8s-1.1.9-1.7,1c-.6.1-1.1,0-1.7-.2-.6-.2-1.1-.6-1.6-1.1s-.9-1.1-1.1-1.7c-.2-.6-.2-1.2,0-1.8.2-.6.5-1.1.9-1.5s1.1-.8,1.7-.9c.6,0,1.2,0,1.8.4l-.5.8c-.5-.3-.9-.3-1.3-.3-.4,0-.8.3-1.1.6s-.6.8-.7,1.3c0,.4,0,.9.2,1.3.2.4.5.8.8,1.1s.9.7,1.3.9c.4.2.9.2,1.3.1.4-.1.8-.3,1.1-.6s.6-.8.6-1.3c0-.5-.1-1-.4-1.5Z"/>
      <path id="ArialMT-295" data-name="ArialMT-29" class="st38" d="M557,360.5l-.4.4c-.4-1.8-1.2-3.2-2.3-4.3s-.9-.8-1.4-1.1c-.4-.3-.9-.5-1.3-.7-.3-.1-.8-.3-1.6-.5l.4-.4c1,.1,1.9.4,2.7.8.7.3,1.3.8,1.8,1.3s1.1,1.3,1.4,2.2c.3.8.6,1.6.7,2.4Z"/>
    </g>
  </g>
  <g id="text_10">
    <g>
      <path id="ArialMT-412" data-name="ArialMT-41" class="st38" d="M262.6,447.2l2.7-7.2h1l2.9,7.2h-1.1l-.8-2.2h-3l-.8,2.2h-1ZM264.6,444.3h2.4l-.7-2c-.2-.6-.4-1.1-.5-1.5,0,.5-.2.9-.4,1.4l-.8,2.1Z"/>
      <path id="ArialMT-6e10" data-name="ArialMT-6e" class="st38" d="M269.9,447.2v-5.2h.8v.7c.4-.6.9-.9,1.7-.9s.6,0,.9.2.5.3.6.4.2.4.3.6c0,.2,0,.4,0,.9v3.2h-.9v-3.2c0-.4,0-.6-.1-.8,0-.2-.2-.3-.4-.4-.2-.1-.4-.2-.6-.2-.4,0-.7.1-1,.4s-.4.7-.4,1.4v2.8h-.9Z"/>
      <path id="ArialMT-6e11" data-name="ArialMT-6e" class="st38" d="M275.5,447.2v-5.2h.8v.7c.4-.6.9-.9,1.7-.9s.6,0,.9.2.5.3.6.4.2.4.3.6c0,.2,0,.4,0,.9v3.2h-.9v-3.2c0-.4,0-.6-.1-.8,0-.2-.2-.3-.4-.4-.2-.1-.4-.2-.6-.2-.4,0-.7.1-1,.4s-.4.7-.4,1.4v2.8h-.9Z"/>
      <path id="ArialMT-6f5" data-name="ArialMT-6f" class="st38" d="M280.7,444.6c0-1,.3-1.7.8-2.1.4-.4,1-.6,1.6-.6s1.3.2,1.7.7c.5.5.7,1.1.7,1.9s-.1,1.2-.3,1.6c-.2.4-.5.7-.9.9-.4.2-.8.3-1.3.3-.7,0-1.3-.2-1.8-.7-.4-.5-.7-1.1-.7-2ZM281.6,444.6c0,.7.1,1.2.4,1.5.3.3.7.5,1.1.5s.8-.2,1.1-.5c.3-.3.4-.8.4-1.5s-.1-1.1-.4-1.5-.7-.5-1.1-.5-.8.2-1.1.5c-.3.3-.4.8-.4,1.5Z"/>
      <path id="ArialMT-742" data-name="ArialMT-74" class="st38" d="M288.5,446.4v.8c-.1,0-.3,0-.5,0-.3,0-.6,0-.7-.2-.2-.1-.3-.2-.4-.4,0-.2-.1-.5-.1-1v-3h-.6v-.7h.6v-1.3l.9-.5v1.8h.9v.7h-.9v3c0,.3,0,.4,0,.5,0,0,0,.1.2.2,0,0,.2,0,.3,0s.2,0,.4,0Z"/>
      <path id="ArialMT-615" data-name="ArialMT-61" class="st38" d="M292.8,446.6c-.3.3-.6.5-.9.6-.3.1-.6.2-1,.2-.6,0-1-.1-1.3-.4s-.5-.6-.5-1.1,0-.5.2-.7c.1-.2.3-.4.5-.5s.4-.2.6-.3c.2,0,.4,0,.8-.1.7,0,1.2-.2,1.6-.3,0-.1,0-.2,0-.2,0-.4,0-.6-.3-.8-.2-.2-.6-.3-1-.3s-.7,0-.9.2-.3.4-.4.8h-.9c0-.5.2-.8.4-1,.2-.2.4-.4.8-.5.3-.1.7-.2,1.2-.2s.8,0,1.1.2c.3.1.5.2.6.4.1.2.2.4.3.6,0,.1,0,.4,0,.8v1.2c0,.8,0,1.3,0,1.6,0,.2.1.4.2.6h-.9c0-.2-.1-.4-.2-.6ZM292.7,444.6c-.3.1-.8.2-1.4.3-.4,0-.6.1-.8.2-.1,0-.3.2-.3.3,0,.1-.1.3-.1.4,0,.2,0,.4.3.6.2.2.4.2.8.2s.6,0,.9-.2c.3-.1.5-.4.6-.6,0-.2.1-.5.1-.9v-.3Z"/>
      <path id="ArialMT-743" data-name="ArialMT-74" class="st38" d="M296.8,446.4v.8c-.1,0-.3,0-.5,0-.3,0-.6,0-.7-.2-.2-.1-.3-.2-.4-.4,0-.2-.1-.5-.1-1v-3h-.6v-.7h.6v-1.3l.9-.5v1.8h.9v.7h-.9v3c0,.3,0,.4,0,.5,0,0,0,.1.2.2,0,0,.2,0,.3,0s.2,0,.4,0Z"/>
      <path id="ArialMT-693" data-name="ArialMT-69" class="st38" d="M297.7,441.1v-1h.9v1h-.9ZM297.7,447.2v-5.2h.9v5.2h-.9Z"/>
      <path id="ArialMT-6f6" data-name="ArialMT-6f" class="st38" d="M299.6,444.6c0-1,.3-1.7.8-2.1.4-.4,1-.6,1.6-.6s1.3.2,1.7.7c.5.5.7,1.1.7,1.9s-.1,1.2-.3,1.6c-.2.4-.5.7-.9.9-.4.2-.8.3-1.3.3-.7,0-1.3-.2-1.8-.7-.4-.5-.7-1.1-.7-2ZM300.5,444.6c0,.7.1,1.2.4,1.5.3.3.7.5,1.1.5s.8-.2,1.1-.5c.3-.3.4-.8.4-1.5s-.1-1.1-.4-1.5-.7-.5-1.1-.5-.8.2-1.1.5c-.3.3-.4.8-.4,1.5Z"/>
      <path id="ArialMT-6e12" data-name="ArialMT-6e" class="st38" d="M305.5,447.2v-5.2h.8v.7c.4-.6.9-.9,1.7-.9s.6,0,.9.2.5.3.6.4.2.4.3.6c0,.2,0,.4,0,.9v3.2h-.9v-3.2c0-.4,0-.6-.1-.8,0-.2-.2-.3-.4-.4-.2-.1-.4-.2-.6-.2-.4,0-.7.1-1,.4s-.4.7-.4,1.4v2.8h-.9Z"/>
      <path id="ArialMT-2011" data-name="ArialMT-20" class="st38" d="M310.4,447.2"/>
      <path id="ArialMT-413" data-name="ArialMT-41" class="st38" d="M312.6,447.2l2.7-7.2h1l2.9,7.2h-1.1l-.8-2.2h-3l-.8,2.2h-1ZM314.7,444.3h2.4l-.7-2c-.2-.6-.4-1.1-.5-1.5,0,.5-.2.9-.4,1.4l-.8,2.1Z"/>
      <path id="ArialMT-744" data-name="ArialMT-74" class="st38" d="M321.9,446.4v.8c-.1,0-.3,0-.5,0-.3,0-.6,0-.7-.2-.2-.1-.3-.2-.4-.4,0-.2-.1-.5-.1-1v-3h-.6v-.7h.6v-1.3l.9-.5v1.8h.9v.7h-.9v3c0,.3,0,.4,0,.5,0,0,0,.1.2.2,0,0,.2,0,.3,0s.2,0,.4,0Z"/>
      <path id="ArialMT-745" data-name="ArialMT-74" class="st38" d="M324.6,446.4v.8c-.1,0-.3,0-.5,0-.3,0-.6,0-.7-.2-.2-.1-.3-.2-.4-.4,0-.2-.1-.5-.1-1v-3h-.6v-.7h.6v-1.3l.9-.5v1.8h.9v.7h-.9v3c0,.3,0,.4,0,.5,0,0,0,.1.2.2,0,0,.2,0,.3,0s.2,0,.4,0Z"/>
      <path id="ArialMT-6511" data-name="ArialMT-65" class="st38" d="M329.1,445.6h.9c-.1.6-.4,1.1-.8,1.3-.4.3-.9.4-1.5.4s-1.4-.2-1.8-.7c-.4-.5-.7-1.1-.7-2s.2-1.6.7-2c.5-.5,1-.7,1.7-.7s1.3.2,1.7.7.7,1.1.7,2,0,.1,0,.2h-3.9c0,.6.2,1,.5,1.3.3.3.7.5,1.1.5s.6,0,.8-.3c.2-.2.4-.4.5-.8ZM326.2,444.1h2.9c0-.4-.1-.8-.3-1-.3-.3-.6-.5-1.1-.5s-.7.1-1,.4-.4.6-.5,1.1Z"/>
      <path id="ArialMT-6d4" data-name="ArialMT-6d" class="st38" d="M331.1,447.2v-5.2h.8v.7c.2-.3.4-.5.6-.6.3-.2.6-.2.9-.2s.7,0,.9.2.4.4.5.7c.4-.6.9-.9,1.6-.9s.9.1,1.2.4c.3.3.4.7.4,1.3v3.6h-.9v-3.3c0-.4,0-.6,0-.8,0-.2-.2-.3-.3-.4-.1,0-.3-.1-.5-.1-.4,0-.7.1-.9.4-.2.2-.4.6-.4,1.2v3h-.9v-3.4c0-.4,0-.7-.2-.9-.1-.2-.4-.3-.7-.3s-.5,0-.7.2c-.2.1-.4.3-.5.6,0,.3-.1.6-.1,1.1v2.7h-.9Z"/>
      <path id="ArialMT-70" class="st38" d="M339.4,449.2v-7.2h.8v.7c.2-.3.4-.5.6-.6.2-.1.5-.2.9-.2s.8.1,1.2.3.6.6.8,1c.2.4.3.9.3,1.4s0,1-.3,1.4c-.2.4-.5.8-.8,1-.4.2-.7.3-1.1.3s-.6,0-.8-.2c-.2-.1-.4-.3-.6-.5v2.5h-.9ZM340.2,444.7c0,.7.1,1.2.4,1.5.3.3.6.5,1,.5s.7-.2,1-.5c.3-.3.4-.8.4-1.5s-.1-1.2-.4-1.5c-.3-.3-.6-.5-1-.5s-.7.2-1,.5c-.3.4-.4.9-.4,1.5Z"/>
      <path id="ArialMT-746" data-name="ArialMT-74" class="st38" d="M346.9,446.4v.8c-.1,0-.3,0-.5,0-.3,0-.6,0-.7-.2-.2-.1-.3-.2-.4-.4,0-.2-.1-.5-.1-1v-3h-.6v-.7h.6v-1.3l.9-.5v1.8h.9v.7h-.9v3c0,.3,0,.4,0,.5,0,0,0,.1.2.2,0,0,.2,0,.3,0s.2,0,.4,0Z"/>
    </g>
  </g>
  <g id="matplotlib.axis_2">
    <g id="ytick_1">
      <g id="line2d_10">
        <g class="st35">
          <path class="st4" d="M25.8,345.4h558"/>
        </g>
      </g>
      <g id="text_11">
        <path id="ArialMT-30" class="st38" d="M13.7,345.4c0-.8,0-1.5.3-2,.2-.5.4-.9.8-1.2.3-.3.8-.4,1.3-.4s.7,0,1,.2c.3.2.5.4.7.7.2.3.3.6.4,1.1.1.4.2,1,.2,1.7s0,1.5-.3,2c-.2.5-.4.9-.8,1.2-.3.3-.8.4-1.3.4s-1.2-.2-1.6-.7c-.5-.6-.7-1.6-.7-2.9ZM14.6,345.4c0,1.2.1,2,.4,2.3.3.4.6.6,1,.6s.7-.2,1-.6.4-1.2.4-2.3-.1-2-.4-2.3c-.3-.4-.6-.6-1-.6s-.7.2-1,.5c-.3.4-.5,1.2-.5,2.4Z"/>
      </g>
    </g>
    <g id="ytick_2">
      <g id="line2d_11">
        <g class="st13">
          <path class="st4" d="M25.8,300.1h558"/>
        </g>
      </g>
      <g id="text_12">
        <path id="ArialMT-316" data-name="ArialMT-31" class="st38" d="M17,303.7h-.9v-5.6c-.2.2-.5.4-.8.6s-.7.4-.9.5v-.9c.5-.2.9-.5,1.3-.8.4-.3.6-.6.8-1h.6v7.2Z"/>
      </g>
    </g>
    <g id="ytick_3">
      <g id="line2d_12">
        <g class="st10">
          <path class="st4" d="M25.8,254.9h558"/>
        </g>
      </g>
      <g id="text_13">
        <path id="ArialMT-326" data-name="ArialMT-32" class="st38" d="M18.3,257.6v.8h-4.7c0-.2,0-.4.1-.6.1-.3.3-.6.6-1,.3-.3.6-.7,1.2-1.1.8-.6,1.3-1.1,1.6-1.5.3-.4.4-.7.4-1.1s-.1-.6-.4-.9c-.2-.2-.6-.4-1-.4s-.8.1-1,.4c-.3.3-.4.6-.4,1.1h-.9c0-.8.3-1.3.7-1.6.4-.4.9-.5,1.6-.5s1.2.2,1.6.6c.4.4.6.9.6,1.4s0,.6-.2.8c-.1.3-.3.6-.6.9s-.7.7-1.4,1.3c-.5.4-.9.7-1,.9-.1.2-.3.3-.4.5h3.5Z"/>
      </g>
    </g>
    <g id="ytick_4">
      <g id="line2d_13">
        <g class="st17">
          <path class="st4" d="M25.8,209.6h558"/>
        </g>
      </g>
      <g id="text_14">
        <path id="ArialMT-33" class="st38" d="M13.7,211.3h.9c.1.4.3.7.5,1,.2.2.5.3.9.3s.8-.1,1-.4c.3-.3.4-.6.4-1.1s-.1-.7-.4-1c-.3-.3-.6-.4-1-.4s-.4,0-.6,0v-.8c.2,0,.2,0,.2,0,.4,0,.7,0,1-.3.3-.2.5-.5.5-.9s-.1-.6-.3-.8c-.2-.2-.5-.3-.8-.3s-.6.1-.9.3c-.2.2-.4.5-.4,1l-.9-.2c.1-.6.4-1,.7-1.4.4-.3.9-.5,1.4-.5s.8,0,1.1.3c.3.2.6.4.8.7.2.3.3.6.3.9s0,.6-.3.8c-.2.3-.4.5-.7.6.4,0,.8.3,1,.6.2.3.4.7.4,1.2s-.2,1.2-.7,1.6c-.5.4-1,.7-1.7.7s-1.2-.2-1.6-.6c-.4-.4-.7-.9-.7-1.5Z"/>
      </g>
    </g>
    <g id="ytick_5">
      <g id="line2d_14">
        <g class="st15">
          <path class="st4" d="M25.8,164.4h558"/>
        </g>
      </g>
      <g id="text_15">
        <path id="ArialMT-34" class="st38" d="M16.5,167.9v-1.7h-3.1v-.8l3.3-4.6h.7v4.6h1v.8h-1v1.7h-.9ZM16.5,165.4v-3.2l-2.2,3.2h2.2Z"/>
      </g>
    </g>
    <g id="ytick_6">
      <g id="line2d_15">
        <g class="st16">
          <path class="st4" d="M25.8,119.1h558"/>
        </g>
      </g>
      <g id="text_16">
        <path id="ArialMT-353" data-name="ArialMT-35" class="st38" d="M13.7,120.8h.9c0,.4.2.7.5.9.2.2.5.3.9.3s.8-.2,1.1-.5c.3-.3.4-.7.4-1.3s-.1-.9-.4-1.2c-.3-.3-.7-.4-1.1-.4s-.5,0-.8.2c-.2.1-.4.3-.5.5h-.8c0-.1.7-3.8.7-3.8h3.6v.8h-2.9l-.4,1.9c.4-.3.9-.5,1.4-.5s1.2.2,1.6.7c.4.4.6,1,.6,1.7s-.2,1.2-.6,1.7c-.5.6-1.1.9-1.9.9s-1.2-.2-1.6-.5c-.4-.4-.6-.8-.7-1.5Z"/>
      </g>
    </g>
    <g id="ytick_7">
      <g id="line2d_16">
        <g class="st14">
          <path class="st4" d="M25.8,73.8h558"/>
        </g>
      </g>
      <g id="text_17">
        <path id="ArialMT-36" class="st38" d="M18.2,72h-.9c0-.3-.2-.5-.3-.7-.2-.3-.5-.4-.9-.4s-.5,0-.7.2c-.3.2-.5.5-.7.9-.2.4-.2.9-.2,1.7.2-.3.5-.6.8-.7s.6-.2,1-.2c.6,0,1.1.2,1.5.6.4.4.6,1,.6,1.7s0,.9-.3,1.3c-.2.4-.5.7-.8.9-.3.2-.7.3-1.2.3-.7,0-1.3-.3-1.8-.8-.5-.5-.7-1.4-.7-2.7s.3-2.4.8-3c.4-.5,1-.8,1.8-.8s1,.2,1.4.5c.4.3.6.8.6,1.3ZM14.7,75.1c0,.3,0,.6.2.9.1.3.3.5.5.6.2.1.5.2.7.2.4,0,.7-.1,1-.4.3-.3.4-.7.4-1.2s-.1-.9-.4-1.2c-.3-.3-.6-.4-1-.4s-.7.1-1,.4c-.3.3-.4.7-.4,1.1Z"/>
      </g>
    </g>
    <g id="ytick_8">
      <g id="line2d_17">
        <g class="st11">
          <path class="st4" d="M25.8,28.6h558"/>
        </g>
      </g>
      <g id="text_18">
        <path id="ArialMT-37" class="st38" d="M13.7,25.9v-.8h4.6v.7c-.5.5-.9,1.1-1.4,1.9-.4.8-.8,1.6-1,2.5-.2.6-.3,1.3-.3,2h-.9c0-.6.1-1.2.3-2,.2-.8.5-1.6.9-2.3s.8-1.4,1.3-1.9h-3.5Z"/>
      </g>
    </g>
    <g id="text_19">
      <g>
        <path id="ArialMT-54" class="st38" d="M7.2,212.7H.8v2.4h-.8v-5.7h.8v2.4h6.3v.9Z"/>
        <path id="ArialMT-694" data-name="ArialMT-69" class="st38" d="M1,208.9H0v-.9h1v.9ZM7.2,208.9H2v-.9h5.2v.9Z"/>
        <path id="ArialMT-6d5" data-name="ArialMT-6d" class="st38" d="M7.2,206.7H2v-.8h.7c-.3-.2-.5-.4-.6-.6-.2-.3-.2-.6-.2-.9s0-.7.2-.9.4-.4.7-.5c-.6-.4-.9-.9-.9-1.6s.1-.9.4-1.2c.3-.3.7-.4,1.3-.4h3.6v.9h-3.3c-.4,0-.6,0-.8,0-.2,0-.3.2-.4.3,0,.1-.1.3-.1.5,0,.4.1.7.4.9.2.2.6.4,1.2.4h3v.9h-3.4c-.4,0-.7,0-.9.2-.2.1-.3.4-.3.7s0,.5.2.7c.1.2.3.4.6.5.3,0,.6.1,1.1.1h2.7v.9Z"/>
        <path id="ArialMT-6512" data-name="ArialMT-65" class="st38" d="M5.5,194.8v-.9c.6.1,1.1.4,1.3.8.3.4.4.9.4,1.5s-.2,1.4-.7,1.8c-.5.4-1.1.7-2,.7s-1.6-.2-2-.7c-.5-.5-.7-1-.7-1.7s.2-1.3.7-1.7,1.1-.7,2-.7.1,0,.2,0v3.9c.6,0,1-.2,1.3-.5.3-.3.5-.7.5-1.1s0-.6-.3-.8c-.2-.2-.4-.4-.8-.5ZM4.1,197.7v-2.9c-.4,0-.8.1-1,.3-.3.3-.5.6-.5,1.1s.1.7.4,1,.6.4,1.1.5Z"/>
        <path id="ArialMT-2012" data-name="ArialMT-20" class="st38" d="M7.2,193.4"/>
        <path id="ArialMT-747" data-name="ArialMT-74" class="st38" d="M6.4,188.1h.8c0,.1,0,.3,0,.5,0,.3,0,.6-.2.7-.1.2-.2.3-.4.4-.2,0-.5.1-1,.1h-3v.6h-.7v-.6H.7l-.5-.9h1.8v-.9h.7v.9h3c.3,0,.4,0,.5,0,0,0,.1,0,.2-.2,0,0,0-.2,0-.3s0-.2,0-.4Z"/>
        <path id="ArialMT-616" data-name="ArialMT-61" class="st38" d="M6.5,183.8c.3.3.5.6.6.9.1.3.2.6.2,1,0,.6-.1,1-.4,1.3s-.6.5-1.1.5-.5,0-.7-.2c-.2-.1-.4-.3-.5-.5s-.2-.4-.3-.6c0-.2,0-.4-.1-.8,0-.7-.2-1.2-.3-1.6-.1,0-.2,0-.2,0-.4,0-.6,0-.8.3-.2.2-.3.6-.3,1s0,.7.2.9.4.3.8.4v.9c-.5,0-.8-.2-1-.4-.2-.2-.4-.4-.5-.8-.1-.3-.2-.7-.2-1.2s0-.8.2-1.1c.1-.3.2-.5.4-.6.2-.1.4-.2.6-.3.1,0,.4,0,.8,0h1.2c.8,0,1.3,0,1.6,0,.2,0,.4-.1.6-.2v.9c-.2,0-.4.1-.6.2ZM4.6,183.9c.1.3.2.8.3,1.4,0,.4.1.6.2.8,0,.1.2.3.3.3.1,0,.3.1.4.1.2,0,.4,0,.6-.3.2-.2.2-.4.2-.8s0-.6-.2-.9c-.1-.3-.4-.5-.6-.6-.2,0-.5-.1-.9-.1h-.3Z"/>
        <path id="ArialMT-6b" class="st38" d="M7.2,181.6H0v-.9h4.1l-2.1-2.1v-1.1l1.9,2,3.3-2.2v1.1l-2.7,1.7.6.6h2.1v.9Z"/>
        <path id="ArialMT-6513" data-name="ArialMT-65" class="st38" d="M5.5,173.1v-.9c.6.1,1.1.4,1.3.8.3.4.4.9.4,1.5s-.2,1.4-.7,1.8c-.5.4-1.1.7-2,.7s-1.6-.2-2-.7c-.5-.5-.7-1-.7-1.7s.2-1.3.7-1.7,1.1-.7,2-.7.1,0,.2,0v3.9c.6,0,1-.2,1.3-.5.3-.3.5-.7.5-1.1s0-.6-.3-.8c-.2-.2-.4-.4-.8-.5ZM4.1,176v-2.9c-.4,0-.8.1-1,.3-.3.3-.5.6-.5,1.1s.1.7.4,1,.6.4,1.1.5Z"/>
        <path id="ArialMT-6e13" data-name="ArialMT-6e" class="st38" d="M7.2,171.1H2v-.8h.7c-.6-.4-.9-.9-.9-1.7s0-.6.2-.9.3-.5.4-.6.4-.2.6-.3c.2,0,.4,0,.9,0h3.2v.9h-3.2c-.4,0-.6,0-.8.1-.2,0-.3.2-.4.4-.1.2-.2.4-.2.6,0,.4.1.7.4,1s.7.4,1.4.4h2.8v.9Z"/>
        <path id="ArialMT-2013" data-name="ArialMT-20" class="st38" d="M7.2,166.2"/>
        <path id="ArialMT-286" data-name="ArialMT-28" class="st38" d="M9.3,161.1c-.6.5-1.3.9-2.1,1.2-.8.3-1.7.5-2.5.5s-1.5-.1-2.2-.4c-.8-.3-1.6-.7-2.5-1.4v-.6c.7.4,1.2.7,1.5.8.4.2.9.4,1.4.5.6.1,1.2.2,1.8.2,1.6,0,3.1-.5,4.7-1.5v.6Z"/>
        <path id="ArialMT-682" data-name="ArialMT-68" class="st38" d="M7.2,159.4H0v-.9h2.6c-.5-.4-.7-.9-.7-1.6s0-.7.2-1c.2-.3.4-.5.6-.6s.7-.2,1.2-.2h3.3v.9h-3.3c-.4,0-.8,0-1,.3s-.3.5-.3.8,0,.5.2.7c.1.2.3.4.5.5.2,0,.6.1,1,.1h2.8v.9Z"/>
        <path id="ArialMT-725" data-name="ArialMT-72" class="st38" d="M7.2,153.9H2v-.8h.8c-.4-.2-.6-.4-.7-.6-.1-.2-.2-.4-.2-.6,0-.3,0-.6.3-.9l.8.3c-.1.2-.2.4-.2.6s0,.4.2.5.3.3.5.3c.3,0,.7.1,1,.1h2.7v.9Z"/>
        <path id="ArialMT-732" data-name="ArialMT-73" class="st38" d="M5.6,150.9v-.9c.2,0,.5-.2.7-.4.2-.2.3-.5.3-.9s0-.7-.2-.9c-.2-.2-.4-.3-.6-.3s-.4,0-.5.3c0,.1-.2.4-.3.9-.2.6-.3,1.1-.4,1.3s-.3.4-.5.6c-.2.1-.4.2-.7.2s-.4,0-.6-.2c-.2-.1-.4-.3-.5-.4-.1-.1-.2-.3-.3-.6,0-.2-.1-.5-.1-.8,0-.4,0-.8.2-1.1.1-.3.3-.5.5-.7.2-.1.5-.2.8-.3v.9c-.1,0-.4.2-.5.3-.2.2-.2.5-.2.8s0,.7.2.9c.1.2.3.3.5.3s.2,0,.3-.1c0,0,.2-.2.2-.3,0,0,.1-.3.2-.8.2-.6.3-1.1.4-1.3.1-.2.3-.4.5-.6.2-.1.5-.2.8-.2s.6,0,.8.3c.3.2.5.4.6.7.1.3.2.7.2,1.1,0,.7-.1,1.2-.4,1.5-.3.4-.7.6-1.2.7Z"/>
        <path id="ArialMT-296" data-name="ArialMT-29" class="st38" d="M9.3,145v.6c-1.6-1-3.1-1.5-4.7-1.5s-1.2,0-1.8.2c-.5.1-1,.3-1.4.5-.3.1-.8.4-1.5.8v-.6c.8-.6,1.6-1.1,2.5-1.4.7-.3,1.5-.4,2.2-.4s1.7.2,2.5.5c.8.3,1.5.7,2.1,1.2Z"/>
      </g>
    </g>
  </g>
  <g id="patch_3">
    <g class="st8">
      <path class="st25" d="M51.2,345.4h35.4V84.4h-35.4v261Z"/>
    </g>
  </g>
  <g id="patch_4">
    <g class="st12">
      <path class="st25" d="M110.2,345.4h35.4V28.6h-35.4v316.8Z"/>
    </g>
  </g>
  <g id="patch_5">
    <g class="st9">
      <path class="st1" d="M169.2,345.4h35.4v-87.5h-35.4v87.5Z"/>
    </g>
  </g>
  <g id="patch_6">
    <g class="st18">
      <path class="st24" d="M228.1,345.4h35.4v-147.8h-35.4v147.8Z"/>
    </g>
  </g>
  <g id="patch_7">
    <g class="st19">
      <path class="st24" d="M287.1,345.4h35.4v-151.3h-35.4v151.3Z"/>
    </g>
  </g>
  <g id="patch_8">
    <g class="st20">
      <path class="st24" d="M346.1,345.4h35.4v-159h-35.4v159Z"/>
    </g>
  </g>
  <g id="patch_9">
    <g class="st21">
      <path class="st26" d="M405.1,345.4h35.4v-210.6h-35.4v210.6Z"/>
    </g>
  </g>
  <g id="patch_10">
    <g class="st22">
      <path class="st26" d="M464.1,345.4h35.4v-212h-35.4v212Z"/>
    </g>
  </g>
  <g id="patch_11">
    <g class="st23">
      <path class="st26" d="M523.1,345.4h35.4V120.9h-35.4v224.5Z"/>
    </g>
  </g>
  <g id="patch_12">
    <path class="st3" d="M25.8,345.4V12.7"/>
  </g>
  <g id="patch_13">
    <path class="st3" d="M583.8,345.4V12.7"/>
  </g>
  <g id="patch_14">
    <path class="st3" d="M25.8,345.4h558"/>
  </g>
  <g id="patch_15">
    <path class="st3" d="M25.8,12.7h558"/>
  </g>
  <g id="legend_1">
    <g id="patch_16">
      <path class="st5" d="M402.7,92.8h171.9c2.2,0,3.3-.7,3.3-2V20.8c0-1.3-1.1-2-3.3-2h-171.9c-2.2,0-3.3.7-3.3,2v70c0,1.3,1.1,2,3.3,2Z"/>
    </g>
    <g id="patch_17">
      <path class="st39" d="M403.4,44.2h20v-7h-20v7Z"/>
    </g>
    <g id="patch_18">
      <path class="st0" d="M403.4,58.5h20v-7h-20v7Z"/>
    </g>
    <g id="patch_19">
      <path class="st27" d="M403.4,72.6h20v-7h-20v7Z"/>
    </g>
    <g id="patch_20">
      <path class="st28" d="M403.4,86.8h20v-7h-20v7Z"/>
    </g>
    <text class="st7" transform="translate(431.2 86.8)"><tspan x="0" y="0">Qwen2-VL (Avg. of main runs)</tspan></text>
    <text class="st7" transform="translate(431.2 72.6)"><tspan x="0" y="0">Qwen2.5-VL (Avg. of main runs)</tspan></text>
    <text class="st7" transform="translate(431.2 58.5)"><tspan x="0" y="0">Computer Vision</tspan></text>
    <text class="st7" transform="translate(431.2 44.2)"><tspan x="0" y="0">Human</tspan></text>
    <text class="st7" transform="translate(454.9 31.1)"><tspan x="0" y="0">Annotator Type</tspan></text>
  </g>
  <text class="st40" transform="translate(110 8.6)"><tspan x="0" y="0">Time Taken by Each Annotation Attempt to Classify 1442 Thumbnails</tspan></text>
</svg>